<svg width="36" height="36" viewBox="0 0 36 36" fill="none" xmlns="http://www.w3.org/2000/svg">
<g clip-path="url(#clip0_9596_28268)">
<path fill-rule="evenodd" clip-rule="evenodd" d="M20.379 3C21.0833 3.00017 21.7651 3.24815 22.305 3.7005L22.5 3.879L29.121 10.5C29.619 10.998 29.9259 11.6554 29.988 12.357L30 12.621V30C30.0002 30.7569 29.7144 31.4858 29.1998 32.0408C28.6851 32.5958 27.9797 32.9357 27.225 32.9925L27 33H9C8.24314 33.0002 7.51415 32.7144 6.95918 32.1998C6.40421 31.6851 6.06427 30.9797 6.0075 30.225L6 30V6C5.99976 5.24314 6.28561 4.51415 6.80025 3.95918C7.31488 3.40421 8.02027 3.06426 8.775 3.0075L9 3H20.379ZM18 6H9V30H27V15H20.25C19.6907 15 19.1514 14.7916 18.7374 14.4156C18.3233 14.0395 18.0642 13.5227 18.0105 12.966L18 12.75V6ZM21 6.621V12H26.379L21 6.621Z" fill="#8C8E92"/>
</g>
<defs>
<clipPath id="clip0_9596_28268">
<rect width="36" height="36" fill="white"/>
</clipPath>
</defs>
</svg>
