<svg width="36" height="36" viewBox="0 0 36 36" fill="none" xmlns="http://www.w3.org/2000/svg">
<path d="M16.875 20.25H14.625C14.3266 20.25 14.0405 20.3685 13.8295 20.5795C13.6185 20.7905 13.5 21.0766 13.5 21.375V29.25C13.5 29.5484 13.6185 29.8345 13.8295 30.0455C14.0405 30.2565 14.3266 30.375 14.625 30.375C14.9234 30.375 15.2095 30.2565 15.4205 30.0455C15.6315 29.8345 15.75 29.5484 15.75 29.25V28.125H16.875C17.9193 28.125 18.9208 27.7102 19.6592 26.9717C20.3977 26.2333 20.8125 25.2318 20.8125 24.1875C20.8125 23.1432 20.3977 22.1417 19.6592 21.4033C18.9208 20.6648 17.9193 20.25 16.875 20.25ZM16.875 25.875H15.75V22.5H16.875C17.3226 22.5 17.7518 22.6778 18.0682 22.9943C18.3847 23.3107 18.5625 23.7399 18.5625 24.1875C18.5625 24.6351 18.3847 25.0643 18.0682 25.3807C17.7518 25.6972 17.3226 25.875 16.875 25.875ZM30.375 25.875V28.2473C30.375 28.5371 30.2631 28.8157 30.0628 29.025C29.6711 29.4467 29.1974 29.7839 28.6707 30.0161C28.1441 30.2482 27.5755 30.3703 27 30.375C24.518 30.375 22.5 28.1039 22.5 25.3125C22.5 22.5211 24.518 20.25 27 20.25C27.8272 20.2526 28.6345 20.5034 29.3175 20.97C29.5648 21.1378 29.7352 21.397 29.7914 21.6905C29.8476 21.9841 29.7849 22.2879 29.617 22.5352C29.4492 22.7824 29.19 22.9529 28.8965 23.0091C28.603 23.0653 28.2991 23.0025 28.0519 22.8347C27.7433 22.6191 27.3764 22.5024 27 22.5C25.7597 22.5 24.75 23.7656 24.75 25.3125C24.75 26.8594 25.7597 28.125 27 28.125C27.4059 28.1203 27.7998 27.9869 28.125 27.7439V27C27.8266 27 27.5405 26.8815 27.3295 26.6705C27.1185 26.4595 27 26.1734 27 25.875C27 25.5766 27.1185 25.2905 27.3295 25.0795C27.5405 24.8685 27.8266 24.75 28.125 24.75H29.25C29.5484 24.75 29.8345 24.8685 30.0455 25.0795C30.2565 25.2905 30.375 25.5766 30.375 25.875ZM11.25 21.375V26.7188C11.25 27.6884 10.8648 28.6184 10.1791 29.3041C9.49343 29.9898 8.56345 30.375 7.59375 30.375C6.62405 30.375 5.69407 29.9898 5.00839 29.3041C4.32271 28.6184 3.9375 27.6884 3.9375 26.7188C3.9375 26.4204 4.05603 26.1342 4.267 25.9233C4.47798 25.7123 4.76413 25.5938 5.0625 25.5938C5.36087 25.5938 5.64702 25.7123 5.85799 25.9233C6.06897 26.1342 6.1875 26.4204 6.1875 26.7188C6.1875 27.0917 6.33566 27.4494 6.59938 27.7131C6.8631 27.9768 7.22079 28.125 7.59375 28.125C7.96671 28.125 8.3244 27.9768 8.58812 27.7131C8.85184 27.4494 9 27.0917 9 26.7188V21.375C9 21.0766 9.11853 20.7905 9.3295 20.5795C9.54048 20.3685 9.82663 20.25 10.125 20.25C10.4234 20.25 10.7095 20.3685 10.9205 20.5795C11.1315 20.7905 11.25 21.0766 11.25 21.375ZM30.0459 11.5791L22.1709 3.70406C22.0664 3.59962 21.9423 3.51681 21.8057 3.46035C21.6691 3.40389 21.5228 3.37488 21.375 3.375H7.875C7.27826 3.375 6.70597 3.61205 6.28401 4.03401C5.86205 4.45597 5.625 5.02826 5.625 5.625V15.75C5.625 16.0484 5.74353 16.3345 5.9545 16.5455C6.16548 16.7565 6.45163 16.875 6.75 16.875C7.04837 16.875 7.33452 16.7565 7.5455 16.5455C7.75647 16.3345 7.875 16.0484 7.875 15.75V5.625H20.25V12.375C20.25 12.6734 20.3685 12.9595 20.5795 13.1705C20.7905 13.3815 21.0766 13.5 21.375 13.5H28.125V15.75C28.125 16.0484 28.2435 16.3345 28.4545 16.5455C28.6655 16.7565 28.9516 16.875 29.25 16.875C29.5484 16.875 29.8345 16.7565 30.0455 16.5455C30.2565 16.3345 30.375 16.0484 30.375 15.75V12.375C30.3751 12.2272 30.3461 12.0809 30.2897 11.9443C30.2332 11.8077 30.1504 11.6836 30.0459 11.5791ZM22.5 11.25V7.21547L26.5345 11.25H22.5Z" fill="#8C8E92"/>
</svg>
