<svg width="36" height="36" viewBox="0 0 36 36" fill="none" xmlns="http://www.w3.org/2000/svg">
<path d="M13.5 18.75H15V15.75H16.5C16.925 15.75 17.2815 15.606 17.5695 15.318C17.8575 15.03 18.001 14.674 18 14.25V12.75C18 12.325 17.856 11.9685 17.568 11.6805C17.28 11.3925 16.924 11.249 16.5 11.25H13.5V18.75ZM15 14.25V12.75H16.5V14.25H15ZM19.5 18.75H22.5C22.925 18.75 23.2815 18.606 23.5695 18.318C23.8575 18.03 24.001 17.674 24 17.25V12.75C24 12.325 23.856 11.9685 23.568 11.6805C23.28 11.3925 22.924 11.249 22.5 11.25H19.5V18.75ZM21 17.25V12.75H22.5V17.25H21ZM25.5 18.75H27V15.75H28.5V14.25H27V12.75H28.5V11.25H25.5V18.75ZM12 27C11.175 27 10.4685 26.706 9.8805 26.118C9.2925 25.53 8.999 24.824 9 24V6C9 5.175 9.294 4.4685 9.882 3.8805C10.47 3.2925 11.176 2.999 12 3H30C30.825 3 31.5315 3.294 32.1195 3.882C32.7075 4.47 33.001 5.176 33 6V24C33 24.825 32.706 25.5315 32.118 26.1195C31.53 26.7075 30.824 27.001 30 27H12ZM12 24H30V6H12V24ZM6 33C5.175 33 4.4685 32.706 3.8805 32.118C3.2925 31.53 2.999 30.824 3 30V9H6V30H27V33H6Z" fill="#8C8E92"/>
</svg>
