<svg width="36" height="36" viewBox="0 0 36 36" fill="none" xmlns="http://www.w3.org/2000/svg">
<path d="M8.4375 20.25H6.1875C5.88913 20.25 5.60298 20.3685 5.39201 20.5795C5.18103 20.7905 5.0625 21.0766 5.0625 21.375V29.25C5.0625 29.5484 5.18103 29.8345 5.39201 30.0455C5.60298 30.2565 5.88913 30.375 6.1875 30.375C6.48587 30.375 6.77202 30.2565 6.98299 30.0455C7.19397 29.8345 7.3125 29.5484 7.3125 29.25V28.125H8.4375C9.48179 28.125 10.4833 27.7102 11.2217 26.9717C11.9602 26.2333 12.375 25.2318 12.375 24.1875C12.375 23.1432 11.9602 22.1417 11.2217 21.4033C10.4833 20.6648 9.48179 20.25 8.4375 20.25ZM8.4375 25.875H7.3125V22.5H8.4375C8.88505 22.5 9.31428 22.6778 9.63074 22.9943C9.94721 23.3107 10.125 23.74 10.125 24.1875C10.125 24.6351 9.94721 25.0643 9.63074 25.3807C9.31428 25.6972 8.88505 25.875 8.4375 25.875ZM31.5 28.2473C31.5 28.5371 31.3881 28.8157 31.1878 29.025C30.7961 29.4467 30.3224 29.7839 29.7957 30.0161C29.2691 30.2482 28.7005 30.3703 28.125 30.375C25.643 30.375 23.625 28.1039 23.625 25.3125C23.625 22.5211 25.643 20.25 28.125 20.25C28.9519 20.2528 29.7591 20.5031 30.4425 20.9686C30.69 21.1364 30.8606 21.3957 30.9169 21.6893C30.9732 21.983 30.9106 22.287 30.7427 22.5345C30.5749 22.7819 30.3156 22.9526 30.022 23.0089C29.7283 23.0652 29.4243 23.0025 29.1769 22.8347C28.8683 22.6191 28.5014 22.5024 28.125 22.5C26.8847 22.5 25.875 23.7656 25.875 25.3125C25.875 26.8594 26.8847 28.125 28.125 28.125C28.5312 28.1205 28.9253 27.9865 29.25 27.7425V27C28.9516 27 28.6655 26.8815 28.4545 26.6705C28.2435 26.4595 28.125 26.1734 28.125 25.875C28.125 25.5766 28.2435 25.2905 28.4545 25.0795C28.6655 24.8685 28.9516 24.75 29.25 24.75H30.375C30.6734 24.75 30.9595 24.8685 31.1705 25.0795C31.3815 25.2905 31.5 25.5766 31.5 25.875V28.2473ZM21.9375 21.375V29.25C21.9375 29.4884 21.8618 29.7207 21.7213 29.9133C21.5808 30.1059 21.3827 30.2488 21.1556 30.3216C21.0448 30.3572 20.929 30.3753 20.8125 30.375C20.6334 30.375 20.4569 30.3323 20.2977 30.2503C20.1385 30.1684 20.0011 30.0496 19.897 29.9039L16.3125 24.8906V29.25C16.3125 29.5484 16.194 29.8345 15.983 30.0455C15.772 30.2565 15.4859 30.375 15.1875 30.375C14.8891 30.375 14.603 30.2565 14.392 30.0455C14.181 29.8345 14.0625 29.5484 14.0625 29.25V21.375C14.0625 21.1366 14.1382 20.9044 14.2787 20.7119C14.4192 20.5193 14.6172 20.3764 14.8442 20.3036C15.0712 20.2309 15.3154 20.2321 15.5416 20.3072C15.7679 20.3822 15.9644 20.5271 16.103 20.7211L19.6875 25.7344V21.375C19.6875 21.0766 19.806 20.7905 20.017 20.5795C20.228 20.3685 20.5141 20.25 20.8125 20.25C21.1109 20.25 21.397 20.3685 21.608 20.5795C21.819 20.7905 21.9375 21.0766 21.9375 21.375ZM6.75 16.875C7.04837 16.875 7.33452 16.7565 7.5455 16.5455C7.75647 16.3345 7.875 16.0484 7.875 15.75V5.625H20.25V12.375C20.25 12.6734 20.3685 12.9595 20.5795 13.1705C20.7905 13.3815 21.0766 13.5 21.375 13.5H28.125V15.75C28.125 16.0484 28.2435 16.3345 28.4545 16.5455C28.6655 16.7565 28.9516 16.875 29.25 16.875C29.5484 16.875 29.8345 16.7565 30.0455 16.5455C30.2565 16.3345 30.375 16.0484 30.375 15.75V12.375C30.3751 12.2272 30.3461 12.0809 30.2897 11.9443C30.2332 11.8077 30.1504 11.6836 30.0459 11.5791L22.1709 3.70406C22.0664 3.59962 21.9423 3.51681 21.8057 3.46035C21.6691 3.40389 21.5228 3.37488 21.375 3.375H7.875C7.27826 3.375 6.70597 3.61205 6.28401 4.03401C5.86205 4.45597 5.625 5.02826 5.625 5.625V15.75C5.625 16.0484 5.74353 16.3345 5.95451 16.5455C6.16548 16.7565 6.45163 16.875 6.75 16.875ZM22.5 7.21547L26.5345 11.25H22.5V7.21547Z" fill="#8C8E92"/>
</svg>
