<svg width="40" height="40" viewBox="0 0 40 40" fill="none" xmlns="http://www.w3.org/2000/svg">
<path d="M17.586 15.3432L19.7073 13.2219C20.1716 12.7576 20.7228 12.3893 21.3295 12.138C21.9361 11.8867 22.5863 11.7574 23.2429 11.7574C23.8995 11.7574 24.5497 11.8867 25.1563 12.138C25.7629 12.3893 26.3141 12.7576 26.7784 13.2219C27.2427 13.6862 27.611 14.2373 27.8623 14.844C28.1135 15.4506 28.2429 16.1008 28.2429 16.7574C28.2429 17.414 28.1135 18.0642 27.8623 18.6708C27.611 19.2774 27.2427 19.8286 26.7784 20.2929L24.6571 22.4142M20.4144 26.6569L18.2931 28.7782C17.8288 29.2425 17.2776 29.6108 16.671 29.8621C16.0644 30.1133 15.4142 30.2427 14.7576 30.2427C13.4315 30.2427 12.1597 29.7159 11.2221 28.7782C10.2844 27.8405 9.75759 26.5688 9.75759 25.2427C9.75759 23.9166 10.2844 22.6448 11.2221 21.7071L13.3434 19.5858" stroke="#9DA6C4" stroke-width="1.5" stroke-linecap="round" stroke-linejoin="round"/>
<path d="M16.1714 23.8284L21.8282 18.1716" stroke="#9DA6C4" stroke-width="1.5" stroke-linecap="round" stroke-linejoin="round"/>
</svg>
