<svg width="24" height="24" viewBox="0 0 24 24" fill="none" xmlns="http://www.w3.org/2000/svg">
<path d="M16.3064 1.5225C16.4994 1.57068 16.6653 1.6935 16.7676 1.86396C16.87 2.03442 16.9005 2.23856 16.8524 2.4315L16.4774 3.9315C16.4555 4.02901 16.4143 4.12116 16.3562 4.20252C16.2982 4.28388 16.2244 4.35281 16.1393 4.40526C16.0543 4.45772 15.9596 4.49264 15.8608 4.50797C15.762 4.5233 15.6612 4.51874 15.5642 4.49454C15.4672 4.47035 15.3761 4.42701 15.2961 4.36708C15.2161 4.30715 15.1489 4.23183 15.0984 4.14556C15.0479 4.05929 15.0152 3.96379 15.0022 3.8647C14.9891 3.7656 14.996 3.66489 15.0225 3.5685L15.3975 2.0685C15.4456 1.87558 15.5685 1.7097 15.7389 1.60731C15.9094 1.50492 16.1135 1.47442 16.3064 1.5225ZM20.781 3.219C20.8508 3.28867 20.9062 3.37143 20.944 3.46255C20.9818 3.55367 21.0013 3.65135 21.0013 3.75C21.0013 3.84865 20.9818 3.94633 20.944 4.03745C20.9062 4.12857 20.8508 4.21133 20.781 4.281L19.281 5.781C19.2112 5.85073 19.1284 5.90604 19.0373 5.94378C18.9462 5.98152 18.8486 6.00095 18.75 6.00095C18.6513 6.00095 18.5537 5.98152 18.4626 5.94378C18.3715 5.90604 18.2887 5.85073 18.219 5.781C18.1492 5.71127 18.0939 5.62848 18.0562 5.53737C18.0184 5.44626 17.999 5.34861 17.999 5.25C17.999 5.15138 18.0184 5.05373 18.0562 4.96262C18.0939 4.87151 18.1492 4.78873 18.219 4.719L19.719 3.219C19.7886 3.14915 19.8714 3.09374 19.9625 3.05593C20.0536 3.01812 20.1513 2.99866 20.25 2.99866C20.3486 2.99866 20.4463 3.01812 20.5374 3.05593C20.6285 3.09374 20.7113 3.14915 20.781 3.219ZM9.42595 19.548C9.80254 20.1741 10.3947 20.6413 11.0913 20.8619C11.7879 21.0824 12.541 21.0412 13.2093 20.7458C13.8776 20.4505 14.4152 19.9215 14.7212 19.2579C15.0271 18.5944 15.0804 17.842 14.8709 17.142L9.42595 19.548ZM8.04595 20.1585L6.54895 20.82C6.16192 20.9915 5.7321 21.042 5.31586 20.9649C4.89962 20.8878 4.5164 20.6867 4.21645 20.388L3.61645 19.788C3.31756 19.4904 3.11565 19.1094 3.03721 18.695C2.95878 18.2806 3.00749 17.8522 3.17695 17.466L8.98345 4.2525C9.12118 3.94062 9.33278 3.66696 9.59996 3.45517C9.86715 3.24338 10.1819 3.09983 10.517 3.03692C10.852 2.97401 11.1974 2.99363 11.5232 3.09408C11.849 3.19454 12.1455 3.37281 12.387 3.6135L20.385 11.5875C20.6259 11.8278 20.8046 12.1233 20.9056 12.4483C21.0065 12.7732 21.0267 13.1179 20.9643 13.4525C20.902 13.787 20.759 14.1013 20.5477 14.3681C20.3364 14.6349 20.0633 14.8461 19.7519 14.9835L16.2495 16.5315C16.6197 17.5985 16.5752 18.7658 16.1247 19.8015C15.6742 20.8372 14.8507 21.6656 13.8178 22.1223C12.7848 22.579 11.6178 22.6306 10.5486 22.2668C9.47937 21.903 8.58603 21.1504 8.04595 20.1585ZM21.75 7.5H20.25C20.051 7.5 19.8603 7.57902 19.7196 7.71967C19.579 7.86032 19.5 8.05109 19.5 8.25C19.5 8.44891 19.579 8.63968 19.7196 8.78033C19.8603 8.92098 20.051 9 20.25 9H21.75C21.9489 9 22.1396 8.92098 22.2803 8.78033C22.4209 8.63968 22.5 8.44891 22.5 8.25C22.5 8.05109 22.4209 7.86032 22.2803 7.71967C22.1396 7.57902 21.9489 7.5 21.75 7.5Z" fill="#9DA6C4"/>
</svg>
