<svg width="24" height="24" viewBox="0 0 24 24" fill="none" xmlns="http://www.w3.org/2000/svg">
<g id="material-symbols:view-list">
<path id="Vector" d="M9 20H20C20.55 20 21.021 19.804 21.413 19.412C21.805 19.02 22.0007 18.5493 22 18V16H9V20ZM2 8H7V4H4C3.45 4 2.979 4.196 2.587 4.588C2.195 4.98 1.99934 5.45067 2 6V8ZM2 14H7V10H2V14ZM4 20H7V16H2V18C2 18.55 2.196 19.021 2.588 19.413C2.98 19.805 3.45067 20.0007 4 20ZM9 14H22V10H9V14ZM9 8H22V6C22 5.45 21.804 4.979 21.412 4.587C21.02 4.195 20.5493 3.99934 20 4H9V8Z" fill="#9DA6C4"/>
</g>
</svg>
