<svg width="21" height="21" viewBox="0 0 21 21" fill="none" xmlns="http://www.w3.org/2000/svg">
<g id="search" opacity="0.5">
<path id="icon" fill-rule="evenodd" clip-rule="evenodd" d="M8.79945 3.88965C11.7818 3.88965 14.1995 6.30731 14.1995 9.28965C14.1995 10.8008 13.58 12.1656 12.5786 13.1468C11.6036 14.1022 10.2711 14.6896 8.79945 14.6896C5.81712 14.6896 3.39945 12.272 3.39945 9.28965C3.39945 6.30731 5.81712 3.88965 8.79945 3.88965ZM16.1995 9.28965C16.1995 5.20274 12.8864 1.88965 8.79945 1.88965C4.71255 1.88965 1.39945 5.20274 1.39945 9.28965C1.39945 13.3766 4.71255 16.6896 8.79945 16.6896C10.4612 16.6896 11.9962 16.141 13.2313 15.2162L16.9853 18.9025C17.3794 19.2895 18.0125 19.2837 18.3995 18.8896C18.7864 18.4956 18.7806 17.8624 18.3866 17.4755L14.6566 13.8127C15.6232 12.5624 16.1995 10.9927 16.1995 9.28965Z" fill="#3A4E8A"/>
</g>
</svg>
