<svg width="22" height="22" viewBox="0 0 22 22" fill="none" xmlns="http://www.w3.org/2000/svg">
<path d="M21.653 9.58978C21.6246 9.39616 21.5272 9.21932 21.3787 9.09186C21.2302 8.96441 21.0407 8.89492 20.845 8.89622H19.3009L19.2082 8.5719C19.0311 7.99597 18.8013 7.43762 18.5216 6.90394L18.3773 6.61502L19.4303 5.56201C19.5707 5.42141 19.6553 5.23459 19.6683 5.0363C19.6812 4.83802 19.6217 4.64177 19.5008 4.48408C18.9269 3.74167 18.258 3.07781 17.5112 2.50951C17.3535 2.38778 17.1569 2.32751 16.958 2.33992C16.7592 2.35233 16.5716 2.43658 16.4302 2.57699L15.3692 3.63797L15.0711 3.46401C14.5469 3.17934 13.993 2.95317 13.4193 2.78957L13.1033 2.69254V1.17391C13.103 0.977782 13.0324 0.788268 12.9042 0.639821C12.776 0.491374 12.5988 0.393852 12.4048 0.364984C11.9398 0.295183 11.4703 0.259401 11 0.257923C10.5285 0.255758 10.0574 0.28553 9.58984 0.347035C9.39622 0.375392 9.21938 0.472792 9.09192 0.621277C8.96446 0.769762 8.89498 0.95932 8.89628 1.155V2.69953L8.57152 2.7922C7.99555 2.96919 7.43707 3.19876 6.90313 3.478L6.61465 3.62224L5.56157 2.56947C5.42098 2.42909 5.23418 2.34455 5.03593 2.33158C4.83767 2.31862 4.64145 2.37811 4.48378 2.49899C3.7412 3.0728 3.07731 3.7418 2.50921 4.48875C2.38756 4.64649 2.32735 4.84306 2.33979 5.04187C2.35224 5.24068 2.43648 5.42821 2.57685 5.56955L3.63803 6.63076L3.46407 6.92886C3.17969 7.45311 2.95339 8.00684 2.7892 8.58021L2.69172 8.89622H1.17391C0.977737 8.89652 0.788182 8.96722 0.639721 9.09546C0.49126 9.22369 0.393753 9.40096 0.364934 9.595C0.295256 10.0601 0.259511 10.5297 0.257981 11C0.255841 11.4714 0.285549 11.9425 0.346903 12.4099C0.375206 12.6036 0.472587 12.7805 0.621083 12.908C0.769579 13.0355 0.959174 13.105 1.1549 13.1037H2.69872L2.79138 13.428C2.96849 14.0039 3.19835 14.5623 3.47806 15.096L3.6223 15.3849L2.56931 16.4379C2.42888 16.5785 2.34431 16.7653 2.33134 16.9636C2.31836 17.1619 2.37787 17.3581 2.49878 17.5158C3.07272 18.2582 3.74163 18.9221 4.48838 19.4904C4.64612 19.6121 4.84271 19.6724 5.04158 19.66C5.24044 19.6476 5.42802 19.5633 5.56939 19.4229L6.63038 18.3619L6.92848 18.5359C7.45279 18.8204 8.00669 19.0465 8.58026 19.2103L8.89628 19.3074V20.826C8.89656 21.0221 8.96721 21.2116 9.09539 21.3601C9.22357 21.5085 9.40076 21.606 9.59475 21.6349C10.0599 21.7047 10.5296 21.7405 11 21.742C11.4714 21.7442 11.9424 21.7144 12.4098 21.6529C12.6034 21.6245 12.7802 21.5271 12.9077 21.3786C13.0351 21.2301 13.1046 21.0406 13.1033 20.8449V19.3004L13.4281 19.2077C14.0041 19.0307 14.5625 18.8012 15.0965 18.5219L15.385 18.3777L16.438 19.4305C16.5786 19.5708 16.7654 19.6554 16.9637 19.6683C17.1619 19.6813 17.3582 19.6218 17.5158 19.5009C18.2584 18.9271 18.9223 18.2581 19.4904 17.5112C19.6121 17.3534 19.6723 17.1569 19.6598 16.958C19.6474 16.7592 19.5631 16.5717 19.4228 16.4304L18.3616 15.3692L18.5355 15.0711C18.8199 14.5468 19.0462 13.9931 19.2104 13.4197L19.3079 13.1037H20.8259C21.022 13.1034 21.2116 13.0327 21.36 12.9045C21.5085 12.7763 21.606 12.599 21.6348 12.405C21.7047 11.9399 21.7405 11.4703 21.7421 11C21.7442 10.5284 21.7145 10.0573 21.653 9.58978ZM11 16.9371C9.82576 16.9371 8.67786 16.5889 7.7015 15.9365C6.72513 15.2842 5.96414 14.3569 5.51477 13.272C5.0654 12.1871 4.94782 10.9934 5.17691 9.84167C5.40599 8.68996 5.97146 7.63206 6.80179 6.80173C7.63212 5.9714 8.69002 5.40593 9.84173 5.17685C10.9934 4.94776 12.1872 5.06534 13.2721 5.51471C14.357 5.96408 15.2842 6.72507 15.9366 7.70144C16.589 8.6778 16.9372 9.8257 16.9372 11C16.9372 12.5746 16.3117 14.0847 15.1982 15.1982C14.0848 16.3116 12.5747 16.9371 11 16.9371Z" fill="#3A4E8A"/>
<path d="M14.8583 12.3423L12.7457 11.7783L11.0896 12.9868L9.47828 11.7783L7.22694 12.3468C7.10996 12.3782 7.00385 12.4412 6.92019 12.5288C6.83653 12.6164 6.77853 12.7253 6.7525 12.8436L6.64508 13.6447C7.10351 14.4013 7.75118 15.0254 8.52426 15.4555C9.29734 15.8855 10.1691 16.1067 11.0537 16.0972C11.9383 16.0878 12.8052 15.8479 13.5689 15.4014C14.3325 14.9549 14.9667 14.317 15.4088 13.5508L15.3282 12.8525C15.3065 12.7316 15.2507 12.6194 15.1675 12.529C15.0843 12.4387 14.977 12.3739 14.8583 12.3423Z" fill="#3A4E8A"/>
<path d="M10.7644 11.2029C10.8406 11.2078 11.2026 11.2093 11.2982 11.1969C12.3648 11.0592 12.9562 9.1872 12.9562 8.19573C12.9562 7.67691 12.7501 7.17933 12.3833 6.81247C12.0164 6.4456 11.5188 6.2395 11 6.2395C10.4812 6.2395 9.98359 6.4456 9.61673 6.81247C9.24986 7.17933 9.04376 7.67691 9.04376 8.19573C9.04376 9.20643 9.65835 11.1322 10.7644 11.2029Z" fill="#3A4E8A"/>
</svg>
