<svg width="24" height="24" viewBox="0 0 24 24" fill="none" xmlns="http://www.w3.org/2000/svg">
<path d="M0.75 3H23.25V4.5H0.75V3Z" fill="url(#paint0_linear_13441_47260)"/>
<path d="M4.5 4.5V16.5H19.5V4.5H4.5ZM3 3H21V17.25C21 17.4489 20.921 17.6397 20.7803 17.7803C20.6397 17.921 20.4489 18 20.25 18H3.75C3.55109 18 3.36032 17.921 3.21967 17.7803C3.07902 17.6397 3 17.4489 3 17.25V3Z" fill="url(#paint1_linear_13441_47260)"/>
<path d="M7.55131 22.5H5.82031L9.21031 16.6275L10.5093 17.3775L7.55131 22.5ZM18.1893 22.5H16.4583L13.5003 17.3775L14.7993 16.6275L18.1893 22.5Z" fill="url(#paint2_linear_13441_47260)"/>
<defs>
<linearGradient id="paint0_linear_13441_47260" x1="0.423913" y1="4.5" x2="14.2527" y2="-7.42963" gradientUnits="userSpaceOnUse">
<stop stop-color="#6AB1FE"/>
<stop offset="1" stop-color="#2B89EF"/>
</linearGradient>
<linearGradient id="paint1_linear_13441_47260" x1="2.73913" y1="18" x2="21.9437" y2="16.6746" gradientUnits="userSpaceOnUse">
<stop stop-color="#6AB1FE"/>
<stop offset="1" stop-color="#2B89EF"/>
</linearGradient>
<linearGradient id="paint2_linear_13441_47260" x1="5.64105" y1="22.5" x2="18.7089" y2="20.9171" gradientUnits="userSpaceOnUse">
<stop stop-color="#6AB1FE"/>
<stop offset="1" stop-color="#2B89EF"/>
</linearGradient>
</defs>
</svg>
