<svg width="48" height="48" viewBox="0 0 48 48" fill="none" xmlns="http://www.w3.org/2000/svg">
<rect x="0.5" y="0.5" width="47" height="47" rx="11.5" fill="#6C7AA7" stroke="#DFE3E7"/>
<rect width="24" height="24" transform="translate(12 12)" fill="#6C7AA7"/>
<path fill-rule="evenodd" clip-rule="evenodd" d="M20.8777 18.3786C20.8777 20.2452 19.3389 21.7582 17.4389 21.7582C15.54 21.7582 14 20.2452 14 18.3786C14 16.513 15.54 15 17.4389 15C19.3389 15 20.8777 16.513 20.8777 18.3786ZM32.4933 16.8983C33.3244 16.8983 34 17.562 34 18.3786C34 19.1962 33.3244 19.8599 32.4933 19.8599H25.9178C25.0856 19.8599 24.4101 19.1962 24.4101 18.3786C24.4101 17.562 25.0856 16.8983 25.9178 16.8983H32.4933ZM15.5078 27.958H22.0833C22.9155 27.958 23.5911 28.6217 23.5911 29.4393C23.5911 30.2558 22.9155 30.9206 22.0833 30.9206H15.5078C14.6756 30.9206 14 30.2558 14 29.4393C14 28.6217 14.6756 27.958 15.5078 27.958ZM30.5611 32.7778C32.4611 32.7778 34 31.2648 34 29.3992C34 27.5325 32.4611 26.0196 30.5611 26.0196C28.6623 26.0196 27.1223 27.5325 27.1223 29.3992C27.1223 31.2648 28.6623 32.7778 30.5611 32.7778Z" fill="white"/>
</svg>
