<svg width="21" height="21" viewBox="0 0 21 21" fill="none" xmlns="http://www.w3.org/2000/svg">
<path d="M9.89189 0.74416C9.89189 0.333172 10.2186 0 10.6216 0C11.0246 0 11.3514 0.333172 11.3514 0.74416V1.571H19.2162C19.5745 1.571 19.8649 1.86716 19.8649 2.23248V13.3122H1.21622V2.23248C1.21622 1.86716 1.50663 1.571 1.86486 1.571H9.89189V0.74416Z" fill="black"/>
<path d="M0.689189 14.4698C0.308561 14.4698 0 14.7844 0 15.1726C0 15.5608 0.308561 15.8754 0.68919 15.8754H9.03873L5.19003 19.8002C4.92089 20.0747 4.92089 20.5197 5.19003 20.7942C5.45918 21.0686 5.89555 21.0686 6.16469 20.7941L10.5202 16.3525L14.8757 20.7941C15.1448 21.0686 15.5812 21.0686 15.8503 20.7942C16.1195 20.5197 16.1195 20.0747 15.8503 19.8002L12.0017 15.8754H20.3108C20.6914 15.8754 21 15.5608 21 15.1726C21 14.7844 20.6914 14.4698 20.3108 14.4698H0.689189Z" fill="black"/>
</svg>
