<svg width="16" height="16" viewBox="0 0 16 16" fill="none" xmlns="http://www.w3.org/2000/svg">
    <g clip-path="url(#clip0_9199_26146)">
        <path d="M8.68667 1.24665L1.36 0.13332C1.02 0.079987 0.673333 0.17332 0.413333 0.39332C0.153333 0.619987 0 0.946654 0 1.28665V15.3333C0 15.7 0.3 16 0.666667 16H2.83333V12.5C2.83333 11.8533 3.35333 11.3333 4 11.3333H5.66667C6.31333 11.3333 6.83333 11.8533 6.83333 12.5V16H9.66667V2.39999C9.66667 1.82665 9.25333 1.33999 8.68667 1.24665ZM3.66667 9.83332H2.66667C2.39067 9.83332 2.16667 9.60932 2.16667 9.33332C2.16667 9.05732 2.39067 8.83332 2.66667 8.83332H3.66667C3.94267 8.83332 4.16667 9.05732 4.16667 9.33332C4.16667 9.60932 3.94267 9.83332 3.66667 9.83332ZM3.66667 7.83332H2.66667C2.39067 7.83332 2.16667 7.60932 2.16667 7.33332C2.16667 7.05732 2.39067 6.83332 2.66667 6.83332H3.66667C3.94267 6.83332 4.16667 7.05732 4.16667 7.33332C4.16667 7.60932 3.94267 7.83332 3.66667 7.83332ZM3.66667 5.83332H2.66667C2.39067 5.83332 2.16667 5.60932 2.16667 5.33332C2.16667 5.05732 2.39067 4.83332 2.66667 4.83332H3.66667C3.94267 4.83332 4.16667 5.05732 4.16667 5.33332C4.16667 5.60932 3.94267 5.83332 3.66667 5.83332ZM3.66667 3.83332H2.66667C2.39067 3.83332 2.16667 3.60932 2.16667 3.33332C2.16667 3.05732 2.39067 2.83332 2.66667 2.83332H3.66667C3.94267 2.83332 4.16667 3.05732 4.16667 3.33332C4.16667 3.60932 3.94267 3.83332 3.66667 3.83332ZM7 9.83332H6C5.724 9.83332 5.5 9.60932 5.5 9.33332C5.5 9.05732 5.724 8.83332 6 8.83332H7C7.276 8.83332 7.5 9.05732 7.5 9.33332C7.5 9.60932 7.276 9.83332 7 9.83332ZM7 7.83332H6C5.724 7.83332 5.5 7.60932 5.5 7.33332C5.5 7.05732 5.724 6.83332 6 6.83332H7C7.276 6.83332 7.5 7.05732 7.5 7.33332C7.5 7.60932 7.276 7.83332 7 7.83332ZM7 5.83332H6C5.724 5.83332 5.5 5.60932 5.5 5.33332C5.5 5.05732 5.724 4.83332 6 4.83332H7C7.276 4.83332 7.5 5.05732 7.5 5.33332C7.5 5.60932 7.276 5.83332 7 5.83332ZM7 3.83332H6C5.724 3.83332 5.5 3.60932 5.5 3.33332C5.5 3.05732 5.724 2.83332 6 2.83332H7C7.276 2.83332 7.5 3.05732 7.5 3.33332C7.5 3.60932 7.276 3.83332 7 3.83332Z" fill="url(#paint0_linear_9199_26146)"/>
        <path d="M15.0802 7.22813L10.3335 6.23413V16.0001H14.8335C15.4768 16.0001 16.0002 15.4768 16.0002 14.8335V8.36813C16.0002 7.81746 15.6248 7.3488 15.0802 7.22813ZM13.5002 14.0001H12.5002C12.2242 14.0001 12.0002 13.7761 12.0002 13.5001C12.0002 13.2241 12.2242 13.0001 12.5002 13.0001H13.5002C13.7762 13.0001 14.0002 13.2241 14.0002 13.5001C14.0002 13.7761 13.7762 14.0001 13.5002 14.0001ZM13.5002 12.0001H12.5002C12.2242 12.0001 12.0002 11.7761 12.0002 11.5001C12.0002 11.2241 12.2242 11.0001 12.5002 11.0001H13.5002C13.7762 11.0001 14.0002 11.2241 14.0002 11.5001C14.0002 11.7761 13.7762 12.0001 13.5002 12.0001ZM13.5002 10.0001H12.5002C12.2242 10.0001 12.0002 9.77613 12.0002 9.50013C12.0002 9.22413 12.2242 9.00013 12.5002 9.00013H13.5002C13.7762 9.00013 14.0002 9.22413 14.0002 9.50013C14.0002 9.77613 13.7762 10.0001 13.5002 10.0001Z" fill="url(#paint1_linear_9199_26146)"/>
    </g>
    <defs>
        <linearGradient id="paint0_linear_9199_26146" x1="-0.140097" y1="16" x2="10.2099" y2="15.6377" gradientUnits="userSpaceOnUse">
            <stop stop-color="#6AB1FE"/>
            <stop offset="1" stop-color="#2B89EF"/>
        </linearGradient>
        <linearGradient id="paint1_linear_9199_26146" x1="10.2514" y1="16.0001" x2="16.3193" y2="15.7976" gradientUnits="userSpaceOnUse">
            <stop stop-color="#6AB1FE"/>
            <stop offset="1" stop-color="#2B89EF"/>
        </linearGradient>
        <clipPath id="clip0_9199_26146">
            <rect width="16" height="16" fill="white"/>
        </clipPath>
    </defs>
</svg>
