<svg width="12" height="14" viewBox="0 0 12 14" fill="none" xmlns="http://www.w3.org/2000/svg">
<path fill-rule="evenodd" clip-rule="evenodd" d="M9.00002 0.811326V1.47831C9.3107 1.50894 9.61802 1.57097 9.91776 1.66387V1.65912C9.93507 1.66698 9.94829 1.67165 9.97097 1.67967L9.97099 1.67967L9.97495 1.68107C9.98547 1.6848 9.9953 1.68852 10.005 1.6922C10.0185 1.69731 10.0318 1.70235 10.0464 1.70718C10.1097 1.72793 10.1688 1.75238 10.2296 1.77754L10.2403 1.78194C10.2684 1.7918 10.2948 1.80403 10.3187 1.81505L10.3409 1.82525C10.3913 1.84721 10.4427 1.87331 10.4839 1.89527C10.5114 1.90952 10.5381 1.92477 10.5632 1.93907C10.5768 1.9468 10.5898 1.95426 10.6023 1.96113C10.6228 1.97244 10.6406 1.98455 10.6577 1.99619C10.6702 2.00469 10.6824 2.01294 10.6949 2.02046C10.8676 2.132 11.0289 2.26254 11.1747 2.40909L11.1799 2.41799C11.2336 2.47198 11.2845 2.52894 11.332 2.58887L11.336 2.59717C11.8032 3.24331 12.0365 4.03955 11.9953 4.84589V5.10398H11.0724V4.83936C11.0918 4.36351 10.9963 3.89003 10.7939 3.46225C10.5994 3.09616 10.2883 2.81196 9.91262 2.65769C9.62169 2.53245 9.31398 2.45324 9.00002 2.4228V2.91235C9.00002 3.17707 8.78522 3.39149 8.52002 3.39149C8.25482 3.39149 8.04002 3.17707 8.04002 2.91235V2.38772H3.96467V1.43425H8.04002V0.816117C8.03762 0.551393 8.25122 0.335182 8.51642 0.333385C8.78162 0.331589 8.99822 0.544206 9.00002 0.80893V0.811326ZM3 2.43023V2.91477C3 3.18064 3.21446 3.39621 3.4797 3.39621C3.74494 3.39621 3.96 3.18064 3.96 2.91477V0.818939C3.96 0.553068 3.74494 0.338096 3.4797 0.338096C3.21446 0.338096 3 0.553068 3 0.818939V1.48128C2.6916 1.51164 2.38657 1.57401 2.08953 1.66623V1.66267C2.08039 1.66652 2.07178 1.66948 2.06352 1.67232L2.06351 1.67232L2.06351 1.67232C2.05265 1.67605 2.04241 1.67957 2.03234 1.68463C2.00775 1.69056 1.98373 1.69946 1.96086 1.71073C1.89338 1.73269 1.8259 1.75879 1.76242 1.78549C1.74555 1.79202 1.72868 1.79958 1.71182 1.80715L1.71181 1.80715L1.71181 1.80715C1.69494 1.81472 1.67807 1.82228 1.6612 1.82881C1.63804 1.83978 1.61388 1.8518 1.58972 1.86381C1.56556 1.87583 1.5414 1.88784 1.51824 1.89882L1.40386 1.96468C1.38272 1.97546 1.36315 1.98811 1.34318 2.00101L1.34317 2.00102L1.34317 2.00102L1.34317 2.00102L1.34317 2.00102L1.34316 2.00102C1.33127 2.00871 1.31924 2.01648 1.30665 2.02401C1.13451 2.13496 0.974965 2.2649 0.830855 2.41264L0.822277 2.42154C0.803352 2.4436 0.784507 2.46501 0.765917 2.48612L0.765909 2.48613L0.765902 2.48614C0.734501 2.52181 0.703829 2.55665 0.674736 2.59242L0.666158 2.60073C0.198374 3.24627 -0.0360904 4.04192 0.00451188 4.84825V5.10398H0.928072V4.84588C0.928072 3.72212 1.28606 3.02258 2.08266 2.66421C2.37592 2.54011 2.68511 2.46176 3 2.43023ZM0 5.10399V10.2735C0 12.5278 1.25894 13.6667 3.74821 13.6667H8.24607C10.7411 13.6667 12 12.5278 12 10.2735V5.10399H0ZM3.25608 8.54442C2.95279 8.54442 2.70672 8.29066 2.70672 7.9779C2.70672 7.66513 2.95279 7.40547 3.25608 7.40547H3.2618C3.55937 7.40547 3.80544 7.65923 3.80544 7.97199C3.81116 8.28476 3.56509 8.54442 3.25608 8.54442ZM6.00287 8.54442C5.69957 8.54442 5.44779 8.29066 5.44779 7.9779C5.44779 7.66513 5.69385 7.41138 5.99714 7.40547H6.00287C6.30616 7.41138 6.55222 7.66513 6.55222 7.97199C6.55222 8.29066 6.30616 8.54442 6.00287 8.54442ZM8.19457 7.9779C8.19457 8.29066 8.44063 8.54442 8.74392 8.54442C9.04721 8.54442 9.29328 8.29066 9.29328 7.9779C9.29328 7.66513 9.04721 7.41138 8.74392 7.41138C8.43491 7.41138 8.19457 7.66513 8.19457 7.9779ZM8.18884 10.3974C8.19456 10.7102 8.44063 10.9639 8.74392 10.9639C9.04721 10.9639 9.29328 10.7102 9.29328 10.3974C9.29328 10.0846 9.04721 9.83089 8.74392 9.83089H8.7382C8.43491 9.83089 8.18884 10.0846 8.18884 10.3974ZM5.44779 10.3974C5.44779 10.7102 5.69957 10.9639 6.00287 10.9639C6.30616 10.9639 6.55222 10.7102 6.55222 10.3915C6.5465 10.0846 6.30616 9.83089 6.00287 9.82499H5.99714C5.69385 9.83089 5.44779 10.0846 5.44779 10.3974ZM2.70672 10.3974C2.70672 10.7102 2.95279 10.9639 3.25608 10.9639C3.55937 10.9639 3.80544 10.7043 3.80544 10.3915C3.80544 10.0787 3.55937 9.82499 3.25608 9.82499C2.94707 9.82499 2.701 10.0846 2.70672 10.3974Z" fill="url(#paint0_linear)"/>
<defs>
<linearGradient id="paint0_linear" x1="-0.173913" y1="13.6667" x2="12.6558" y2="13.0026" gradientUnits="userSpaceOnUse">
<stop stop-color="#6AB1FE"/>
<stop offset="1" stop-color="#2B89EF"/>
</linearGradient>
</defs>
</svg>
