<svg width="36" height="36" viewBox="0 0 36 36" fill="none" xmlns="http://www.w3.org/2000/svg">
<rect width="36" height="36" rx="8" fill="white" fill-opacity="0.12"/>
<rect x="0.5" y="0.5" width="35" height="35" rx="7.5" stroke="#DFE3E7" stroke-opacity="0.5"/>
<path fill-rule="evenodd" clip-rule="evenodd" d="M14.4133 19.1589C13.876 19.1589 13.4395 18.7224 13.4395 18.1851C13.4395 17.6494 13.876 17.2129 14.4133 17.2129C14.9506 17.2129 15.3871 17.6494 15.3871 18.1851C15.3871 18.7224 14.9506 19.1589 14.4133 19.1589ZM18.199 19.1589C17.6617 19.1589 17.2252 18.7224 17.2252 18.1851C17.2252 17.6494 17.6617 17.2129 18.199 17.2129C18.7363 17.2129 19.1728 17.6494 19.1728 18.1851C19.1728 18.7224 18.7363 19.1589 18.199 19.1589ZM21.0109 18.1851C21.0109 18.7224 21.4474 19.1589 21.9847 19.1589C22.522 19.1589 22.9586 18.7224 22.9586 18.1851C22.9586 17.6494 22.522 17.2129 21.9847 17.2129C21.4474 17.2129 21.0109 17.6494 21.0109 18.1851Z" fill="white"/>
<path fill-rule="evenodd" clip-rule="evenodd" d="M18.017 9.6665C13.1753 9.6665 9.66699 13.6216 9.66699 18.0124C9.66699 19.4145 10.0753 20.8575 10.792 22.1761C10.9253 22.3939 10.942 22.6685 10.8503 22.9281L10.292 24.7975C10.167 25.2482 10.5503 25.5812 10.9753 25.4477L12.6587 24.9478C13.117 24.7975 13.4753 24.9887 13.9003 25.2482C15.117 25.9651 16.6337 26.3332 18.0003 26.3332C22.1337 26.3332 26.3337 23.1367 26.3337 17.9873C26.3337 13.5465 22.7503 9.6665 18.017 9.6665Z" stroke="white" stroke-width="1.5" stroke-linecap="round" stroke-linejoin="round"/>
</svg>
