<svg width="16" height="16" viewBox="0 0 16 16" fill="none" xmlns="http://www.w3.org/2000/svg">
<g opacity="0.7">
<path fill-rule="evenodd" clip-rule="evenodd" d="M8.01301 1.3335C4.13967 1.3335 1.33301 4.49758 1.33301 8.01018C1.33301 9.13186 1.65967 10.2863 2.23301 11.3412C2.33967 11.5154 2.35301 11.7351 2.27967 11.9427L1.83301 13.4383C1.73301 13.7989 2.03967 14.0653 2.37967 13.9584L3.72634 13.5585C4.09301 13.4383 4.37967 13.5912 4.71967 13.7989C5.69301 14.3724 6.90634 14.6668 7.99967 14.6668C11.3063 14.6668 14.6663 12.1097 14.6663 7.99015C14.6663 4.43749 11.7997 1.3335 8.01301 1.3335Z" fill="url(#paint0_linear_4472_3814)" stroke="url(#paint1_linear_4472_3814)" stroke-width="1.5" stroke-linecap="round" stroke-linejoin="round"/>
<path fill-rule="evenodd" clip-rule="evenodd" d="M5.12963 8.92743C4.69979 8.92743 4.35059 8.57822 4.35059 8.14838C4.35059 7.71981 4.69979 7.37061 5.12963 7.37061C5.55948 7.37061 5.90868 7.71981 5.90868 8.14838C5.90868 8.57822 5.55948 8.92743 5.12963 8.92743ZM8.15817 8.92743C7.72833 8.92743 7.37912 8.57822 7.37912 8.14838C7.37912 7.71981 7.72833 7.37061 8.15817 7.37061C8.58801 7.37061 8.93722 7.71981 8.93722 8.14838C8.93722 8.57822 8.58801 8.92743 8.15817 8.92743ZM10.4077 8.14838C10.4077 8.57822 10.757 8.92743 11.1868 8.92743C11.6166 8.92743 11.9658 8.57822 11.9658 8.14838C11.9658 7.71981 11.6166 7.37061 11.1868 7.37061C10.757 7.37061 10.4077 7.71981 10.4077 8.14838Z" fill="white"/>
</g>
<defs>
<linearGradient id="paint0_linear_4472_3814" x1="1.13977" y1="14.6668" x2="15.386" y2="13.8475" gradientUnits="userSpaceOnUse">
<stop stop-color="#6AB1FE"/>
<stop offset="1" stop-color="#2B89EF"/>
</linearGradient>
<linearGradient id="paint1_linear_4472_3814" x1="1.13977" y1="14.6668" x2="15.386" y2="13.8475" gradientUnits="userSpaceOnUse">
<stop stop-color="#6AB1FE"/>
<stop offset="1" stop-color="#2B89EF"/>
</linearGradient>
</defs>
</svg>
