<svg width="35" height="35" viewBox="0 0 35 35" fill="none" xmlns="http://www.w3.org/2000/svg">
<mask id="path-2-inside-1" fill="white">
<path d="M35 17.5C35 27.165 27.165 35 17.5 35C7.83502 35 0 27.165 0 17.5C0 7.83502 7.83502 0 17.5 0C27.165 0 35 7.83502 35 17.5ZM2.975 17.5C2.975 25.5219 9.47806 32.025 17.5 32.025C25.5219 32.025 32.025 25.5219 32.025 17.5C32.025 9.47806 25.5219 2.975 17.5 2.975C9.47806 2.975 2.975 9.47806 2.975 17.5Z"/>
</mask>
<path d="M35 17.5C35 27.165 27.165 35 17.5 35C7.83502 35 0 27.165 0 17.5C0 7.83502 7.83502 0 17.5 0C27.165 0 35 7.83502 35 17.5ZM2.975 17.5C2.975 25.5219 9.47806 32.025 17.5 32.025C25.5219 32.025 32.025 25.5219 32.025 17.5C32.025 9.47806 25.5219 2.975 17.5 2.975C9.47806 2.975 2.975 9.47806 2.975 17.5Z" fill="#DEDFE7" stroke="#DEDFE7" stroke-width="2" mask="url(#path-2-inside-1)"/>
<path d="M17.5 1.4875C17.5 0.665977 18.1672 -0.00657059 18.9858 0.0631677C22.2699 0.342963 25.4194 1.54601 28.0633 3.54769C30.7072 5.54937 32.7195 8.2544 33.8798 11.3394C34.169 12.1084 33.7027 12.933 32.912 13.1559C32.1213 13.3788 31.3067 12.9146 31.0042 12.1508C30.0287 9.68829 28.3943 7.52976 26.2675 5.91958C24.1408 4.3094 21.6198 3.32185 18.9849 3.05109C18.1677 2.96711 17.5 2.30902 17.5 1.4875Z" fill="url(#paint0_linear)"/>
<path d="M19.6641 11.6094V23H17.4062V14.2891L14.7188 15.125V13.2969L19.4219 11.6094H19.6641Z" fill="url(#paint1_linear)"/>
<defs>
<linearGradient id="paint0_linear" x1="-0.507246" y1="35" x2="36.8892" y2="32.8493" gradientUnits="userSpaceOnUse">
<stop stop-color="#6AB1FE"/>
<stop offset="1" stop-color="#2B89EF"/>
</linearGradient>
<linearGradient id="paint1_linear" x1="12.8551" y1="27" x2="23.5653" y2="26.6758" gradientUnits="userSpaceOnUse">
<stop stop-color="#6AB1FE"/>
<stop offset="1" stop-color="#2B89EF"/>
</linearGradient>
</defs>
</svg>

