<svg width="29" height="36" viewBox="0 0 29 36" fill="none" xmlns="http://www.w3.org/2000/svg">
<path d="M10.1822 4.54965C10.146 4.19842 10.0622 4.74519 10.1287 4.32025C10.1632 4.34657 10.1873 4.38378 10.197 4.42558C10.2068 4.46738 10.2015 4.51121 10.1822 4.54965Z" fill="#FAF9F8"/>
<path d="M11.1292 3.98231C12.2815 3.61012 13.8088 3.93957 15.0623 3.70742C15.2033 3.67561 15.0274 3.9006 15.3537 3.85509C15.5184 3.79919 15.697 3.79612 15.8636 3.84633C16.0303 3.89653 16.1765 3.99743 16.2811 4.1345C16.3691 4.31428 16.415 4.51117 16.4155 4.71069C16.4349 4.90846 16.4472 5.10786 16.4522 5.3089C16.4819 6.12207 16.4565 6.99261 16.4017 7.71255L16.3359 7.6263C16.3221 7.91019 16.5357 8.23827 16.5474 8.53327C16.5148 8.54061 16.487 8.4458 16.441 8.51794C16.564 8.58006 16.5654 9.05145 16.6374 9.16437C16.6039 9.28986 16.5163 9.28154 16.4794 9.44149L16.6247 9.59964C16.9779 10.0366 16.7262 10.7448 16.9635 11.3708C16.9548 11.3334 16.9019 11.278 16.8805 11.3333C17.1899 12.3418 17.3629 13.6224 17.6755 14.7424C17.6209 14.7042 17.5296 14.6799 17.5019 14.7816C17.65 14.8044 17.7634 15.1438 17.8669 15.4406C17.7636 15.6099 18.1323 15.9423 18.1498 16.2865L18.111 16.2671C18.3268 16.4824 18.153 16.6676 18.3835 16.8234L18.3323 17.0203C18.55 17.0723 18.3568 17.4191 18.5288 17.5937L18.5668 17.5851C18.6834 17.7666 18.6402 17.8999 18.7259 18.0715C18.9502 18.4702 18.9486 18.7569 19.0863 18.6865C19.0339 18.8781 18.8658 18.3039 18.7978 18.6C19.5235 19.9245 20.2704 21.2666 21.1176 22.5244C21.1587 22.7005 21.1836 22.8072 21.196 22.8605C21.3448 23.0486 21.5149 23.2193 21.703 23.3695C21.6918 23.3215 21.6966 23.4889 21.7465 23.5562C21.8588 23.8173 22.0621 23.7097 22.1794 23.9921C22.0769 23.9198 22.0122 23.9119 21.9933 23.9779C22.2374 24.1663 22.4555 24.3852 22.642 24.629C22.5965 24.6056 22.5395 24.5567 22.5077 24.5919C22.8145 24.7811 22.8437 25.0777 23.0962 25.2791L22.9565 25.2432C23.1611 25.68 23.1914 25.2464 23.3895 25.6061C23.3069 25.5461 23.3006 25.5924 23.2626 25.601C23.618 25.898 23.942 26.2294 24.2299 26.5902L24.192 26.5987C24.4648 26.9355 24.7554 27.258 25.0625 27.5649C25.1432 27.7151 24.8663 27.654 25.1583 27.9757C25.2836 27.8519 25.6866 28.5023 25.6795 28.1782C25.8928 28.5181 26.1358 28.8391 26.4057 29.1376C26.2523 29.043 26.3382 29.4111 26.1391 29.1696L26.1976 29.4204C26.1162 29.4387 26.0694 29.2134 26.0442 29.3258C26.2181 29.5038 26.3772 29.6951 26.5202 29.8979C26.8488 30.0587 27.1331 30.2951 27.349 30.5871C27.1861 30.4272 27.2424 30.7908 27.1462 30.6721C27.1462 30.6721 27.2966 30.7786 27.4512 30.8785C27.5551 30.9499 27.655 31.0267 27.7505 31.1086C27.8287 31.2482 27.6394 31.1955 27.7814 31.3881C27.8193 31.3795 27.8898 31.4366 27.9439 31.4974C27.998 31.5582 27.9899 31.6948 28.0623 31.8582C28.1346 32.0216 28.0998 32.2148 28.0246 32.2598C27.9494 32.3048 27.9649 32.0037 27.9125 32.1952C27.9881 32.3886 28.0354 32.5916 28.0531 32.7981L28.0259 32.8042C27.9844 32.9933 27.9596 33.4256 28.1242 33.2257C28.1691 33.0752 28.0103 33.2514 28.0844 33.0549C28.1079 33.206 28.0974 33.3604 28.0536 33.507C28.0099 33.6537 27.934 33.7891 27.8312 33.9038C27.8739 33.7931 27.8298 33.775 27.8148 33.711C27.6476 34.1562 27.3335 34.5335 26.9226 34.7826C26.9413 34.8626 27.0093 34.5665 27.0902 34.5707C26.5176 34.7841 25.9888 35.2347 25.4607 35.1741C25.5367 35.157 25.5261 35.2829 25.5144 35.2574C25.2378 35.3198 25.2242 35.1881 25.0514 35.2552C25.0364 35.1912 24.8235 35.3066 24.6336 35.3494C24.5447 35.4088 24.5815 35.3218 24.753 35.3225C24.4817 35.4031 24.2015 35.4512 23.9184 35.4658C23.5445 35.4911 23.1688 35.4741 22.7988 35.415C22.6497 35.5076 22.4768 35.5564 22.3005 35.5555L22.362 35.4518C22.2432 35.3831 21.9097 35.447 21.8928 35.3498C21.6014 35.4716 23.0176 35.2758 22.6053 35.3688C22.5099 35.278 22.0628 35.4911 22.1501 35.376C21.8802 35.3695 21.6076 35.4983 21.3659 35.3675C21.4397 35.3902 21.5901 35.2271 21.3727 35.2256C20.9918 35.2329 21.2588 35.2513 20.955 35.3198L20.7868 35.3577C20.7712 35.4623 20.4485 35.3273 20.581 35.4547C20.5586 35.3587 20.0174 35.4863 20.0748 35.3162L20.1342 35.1792C19.9694 35.1827 19.8574 35.3146 19.728 35.3719C19.728 35.3719 19.6667 35.3296 19.6726 35.3058C19.6415 35.515 19.283 35.2757 19.0867 35.4379C18.7427 35.3582 18.2136 35.4158 18.0515 35.2839C17.7934 35.3671 17.5209 35.398 17.2504 35.3747C17.3101 35.3612 17.3914 35.3429 17.4111 35.3048C17.2168 35.2307 17.1625 35.2429 16.9889 35.282C17.0261 35.2456 16.6253 35.1675 16.4106 35.1036C16.1502 35.1623 16.2476 35.2864 16.2246 35.359C15.9745 35.1683 15.4922 35.5241 15.182 35.3694C15.2743 35.3486 15.5585 35.2452 15.3379 35.2051C15.0824 35.0157 14.8616 35.3912 14.4662 35.3119L14.5736 35.4786C14.3919 35.3848 14.004 35.607 14.0318 35.4323C13.9061 35.5056 13.5679 35.4021 13.624 35.5692C12.9713 35.4637 12.0615 35.725 11.6551 35.4517C11.5629 35.4725 11.3364 35.4562 11.3784 35.5141C11.536 35.6021 11.5954 35.4651 11.65 35.5033C11.6262 35.5028 11.6029 35.5098 11.5834 35.5233C11.5639 35.5368 11.5494 35.556 11.5419 35.5783C11.3412 35.5505 11.1836 35.5355 11.3686 35.3983C10.9223 35.2968 10.9118 35.6923 10.3432 35.6296C10.3675 35.5623 10.3221 35.5389 10.1585 35.5477L9.84299 35.6638C9.47509 35.6288 9.63421 35.5031 9.62979 35.3862C9.43369 35.4023 9.19215 35.395 9.08106 35.4818L8.84516 35.3272C9.01437 35.4407 8.67698 35.3652 8.5868 35.4192L8.68445 35.3972C8.67201 35.3438 8.42042 35.3669 8.30818 35.3753C8.3256 35.45 8.55832 35.493 8.68345 35.5153C8.58117 35.5665 8.4339 35.5716 8.29285 35.6034C8.34098 35.4915 7.97218 35.5017 7.81869 35.4801C7.66519 35.4586 7.60497 35.5676 7.54744 35.5413C7.4899 35.515 7.25504 35.5118 7.40365 35.4389C7.46875 35.4243 7.53997 35.5093 7.6435 35.4635C7.52843 35.4108 7.55068 35.3103 7.29988 35.3613C7.04909 35.4122 7.32625 35.5968 6.9814 35.4892C7.05145 35.4674 7.11703 35.4336 7.17511 35.3894L6.87818 35.316L6.8505 35.4177C6.80925 35.3877 6.8418 35.3803 6.83682 35.359C6.72946 35.4618 6.33498 35.3374 6.23972 35.4431C6.06942 35.4037 5.90252 35.3512 5.74058 35.2861L5.77313 35.2788C5.57767 35.1886 5.35715 35.1652 5.14662 35.2123C4.98197 35.1644 4.8095 35.148 4.63857 35.164C4.38887 35.0238 4.64789 34.7632 4.32701 34.8075C4.05845 34.7333 3.84384 34.8659 3.93507 34.9633C3.47524 34.73 2.83415 34.65 2.49264 34.2384C2.40584 34.258 2.42416 34.2876 2.27574 34.2144C1.91799 33.959 1.60179 33.6516 1.33795 33.3027C1.08271 32.9735 0.960522 32.5629 0.99497 32.1503C1.09017 32.3871 1.09805 32.127 1.1523 32.1148C1.01822 31.9316 1.23398 31.8773 1.08263 31.816C0.984977 31.838 0.935356 31.8211 0.912902 32.0677C0.811098 31.5649 0.882274 31.0431 1.11522 30.5844C1.03747 30.6918 1.03927 30.6016 1.03609 30.49C1.17907 30.5644 1.27589 30.245 1.32129 29.9989L1.24295 29.9323L1.37076 29.8192C1.37674 29.7224 1.22833 29.6492 1.40507 29.4521C1.42578 29.4558 1.44703 29.4553 1.46754 29.4507C1.48806 29.446 1.5074 29.4374 1.52442 29.4252C1.54889 29.124 1.65742 28.8352 1.83805 28.5907L2.07143 28.4651C2.1208 28.3585 2.15739 28.1481 2.03286 28.2997C2.205 28.0306 2.43714 27.8035 2.7117 27.6356C3.07407 26.7495 3.62856 25.9518 4.33654 25.2981L4.35271 25.3674C4.56732 25.2348 4.34669 25.1947 4.50243 25.1034C4.49227 25.2068 4.73028 25.052 4.66532 25.2632C4.9543 25.0577 4.87989 24.8611 5.00781 24.675C4.98666 24.5843 4.92748 24.8447 4.87298 24.7335C4.81849 24.6222 5.25553 24.4394 5.1852 24.3093C5.28828 24.286 5.31441 24.3981 5.32515 24.4686L5.41679 24.2739C5.71516 24.2066 5.22654 24.8784 5.5412 24.8074L5.65906 24.6517C5.88691 24.6003 5.42811 25.1305 5.79901 24.811C5.8894 24.6109 5.86766 24.3463 5.71192 24.4376C5.98064 24.0962 5.62608 24.0694 5.92566 23.738C6.07756 23.7037 5.69581 24.0256 5.83472 24.0336C6.07138 23.9466 6.08637 23.668 6.24798 23.5529C6.06049 23.6795 6.08125 23.4502 6.15108 23.3333C6.36027 23.2019 6.15123 23.5298 6.37893 23.2819C6.35654 23.1859 6.50083 22.9231 6.29244 23.0824C6.24392 22.8744 6.55349 22.8551 6.55922 22.6348C6.72944 22.6301 6.56528 23.0771 6.85222 22.8383C6.71918 22.8065 6.99343 22.3909 6.75518 22.4221C6.86627 22.3353 6.95048 22.3781 6.95197 22.5069C7.13776 22.3976 7.0674 21.9979 7.29923 22.086L7.23558 21.96C7.3061 21.9441 7.37628 21.8777 7.4919 21.8348C7.6014 21.6922 7.64202 21.2787 7.79915 21.3893C7.78671 21.3359 8.01745 21.0031 7.82713 21.0685C7.63207 21.236 7.76749 21.3515 7.54552 21.3791C7.7563 21.3035 7.70405 21.0794 7.73262 20.9326L7.81061 20.9487C7.82868 20.8547 7.94281 20.683 7.89453 20.5984C7.91195 20.6731 7.96202 20.6674 8.01299 20.6166L7.98064 20.4779C8.09667 20.1429 8.19087 20.4979 8.32148 20.1764L8.27688 20.4504C8.29156 20.391 8.43724 20.33 8.4796 20.1688C8.42217 20.0695 8.3619 19.909 8.31487 19.8298C8.35643 19.6407 8.45592 19.7979 8.44244 19.5932L8.44791 19.8615C8.4591 19.9095 8.68118 19.8089 8.77665 19.5571C8.87212 19.3054 8.76517 19.1161 8.61928 19.3231C8.66617 19.2058 8.78901 19.0714 8.8218 19.1876C8.8906 18.9193 8.70708 19.1854 8.73621 18.9429C8.83475 18.8758 9.022 18.6258 9.16529 18.4811L9.23372 18.7746L9.28693 18.611C9.3454 18.8617 9.42345 18.5352 9.52294 18.6925C9.56856 18.5715 9.58139 18.4409 9.56018 18.3135C9.25776 18.5838 9.33384 17.8816 9.1018 17.9395C9.11575 17.5096 9.65944 17.7351 9.37522 17.2264C9.31713 17.2957 9.17729 17.0633 9.21067 17.3534C9.25946 17.0728 9.02031 17.1492 9.11881 16.8126C9.17853 17.0686 9.34154 16.5433 9.45157 16.9172C9.38319 16.8933 9.38955 17.1165 9.40324 17.1752C9.49059 17.06 9.61845 17.2165 9.63388 16.9154C9.61871 16.7279 9.62116 16.469 9.50972 16.5054C9.39828 16.5417 9.51892 16.7897 9.39977 16.6706C9.36524 16.3021 9.54472 16.2392 9.33175 16.085C9.34603 16.3177 9.22205 16.3737 9.14112 16.3695L9.07892 16.1027L9.16019 16.1574C9.21754 15.7177 9.01561 16.0272 9.02956 15.5972L9.1863 15.3878C9.3259 15.4967 9.13452 16.0228 9.35615 15.9448C9.36447 15.6621 9.26782 15.566 9.30281 15.2998C9.3165 15.3584 9.33516 15.4385 9.34885 15.4972C9.35482 15.4003 9.64991 15.2945 9.47399 14.9074C9.42423 14.694 9.39272 14.8527 9.31179 14.8485C9.2803 14.3951 9.17494 14.2616 9.17953 13.963C9.34173 14.0218 9.18442 13.4452 9.35627 13.7659C9.2574 14.0877 9.28721 14.4345 9.4396 14.7354C9.62923 14.5691 9.4149 15.0948 9.60876 15.1915C9.60927 14.8263 9.80073 14.8393 9.92347 14.7779C9.92005 14.6878 9.89937 14.5991 9.86251 14.5165C9.7445 14.4757 9.74724 14.6099 9.62958 14.6196C9.66082 14.2702 9.60622 13.9185 9.4704 13.5941C9.5244 13.4584 9.64241 13.4992 9.65136 13.66C9.61741 13.1719 9.61768 12.6822 9.65216 12.1941C9.46526 12.4946 9.60156 11.6833 9.44358 11.8874C9.40485 12.1376 9.27106 12.3475 9.18864 12.2144C9.19845 12.0606 9.26459 12.1973 9.31138 12.1531C9.20319 11.9585 9.47409 11.8468 9.30373 11.655C9.37195 12.0945 9.53974 11.7366 9.6894 11.8151C9.61475 11.495 9.79576 11.8304 9.78994 11.5117C9.69727 11.1573 9.63222 10.7965 9.59538 10.4324C9.65889 9.92458 9.65049 9.41054 9.57039 8.90498C9.64202 8.69789 9.81452 8.84992 9.83822 8.60872C9.86192 8.36752 9.66272 8.81115 9.73127 8.41945L9.76835 8.45601C9.73973 8.3333 9.87448 7.73573 9.63101 7.62217L9.81232 7.73852C9.81642 7.66975 9.80045 7.60126 9.76628 7.54112C9.82053 7.52889 9.87613 7.44896 9.9156 7.56922C10.0407 7.32201 9.89336 7.0576 9.88372 6.79584L9.77501 6.96636C9.74357 6.57262 9.7334 6.17752 9.74454 5.78272L9.85508 5.79148L9.79537 5.5354C9.90083 5.59585 9.96499 5.35675 9.87591 5.21961L10.1407 5.88992C10.0816 6.07733 10.0138 5.68831 9.91013 5.80715C9.8719 5.89581 9.85585 5.9922 9.86334 6.08823C9.87083 6.18425 9.90163 6.27711 9.95316 6.359C9.95886 6.26236 9.93642 6.16613 9.88847 6.08158C10.0404 6.04732 10.0334 6.26229 10.1338 6.37443C10.1164 6.29974 10.1687 6.18124 10.1245 6.16313C10.1953 6.3484 10.2258 6.54619 10.2142 6.74377C10.1719 6.56238 10.1285 6.84171 10.084 6.77314C10.2145 6.79423 10.2567 7.04865 10.2246 7.376C10.0795 7.61088 10.3272 7.98742 10.2899 8.36646C10.1448 8.2001 10.0435 8.00115 9.99497 7.78718C9.93081 8.02627 10.0004 8.0555 9.93628 8.29459C10.095 8.41801 10.2059 8.59119 10.2506 8.78528L10.1529 8.8073C10.2176 9.08472 10.3498 9.0886 10.3306 9.44673C10.2901 10.0567 10.295 10.6902 10.2861 11.1415L10.1884 11.1635C10.4033 11.4239 10.2765 12.0309 10.3749 12.3793C10.2877 12.9606 10.4828 13.6747 10.3201 13.9809C10.4425 15.0047 10.4806 16.0364 10.4342 17.0662L10.3031 16.8712C10.3963 17.0748 10.2182 16.997 10.2238 17.1923C10.3509 16.9783 10.3519 17.4723 10.4164 17.6262C10.2853 18.1605 10.1924 18.7031 10.1383 19.2501L10.0441 19.2376C10.0571 19.7345 9.69191 20.1762 9.40297 20.6513C9.29309 20.6993 9.20195 20.7809 9.14316 20.884C9.12253 21.1942 9.04656 21.4983 8.91872 21.7826C8.83217 21.9257 8.70967 22.1105 8.57927 22.2859C8.45419 22.4439 8.31954 22.5943 8.17606 22.7363C7.61755 23.8674 6.64148 24.6772 5.89001 25.6665L5.74443 25.6544C5.1025 26.7707 3.97025 27.6943 3.50178 28.5749L3.39483 28.3857C3.15965 28.6015 3.05811 29.0232 3.20458 28.9901C2.98275 29.2142 2.91828 29.6724 2.69078 29.7743C2.52105 30.0259 2.62935 30.1475 2.55479 30.3665C2.33595 30.7421 2.22437 31.1689 2.23183 31.6018C2.23333 31.564 2.23997 31.5266 2.2516 31.4906C2.23667 31.4266 2.13698 31.4154 2.0997 31.5249C2.12073 31.6466 2.13227 31.7698 2.13422 31.8933C2.16035 32.0054 2.21325 32.0608 2.30976 31.9604C2.3076 32.084 2.33187 32.2066 2.38102 32.3203C2.43016 32.434 2.50308 32.5363 2.59502 32.6205C2.79793 32.805 3.01045 32.9817 3.20748 33.19C3.19006 33.1153 3.32141 33.1643 3.38651 33.1496C3.79564 33.428 4.26216 33.6142 4.75284 33.695C4.82202 33.7468 4.58466 33.733 4.78394 33.8284C4.98322 33.9239 4.80574 33.7505 4.97178 33.7524C5.85022 33.8463 6.74792 34.1941 7.5964 34.233C9.0924 34.2326 10.6697 34.2868 12.1266 34.2166L12.1353 34.2539C12.617 34.0667 13.3074 34.3827 13.664 34.1001C13.782 34.1409 14.1096 34.1007 14.0281 34.1921C14.4104 34.0441 15.1302 34.2412 15.7066 34.0438C15.6581 34.0462 15.6103 34.057 15.5656 34.0756C15.8458 34.0998 16.1279 34.0946 16.407 34.0599C16.7029 34.023 17.0023 34.0234 17.2981 34.0611C17.233 34.0758 17.1245 34.1003 17.1061 34.1437C17.3421 34.2253 17.6662 33.95 17.7969 34.1676C17.9291 34.1715 17.8922 34.0619 17.8071 34.0643C19.1486 34.1604 20.58 34.0791 21.9625 34.0818C22.9448 34.2533 22.0037 34.4543 22.7895 34.3221C22.852 34.3697 22.8384 34.238 22.8546 34.3074C23.153 34.2401 23.3152 34.5685 23.5294 34.4585C23.4457 34.3201 23.6726 34.3868 23.6768 34.3073C24.2178 34.3987 24.3561 34.5022 24.7831 34.3498L24.7601 34.4224C25.2419 34.1621 25.8302 34.1137 26.0998 33.7271C26.3254 33.6527 26.5277 33.5223 26.6872 33.3486C26.8468 33.175 26.9581 32.9638 27.0106 32.7355C26.9446 32.1674 26.7374 31.624 26.4075 31.1532C25.6097 29.9767 24.72 28.863 23.7464 27.8224C23.5157 27.5431 23.2691 27.2449 23.0242 26.9295L22.3338 26.0744C21.8836 25.4908 21.4389 24.906 21.0013 24.3027C20.0887 23.0815 19.2937 21.7793 18.6267 20.4131C18.5422 19.887 18.3471 19.384 18.0539 18.9362C18.0864 18.9289 18.1189 18.9946 18.119 18.9215C17.9671 18.9558 17.8915 18.4113 17.7217 18.3934C17.3267 17.3386 16.9902 16.2635 16.7137 15.1727C16.756 15.3541 16.9182 15.413 16.8576 15.2021L16.7077 15L16.7424 14.9529C16.7088 14.8088 16.5738 14.6708 16.5599 14.8312C15.8054 11.9633 15.9103 9.1318 15.6539 6.3425C15.6569 5.97172 15.6373 5.60111 15.595 5.23266L15.5591 4.93189L15.528 4.79852C15.518 4.75584 15.5218 4.77184 15.5181 4.75584C15.5083 4.73272 15.4918 4.71299 15.4706 4.69916C15.4661 4.6752 15.4558 4.6527 15.4404 4.63364C15.425 4.61458 15.405 4.59956 15.3823 4.58991C15.272 4.57318 15.1609 4.56262 15.0494 4.55828L14.6598 4.52821C14.138 4.49428 13.6174 4.46568 13.1047 4.44652C12.0471 4.41063 10.9884 4.43194 9.93322 4.51034C10.086 4.34754 10.2708 4.21682 10.4763 4.12608C10.6818 4.03533 10.9039 3.98643 11.1292 3.98231Z" fill="#FAF9F8"/>
<path d="M10.2021 4.97758C10.1223 5.05173 10.0835 5.30194 9.97535 5.10733C10.0488 5.07953 10.1337 4.9537 10.2021 4.97758Z" fill="#FAF9F8"/>
<path d="M9.48321 11.5921C9.48321 11.5921 9.44886 11.6897 9.43632 11.7093C9.41766 11.6293 9.3652 11.5513 9.38531 11.4906C9.4094 11.5694 9.44613 11.5555 9.48321 11.5921Z" fill="#FAF9F8"/>
<path d="M9.45498 13.2831C9.3866 13.2592 9.32494 12.8969 9.31564 12.6856L9.45498 13.2831Z" fill="#FAF9F8"/>
<path d="M9.1887 14.8594C9.12927 14.9963 9.09762 14.9586 9.10121 14.778C9.13794 14.7641 9.15705 14.8216 9.1887 14.8594Z" fill="#FAF9F8"/>
<path d="M9.35125 14.9687C9.35477 15.0609 9.32786 15.1517 9.27455 15.2275C9.33129 15.2259 9.23325 14.928 9.35125 14.9687Z" fill="#FAF9F8"/>
<path d="M8.99051 18.1724C9.00419 18.2311 8.99812 18.4009 8.90544 18.4443C8.98353 18.3874 8.90426 18.0964 8.99051 18.1724Z" fill="#FAF9F8"/>
<path d="M8.61898 19.5422C8.62769 19.5795 8.5801 19.5959 8.57085 19.6541C8.56159 19.7123 8.49997 19.6195 8.54472 19.5421L8.61898 19.5422Z" fill="#FAF9F8"/>
<path d="M14.8595 35.431L14.6871 35.4754L14.706 35.4094L14.8595 35.431Z" fill="#FAF9F8"/>
<path d="M27.7938 34.1594C27.9041 33.9716 27.9424 34.0866 27.9779 34.0673C27.8533 34.2189 27.9584 33.9594 27.7938 34.1594Z" fill="#FAF9F8"/>
<path d="M25.2537 27.7969L25.2908 27.8335L25.1718 27.9109L25.2537 27.7969Z" fill="#FAF9F8"/>
<path d="M21.3444 24.158L21.3257 24.0779L21.2545 24.2624L21.3444 24.158Z" fill="#FAF9F8"/>
<path d="M21.3183 23.4338L21.2172 23.4903C21.1481 23.7514 21.1187 24.021 21.1298 24.2906C21.243 24.1577 21.3295 24.0048 21.3845 23.8401C21.3411 23.8498 21.244 24.0458 21.2199 23.967C21.2769 23.8194 21.3181 23.8494 21.4043 23.6559C21.3608 23.4691 21.317 23.771 21.2578 23.6889L21.3183 23.4338Z" fill="#FAF9F8"/>
<path d="M21.096 23.95C21.125 23.8537 21.1551 23.7626 21.1715 23.6859C21.1426 23.7823 21.0811 23.886 21.096 23.95Z" fill="#FAF9F8"/>
<path d="M21.0438 23.9955C20.9971 23.9667 21.0817 23.7904 21.0863 23.7613L20.9619 24.1094L21.0438 23.9955Z" fill="#FAF9F8"/>
<path d="M20.8491 23.944L20.8165 23.9513C20.8243 24.0338 20.8361 23.9862 20.8491 23.944Z" fill="#FAF9F8"/>
<path d="M20.7472 23.9725C20.7759 24.0952 20.7622 24.0366 20.8178 23.9566C20.7941 23.8553 20.86 23.5989 20.9003 23.6741C20.9622 23.6208 20.9451 23.8661 20.9833 23.7115L20.9348 23.5034C20.8739 23.5116 20.787 23.8737 20.7472 23.9725Z" fill="#FAF9F8"/>
<path d="M20.8491 23.944C20.8536 23.9404 20.8589 23.9379 20.8645 23.9367C20.8701 23.9354 20.876 23.9354 20.8816 23.9366C20.8704 23.8886 20.8591 23.9136 20.8491 23.944Z" fill="#FAF9F8"/>
<path d="M20.9454 23.9896L20.9788 23.9372L20.9877 23.8284L20.9454 23.9896Z" fill="#FAF9F8"/>
<path d="M20.5891 23.9801C20.623 23.6355 20.7017 24.0221 20.7367 23.7559C20.6716 23.7706 20.6282 23.5108 20.6359 23.3238L20.5461 23.4283C20.532 23.6133 20.5465 23.7994 20.5891 23.9801Z" fill="#FAF9F8"/>
<path d="M20.4623 23.0934C20.4615 23.1151 20.4546 23.1361 20.4422 23.1541C20.4498 23.146 20.4555 23.1363 20.459 23.1259C20.4624 23.1154 20.4636 23.1043 20.4623 23.0934Z" fill="#FAF9F8"/>
<path d="M20.0693 23.7099L20.1471 23.5295L20.2304 23.3478C20.2173 23.4631 20.2259 23.5735 20.19 23.6153C20.2675 23.6539 20.2732 23.4336 20.3429 23.4629C20.3674 23.7886 20.2235 23.4898 20.269 23.7828C20.3178 23.7717 20.3775 23.7583 20.4154 23.4802L20.4689 23.7096L20.4477 23.3493C20.4229 23.2426 20.3814 23.6282 20.3609 23.3689C20.3261 23.2195 20.3821 23.1901 20.4071 23.1507C20.3545 23.2188 20.2628 22.8744 20.1496 22.928C20.0365 22.9816 20.1308 23.5331 20.0693 23.7099Z" fill="#FAF9F8"/>
<path d="M20.046 23.3164L20.0191 23.1765L20.0452 23.3615L20.046 23.3164Z" fill="#FAF9F8"/>
<path d="M19.8948 23.7941L19.9614 23.5657C19.9676 23.5924 19.9851 23.6671 20 23.7311C19.9813 23.6511 19.9991 23.5067 19.9896 23.4415C19.9162 23.1267 19.8847 23.555 19.8429 23.6205C19.6983 23.4903 19.8031 23.4498 19.7334 23.1511C19.7714 23.1425 19.7859 23.2291 19.8409 23.2447C19.7129 22.8917 19.6452 23.2383 19.6055 23.3371C19.5657 23.436 19.6353 23.4652 19.6725 23.4287L19.6311 23.5448C19.7329 23.7857 19.7829 23.8531 19.8948 23.7941Z" fill="#FAF9F8"/>
<path d="M20.0504 23.7759C20.0179 23.7832 20.007 23.7857 20.0012 23.7364C20.0157 23.823 20.0306 23.8871 20.0504 23.7759Z" fill="#FAF9F8"/>
<path d="M19.585 23.3474C19.585 23.3474 19.585 23.3474 19.6121 23.3412C19.6393 23.3351 19.5951 23.317 19.585 23.3474Z" fill="#FAF9F8"/>
<path d="M19.6951 23.7213L19.6267 23.6974L19.6615 23.8468C19.6857 23.8094 19.6974 23.7655 19.6951 23.7213Z" fill="#FAF9F8"/>
<path d="M17.3484 23.7226C17.3795 23.856 17.3945 23.92 17.4479 23.8799C17.4877 24.0506 17.4152 24.0333 17.4104 24.1354C17.4057 24.2376 17.4565 24.3328 17.495 24.4982C17.5601 24.4835 17.5466 24.2788 17.6271 24.3056C17.6331 24.3676 17.6474 24.4285 17.6694 24.4869C17.7313 24.3607 17.8417 24.1729 17.9567 24.2986C18.0717 24.4243 18.0978 24.2668 18.1622 24.1512C18.475 24.1705 18.7353 23.9153 19.0885 24.0097L19.0589 23.6626C19.0975 23.8279 19.1349 23.6454 19.175 23.8666C19.1651 23.8239 19.1425 23.874 19.1208 23.8788C19.2489 24.1588 19.2998 23.8385 19.4011 23.9055C19.354 23.7781 19.323 23.6455 19.309 23.5107C19.3949 23.8788 19.4121 23.4874 19.5104 23.9089C19.6112 23.9985 19.4358 23.5888 19.5579 23.623C19.5082 23.4096 19.4517 23.5347 19.4077 23.3705C19.3637 23.2063 19.5023 23.4334 19.4597 23.2016C19.2846 23.1119 19.1015 23.6249 18.924 23.7941L18.8767 23.5913C18.8018 23.7599 18.6361 23.8084 18.4668 23.4985C18.5116 23.6905 18.2804 23.4338 18.4108 23.8705C18.3871 23.7691 18.3529 23.7937 18.3062 23.7649L18.3386 23.9036C18.2843 23.9159 18.2333 23.6971 18.1774 23.7266C18.239 23.8532 18.2713 23.9917 18.2719 24.1321L17.9164 23.6114C17.9393 23.6821 17.9686 23.7507 18.0041 23.8162C17.9458 23.762 17.9989 23.9409 18.003 24.0074C18.0071 24.0739 17.9049 23.7824 17.8817 23.6585C17.8585 23.5346 17.8652 24.0778 17.7737 23.93L17.8197 24.1273C17.7549 24.1925 17.6388 23.9884 17.5736 24.0761C17.4722 23.8126 17.5894 23.8255 17.5958 23.7061C17.6023 23.5867 17.5296 23.6424 17.4976 23.5542C17.492 23.7015 17.4758 23.9016 17.4569 24.0407C17.4757 23.7051 17.3751 23.7391 17.3484 23.7226Z" fill="#FAF9F8"/>
<path d="M17.5397 23.5391L17.5161 23.4377C17.519 23.4724 17.5269 23.5066 17.5397 23.5391Z" fill="#FAF9F8"/>
<path d="M17.3484 23.7226L17.3422 23.6959C17.3422 23.6959 17.3363 23.7197 17.3484 23.7226Z" fill="#FAF9F8"/>
<path d="M17.8232 23.4078C17.8394 23.4771 17.8989 23.5367 17.9368 23.6011C17.9256 23.5247 17.8849 23.4555 17.8232 23.4078Z" fill="#FAF9F8"/>
<path d="M18.3938 23.5037C18.3854 23.4495 18.3729 23.396 18.3564 23.3437C18.3389 23.342 18.343 23.4085 18.3938 23.5037Z" fill="#FAF9F8"/>
<path d="M17.4418 23.5106L17.3958 23.5828L17.3811 23.6422L17.4418 23.5106Z" fill="#FAF9F8"/>
<path d="M16.2966 24.673C16.3526 24.9131 16.45 24.7676 16.5246 24.8181C16.6608 24.6919 16.5283 24.295 16.6389 24.2308L16.6466 24.7288C16.7768 24.6995 16.9777 24.7777 17.0272 24.3285C17.0609 24.3908 17.0772 24.4608 17.0745 24.5313C17.1613 24.5117 17.0183 23.8251 17.1399 23.9549C17.0878 24.27 17.2059 24.2377 17.2376 24.545L17.245 24.577C17.3093 24.5345 17.3763 24.3565 17.4247 24.368C17.3961 24.2453 17.3513 24.0533 17.3868 24.034C17.35 23.9418 17.3274 23.8447 17.3196 23.746C17.2856 23.894 17.2386 23.8148 17.2325 23.9846C17.1952 23.8246 17.2213 23.9366 17.1827 23.7712L17.1633 23.9328C17.1208 23.8975 17.1694 23.763 17.1173 23.7354C17.1384 23.8261 17.097 23.9422 17.0528 23.9241L17.0403 23.8707C17.0161 23.938 16.9644 23.8878 17.0108 24.1357L16.9486 23.8689L16.9909 24.0503C16.8854 23.9899 16.8122 23.5291 16.7288 23.7837C16.7504 23.8475 16.7505 23.9164 16.729 23.9802C16.786 24.1022 16.7792 23.8285 16.8189 23.8027C16.8612 23.9841 16.7837 24.215 16.8491 24.3238C16.7697 24.1058 16.7243 24.3519 16.6765 23.9022C16.6081 23.8783 16.5861 24.1023 16.5099 23.9959L16.4938 23.9266C16.4808 24.2384 16.4602 23.7825 16.3809 24.1037L16.3983 24.1784C16.3985 24.3018 16.3768 24.3067 16.348 24.3301C16.3469 24.2951 16.3389 24.2607 16.3244 24.2287C16.3132 24.4502 16.2139 24.4895 16.1992 24.549C16.1845 24.6084 16.2966 24.4034 16.3409 24.3485C16.3252 24.5262 16.3078 24.721 16.2966 24.673Z" fill="#FAF9F8"/>
<path d="M17.0225 23.8186L17.0136 23.9273C17.0228 23.8918 17.0258 23.855 17.0225 23.8186Z" fill="#FAF9F8"/>
<path d="M15.971 24.2803C15.956 24.2163 16.0125 24.0913 15.9889 23.9899C15.9144 24.1359 15.9893 24.3099 15.9093 24.5301C15.8782 24.3967 15.8145 24.6133 15.7915 24.6128C15.8364 24.4559 15.8658 24.295 15.8794 24.1325C15.8467 24.2129 15.862 24.0578 15.8082 24.0475C15.8542 24.2449 15.7213 24.1401 15.7481 24.3531C15.7749 24.566 15.6021 24.6331 15.5981 24.4936C15.5941 24.3541 15.6512 24.403 15.6742 24.4034C15.7396 24.1697 15.6418 24.2647 15.6947 24.0506C15.5441 24.3598 15.3002 24.2688 15.2193 24.8036C15.2429 24.905 15.279 24.7902 15.317 24.7816C15.2871 24.6536 15.3966 24.511 15.4268 24.4199C15.4479 24.5106 15.5387 24.361 15.4566 24.548L15.3504 24.7291C15.4426 24.7995 15.551 24.8464 15.6661 24.8655C15.7812 24.8846 15.8992 24.8754 16.0098 24.8388L15.9131 24.8157C15.9483 24.6729 15.9929 24.6685 16.0293 24.6041L16.0311 24.2443C16.0385 24.2763 16.0799 24.2333 16.056 24.351C16.0907 24.235 16.105 24.1141 16.0982 23.9933C16.1533 23.936 16.1519 24.0767 16.2131 23.8495C16.1434 23.5507 16.1127 24.0799 16.045 23.8144L15.971 24.2803Z" fill="#FAF9F8"/>
<path d="M16.199 24.0829L16.1658 24.2589L16.2093 24.176L16.199 24.0829Z" fill="#FAF9F8"/>
<path d="M16.0999 24.8578C16.0837 24.7884 16.1251 24.7454 16.1306 24.6711C16.1361 24.5969 16.0796 24.7219 16.0999 24.8578Z" fill="#FAF9F8"/>
<path d="M15.6309 23.9976L15.5496 24.016L15.5682 24.096C15.5824 24.0595 15.6037 24.0261 15.6309 23.9976Z" fill="#FAF9F8"/>
<path d="M14.9244 24.7634C15.0275 24.7402 15.1153 24.6025 15.1692 24.8093C15.2855 24.5978 15.2641 24.3836 15.3541 24.2061C15.3379 24.1367 15.2101 24.5193 15.1374 24.575C15.1778 24.3806 15.0452 24.5958 15.0086 24.5367C14.9903 24.6154 14.962 24.6916 14.9244 24.7634Z" fill="#FAF9F8"/>
<path d="M14.8517 23.9375C14.8138 23.9461 14.7197 24.0571 14.7161 23.9681C14.7125 23.879 14.7989 23.809 14.8143 23.8505C14.8806 23.5716 14.7492 23.8652 14.7745 23.6797C14.7746 23.7279 14.762 23.7752 14.738 23.8171C14.6414 23.721 14.6151 24.0246 14.5069 23.83C14.4493 23.9002 14.4117 23.9843 14.3981 24.0735C14.4026 23.9164 14.389 23.7594 14.3574 23.6053C14.3377 23.7165 14.3165 23.9684 14.2594 24.189C14.1773 23.8369 14.1129 24.222 14.0658 23.9463C14.0658 23.9463 14.1009 23.8766 14.1254 23.9328C14.1697 23.6084 14.0278 23.9548 13.9936 23.9064L14.037 23.6271C13.9665 23.643 13.8694 23.8389 13.8197 23.6255L13.8453 23.4906C13.6861 23.6894 13.5144 23.5652 13.4061 23.7132L13.3217 23.5469C13.1766 23.7818 13.4984 23.6194 13.4398 24.0537C13.3651 23.5371 13.3891 24.228 13.2822 24.0388C13.1752 23.8495 13.3508 23.9166 13.2635 23.6892C13.2906 23.9526 13.2308 23.7696 13.1952 23.8618C13.138 23.6164 13.0847 23.8531 13.0471 23.5695C13.0248 23.7339 13.0138 23.8996 13.0143 24.0655C12.9398 23.9419 12.9026 23.9783 12.8855 24.0271C12.9668 24.0088 13.008 24.3814 13.1281 24.4554C13.1378 24.4145 13.1575 24.3765 13.1855 24.3449C13.2135 24.3132 13.249 24.2887 13.2889 24.2737C13.3287 24.2586 13.3717 24.2533 13.4141 24.2583C13.4565 24.2634 13.497 24.2785 13.5321 24.3025C13.5309 23.9546 13.6243 24.2817 13.6485 24.0179C13.6734 24.1246 13.662 24.2227 13.6651 24.3343C13.7624 24.2618 13.6487 24.1414 13.6714 24.0184C13.6941 23.8953 13.7505 24.1859 13.7386 24.3065C13.807 24.3303 13.7512 24.2138 13.7995 24.0288L13.8148 24.4128C14.0194 24.3105 14.4009 24.1346 14.5978 24.4159L14.6457 24.1805C14.7235 24.3427 14.9989 23.7358 14.9493 24.258L15.0489 24.0727C14.9928 24.1752 14.9583 24.4189 14.8838 24.5648C14.9365 24.4968 14.9468 24.5899 15.0032 24.5379L14.9733 24.4099C15.0795 24.2287 15.0927 24.383 15.0491 24.5388C15.207 24.3347 15.1193 24.1299 15.1633 23.9515C14.91 24.3343 15.1736 23.5055 14.994 23.6415C14.8144 23.7774 14.892 23.8161 14.8517 23.9375Z" fill="#FAF9F8"/>
<path d="M14.8074 24.6045L14.8463 24.5508C14.8463 24.5508 14.8241 24.5783 14.8074 24.6045Z" fill="#FAF9F8"/>
<path d="M12.8479 24.0131L12.8099 24.0217C12.8274 24.0964 12.8283 24.0513 12.8479 24.0131Z" fill="#FAF9F8"/>
<path d="M15.2384 23.9795L15.2117 23.963L15.1853 24.07L15.2384 23.9795Z" fill="#FAF9F8"/>
<path d="M12.3612 23.9095L12.4211 24.0195C12.4055 23.9807 12.3854 23.9438 12.3612 23.9095Z" fill="#FAF9F8"/>
<path d="M9.42406 24.0721C9.30896 24.1513 9.22326 24.2653 9.17998 24.3967L9.19725 24.2749C9.14663 24.3426 9.11018 24.4195 9.09001 24.5012C9.06985 24.5828 9.06637 24.6676 9.07978 24.7506L9.10621 24.6436C9.20158 24.4648 9.15473 24.8517 9.17588 24.9424C9.24436 24.8932 9.35348 24.4306 9.40503 24.5537C9.43216 24.5476 9.42992 24.6604 9.38472 24.7605C9.44056 24.804 9.52991 24.4526 9.58461 24.4178C9.40685 25.3451 9.8373 24.2035 9.79682 24.8135C9.87491 24.7566 9.93777 24.8548 10.0611 24.6978C9.95688 24.9122 10.1319 24.7324 10.0431 24.9882C10.2116 24.4617 10.2088 25.2822 10.4016 24.6154C10.4526 24.8341 10.3929 24.578 10.4986 24.762C10.4822 24.8387 10.458 24.8329 10.4497 24.846C10.4832 24.9901 10.5981 24.5767 10.5635 24.8934C10.6552 24.9681 10.6251 24.7166 10.7217 24.5432C10.8087 24.6471 10.7652 24.7299 10.7648 25.022C10.8387 24.7021 10.8718 24.8687 10.9492 24.7109C10.928 24.6795 10.9163 24.6429 10.9156 24.6052C10.9149 24.5675 10.9253 24.5305 10.9453 24.4984C11.0533 24.5695 11.0708 24.3016 11.1722 24.2226C11.1893 24.5894 11.08 24.2434 11.1326 24.5179C11.0498 24.677 10.9935 24.656 10.9156 24.9094C11.0106 24.9498 11.1534 24.9007 11.267 24.7515C11.3254 24.8058 11.2326 24.9222 11.2805 24.9563C11.4042 25.1193 11.4458 24.5877 11.5332 24.742L11.5309 24.9279C11.5575 24.6748 11.7436 24.9585 11.8252 24.7941C11.7962 24.7263 11.7794 24.6541 11.7754 24.5807C11.9095 25.0334 11.8267 24.3109 12.0182 24.5934C11.9279 24.4396 11.8979 24.2586 11.9338 24.0845C11.9851 24.1643 12.0295 24.2482 12.0665 24.3354C11.9123 24.2129 12.1437 24.6662 12.1013 24.8273C12.1086 24.6628 12.2803 24.787 12.2285 24.5403L12.3146 24.7624C12.4176 24.7391 12.1359 24.2411 12.3297 24.4108L12.3995 24.5635C12.5624 24.4538 12.8829 24.6286 12.8451 24.2216C12.7543 24.0497 12.6492 23.8856 12.5308 23.7309C12.5192 23.9162 12.53 24.1023 12.563 24.2852L12.4328 24.045C12.5076 24.219 12.5037 24.3491 12.5974 24.4571C12.631 24.6012 12.4458 24.2723 12.4669 24.436C12.3341 24.1852 12.3526 24.1417 12.234 23.927L12.2675 24.071C12.2427 23.9643 12.1946 24.0032 12.1589 23.899C12.2398 24.2458 11.9762 23.8503 11.9647 24.0214L12.0331 24.0453C12.1059 24.1861 12.0655 24.184 12.0767 24.232C12.0285 24.1428 11.9597 24.066 11.8759 24.0077C11.9058 24.1358 11.9692 24.4079 11.9337 24.4271C11.8328 24.141 11.7904 24.3022 11.7115 24.0617C11.7799 24.3551 11.6604 24.1855 11.6935 24.3521C11.6813 24.4222 11.6347 24.3935 11.6094 24.2363C11.615 24.2049 11.6133 24.1726 11.6046 24.1419C11.6013 24.1202 11.5963 24.0988 11.5896 24.0779C11.5896 24.0779 11.6043 24.288 11.5545 24.1476C11.549 24.1095 11.5516 24.0707 11.5622 24.0336C11.551 23.9855 11.5098 24.4946 11.4422 24.2291C11.4407 24.3698 11.3581 24.3828 11.3735 24.6938C11.3486 24.5871 11.3644 24.3365 11.3001 24.3791C11.2476 24.6436 11.2427 24.2797 11.184 24.4445C11.2637 24.1739 11.1679 24.3752 11.2596 24.1074C11.2335 23.9954 11.1495 24.3456 11.0779 24.2832L11.0982 24.0764C11.0572 24.1699 10.9922 24.3811 11.0021 24.1542L10.9714 24.3409C10.9478 24.2395 10.8618 24.287 10.8567 24.0691L10.7135 24.4103C10.7132 24.0172 10.5209 24.3189 10.3624 24.6186C10.3421 24.5944 10.3279 24.5659 10.3208 24.5353C10.3137 24.5048 10.3138 24.473 10.3213 24.4426L10.3911 24.3257C10.3499 24.2957 10.3352 24.0857 10.2392 24.36C10.1661 24.4382 10.2541 24.1545 10.2296 24.0982C10.0263 24.4754 9.99818 23.718 9.81709 24.3373C9.85507 24.3287 9.90448 24.4916 9.98835 24.484C9.94778 24.5549 9.93051 24.6767 9.89796 24.684C9.86541 24.6914 9.84446 24.4546 9.73337 24.5415L9.83447 24.1424C9.73867 23.7316 9.44077 24.658 9.42406 24.0721Z" fill="#FAF9F8"/>
<path d="M10.4617 24.3098L10.4578 24.0973L10.4179 24.2691C10.4413 24.247 10.486 24.2426 10.4617 24.3098Z" fill="#FAF9F8"/>
<path d="M10.4179 24.2691L10.3611 24.3437C10.3611 24.3437 10.3882 24.3376 10.4099 24.3327L10.4179 24.2691Z" fill="#FAF9F8"/>
<path d="M9.17451 24.1284C9.17451 24.1284 9.16083 24.0697 9.11484 24.1419C9.06885 24.214 9.14943 24.1677 9.17451 24.1284Z" fill="#FAF9F8"/>
<path d="M9.08885 24.2263L9.11045 24.2945L9.1222 24.2469L9.08885 24.2263Z" fill="#FAF9F8"/>
<path d="M7.45199 24.7246L7.43869 24.986C7.41132 24.8686 7.3389 25.0478 7.30417 24.8254C7.37259 25.1188 7.14684 24.8608 7.32899 25.2746C7.51284 25.0591 7.8889 25.227 8.09556 24.8154L8.07446 24.9942C8.18008 24.6391 8.30384 25.3412 8.36194 24.6598L8.37397 25.0053C8.43683 25.1034 8.47313 24.5 8.55773 24.8627L8.52663 24.7294C8.52663 24.7294 8.54156 24.7934 8.57535 24.7914L8.56167 24.7327C8.60776 24.5875 8.64111 24.6081 8.69187 24.7033C8.74263 24.7986 8.66803 24.748 8.65255 24.7796C8.67867 24.8916 8.71447 24.6533 8.75617 24.6608C8.7719 24.7284 8.76863 24.7991 8.74671 24.8651C8.87249 24.7188 8.89368 25.079 9.01578 24.5741C9.03385 24.4802 8.97472 24.3981 9.04445 24.3543C8.97627 24.1843 8.88713 24.3898 8.81018 24.525C8.73814 25.0242 8.78157 24.4023 8.67321 24.6233C8.6933 24.5172 8.72247 24.4129 8.76042 24.3116C8.6696 23.9222 8.60064 24.606 8.51998 24.1131C8.50878 24.0651 8.46777 24.1586 8.44393 24.2033C8.45175 24.2539 8.46339 24.3038 8.47876 24.3527C8.45634 24.4721 8.44445 24.5931 8.44321 24.7145C8.39221 24.4958 8.41136 24.8228 8.37269 24.7304C8.32666 24.533 8.39674 24.5397 8.41107 24.4297L8.36498 24.5749C8.31616 24.5859 8.31273 24.3508 8.2866 24.2388C8.25509 24.3975 8.31273 24.3508 8.30157 24.5723C8.24186 24.3163 8.00101 24.4099 7.93267 24.6555C7.96443 24.6203 7.91546 24.4348 7.96214 24.4636C7.95095 24.4156 7.89739 24.5287 7.92262 24.6859C7.94785 24.8431 7.77276 24.7534 7.67407 24.624L7.71014 24.7787C7.71019 25.0483 7.52431 24.6185 7.46149 24.7899C7.46896 24.8219 7.51264 25.2051 7.44097 25.1427C7.456 25.0038 7.45969 24.864 7.45199 24.7246Z" fill="#FAF9F8"/>
<path d="M7.23652 25.1719L7.18675 24.9585C7.13882 24.9244 7.19267 25.2043 7.27259 25.3267C7.2614 25.2786 7.3368 25.3571 7.29733 25.2368C7.28569 25.2114 7.26454 25.1207 7.23652 25.1719Z" fill="#FAF9F8"/>
<path d="M6.68963 25.4469C6.71229 25.5082 6.73953 25.5677 6.77115 25.6251C6.86054 25.5431 6.97004 25.4005 7.09122 25.5529C7.15373 25.6006 7.03026 25.2915 7.04958 25.2029L7.15777 25.3975C7.12418 25.2534 7.30663 25.4481 7.14439 25.1197C7.13693 25.0877 7.1842 25.2904 7.13254 25.2403L7.10393 25.1176L7.06088 25.1779L7.02604 25.0285C6.86484 24.8514 7.13303 25.4873 7.01219 25.3854L6.88161 25.0947C6.81108 25.1106 6.82511 25.2198 6.68223 25.0723C6.68223 25.0723 6.75628 25.2185 6.73592 25.1557C6.78916 25.2151 6.8304 25.2839 6.85746 25.3585C6.8792 25.6232 6.78803 25.1832 6.6655 25.0986C6.68102 25.3365 6.63189 25.5666 6.46153 25.3748C6.59775 25.5182 6.64503 25.7209 6.60038 25.7253C6.54423 25.6487 6.50123 25.5636 6.47308 25.4733C6.44053 25.4806 6.37598 25.3997 6.38175 25.4489C6.4981 25.5823 6.5818 25.7402 6.6264 25.9104C6.79313 26.0132 6.56361 25.4697 6.68963 25.4469Z" fill="#FAF9F8"/>
<path d="M6.78856 25.6998C6.78856 25.6998 6.77861 25.6571 6.77115 25.6251L6.73317 25.6336L6.78856 25.6998Z" fill="#FAF9F8"/>
<path d="M27.0161 33.616C26.8689 33.8176 26.9962 33.8001 26.9899 33.8465C27.2244 33.4567 26.9706 33.5925 27.0161 33.616Z" fill="#FAF9F8"/>
<path d="M25.1731 31.7123L25.1632 31.6696C25.0968 31.7311 25.0338 31.796 24.9743 31.8639C25.0359 31.8076 25.1024 31.7569 25.1731 31.7123Z" fill="#FAF9F8"/>
<path d="M24.1982 32.6005C24.1307 32.801 24.2811 32.7109 24.4098 32.5527C24.5385 32.3946 24.6434 32.208 24.6944 32.1572L24.7006 32.1839L24.8362 31.8838C24.7555 32.0031 24.6547 32.183 24.5381 32.3441C24.4215 32.5052 24.2624 32.6309 24.1982 32.6005Z" fill="#FAF9F8"/>
<path d="M24.6915 31.557C24.5549 31.7058 24.6159 31.6246 24.6167 31.6525L24.6568 31.6041L24.6915 31.557Z" fill="#FAF9F8"/>
<path d="M24.7288 31.4475L24.7885 31.4341C24.8302 31.3838 24.8768 31.3375 24.9276 31.296C24.8775 31.3017 24.8336 31.334 24.7288 31.4475Z" fill="#FAF9F8"/>
<path d="M24.5819 31.5031C24.6294 31.4868 24.6223 31.5052 24.5819 31.5031V31.5031Z" fill="#FAF9F8"/>
<path d="M24.6197 31.5676C24.6197 31.5676 24.611 31.5302 24.6098 31.5249C24.6085 31.5196 24.4778 31.6445 24.616 31.5516C24.5271 31.6109 24.5884 31.5803 24.6197 31.5676Z" fill="#FAF9F8"/>
<path d="M24.5503 31.6618C24.4659 31.7651 24.366 31.9 24.3339 31.8847C24.2356 32.0754 24.5064 31.7672 24.5503 31.6618Z" fill="#FAF9F8"/>
<path d="M23.8458 33.073C23.8458 33.073 23.9484 33.1454 23.9471 33.14L24.0587 33.0306L24.1635 32.9171C24.0624 33.0466 23.9374 32.9513 23.8458 33.073Z" fill="#FAF9F8"/>
<path d="M25.0216 30.5728C25.0216 30.5728 24.9674 30.5851 24.9406 30.6416C24.9178 30.6714 24.8882 30.6954 24.8541 30.7117L24.8492 30.9599C24.9057 30.8348 24.9556 30.6326 25.0216 30.5728Z" fill="#FAF9F8"/>
<path d="M24.8516 30.701C24.8479 30.6258 24.8494 30.5504 24.8561 30.4754C24.8588 30.34 24.8507 30.2071 24.8507 30.2071C24.7974 30.7132 24.8082 30.7108 24.8516 30.701Z" fill="#FAF9F8"/>
<path d="M24.3414 31.6472C24.3438 31.6746 24.35 31.7015 24.36 31.7272C24.3631 31.7357 24.368 31.7433 24.3744 31.7496C24.3808 31.7559 24.3885 31.7608 24.3971 31.7638C24.3859 31.7443 24.3807 31.7221 24.3822 31.6998C24.3715 31.6648 24.3632 31.6291 24.3573 31.5931L24.3414 31.6472Z" fill="#FAF9F8"/>
<path d="M25.0113 28.3738L25.1174 28.6082L24.9478 28.1748L25.0113 28.3738Z" fill="#FAF9F8"/>
<path d="M24.0742 28.1752C24.3159 28.0365 23.8227 28.1252 24.0653 28.0144C23.7149 28.1186 23.388 28.2877 23.1021 28.5124C23.3928 28.3227 23.7268 28.2068 24.0742 28.1752Z" fill="#FAF9F8"/>
<path d="M22.6765 28.8667C22.8031 28.7483 22.9401 28.65 23.1021 28.5124C22.9471 28.6142 22.8043 28.7331 22.6765 28.8667Z" fill="#FAF9F8"/>
<path d="M24.8911 29.3275C24.9454 29.1709 24.9688 29.0055 24.9602 28.8402L24.8789 29.1281L24.8911 29.3275Z" fill="#FAF9F8"/>
<path d="M24.8759 29.14C24.86 28.9246 24.8535 28.7744 24.8507 28.7133C24.8539 28.7519 24.8621 28.8848 24.8759 29.14Z" fill="#FAF9F8"/>
<path d="M24.8914 29.378L24.8803 29.33C24.8803 29.33 24.8769 29.3644 24.8914 29.378Z" fill="#FAF9F8"/>
<path d="M24.5969 31.1515C24.5969 31.1515 24.582 31.0875 24.577 31.0662C24.5705 31.0098 24.5575 30.9544 24.5385 30.9008C24.5186 30.8154 24.5148 30.7994 24.4015 30.9991C24.4681 31.1132 24.5475 30.9886 24.5969 31.1515Z" fill="#FAF9F8"/>
<path d="M24.765 29.6929L24.7505 29.9489L24.7197 30.2085C24.7197 30.2085 24.7949 30.0905 24.8122 30.2382C24.8122 30.2382 24.7799 30.0995 24.7976 29.9551C24.8153 29.8107 24.765 29.6929 24.765 29.6929Z" fill="#FAF9F8"/>
<path d="M24.7345 29.4639L24.7867 29.688L24.7974 29.489L24.7345 29.4639Z" fill="#FAF9F8"/>
<path d="M23.5602 28.4933C23.3402 28.6272 23.1176 28.7503 22.8659 28.9194C23.1266 28.7683 23.4007 28.6407 23.6849 28.5382C23.725 28.4898 23.8637 28.3743 23.5602 28.4933Z" fill="#FAF9F8"/>
<path d="M24.5948 28.2038L24.546 28.2148C24.546 28.2148 24.5877 28.2223 24.5948 28.2038Z" fill="#FAF9F8"/>
<path d="M21.2635 30.3983L21.2948 30.3856L21.2856 30.3709L21.2635 30.3983Z" fill="#FAF9F8"/>
<path d="M23.7199 28.5415C23.8777 28.5034 24.0291 28.4428 24.1691 28.3616L23.6849 28.5382C23.6849 28.5382 23.6586 28.5722 23.7199 28.5415Z" fill="#FAF9F8"/>
<path d="M22.1059 29.3828L22.3765 29.2207C22.2676 29.2678 22.1177 29.3353 22.1059 29.3828Z" fill="#FAF9F8"/>
<path d="M24.488 28.2111L24.5422 28.1988C24.4601 28.1893 24.4626 28.1999 24.488 28.2111Z" fill="#FAF9F8"/>
<path d="M24.488 28.2111C24.3781 28.2536 24.2716 28.3039 24.1691 28.3616L24.5418 28.2214L24.488 28.2111Z" fill="#FAF9F8"/>
<path d="M21.3762 31.2489C21.3225 31.1656 21.5241 30.8057 21.8331 30.6124C22.0145 30.3132 21.6333 30.27 21.2948 30.3856C21.3035 30.423 21.3489 30.4464 21.1566 30.7481C21.2739 30.688 21.7689 30.2394 21.6338 30.517C21.3575 30.8994 21.3531 30.7824 21.1572 30.9221C21.3796 30.8719 20.8966 31.4694 21.0863 31.4996L21.3146 31.1561C21.3146 31.1561 21.2722 31.3173 21.3762 31.2489Z" fill="#FAF9F8"/>
<path d="M21.7719 29.885L21.8755 29.7661C21.7315 29.8789 21.5767 29.9778 21.4133 30.0613C21.2808 30.2765 21.2782 30.3389 21.2856 30.3709L21.5584 30.0959L21.8229 29.8341L21.7719 29.885Z" fill="#FAF9F8"/>
<path d="M22.3872 29.2913C22.3545 29.4447 22.118 29.7283 22.3584 29.6572C22.4593 29.5713 22.5476 29.472 22.6208 29.3622C22.6746 29.2688 22.7438 29.1849 22.8255 29.1139C22.428 29.4169 22.4827 29.3821 22.552 29.2878C22.6214 29.1936 22.7292 29.0682 22.4048 29.293C22.5538 29.1528 22.7153 29.0261 22.8876 28.9145C22.7222 29.0136 22.5502 29.1086 22.3874 29.2183L22.4145 29.2122C22.4796 29.1975 22.4633 29.2012 22.4145 29.2122C22.4226 29.2288 22.4268 29.2471 22.4269 29.2655C22.2545 29.383 22.3727 29.2778 22.4145 29.2122C22.3151 29.3012 22.2208 29.3955 22.1321 29.4949L21.8876 29.769C21.9938 29.6608 22.1287 29.5293 22.3872 29.2913Z" fill="#FAF9F8"/>
<path d="M24.3749 30.2975C24.4106 30.3867 24.4135 30.4854 24.3829 30.5765C24.3343 30.711 24.3395 30.5863 24.307 30.5936C24.3293 30.6896 24.3202 30.9444 24.422 30.6463L24.4058 30.5769C24.4697 30.3207 24.5523 30.0693 24.653 29.8248C24.5512 29.977 24.4583 30.1348 24.3749 30.2975Z" fill="#FAF9F8"/>
<path d="M24.2889 28.5817C24.061 28.6605 23.8386 28.7538 23.6231 28.861L23.9043 28.8425L23.8919 28.7891C24.2583 28.6953 24.2187 28.648 24.2889 28.5817Z" fill="#FAF9F8"/>
<path d="M21.1767 30.4179L21.1456 30.2845L21.0441 30.6331L21.1767 30.4179Z" fill="#FAF9F8"/>
<path d="M20.6999 30.9691L20.6475 30.891L20.563 31.0673L20.6999 30.9691Z" fill="#FAF9F8"/>
<path d="M12.4678 31.2476L12.3491 31.3754C12.393 31.3369 12.4328 31.2941 12.4678 31.2476Z" fill="#FAF9F8"/>
<path d="M13.4209 30.4374L13.4085 30.384C13.3871 30.4394 13.385 30.4792 13.4209 30.4374Z" fill="#FAF9F8"/>
<path d="M16.6933 31.2717C16.4708 31.3949 16.1991 31.4787 16.2979 31.535L16.4218 31.552C16.4994 31.4473 16.5907 31.3531 16.6933 31.2717Z" fill="#FAF9F8"/>
<path d="M17.9098 27.1339L17.8024 27.2367C17.8567 27.2245 17.8892 27.2171 17.91 27.2574C17.9308 27.2976 17.9293 27.1688 17.9098 27.1339Z" fill="#FAF9F8"/>
<path d="M10.8591 29.7853L10.9011 29.5737C10.7089 29.8023 10.8358 29.7344 10.8591 29.7853Z" fill="#FAF9F8"/>
<path d="M21.1826 30.0515C21.3162 29.9337 21.4389 29.8046 21.5495 29.6656C21.3502 29.8397 21.159 29.9502 21.1826 30.0515Z" fill="#FAF9F8"/>
<path d="M12.1285 30.1111C12.0663 30.1869 12.0479 30.2304 12.0637 30.2493C12.1301 30.1669 12.1636 30.1144 12.1285 30.1111Z" fill="#FAF9F8"/>
<path d="M21.9156 29.1787L21.8304 29.254C21.7496 29.3993 21.6556 29.537 21.5495 29.6656C21.7156 29.5404 21.8425 29.3716 21.9156 29.1787Z" fill="#FAF9F8"/>
<path d="M7.59828 28.7068L7.64168 28.697C7.64168 28.697 7.615 28.6806 7.59828 28.7068Z" fill="#FAF9F8"/>
<path d="M6.73152 25.9204C6.7904 25.879 6.89686 25.8213 6.99247 25.7661C6.90025 25.8084 6.81279 25.8601 6.73152 25.9204Z" fill="#FAF9F8"/>
<path d="M19.3156 32.5504C19.2831 32.5577 19.2755 32.5987 19.2817 32.6254C19.2815 32.6112 19.2845 32.5972 19.2903 32.5843C19.2962 32.5713 19.3048 32.5598 19.3156 32.5504Z" fill="#FAF9F8"/>
<path d="M22.0786 27.4291C22.0849 27.4558 22.0535 27.4685 22.0786 27.4291V27.4291Z" fill="#FAF9F8"/>
<path d="M18.7147 32.349L18.8232 32.3245C18.8232 32.3245 18.8128 32.3044 18.7147 32.349Z" fill="#FAF9F8"/>
<path d="M18.4001 32.4199C18.4619 32.3998 18.5254 32.3855 18.59 32.3771C18.59 32.3771 18.5574 32.3844 18.5628 32.3832L18.4001 32.4199Z" fill="#FAF9F8"/>
<path d="M10.2923 30.3175L10.2597 30.3248C10.1956 30.4909 10.217 30.4355 10.2923 30.3175Z" fill="#FAF9F8"/>
<path d="M13.3089 34.169L13.3319 34.1694L13.3131 34.1624L13.3089 34.169Z" fill="#FAF9F8"/>
<path d="M12.8511 33.9689C12.8881 33.9759 12.9229 33.9911 12.9529 34.0134C12.9529 34.0134 12.9529 34.0134 12.9887 34.0446L13.065 34.078C13.1517 34.1105 13.2366 34.1476 13.3193 34.1891L13.3627 33.9097L13.0697 33.9758C12.9971 33.9688 12.9241 33.9665 12.8511 33.9689Z" fill="#FAF9F8"/>
<path d="M10.0669 33.0245L10.4601 32.874C10.1375 33.2781 9.79439 33.4229 10.1934 33.3217C10.0694 33.0351 11.5079 32.3962 11.3531 32.0998L11.6132 31.9906C11.5489 32.0332 11.5484 32.0558 11.4854 32.1037C12.0092 31.9013 11.657 31.6887 12.2141 31.3104C12.4124 31.1815 12.5677 31.1127 12.469 31.2529L12.8225 30.8587C12.9378 30.7653 12.9473 30.8306 12.8374 30.9227L13.1344 30.6536L13.4248 30.3804C13.4741 30.2738 13.6084 30.0413 13.6794 29.9298C13.8611 29.8271 13.6276 30.0257 13.6993 30.0152L13.9656 29.6631C14.1609 29.6191 13.9486 29.9084 13.7138 30.1018C14.24 30.0561 13.9303 29.8058 14.6744 29.3236L14.4074 29.6477C14.7275 29.5755 14.9001 29.312 15.3281 29.0414C15.2033 29.0695 14.4585 29.5239 14.7377 29.1296C14.893 29.0143 15.0204 28.8667 15.1108 28.6973C15.1971 28.7733 15.3496 28.5704 15.5515 28.334L15.6518 28.4461L15.7158 28.3531C15.7159 28.342 15.7133 28.331 15.7083 28.3211L15.6971 28.273C15.6767 28.2276 15.6653 28.1787 15.6635 28.129C15.7751 28.0196 15.8129 28.1571 15.8319 28.2876C15.8644 28.2802 15.8579 28.2031 15.8375 28.1403C15.8225 28.0976 15.8192 28.0518 15.8279 28.0074C15.8366 27.9631 15.857 27.9218 15.8871 27.8877C16.0064 27.8607 16.063 27.6627 16.367 27.1785C16.4149 27.2127 16.241 27.4709 16.2259 27.5529C16.2107 27.635 16.463 27.1007 16.4727 27.0929C16.4823 27.0852 16.4299 27.2037 16.399 27.2668C16.5383 26.9885 16.697 26.72 16.874 26.4633C17.0518 26.1481 17.0525 26.249 17.0585 26.4217C17.0645 26.5945 17.0783 26.8497 17.4149 26.6278C17.3174 26.8463 17.1212 26.9355 16.9694 27.1662C17.0869 27.125 17.2089 27.0975 17.3329 27.0843C17.398 27.0696 17.4902 27.0488 17.6305 26.9891L17.2197 27.4804C17.3518 27.3214 17.5157 27.1908 17.7012 27.0967C17.7198 27.0862 17.7406 27.0802 17.7619 27.0793C17.7833 27.0783 17.8046 27.0825 17.824 27.0913C17.8434 27.1001 17.8604 27.1134 17.8735 27.13C17.8866 27.1466 17.8954 27.1661 17.8993 27.1868C18.0839 26.9991 18.1892 26.8631 18.2707 26.7717L18.1878 27.0038C18.1463 27.1198 18.0857 27.2514 18.0857 27.2514C18 27.3494 17.9504 27.3325 17.8958 27.2943L17.9095 27.3529C17.6993 27.6025 17.6013 27.5741 17.4907 27.5653L17.8045 27.2699C17.6013 27.3047 17.4126 27.396 17.2605 27.533C17.2605 27.533 17.2931 27.5256 17.2729 27.5863C17.2274 27.6025 17.1846 27.6254 17.146 27.6543C17.0972 27.6653 17.146 27.6543 17.209 27.6794L16.8023 27.9677L16.9346 27.8985L16.7098 28.1345L16.5101 28.3312C16.5505 28.3912 16.5756 28.4598 16.5834 28.5314C16.5911 28.6029 16.5813 28.6753 16.5546 28.7423C16.4405 29.091 16.2727 29.4205 16.0572 29.7193C16.1001 29.4625 15.9281 29.5575 15.8194 29.4584C15.9746 29.3688 16.0951 29.231 16.162 29.0667L16.2431 28.9249L16.3063 28.8039C16.3342 28.7407 16.3728 28.6826 16.4204 28.6322C16.3143 28.7403 16.2685 28.6664 16.2685 28.6664L16.2484 28.7271C16.231 28.7959 16.2018 28.8614 16.1622 28.9206L15.9493 29.3056C15.866 29.2177 15.7652 29.3977 15.5827 29.5455C15.881 29.5512 15.3111 30.1683 15.143 30.4758C15.0679 30.4478 15.0568 30.3268 15.3401 29.9989C14.9001 30.2666 15.1786 30.6531 14.7719 30.9414C14.8371 30.8536 14.8797 30.816 14.8714 30.7561C14.7789 30.9959 14.3665 31.4315 14.3988 31.3006L14.464 31.2129L14.2408 31.5047C14.1454 31.6313 14.058 31.7636 13.9791 31.9007C13.8004 32.161 13.6407 32.4335 13.5012 32.7161C13.3955 32.9115 13.3134 33.1185 13.2567 33.3328C13.2422 33.3836 13.2352 33.4362 13.236 33.4891C13.2422 33.5157 13.2815 33.5125 13.3128 33.4998C13.1924 33.5699 13.0621 33.6219 12.9262 33.6544L12.9349 33.6917C12.9738 33.6963 13.0121 33.7046 13.0492 33.7165C13.0911 33.7205 13.1313 33.735 13.1658 33.7587C13.2004 33.7824 13.2281 33.8144 13.2464 33.8517C13.3522 33.8669 13.4598 33.8654 13.5651 33.8472C13.7032 33.7907 13.8365 33.7231 13.9634 33.6451C14.1834 33.5113 14.3095 33.4154 14.3095 33.4154C14.2077 33.5148 14.1143 33.6223 14.0304 33.7367L13.9706 33.8232L13.9414 33.8691L13.8812 33.9051C13.8257 33.9982 13.7434 34.0731 13.6447 34.1204C13.5459 34.1676 13.4352 34.1851 13.3264 34.1706C13.5647 34.2642 13.8306 34.2626 14.0678 34.1663C13.956 34.1522 13.9684 33.936 14.1341 33.8874C14.4397 33.9982 14.3392 33.9591 14.8853 33.9257C14.6955 33.9686 15.0361 33.5436 15.2845 33.4089C15.2318 33.477 15.2745 33.7088 15.1483 33.8047C15.1483 33.8047 15.3693 33.6257 15.5539 33.438C15.6715 33.3207 15.7817 33.1964 15.884 33.066C15.7269 33.2249 15.9154 33.3228 16.1478 33.2423C16.1207 33.2484 16.1416 33.2156 16.2155 33.1653L16.4377 32.9916C16.5728 32.8892 16.6992 32.7761 16.8157 32.6537L16.5506 32.8145C17.1658 32.2939 16.8554 32.0158 17.3743 31.4495C17.3588 31.5541 17.4677 31.8496 17.7705 31.5567C17.7275 31.0123 17.7939 30.465 17.9659 29.9459L18.107 29.9141L18.3041 29.4372C18.2878 30.0652 18.1915 30.6888 18.0174 31.2932C18.2442 31.0905 18.1422 31.2651 18.3934 30.922C18.5437 30.832 18.3505 31.1788 18.2728 31.2862L18.5887 30.878L18.8938 30.4722C18.7341 30.424 19.1756 29.7461 19.0359 29.7102C19.0359 29.7102 18.9283 29.9591 18.8141 30.2038L18.5827 30.7053C18.4272 30.6505 18.5521 29.9372 18.9496 29.3646C19.0991 29.2467 19.1186 29.6241 19.1737 29.6398C19.2465 29.4093 19.3605 29.1934 19.5104 29.0023L19.4249 29.2967C19.6818 29.0029 19.5889 28.6533 19.9768 28.358C20.0738 28.2351 20.4182 28.0956 20.3549 28.02C20.0511 28.0886 19.5658 27.8442 19.5632 27.637C19.8236 27.378 20.1236 27.1607 20.4523 26.9929C20.7235 26.9317 20.414 27.4901 20.6569 27.4297C20.6482 27.3923 20.6872 27.2656 20.7026 27.234C20.8166 27.2084 20.7325 27.3621 20.9133 27.2315C20.8673 27.0341 21.369 27.1287 20.9778 27.0428C21.0533 26.9902 21.1469 26.9691 21.2382 26.9841C21.3315 27.0062 21.4227 27.0364 21.5105 27.0743C21.4956 27.0103 21.6284 26.9186 21.8061 26.9459C21.905 26.9614 21.9964 27.0073 22.0671 27.0772C22.1378 27.147 22.1841 27.2371 22.1993 27.3345C22.1614 27.3431 22.1124 27.4271 22.0819 27.4677C22.0385 27.7744 21.9078 28.0628 21.7049 28.2996C21.5452 28.5209 21.3576 28.7205 21.1512 28.9861C21.0806 29.002 20.8433 29.2576 20.8748 29.0989C20.8384 29.2331 20.7793 29.3604 20.6999 29.4753C20.3412 29.7247 20.9683 29.0834 20.6439 29.2352C20.7072 29.3108 20.4217 29.7514 20.2866 30.029C20.4605 30.0403 20.7308 29.4852 20.8605 29.2088C21.0243 29.3235 20.8771 29.8677 20.5216 30.4982C20.2189 30.9877 20.2653 30.6234 20.2309 30.721C19.5594 31.5632 19.9639 31.6573 19.3126 32.2927C18.9953 32.4991 19.098 32.1558 18.9749 32.1667C19.1819 31.8887 19.4086 31.6255 19.6535 31.3791L19.3753 31.6553C19.4564 31.4602 19.5735 31.2815 19.7206 31.1281C19.4676 31.2919 18.723 32.4089 18.1472 33.0497L18.0478 33.162L18.2096 33.1704L18.3944 33.1793C18.5518 33.1438 18.7876 33.0289 18.6571 33.0078L18.4021 33.0653C18.1673 32.989 18.8571 32.8616 18.5359 32.8554C18.8514 32.7393 19.1313 32.519 19.5562 32.3333L19.71 32.4053C19.5612 32.4276 19.4216 32.4902 19.3068 32.5861C19.4442 32.4652 20.0467 32.3799 20.0972 32.0821L19.7609 32.1579C19.9899 31.8434 20.2408 31.5447 20.5118 31.2642C20.2839 31.3156 20.4574 31.3494 20.1278 31.4294C20.2905 31.3927 20.1042 31.5976 19.9216 31.7454C19.7391 31.8933 19.5571 32.0186 19.7845 31.9898C19.4386 32.0004 19.3169 32.2131 18.9382 32.1806C18.9481 32.2233 19.0858 32.226 18.8007 32.3015C18.7878 32.3242 18.7714 32.3449 18.7523 32.3629C18.8095 32.3563 18.8675 32.3624 18.922 32.3808C18.8271 32.537 18.4106 32.6365 18.202 32.6724L18.5078 33.2492C18.5178 33.2319 18.525 33.2133 18.5292 33.1938C18.6796 33.0308 18.519 33.2972 18.6351 33.2317L18.7394 32.9443C18.8465 32.9875 19.2271 32.5872 18.9766 33.0312L19.2566 32.6648C19.4816 32.4686 19.6707 32.236 19.8158 31.9771C19.9662 31.814 20.0501 31.4638 20.0056 31.6647L20.3803 31.0187C20.7706 30.3554 21.2382 29.7392 21.7737 29.1826C21.8352 29.0789 21.8954 28.9698 21.9761 28.8505L22.3018 28.3615L22.432 28.3322C22.5845 28.0326 22.6849 27.7101 22.7291 27.3779C22.7544 27.2539 22.7526 27.1261 22.7239 27.0028C22.6951 26.8796 22.6401 26.7637 22.5624 26.663C22.531 26.4482 22.4182 26.2529 22.2465 26.1165C21.9973 25.9487 21.7016 25.8605 21.3996 25.8639C21.0397 25.8586 20.6856 25.954 20.3788 26.139C20.236 26.2263 20.1004 26.3245 19.9733 26.4326L19.7435 26.6473L19.8185 26.7483C19.534 27.0733 19.2915 27.4317 19.0965 27.8153L19.2012 27.8478C19.0396 28.2324 18.5513 28.6851 18.2206 29.2258C18.2069 29.1671 18.3026 29.0388 18.3853 28.9528C17.7743 29.4668 17.6749 30.3877 17.1074 30.819C17.0556 30.9436 16.9704 31.0521 16.8608 31.1329L16.8805 31.0948L16.8362 31.1497L16.6499 31.2815C16.7088 31.2535 16.7639 31.2185 16.814 31.1771C16.7338 31.2739 16.6214 31.4284 16.5144 31.5817L16.3784 31.5618L16.3404 31.5704C16.1859 31.667 16.281 31.7073 16.4107 31.7005C16.3649 31.7714 16.3229 31.8446 16.2849 31.9198C16.0517 31.8994 15.9627 32.3013 15.6782 32.2813C15.7056 32.3986 15.349 32.6082 15.195 32.9518C15.1875 32.9198 15.1863 32.9144 15.2356 32.8809C15.0858 32.9144 14.947 32.9843 14.8319 33.0842L14.8733 32.9682L14.9256 32.8497C14.9256 32.8497 14.8141 32.9591 14.6742 33.0692C14.5343 33.1794 14.3739 33.2998 14.3739 33.2998C14.2928 33.1721 14.3747 33.0582 14.71 32.8309C14.5989 32.9072 14.4741 32.9621 14.3422 32.9925C14.2609 33.0108 14.1849 33.028 14.2033 32.9845C14.2217 32.941 14.1884 32.9205 14.1184 32.8408L14.2946 32.7393C14.3423 32.6499 14.2486 32.5419 14.4227 32.4072C14.5389 32.3006 14.6455 32.1845 14.7415 32.0601L15.1022 31.5744C15.5108 31.0181 15.9608 30.4924 16.4486 30.0017C16.0823 30.0225 16.8988 29.6306 16.7576 29.4659C16.8553 29.4438 16.9897 29.3349 16.9144 29.526C16.9516 29.4591 16.994 29.3951 17.0411 29.3346L17.2295 29.0899L17.566 28.6715C17.7489 28.452 17.884 28.1979 17.9629 27.9249C18.1191 27.8111 17.994 28.0583 18.0984 27.9674C18.1366 27.8478 18.1979 27.7367 18.2791 27.6402C18.3877 27.5427 18.299 27.7256 18.2588 27.847C18.7631 26.9976 18.4283 27.1292 18.1195 27.2494C18.2701 27.1184 18.4001 26.9661 18.5051 26.7974C18.5407 26.7052 18.5229 26.653 18.4641 26.6214C18.6133 26.453 18.783 26.2013 18.6615 26.5375C18.8438 26.2662 19.1309 25.3423 18.9764 25.4389C19.0065 25.3268 18.993 25.2077 18.9384 25.1049C18.8846 24.9312 18.773 24.7804 18.6216 24.6765C18.5537 24.625 18.4735 24.5914 18.3886 24.5791C18.3037 24.5668 18.2171 24.5761 18.1369 24.6061C18.169 24.5969 18.2016 24.5895 18.2346 24.5841C17.9456 24.7897 17.8839 24.7699 17.5974 24.9861L17.6183 24.9533C17.4586 25.0181 17.3159 25.1175 17.2007 25.2441C17.075 25.3792 16.9282 25.4938 16.766 25.5836L16.7311 25.7768C16.6683 25.9746 16.5319 26.1418 16.3491 26.2448C16.0878 26.4036 15.8666 26.6186 15.702 26.8736L15.8632 26.7811C15.7474 26.9527 15.5759 27.0804 15.3767 27.1436C15.2648 27.2025 15.142 27.2639 15.0218 27.3359C14.9229 27.3966 14.8278 27.463 14.737 27.5349C14.6827 27.5471 14.7546 27.4636 14.8683 27.3144L14.6498 27.504L14.5725 27.5888C14.5433 27.6348 14.5862 27.6475 14.5912 27.6689C14.5962 27.6902 14.7125 27.7482 14.5395 27.9613C14.4093 27.9907 14.4847 27.7266 14.2136 27.9843C14.0458 28.0727 13.6629 28.9284 13.1803 29.1607C13.3051 29.1326 13.4299 29.1044 13.2761 29.302C13.0003 29.5888 12.3325 29.8349 12.1914 30.2092C12.1426 30.2203 12.1209 30.2252 12.11 30.2276C11.8285 30.4955 11.5673 30.7834 11.3287 31.0889C10.8817 30.9595 9.90646 32.3362 9.71167 32.0151L9.16423 32.3857L9.76539 32.9802L9.89918 32.7703L9.90913 32.813C10.1319 32.5586 10.2922 32.2573 10.3776 31.9324C10.4766 31.8426 10.4373 31.9189 10.4527 31.9604C10.8739 31.5877 11.2074 31.1292 11.4299 30.6168L11.5646 30.6314C11.6346 30.4415 12.5349 29.7724 12.8861 28.9519C12.8861 28.9519 12.896 28.9946 12.8772 29.0606C13.0981 28.6121 13.4667 28.1359 13.6935 27.6636C13.9202 27.1912 14.0819 26.7336 13.9112 26.4913C13.9112 26.4913 13.9239 26.3256 13.9233 26.1516C13.9227 25.9777 13.9138 25.8169 13.9138 25.8169C13.7662 26.6532 13.748 25.6689 13.6319 26.004C13.6463 25.8299 13.6851 25.6586 13.7474 25.495L13.8532 25.2633L13.5798 25.4373C13.5092 25.4532 13.4767 25.4606 13.5239 25.3938L13.723 25.0232L13.8325 25.4926C13.8419 25.5185 13.8481 25.5454 13.8511 25.5727L13.8256 25.6346C13.8881 25.6823 13.9287 25.6113 13.9526 25.4936L14.1248 24.7135L13.4673 25.3223C13.2555 25.5161 12.9298 26.0051 12.8544 25.9266C11.8719 27.1983 10.8102 28.3756 9.88242 29.5395L10.1273 29.5123L9.79262 29.9135C9.67361 29.9909 9.57019 29.9637 9.80795 29.6854C9.613 29.7799 9.48015 30.2142 9.49846 30.2438C8.97546 30.7436 9.52814 29.9058 9.37773 30.0688L9.1976 30.3004L9.2627 30.2857C9.19812 30.5179 9.06912 30.7278 8.89015 30.892C8.67339 31.0644 8.71655 30.9311 8.63427 30.9946C8.63427 30.9946 8.5963 31.0032 8.51189 31.1064L8.27547 31.317L8.03656 31.5169L8.31867 31.4533C8.15188 31.693 7.83588 31.8317 8.1789 31.7599C7.7589 31.9547 7.35297 32.1776 6.96398 32.427C6.74612 32.5452 6.52032 32.6487 6.28814 32.7367C6.20445 32.7793 6.11111 32.8004 6.01689 32.7979C5.87962 32.8804 5.7271 32.9354 5.56811 32.9597C5.40912 32.984 5.24681 32.9771 5.09055 32.9394C5.10051 32.9821 4.96005 33.1878 4.61892 33.0963C4.80427 33.0096 4.87027 32.9497 4.88744 32.901C4.89037 32.8899 4.89054 32.8783 4.88794 32.8671C4.88534 32.856 4.88005 32.8456 4.87251 32.8369L4.86505 32.8049C4.86505 32.8049 4.89013 32.7656 4.90392 32.7512C5.0286 32.565 5.20812 32.4207 5.41846 32.3376C5.2373 32.4177 5.3138 32.305 5.38487 32.1935C5.45595 32.082 5.57585 31.9595 5.3463 32.0281C5.56137 31.8729 5.4998 32.0497 5.69012 31.9843C5.72286 31.9354 5.75992 31.8895 5.80086 31.847C5.84223 31.804 5.9575 31.7106 6.03852 31.6418C6.22228 31.4993 6.42232 31.3531 6.6332 31.2044C7.0805 30.8923 7.4884 30.5288 7.84828 30.1217C7.83833 30.0791 7.65298 30.1658 7.77049 29.9596L8.03811 29.8094L8.30867 29.6473C8.42992 29.4571 8.23776 29.3432 8.59353 29.1057C8.53385 29.1192 8.44367 29.1732 8.51643 29.0445C9.01363 28.4611 9.41154 27.8024 9.69476 27.0941C9.90673 26.6483 10.0252 26.1651 10.043 25.6734C10.0383 25.4542 9.96683 25.2414 9.83777 25.0626C9.68041 24.8286 9.51258 24.917 9.33953 24.8605C8.93175 24.9974 8.51313 25.1367 8.08739 25.2945L7.55981 25.4809L7.08276 25.639C7.38656 25.5705 7.21579 25.6708 7.0179 25.7772C7.15895 25.7454 7.0403 25.8732 7.11535 25.9012L6.67876 26.0615L6.24341 26.227C6.18512 26.4423 5.42372 26.7769 5.44557 26.9685L5.66401 26.7789C5.45576 27.1347 6.32397 26.7929 6.40584 27.0215C6.65002 26.6239 7.47467 26.7075 7.92013 26.169C8.07203 26.1347 7.83945 26.2883 7.94999 26.297C8.01033 26.2113 8.08921 26.1398 8.18098 26.0877C8.27188 26.0347 8.37122 25.9971 8.47483 25.9765L8.44974 26.0158C8.57437 25.9547 8.70359 25.903 8.83626 25.8613L8.96104 25.8331C8.99901 25.8246 9.04241 25.8148 9.05904 25.8616C9.10815 25.9397 9.12958 26.0316 9.12 26.123C9.07417 26.3167 8.99565 26.5014 8.8877 26.6696L9.0179 26.6402C8.99221 26.6898 8.96093 26.7364 8.92467 26.7792L8.81687 26.9046C8.85668 27.0753 8.91452 26.8825 8.98311 26.7604C9.05169 26.6382 9.08186 26.5472 9.1489 26.6387C9.04303 26.7099 8.96113 26.8105 8.91362 26.9277L8.62459 27.4758C8.42256 27.8583 8.19012 28.2083 8.01821 28.2303C7.80249 28.5541 8.18638 28.1923 7.97316 28.5268L7.84838 28.555L7.87948 28.6883C7.71359 28.883 7.56542 28.9332 7.51207 28.9004C7.56184 28.8369 7.60525 28.7688 7.64168 28.697C7.38356 28.9125 7.08164 29.4298 6.98185 29.4916L7.26087 29.2434C6.89692 29.6921 6.48205 30.0984 6.02433 30.4545L5.33768 31.0361C5.24829 31.118 5.05741 31.279 4.91412 31.4236C4.77272 31.559 4.64041 31.7033 4.51803 31.8555L4.65704 31.7905C4.32232 32.1917 4.21407 32.3396 4.04365 32.4904C3.81655 32.7529 3.62514 33.0433 3.47425 33.3544L3.4842 33.3971C3.49788 33.4558 3.69229 33.4569 3.8199 33.4899L4.21109 33.5757C3.87778 33.5667 4.58252 33.7728 4.16161 33.7554C4.44817 33.8089 4.74255 33.8073 5.02851 33.7508C5.14244 33.7251 5.22924 33.7055 5.62412 33.5379L5.76462 33.6016C6.02018 33.4608 6.28517 33.3373 6.55778 33.2318C6.18076 33.4516 6.93573 33.2364 6.49023 33.5054C7.57523 33.2607 7.74378 32.6611 8.282 32.6184C8.38662 32.3814 8.20207 32.496 7.99706 32.6208C7.79205 32.7457 7.57699 32.9009 7.67598 32.8112C7.45356 32.8613 7.88672 32.466 8.12767 32.2994C8.36861 32.1327 8.75438 32.2198 9.31501 31.661C9.25862 31.713 9.26778 31.7278 9.21263 31.7851C9.47109 31.6202 9.55537 31.3204 9.87395 31.1194C9.89098 30.874 10.1819 30.7747 10.0757 30.6134L9.86092 30.8921L9.64068 31.172C9.84191 30.7355 10.1124 30.3333 10.4421 29.9804C10.4087 30.1079 10.3586 30.2306 10.293 30.3454C10.4547 30.2303 10.495 30.0359 10.662 29.9196C10.779 30.0785 10.1625 30.5938 9.98798 31.0206C10.1913 30.913 10.3949 30.3168 10.4283 30.6069C10.4267 30.2085 10.9351 30.0377 11.0927 29.5136L11.1597 29.6052C11.2091 29.4807 11.2736 29.3624 11.3517 29.253L11.3012 29.5508C11.4591 29.1502 11.8781 28.9883 12.0689 28.6308C11.564 29.3062 11.841 28.6822 11.5662 28.9239C12.0768 28.0281 12.1619 28.6379 12.8219 27.6973C12.7395 27.8338 12.4125 28.1209 12.5196 27.8946C12.6604 27.7358 12.8186 27.5928 12.9912 27.4681C13.4205 26.8603 12.8284 27.5049 12.9724 27.1916C13.2408 27.0693 13.1531 26.8645 13.32 26.5517L13.4146 26.6146C14.0024 25.9766 13.3399 26.2945 13.9156 25.7266L13.8396 26.0863L14.0181 25.799L13.1713 25.4733L13.1862 25.5373L13.0628 25.4978C13.1256 25.79 13.0926 26.0943 12.9685 26.367C13.0671 26.2998 13.1691 26.4678 13.0718 26.8098C12.9259 27.0168 13.0332 26.6444 12.8603 27.127C12.8204 27.0501 12.8059 26.9629 12.8187 26.8775C12.8316 26.7921 12.8711 26.7127 12.9318 26.6504C12.9231 26.6131 12.902 26.5224 12.8662 26.4911C12.7484 26.7498 12.6523 27.0175 12.5789 27.2916C12.6083 27.2324 12.6429 27.1757 12.6821 27.1223C12.6821 27.1223 12.6514 27.3089 12.6074 27.4873C12.5633 27.6657 12.5097 27.8519 12.5097 27.8519C12.4148 27.9351 12.4317 27.8358 12.4443 27.7431C12.3991 27.8964 12.3424 28.0462 12.2747 28.1913C12.224 28.096 12.141 28.0586 12.2507 27.7699C12.2507 27.7699 12.1921 27.9348 12.1213 28.0967L11.9799 28.4206C11.9148 28.4353 11.6821 28.6619 11.7056 28.5667C11.4419 28.8564 11.2734 29.456 10.8595 29.8358C10.844 29.9038 10.8117 29.9671 10.7653 30.0198C10.362 30.3788 10.0144 30.794 9.7336 31.2521L9.37624 31.4338C9.10323 31.8547 9.84593 31.1706 9.3919 31.8683C9.08749 32.3749 9.14563 31.9631 8.98482 32.1061C8.9463 32.2102 8.90856 32.3423 8.85162 32.4899L7.79491 35.1822L9.66733 33.2943C9.88539 33.063 10.1539 32.8834 10.4528 32.769C10.329 32.861 10.2002 32.9463 10.0669 33.0245ZM14.731 29.1255C14.6629 29.2251 14.5479 29.442 14.4423 29.4545C14.4446 29.2687 14.564 29.2418 14.731 29.1255ZM17.0717 27.9967C17.0655 27.9701 17.1265 27.8889 17.271 27.7496C17.2223 27.8444 17.1545 27.9285 17.0717 27.9967ZM19.4598 32.3606C19.6336 32.1754 19.5676 32.2352 19.4435 32.3643L19.4598 32.3606ZM19.0967 32.7626C19.0795 32.8114 19.1092 32.8159 19.1092 32.8159C19.1092 32.8159 19.1782 32.6712 19.268 32.5667C19.2138 32.579 19.1549 32.6203 19.0804 32.7663L19.0967 32.7626ZM8.59122 31.0549L8.68265 31.0062C8.54807 31.1881 8.5736 31.1262 8.59122 31.0549Z" fill="#FAF9F8"/>
<path d="M17.0939 27.6267L17.2585 27.4998C17.1945 27.5291 17.1382 27.5726 17.0939 27.6267Z" fill="#FAF9F8"/>
<path d="M20.8035 27.3236C20.7521 27.3396 20.6995 27.3514 20.6461 27.3591C20.6586 27.4124 20.7296 27.374 20.8035 27.3236Z" fill="#FAF9F8"/>
<path d="M19.7255 31.7616L19.5017 31.9525C19.5753 31.9008 19.6562 31.8599 19.7417 31.8309C19.7417 31.8309 19.6746 31.8124 19.7255 31.7616Z" fill="#FAF9F8"/>
<path d="M22.2375 30.1674C22.2614 30.1227 22.3064 30.0957 22.3357 30.0498L22.289 30.021C22.1507 30.187 22.0696 30.3288 22.2375 30.1674Z" fill="#FAF9F8"/>
<path d="M20.1893 31.8648C20.276 31.9182 20.4101 31.7588 20.5635 31.5838L20.5309 31.5912C20.486 31.4722 20.3456 31.6779 20.1893 31.8648Z" fill="#FAF9F8"/>
<path d="M20.5994 31.5421L20.7523 31.3896C20.7061 31.3383 20.6797 31.4453 20.5994 31.5421Z" fill="#FAF9F8"/>
<path d="M18.73 33.3451C18.72 33.3511 18.7117 33.3596 18.706 33.3697C18.7004 33.3799 18.6975 33.3913 18.6978 33.4029L18.2231 32.4935C18.2549 32.4583 18.2441 32.3877 18.2787 32.4136C18.3133 32.4395 18.27 32.3762 18.2224 32.3926L18.7791 33.4576C18.8794 33.3002 18.9592 32.9565 18.73 33.3451Z" fill="#FAF9F8"/>
<path d="M20.5463 31.9752L20.4024 31.9459L20.3642 32.1005L20.5463 31.9752Z" fill="#FAF9F8"/>
<path d="M18.9109 32.8719L19.2798 32.7887C19.2798 32.7887 19.3091 32.7428 19.3529 32.7104C19.1434 32.7914 18.8926 32.8423 18.9109 32.8719Z" fill="#FAF9F8"/>
<path d="M19.3492 32.6944C19.4447 32.6568 19.5326 32.6027 19.6089 32.5348L19.3492 32.6944Z" fill="#FAF9F8"/>
<path d="M20.1641 32.3197L20.0501 32.3454L19.9365 32.4216L19.8217 32.4924L19.9937 32.3974L20.1641 32.3197Z" fill="#FAF9F8"/>
<path d="M20.3616 30.3996L20.5819 30.0466C20.5682 29.9879 20.4897 30.0674 20.4061 30.1986C20.3224 30.3298 20.2881 30.4274 20.3616 30.3996Z" fill="#FAF9F8"/>
<path d="M19.3421 31.2191C19.3936 31.1722 19.4573 31.1404 19.5262 31.1271L19.412 31.0293L19.3421 31.2191Z" fill="#FAF9F8"/>
<path d="M20.041 30.2248C20.0285 30.1714 20.3113 29.6696 20.0111 30.0967C20.0085 30.1591 19.7882 30.512 20.041 30.2248Z" fill="#FAF9F8"/>
<path d="M20.1229 27.4659L20.1893 27.3835L19.9867 27.2495L20.1229 27.4659Z" fill="#FAF9F8"/>
<path d="M17.338 32.3955C17.7406 32.0408 17.2944 32.2088 17.6774 31.8922C17.7164 31.7654 17.3834 32.1494 17.4278 32.0215C17.2581 32.2731 17.1157 32.3726 17.338 32.3955Z" fill="#FAF9F8"/>
<path d="M17.4337 31.9977C17.4616 31.9506 17.4865 31.9019 17.5081 31.8517C17.4804 31.8989 17.4556 31.9476 17.4337 31.9977Z" fill="#FAF9F8"/>
<path d="M5.62734 26.4502L5.32593 26.6024L5.55254 26.5457L5.62734 26.4502Z" fill="#FAF9F8"/>
<path d="M5.21612 26.9641L5.06229 26.8921L4.99021 27.1218C5.05267 27.0533 5.12984 26.9995 5.21612 26.9641Z" fill="#FAF9F8"/>
<path d="M15.5798 28.6758L15.5698 28.6331C15.5101 28.6465 15.4537 28.6986 15.341 28.8026L15.5798 28.6758Z" fill="#FAF9F8"/>
<path d="M12.2391 31.6136L12.3034 31.5711L12.104 31.5486L12.2391 31.6136Z" fill="#FAF9F8"/>
<path d="M9.00036 31.7319C8.90216 31.8495 8.82183 32.0193 8.72611 32.1476C8.90216 31.8495 9.16923 31.7949 9.00036 31.7319Z" fill="#FAF9F8"/>
<path d="M12.3802 4.62114C12.4616 4.60278 12.3516 4.49843 12.4312 4.57033C12.4207 4.62324 12.4023 4.66671 12.3802 4.62114Z" fill="#FAF9F8"/>
<path d="M15.2053 4.39397C15.514 4.07726 15.795 4.47436 16.1299 4.26968C16.1624 4.26234 16.1004 4.46165 16.166 4.4244C16.4775 4.16882 16.8598 4.36339 17.2596 4.55962L17.2383 4.61498C17.3321 4.64998 17.3912 4.46257 17.4692 4.47867C17.5471 4.49478 17.4804 4.52669 17.4928 4.58004C17.4679 4.47334 17.6197 4.51211 17.6161 4.42308C17.664 4.45719 17.7002 4.53888 17.7644 4.56933L17.737 4.45196C17.691 4.25456 17.8374 4.29455 17.9196 4.23107C17.9481 4.21666 17.97 4.19229 17.9811 4.16276C17.9922 4.13324 17.9916 4.1007 17.9795 4.07156C17.987 4.10357 17.9932 4.13025 18.0403 4.13647C18.0108 3.78935 18.0678 3.5687 18.0532 3.2856C18.1076 3.308 18.1666 3.31777 18.2255 3.31414C18.1809 3.30447 18.1406 3.28125 18.1103 3.24778C18.0799 3.2143 18.061 3.17227 18.0563 3.12766C18.1974 3.09585 17.9443 2.99007 18.0091 2.92492L18.0362 2.91881C17.8986 2.84313 18.131 2.83565 17.9621 2.77265L18.0761 2.74696C17.8826 2.70075 18.183 2.6667 18.0896 2.60913L18.0516 2.6177C18.0108 2.56513 18.1097 2.54844 18.0822 2.5041C18.0599 2.40806 18.1513 2.35937 17.9986 2.36573C18.1234 2.33759 18.0469 2.4503 18.2288 2.39804C18.1405 2.164 18.1112 1.91239 18.1435 1.66479C18.1619 1.62132 18.1022 1.63478 18.0822 1.62245L17.9867 1.60468C18.0068 1.54398 18.0006 1.51731 18.0353 1.47018C17.9756 1.48363 17.8814 1.4712 17.802 1.52278C17.802 1.52278 17.8305 1.44898 17.8159 1.43542C17.8013 1.42186 17.6551 1.57838 17.6281 1.51147C17.6734 1.47647 17.708 1.4298 17.728 1.37663C17.6098 1.48191 17.5468 1.4568 17.4679 1.48582C17.4679 1.48582 17.5167 1.47481 17.5223 1.40056C17.4078 1.52184 17.388 1.36345 17.3107 1.44827L17.3488 1.36668C17.2484 1.25455 17.2993 1.54631 17.2143 1.47563C17.2143 1.47563 17.2018 1.42228 17.2378 1.38048C17.1416 1.53133 17.0036 1.47822 16.9176 1.52569C16.916 1.51485 16.9135 1.50415 16.9101 1.49368C16.8179 1.51448 16.7191 1.45814 16.6151 1.52652C16.6052 1.48383 16.6288 1.31566 16.5282 1.34958C16.5288 1.52353 16.3566 1.42196 16.4189 1.61569C16.333 1.59013 16.1992 1.53047 16.1441 1.58783C16.1805 1.52347 16.0955 1.37976 16.1661 1.36386L16.1074 1.25916C16.0912 1.1898 16.1637 1.28016 16.1425 1.18946C16.1046 1.19803 16.0073 1.27051 15.9689 1.22861C15.9087 1.33766 15.8534 1.54108 15.7515 1.56966C15.7975 1.49751 15.7067 1.37759 15.7452 1.34647L15.6141 1.6905C15.5816 1.69784 15.583 1.55712 15.5525 1.5977C15.5533 1.63763 15.5427 1.67699 15.5219 1.7113C15.5219 1.7113 15.3754 1.74433 15.3527 1.59784C15.3365 1.52848 15.4123 1.58438 15.3641 1.4998C15.3158 1.41522 15.2993 1.56494 15.2317 1.56896C15.1863 1.54551 15.1085 1.65289 15.1635 1.74158C15.1906 1.73547 15.1398 1.64022 15.1915 1.69034C15.1852 1.72832 15.1655 1.76291 15.1359 1.78806C15.1062 1.81322 15.0686 1.82734 15.0295 1.82797C15.0295 1.82797 15.0458 1.75127 15.0467 1.70614C14.985 1.81279 14.8951 1.901 14.7865 1.96138C14.8039 2.03607 14.8138 1.80921 14.8292 1.85067C14.6962 1.74588 14.5799 2.03044 14.4641 1.87685C14.4641 1.87685 14.4902 1.98888 14.4853 1.96754C14.4803 1.9462 14.4162 1.84273 14.3815 1.88986C14.3653 1.82051 14.3272 1.9021 14.2838 1.91188C14.2404 1.92167 14.2764 1.87987 14.3077 1.8672C14.2538 1.92989 14.0312 2.05308 13.89 1.9614C13.9011 2.00942 13.8163 2.13525 13.7867 2.1307L13.763 2.02934C13.7481 1.96531 13.66 2.05258 13.6484 1.9541C13.5932 2.08449 13.8993 1.83013 13.8112 1.9174C13.79 1.8267 13.6983 2.09448 13.7081 1.94065C13.643 1.95533 13.5973 2.07793 13.5236 1.98224C13.5236 1.98224 13.5685 1.83174 13.4913 1.84353C13.4141 1.85532 13.4645 1.90011 13.3869 1.93447L13.3347 1.97994C13.3571 2.07597 13.2458 1.96628 13.284 2.0812C13.2641 1.99584 13.1376 2.11424 13.1582 1.95795L13.3277 1.85234C13.2898 1.8609 13.2575 1.99173 13.2198 2.05076C13.2103 2.03265 13.2056 2.01246 13.2062 1.99207C13.1858 2.19881 13.1094 1.96897 13.0549 2.12725C12.9795 2.04879 12.8435 2.10194 12.8178 1.96734C12.7518 2.02715 12.6883 2.09763 12.6245 2.04462C12.5608 1.99161 12.6625 2.03605 12.6663 1.97903C12.6702 1.92201 12.6113 1.96337 12.5687 2.00106C12.5261 2.03874 12.4984 1.87091 12.4568 1.79044C12.3895 1.84492 12.394 1.96185 12.3818 2.03198C12.3332 1.82392 12.196 2.14127 12.1512 1.94921C12.1512 1.94921 12.2502 1.8595 12.2081 1.80159C12.1596 1.59353 12.0799 1.93722 12.0074 1.84686L12.008 2.02081C11.9819 1.90878 11.8673 2.10308 11.8963 1.93369C11.8587 1.99271 11.8004 1.86545 11.7931 2.02996C11.6598 1.8747 11.4459 2.10826 11.3796 1.77504C11.3525 1.78116 11.3145 1.78972 11.3119 1.85208C11.3094 1.91443 11.3658 1.78938 11.3662 1.83984C11.3665 1.8903 11.3382 1.89109 11.3365 1.90831C11.3348 1.92554 11.2606 1.85242 11.2942 1.72692C11.2046 1.61234 11.1687 1.9967 11.0486 1.92269C11.0608 1.85256 11.0546 1.82588 11.0275 1.832L10.9894 1.91359C10.9077 1.88148 10.9521 1.75354 10.9585 1.63416C10.9151 1.64395 10.8663 1.65496 10.8378 1.72877L10.803 1.57939C10.8278 1.68609 10.7611 1.64497 10.739 1.67243C10.7278 1.62441 10.6827 1.65143 10.6568 1.66288C10.6587 1.68862 10.6664 1.71361 10.6795 1.73595C10.6927 1.75829 10.7108 1.77739 10.7326 1.79181C10.71 1.84183 10.6729 1.80526 10.6457 1.88441C10.66 1.77448 10.5811 1.8035 10.549 1.78828C10.5169 1.77305 10.4984 1.88954 10.4863 1.88665C10.4742 1.88377 10.4321 1.89889 10.4639 1.79062C10.4958 1.68236 10.4776 1.84931 10.5127 1.77961C10.5479 1.70991 10.4791 1.63556 10.4386 1.70648C10.398 1.7774 10.4449 1.92967 10.3708 1.85655C10.2966 1.78342 10.3938 1.78396 10.4135 1.74584L10.3623 1.67315L10.3521 1.77652C10.3521 1.77652 10.3447 1.74451 10.3409 1.72851C10.3212 1.83966 10.2324 1.75298 10.2176 1.88547C10.1851 1.89281 10.1489 1.81112 10.1126 1.80246C10.0977 1.73843 10.0171 1.78469 9.98243 1.83182C9.98243 1.83182 9.9119 1.84772 9.88512 1.9043C9.82724 1.82751 9.84562 1.5145 9.82416 1.64288C9.76449 1.65634 9.75005 1.8393 9.77707 1.90621C9.67579 1.8392 9.59795 2.01961 9.49552 1.87424C9.50548 1.91692 9.5117 1.94359 9.48412 1.97228C9.3373 1.95485 9.30783 2.14681 9.17624 1.97432C9.16629 1.93164 9.15385 1.87829 9.10219 1.82817C9.12458 1.9242 9.02928 1.76038 9.11836 1.89752C9.14695 1.9505 9.18328 1.99907 9.22621 2.04167C9.23865 2.09502 9.1948 2.12737 9.11228 2.06736C9.14185 2.08793 9.16587 2.11529 9.18226 2.14705C9.07645 2.03614 9.02638 2.04181 9.05634 2.09683L9.13219 2.15272L9.04798 2.10994C9.04798 2.10994 9.20092 2.22707 9.11795 2.18963L9.02707 2.14274C9.08789 2.20764 9.18624 2.28654 9.0957 2.29011L8.91215 2.28658C8.91215 2.28658 8.9863 2.35971 9.03513 2.3487C8.93205 2.37194 8.9107 2.4273 8.791 2.40375C8.87441 2.45895 8.93876 2.53778 8.97552 2.6298C9.01227 2.72181 9.01969 2.82265 8.99679 2.91891L8.93169 2.93359C8.86116 2.9495 9.05681 2.95591 9.00505 2.97882C8.95329 3.00172 8.85857 3.01185 8.77685 2.97974C8.7 3.042 8.90356 3.05786 8.93397 3.09031C8.96438 3.12277 8.87644 3.06398 8.99365 3.07686C9.11086 3.08973 8.9272 3.15923 9.06362 3.15654C8.99359 3.17209 8.92155 3.17698 8.85001 3.17102L8.92506 3.19902C8.75688 3.23695 8.62689 3.12026 8.42989 3.18153L8.43985 3.22421C8.29337 3.25724 8.26894 3.12798 8.22623 3.23869C8.33243 3.2819 8.45108 3.28513 8.55954 3.24776C8.60657 3.327 8.89037 3.24615 8.89151 3.32451C8.89265 3.40288 8.87783 3.26583 8.75429 3.2993C8.63076 3.33278 8.82721 3.36709 8.77918 3.406C8.82054 3.36298 8.96363 3.36441 8.99075 3.35829C8.93436 3.41032 8.86055 3.38765 8.8497 3.3901C8.92565 3.37297 8.99234 3.41409 9.03958 3.34728C9.21318 3.30813 9.00195 3.40631 9.14673 3.3905C9.02196 3.41864 8.84632 3.42456 8.7941 3.47003C8.91346 3.44311 8.97472 3.48545 9.13588 3.39295C9.07944 3.43484 9.0119 3.45982 8.94138 3.46489C8.8808 3.52348 9.16923 3.41351 8.95879 3.53958L9.07814 3.51267L8.95914 3.59004C8.95914 3.59004 9.12731 3.55212 8.97158 3.6434C8.97158 3.6434 8.9778 3.67007 9.0985 3.57546C9.21919 3.48086 9.00627 3.59626 9.15116 3.50743C9.03464 3.59548 9.15116 3.50743 9.21626 3.49275L9.15862 3.53944C9.18739 3.52747 9.21245 3.50826 9.23129 3.48374L9.15817 3.56201L9.23671 3.48252C9.27932 3.44483 9.10676 3.63537 9.14349 3.62147L9.12169 3.69939C9.12169 3.69939 9.08237 3.77565 9.13413 3.75274L9.32262 3.50807C9.2599 3.60645 9.3477 3.46872 9.32262 3.50807L9.24905 3.6089C9.22193 3.61502 9.16917 3.75607 9.19335 3.76185C9.24226 3.70026 9.28016 3.63095 9.30544 3.55687C9.2999 3.60062 9.28429 3.64255 9.2598 3.67948C9.29235 3.67214 9.29957 3.58066 9.33177 3.52285C9.30576 3.60645 9.29712 3.69434 9.30638 3.78128L9.22898 3.93913C9.1604 4.0613 9.22425 4.04128 9.17025 4.177C9.17025 4.177 9.23535 4.16232 9.2679 4.15498C9.24819 3.92357 9.40054 3.86675 9.40876 3.65711C9.50641 3.63509 9.39596 4.16541 9.53448 3.85339C9.52204 3.80004 9.58316 3.64586 9.49964 3.70401C9.55175 3.73156 9.55499 3.50059 9.61118 3.59462C9.55558 3.67454 9.6597 3.80269 9.56817 3.92441C9.55324 3.86039 9.52612 3.86651 9.51357 3.88618C9.50103 3.90586 9.48783 4.09415 9.56209 4.09425C9.63635 4.09435 9.65432 4.07345 9.65362 3.97253C9.65293 3.8716 9.59395 3.98598 9.6275 3.86049C9.70887 3.84214 9.70698 4.00542 9.75023 3.79912C9.71395 3.79045 9.68907 3.68375 9.67165 3.60906L9.72386 3.56359L9.74004 3.63295C9.82255 3.69296 9.76985 3.49145 9.84909 3.51289L9.88641 3.67294C9.86077 3.80788 9.76343 3.61082 9.76855 3.82868C9.8228 3.81644 9.84754 3.72663 9.90417 3.79809L9.86281 3.84111C9.86281 3.84111 9.92999 4.12921 9.98863 3.96436C10.0304 3.89878 9.99958 3.88889 9.99719 3.80519C10.0948 3.78317 10.1208 3.69869 10.1793 3.6799C10.1761 3.83784 10.291 3.694 10.2216 3.86129C10.1992 3.76526 10.0435 3.78351 10.0162 3.93568C9.98887 4.08785 9.93572 3.90891 9.9171 4.09842C9.99305 4.08129 9.99568 4.28848 9.9905 4.41319C9.9905 4.41319 10.0319 4.37017 10.0457 4.35583C10.0426 4.2768 10.0338 4.19808 10.0193 4.1203C10.1064 4.15119 10.1929 4.08115 10.241 3.96922C10.2547 4.0279 10.2808 4.13994 10.232 4.15095C10.3512 4.11412 10.4791 4.11473 10.5979 4.15267C10.5151 3.96918 10.7118 4.12698 10.6532 3.94926C10.6166 3.91849 10.5887 3.8789 10.5724 3.83436C10.556 3.78983 10.5516 3.74187 10.5597 3.69518C10.5868 3.68906 10.5784 3.77521 10.5871 3.81255C10.6202 3.70962 10.6703 3.97349 10.6956 3.78808C10.597 3.85523 10.6923 4.01906 10.6867 4.16633C10.7519 4.07862 10.7091 4.26236 10.7604 4.26202C10.8195 4.18176 10.8955 4.11486 10.983 4.06581C11.0992 4.19684 11.2413 4.04687 11.3348 4.03141C11.4282 4.01595 11.3895 4.26615 11.4241 4.29205C11.4587 4.31794 11.383 4.11599 11.4626 4.18789L11.4701 4.2199C11.4939 4.17522 11.641 4.31613 11.6484 4.0786L11.6394 4.26034C11.6394 4.26034 11.672 4.253 11.6795 4.21198C11.6871 4.17096 11.7056 4.32402 11.686 4.36215C11.7538 4.48162 11.7999 4.33645 11.8596 4.32299L11.8347 4.21629C11.9391 4.12536 12.0141 4.22638 12.1134 4.18713L12.1358 4.28316L12.1951 4.21924C12.185 4.32261 12.2337 4.38463 12.2705 4.2977L12.1263 4.56048C12.1101 4.49113 12.1652 4.43377 12.1349 4.32829C12.1046 4.22281 12.0144 4.27684 12.0047 4.35765C11.995 4.43846 12.0427 4.34909 12.0665 4.3044C12.1001 4.44845 12.0313 4.44713 12.009 4.54761C12.009 4.54761 12.057 4.58173 12.0579 4.5366C12.0484 4.56255 12.0311 4.58507 12.0084 4.60122C11.9857 4.61737 11.9585 4.62638 11.9305 4.62709C11.9681 4.56807 11.9094 4.5364 11.9006 4.49905C11.9293 4.62176 11.8499 4.67334 11.7736 4.64001C11.7062 4.49797 11.6446 4.74773 11.5458 4.69139C11.5589 4.58661 11.596 4.4861 11.6542 4.39739C11.5947 4.33782 11.5946 4.41084 11.5337 4.34594C11.5169 4.4452 11.5113 4.59248 11.4465 4.65762L11.4341 4.60427C11.3777 4.6563 11.3871 4.79457 11.3037 4.77968C11.1716 4.75612 11.0373 4.74686 10.9032 4.75207L10.8821 4.66137C10.8388 4.86767 10.6871 4.75588 10.6057 4.84726C10.4614 4.76747 10.3051 4.95434 10.2232 4.79874C9.9855 4.89792 9.72482 4.93147 9.46919 4.89577L9.52862 4.75883C9.47134 4.85598 9.50872 4.67346 9.45696 4.69637C9.48433 4.81374 9.37334 4.82754 9.32984 4.91035C9.21487 4.78466 9.05371 4.87716 8.87175 4.92943L8.89524 4.83428C8.69148 4.96447 8.57164 4.74441 8.45792 4.62405C8.44921 4.5867 8.49565 4.49199 8.45688 4.47266C8.27785 4.51303 8.25829 4.47813 8.08649 4.42703C8.01362 4.31051 7.98171 4.17367 7.99567 4.03757C7.64435 3.77986 7.71538 3.39882 7.57733 3.07617L7.68583 3.0517C7.43599 2.71495 7.70312 2.31777 7.68228 2.008L7.85613 2.09233C7.93716 2.02352 7.88062 1.87903 7.74216 1.84849C7.82443 1.78501 7.75421 1.58183 7.93777 1.58536C8.02049 1.49932 7.93842 1.41675 7.97694 1.31259C8.01547 1.20844 8.15901 1.1873 8.21958 1.12871C8.28166 1.05672 8.35031 0.990488 8.42469 0.930834L8.36502 0.944292C8.37497 0.986973 8.39239 1.06166 8.47252 1.03798C8.55265 1.01429 8.76761 0.932118 8.58844 0.775977C8.86795 0.774713 9.09113 0.482909 9.2937 0.616927C9.27877 0.552906 9.30883 0.534896 9.32182 0.492656C9.50084 0.452282 9.66294 0.584195 9.78827 0.460465C9.79698 0.497811 9.75099 0.569954 9.8144 0.572502C9.8778 0.575049 9.79698 0.497811 9.85586 0.456454C10.1001 0.328372 10.3505 0.569533 10.5562 0.545606C10.909 0.49391 11.2679 0.496332 11.62 0.552786L11.6299 0.595466C11.7628 0.430721 11.8783 0.803393 11.9954 0.546729C12.0079 0.600079 12.0947 0.580504 12.0687 0.664982C12.1736 0.551482 12.3021 0.808889 12.4467 0.669595C12.4467 0.669595 12.4467 0.669595 12.4141 0.676936C12.532 0.790738 12.6573 0.667008 12.7782 0.768916C12.7782 0.768916 12.7348 0.778704 12.728 0.847618C12.7212 0.916533 12.8734 0.663197 12.8798 0.886388C12.9069 0.88027 12.9117 0.778122 12.89 0.783016C13.1665 0.84976 13.4577 0.82551 13.719 0.713981C13.9408 0.832435 13.7535 1.08244 13.9135 0.911579C13.9235 0.954259 13.8949 0.831553 13.9048 0.874233C13.9641 0.810313 14.0242 1.11686 14.0644 0.995476C14.1046 0.874093 14.0862 0.917555 14.0838 0.833859C14.2227 0.914868 14.2621 1.03513 14.3616 0.92285L14.3777 0.992206C14.4832 0.783116 14.642 0.876459 14.7291 0.637805C15.4337 0.495742 16.1462 0.395053 16.8629 0.336273L17.2863 0.364332L17.5883 0.386074C17.7121 0.392563 17.8353 0.406016 17.9575 0.426367C18.4427 0.495394 18.9232 0.593317 19.3963 0.719596C19.3659 1.02971 19.3325 1.35172 19.2815 1.67207C19.0679 2.02911 19.0775 2.02133 19.1363 2.32254C19.1363 2.32254 19.1276 2.2852 19.0712 2.33722C19.2264 2.34154 19.0709 2.5563 19.2177 2.57373C19.1694 2.83172 19.1874 3.08036 19.1453 3.36503C19.1341 3.31701 19.0106 3.27746 19.0122 3.33326L19.1027 3.40271L19.0593 3.4125C19.0692 3.45518 19.1492 3.50452 19.2052 3.47506C19.2046 3.56927 19.1959 3.66326 19.1793 3.75605C19.1525 3.90247 19.1135 4.04648 19.0628 4.18667C18.9729 4.46017 18.8116 4.70568 18.595 4.89866C18.4584 4.97437 18.3165 5.05131 18.1829 5.11513C18.0334 5.1658 17.8788 5.20066 17.7218 5.21912C17.5619 5.23386 17.4013 5.24008 17.2407 5.23776L16.9008 5.22458C16.7125 5.18563 16.518 5.1855 16.3296 5.22422C15.8823 4.95303 15.3641 4.81616 14.8388 4.83041C14.8388 4.83041 15.007 4.44991 15.2053 4.39397Z" fill="#FAF9F8"/>
<path d="M12.2868 4.6366C12.2693 4.56191 12.2135 4.51835 12.237 4.4232C12.2592 4.49296 12.2758 4.56431 12.2868 4.6366Z" fill="#FAF9F8"/>
<path d="M10.7233 3.95592C10.7233 3.95592 10.7158 3.92391 10.7133 3.91324C10.7108 3.90257 10.7418 3.83943 10.7676 3.901C10.7934 3.96258 10.7279 3.9268 10.7233 3.95592Z" fill="#FAF9F8"/>
<path d="M10.3211 3.94553C10.3265 3.91258 10.3412 3.8818 10.3638 3.85683C10.3863 3.83186 10.4155 3.81373 10.4482 3.80457L10.3211 3.94553Z" fill="#FAF9F8"/>
<path d="M9.99989 3.66981C9.98496 3.60579 9.97874 3.57911 10.0138 3.58244C10.0488 3.58577 10.0087 3.63413 9.99989 3.66981Z" fill="#FAF9F8"/>
<path d="M9.97923 3.82609C9.9521 3.83221 9.93548 3.78542 9.92677 3.74807C9.92836 3.80387 9.99063 3.72805 9.97923 3.82609Z" fill="#FAF9F8"/>
<path d="M9.36422 3.58854C9.36422 3.58854 9.31325 3.63934 9.31878 3.56509C9.3258 3.61967 9.39314 3.49217 9.36422 3.58854Z" fill="#FAF9F8"/>
<path d="M12.0744 1.93844L12.0306 1.97079L12.044 1.90599L12.0744 1.93844Z" fill="#FAF9F8"/>
<path d="M15.0931 1.954C15.1278 1.90687 15.108 2.01802 15.1105 2.02869C15.113 2.03936 15.1353 1.93888 15.0931 1.954Z" fill="#FAF9F8"/>
<path d="M16.6285 1.53474L16.6176 1.53719L16.6191 1.39647L16.6285 1.53474Z" fill="#FAF9F8"/>
</svg>
