<svg width="14" height="14" viewBox="0 0 14 14" fill="none" xmlns="http://www.w3.org/2000/svg">
    <path d="M5.30298 7L1.00002 11.303C0.531388 11.7716 0.531388 12.5314 1.00002 13C1.46865 13.4686 2.22844 13.4686 2.69707 13L7.00004 8.69706L11.303 13C11.7716 13.4686 12.5314 13.4686 13.0001 13C13.4687 12.5314 13.4687 11.7716 13.0001 11.303L8.69709 7L13 2.69707C13.4686 2.22844 13.4686 1.46865 13 1.00002C12.5314 0.531388 11.7716 0.531388 11.303 1.00002L7.00004 5.30295L2.69711 1.00002C2.22848 0.531388 1.46868 0.531388 1.00005 1.00002C0.531423 1.46865 0.531422 2.22844 1.00005 2.69707L5.30298 7Z" fill="#1C1C1C"/>
</svg>
