<svg width="20" height="20" viewBox="0 0 20 20" fill="none" xmlns="http://www.w3.org/2000/svg">
    <path fill-rule="evenodd" clip-rule="evenodd" d="M6.41277 11.1591C5.87547 11.1591 5.43896 10.7226 5.43896 10.1852C5.43896 9.64954 5.87547 9.21303 6.41277 9.21303C6.95008 9.21303 7.38658 9.64954 7.38658 10.1852C7.38658 10.7226 6.95008 11.1591 6.41277 11.1591ZM10.1985 11.1591C9.66121 11.1591 9.22471 10.7226 9.22471 10.1852C9.22471 9.64954 9.66121 9.21303 10.1985 9.21303C10.7358 9.21303 11.1723 9.64954 11.1723 10.1852C11.1723 10.7226 10.7358 11.1591 10.1985 11.1591ZM13.0104 10.1852C13.0104 10.7226 13.447 11.1591 13.9843 11.1591C14.5216 11.1591 14.9581 10.7226 14.9581 10.1852C14.9581 9.64954 14.5216 9.21303 13.9843 9.21303C13.447 9.21303 13.0104 9.64954 13.0104 10.1852Z" fill="white"/>
    <path fill-rule="evenodd" clip-rule="evenodd" d="M10.0167 1.66667C5.17508 1.66667 1.66675 5.62177 1.66675 10.0125C1.66675 11.4146 2.07508 12.8576 2.79175 14.1763C2.92508 14.3941 2.94175 14.6687 2.85008 14.9282L2.29175 16.7977C2.16675 17.2484 2.55008 17.5814 2.97508 17.4478L4.65841 16.9479C5.11675 16.7977 5.47508 16.9888 5.90008 17.2484C7.11675 17.9653 8.63341 18.3333 10.0001 18.3333C14.1334 18.3333 18.3334 15.1369 18.3334 9.98749C18.3334 5.54666 14.7501 1.66667 10.0167 1.66667Z" stroke="white" stroke-width="1.5" stroke-linecap="round" stroke-linejoin="round"/>
</svg>

