 <svg
            width="42"
            height="42"
            viewBox="0 0 64 64"
            fill="none"
            xmlns="http://www.w3.org/2000/svg"
          >
            <g filter="url(#filter0_d)">
              <circle cx="36.6813" cy="31" r="21" fill="url(#paint0_linear)" />
            </g>
            <path
              fill-rule="evenodd"
              clip-rule="evenodd"
              d="M37.4314 30.25H43.4314C43.8456 30.25 44.1814 30.5858 44.1814 31C44.1814 31.4142 43.8456 31.75 43.4314 31.75H37.4314V37.75C37.4314 38.1642 37.0956 38.5 36.6814 38.5C36.2672 38.5 35.9314 38.1642 35.9314 37.75V31.75H29.9314C29.5172 31.75 29.1814 31.4142 29.1814 31C29.1814 30.5858 29.5172 30.25 29.9314 30.25H35.9314V24.25C35.9314 23.8358 36.2672 23.5 36.6814 23.5C37.0956 23.5 37.4314 23.8358 37.4314 24.25V30.25Z"
              fill="white"
              stroke="white"
              stroke-width="0.3"
            />
            <defs>
              <filter
                id="filter0_d"
                x="0.681274"
                y="0"
                width="72"
                height="72"
                filterUnits="userSpaceOnUse"
                color-interpolation-filters="sRGB"
              >
                <feFlood flood-opacity="0" result="BackgroundImageFix" />
                <feColorMatrix
                  in="SourceAlpha"
                  type="matrix"
                  values="0 0 0 0 0 0 0 0 0 0 0 0 0 0 0 0 0 0 127 0"
                  result="hardAlpha"
                />
                <feOffset dy="5" />
                <feGaussianBlur stdDeviation="7.5" />
                <feColorMatrix
                  type="matrix"
                  values="0 0 0 0 0.278431 0 0 0 0 0.352941 0 0 0 0 0.592157 0 0 0 0.35 0"
                />
                <feBlend
                  mode="normal"
                  in2="BackgroundImageFix"
                  result="effect1_dropShadow"
                />
                <feBlend
                  mode="normal"
                  in="SourceGraphic"
                  in2="effect1_dropShadow"
                  result="shape"
                />
              </filter>
              <linearGradient
                id="paint0_linear"
                x1="15.6813"
                y1="52"
                x2="58.8413"
                y2="50.7721"
                gradientUnits="userSpaceOnUse"
              >
                <stop offset="0.0128254" stop-color="#5366A2" />
                <stop offset="1" stop-color="#283C79" />
              </linearGradient>
            </defs>
          </svg>