<svg width="35" height="35" viewBox="0 0 35 35" fill="none" xmlns="http://www.w3.org/2000/svg">
<mask id="path-1-inside-1" fill="white">
<path d="M35 17.5C35 27.165 27.165 35 17.5 35C7.83502 35 0 27.165 0 17.5C0 7.83502 7.83502 0 17.5 0C27.165 0 35 7.83502 35 17.5ZM2.975 17.5C2.975 25.5219 9.47806 32.025 17.5 32.025C25.5219 32.025 32.025 25.5219 32.025 17.5C32.025 9.47806 25.5219 2.975 17.5 2.975C9.47806 2.975 2.975 9.47806 2.975 17.5Z"/>
</mask>
<path d="M35 17.5C35 27.165 27.165 35 17.5 35C7.83502 35 0 27.165 0 17.5C0 7.83502 7.83502 0 17.5 0C27.165 0 35 7.83502 35 17.5ZM2.975 17.5C2.975 25.5219 9.47806 32.025 17.5 32.025C25.5219 32.025 32.025 25.5219 32.025 17.5C32.025 9.47806 25.5219 2.975 17.5 2.975C9.47806 2.975 2.975 9.47806 2.975 17.5Z" fill="#DEDFE7" stroke="#DEDFE7" stroke-width="2" mask="url(#path-1-inside-1)"/>
</svg>
