<svg width="25" height="24" viewBox="0 0 25 24" fill="none" xmlns="http://www.w3.org/2000/svg">
<path d="M19.6364 3H5.63635C4.53178 3 3.63635 3.89543 3.63635 5V19C3.63635 20.1046 4.53178 21 5.63635 21H19.6364C20.7409 21 21.6364 20.1046 21.6364 19V5C21.6364 3.89543 20.7409 3 19.6364 3Z" stroke="#8C8E92" stroke-width="1.5" stroke-linecap="round" stroke-linejoin="round"/>
<path d="M21.6364 15L16.6364 10L5.63635 21" stroke="#8C8E92" stroke-width="1.5" stroke-linecap="round" stroke-linejoin="round"/>
<path d="M9.13635 10C9.96478 10 10.6364 9.32843 10.6364 8.5C10.6364 7.67157 9.96478 7 9.13635 7C8.30793 7 7.63635 7.67157 7.63635 8.5C7.63635 9.32843 8.30793 10 9.13635 10Z" stroke="#8C8E92" stroke-width="1.5" stroke-linecap="round" stroke-linejoin="round"/>
</svg>
