<svg width="30" height="30" viewBox="0 0 30 30" fill="none" xmlns="http://www.w3.org/2000/svg">
<path d="M2.5 15C2.5 21.9038 8.09625 27.5 15 27.5C21.9038 27.5 27.5 21.9038 27.5 15C27.5 8.09625 21.9038 2.5 15 2.5C8.09625 2.5 2.5 8.09625 2.5 15Z" stroke="#8C8E92" stroke-width="1.5" stroke-linecap="round" stroke-linejoin="round"/>
<path d="M16.2516 2.5625C16.2516 2.5625 20.0016 7.5 20.0016 15C20.0016 22.5 16.2516 27.4375 16.2516 27.4375M13.7516 27.4375C13.7516 27.4375 10.0016 22.5 10.0016 15C10.0016 7.5 13.7516 2.5625 13.7516 2.5625M3.28906 19.375H26.7141M3.28906 10.625H26.7141" stroke="#8C8E92" stroke-width="1.5" stroke-linecap="round" stroke-linejoin="round"/>
</svg>
