<svg width="74" height="74" viewBox="0 0 74 74" fill="none" xmlns="http://www.w3.org/2000/svg">
<g filter="url(#filter0_d_1684:6636)">
<rect x="21" y="17" width="32" height="32" rx="14" fill="white"/>
<path fill-rule="evenodd" clip-rule="evenodd" d="M40.0428 32.0575C40.2628 31.8375 40.2628 31.8375 40.0428 31.6174L38.3825 29.9571C38.1624 29.7371 38.1625 29.737 37.9424 29.9571L32.1508 35.749L31 38.9999L34.2512 37.8494L40.0428 32.0575Z" fill="#B5B5B5"/>
<path d="M41.7199 26.1795C41.7741 26.1253 41.8619 26.1253 41.9161 26.1795L43.8204 28.0839C43.8746 28.138 43.8746 28.2258 43.8204 28.28L42.6005 29.4999C42.5464 29.5541 42.4585 29.5541 42.4044 29.4999L40.5 27.5956C40.4459 27.5414 40.4459 27.4536 40.5 27.3994L41.7199 26.1795Z" fill="#B5B5B5"/>
<path d="M40.0428 32.0575L39.5124 31.5272L39.5124 31.5272L40.0428 32.0575ZM40.0428 31.6174L39.5124 32.1477L39.5124 32.1477L40.0428 31.6174ZM38.3825 29.9571L38.9129 29.4268L38.9128 29.4267L38.3825 29.9571ZM37.9424 29.9571L37.4121 29.4268L37.4121 29.4268L37.9424 29.9571ZM32.1508 35.749L31.6205 35.2186L31.5004 35.3387L31.4438 35.4987L32.1508 35.749ZM31 38.9999L30.293 38.7497C30.1965 39.0222 30.2653 39.3258 30.4696 39.5303C30.674 39.7347 30.9777 39.8034 31.2502 39.707L31 38.9999ZM34.2512 37.8494L34.5014 38.5564L34.6614 38.4998L34.7815 38.3797L34.2512 37.8494ZM40.5 27.5956L41.0304 27.0652V27.0652L40.5 27.5956ZM40.5 27.3994L39.9697 26.8691V26.8691L40.5 27.3994ZM42.6005 29.4999L43.1309 30.0303L42.6005 29.4999ZM42.4044 29.4999L41.874 30.0303L42.4044 29.4999ZM43.8204 28.0839L43.2901 28.6142V28.6142L43.8204 28.0839ZM43.8204 28.28L43.2901 27.7497L43.8204 28.28ZM41.9161 26.1795L42.4464 25.6492V25.6492L41.9161 26.1795ZM41.7199 26.1795L42.2503 26.7098L41.7199 26.1795ZM40.5731 32.5879C40.6151 32.5458 40.6924 32.4701 40.7522 32.3954C40.8085 32.325 40.9578 32.1278 40.9578 31.8375C40.9578 31.5471 40.8085 31.3499 40.7522 31.2796C40.6924 31.2049 40.6151 31.1291 40.5731 31.0871L39.5124 32.1477C39.5804 32.2157 39.5856 32.2225 39.5809 32.2166C39.5796 32.215 39.4578 32.0728 39.4578 31.8375C39.4578 31.6021 39.5796 31.4599 39.5809 31.4584C39.5856 31.4524 39.5804 31.4592 39.5124 31.5272L40.5731 32.5879ZM40.5731 31.0871L38.9129 29.4268L37.8522 30.4874L39.5124 32.1477L40.5731 31.0871ZM38.9128 29.4267C38.8707 29.3846 38.795 29.3074 38.7203 29.2476C38.65 29.1914 38.4528 29.0421 38.1625 29.0421C37.8721 29.042 37.6749 29.1914 37.6045 29.2477C37.5299 29.3074 37.4541 29.3847 37.4121 29.4268L38.4727 30.4874C38.5407 30.4194 38.5475 30.4142 38.5416 30.419C38.54 30.4202 38.3978 30.5421 38.1624 30.5421C37.9271 30.542 37.7849 30.4202 37.7833 30.419C37.7775 30.4143 37.7843 30.4195 37.8523 30.4875L38.9128 29.4267ZM31.4438 35.4987L30.293 38.7497L31.707 39.2502L32.8578 35.9992L31.4438 35.4987ZM31.2502 39.707L34.5014 38.5564L34.0009 37.1424L30.7498 38.2929L31.2502 39.707ZM34.7815 38.3797L40.5731 32.5879L39.5124 31.5272L33.7208 37.3191L34.7815 38.3797ZM37.4121 29.4268L31.6205 35.2186L32.6811 36.2793L38.4728 30.4874L37.4121 29.4268ZM41.3857 26.7098L43.2901 28.6142L44.3508 27.5535L42.4464 25.6492L41.3857 26.7098ZM43.2901 27.7497L42.0702 28.9696L43.1309 30.0303L44.3508 28.8103L43.2901 27.7497ZM42.9347 28.9696L41.0304 27.0652L39.9697 28.1259L41.874 30.0303L42.9347 28.9696ZM41.0304 27.9298L42.2503 26.7098L41.1896 25.6492L39.9697 26.8691L41.0304 27.9298ZM41.0304 27.0652C41.2691 27.304 41.2691 27.691 41.0304 27.9298L39.9697 26.8691C39.6226 27.2162 39.6226 27.7788 39.9697 28.1259L41.0304 27.0652ZM42.0702 28.9696C42.3089 28.7309 42.696 28.7309 42.9347 28.9696L41.874 30.0303C42.2211 30.3773 42.7838 30.3773 43.1309 30.0303L42.0702 28.9696ZM43.2901 28.6142C43.0514 28.3755 43.0514 27.9884 43.2901 27.7497L44.3508 28.8103C44.6978 28.4633 44.6978 27.9006 44.3508 27.5535L43.2901 28.6142ZM42.4464 25.6492C42.0994 25.3021 41.5367 25.3021 41.1896 25.6492L42.2503 26.7098C42.0115 26.9486 41.6245 26.9486 41.3857 26.7098L42.4464 25.6492Z" fill="#B5B5B5"/>
</g>
<defs>
<filter id="filter0_d_1684:6636" x="0" y="0" width="74" height="74" filterUnits="userSpaceOnUse" color-interpolation-filters="sRGB">
<feFlood flood-opacity="0" result="BackgroundImageFix"/>
<feColorMatrix in="SourceAlpha" type="matrix" values="0 0 0 0 0 0 0 0 0 0 0 0 0 0 0 0 0 0 127 0" result="hardAlpha"/>
<feOffset dy="4"/>
<feGaussianBlur stdDeviation="10.5"/>
<feColorMatrix type="matrix" values="0 0 0 0 0.859444 0 0 0 0 0.874222 0 0 0 0 0.933333 0 0 0 0.5 0"/>
<feBlend mode="normal" in2="BackgroundImageFix" result="effect1_dropShadow_1684:6636"/>
<feBlend mode="normal" in="SourceGraphic" in2="effect1_dropShadow_1684:6636" result="shape"/>
</filter>
</defs>
</svg>
