<svg width="17" height="15" viewBox="0 0 17 15" fill="none" xmlns="http://www.w3.org/2000/svg">
    <path fill-rule="evenodd" clip-rule="evenodd" d="M0.633809 4.42542L7.30756 0.78375C7.78256 0.530417 8.35256 0.530417 8.82756 0.78375L16.3642 4.8925C16.6176 5.035 16.7759 5.29625 16.7759 5.58917V10.6637C16.7759 11.0992 16.4196 11.4554 15.9842 11.4554C15.5488 11.4554 15.1926 11.0992 15.1926 10.6637V5.985L8.82756 9.46041C8.35256 9.72166 7.78256 9.72166 7.30756 9.46041L0.633809 5.81875C0.0875586 5.51792 0.0875586 4.72625 0.633809 4.42542ZM2.5259 10.6558V8.43125L7.30757 11.0437C7.78257 11.305 8.35257 11.305 8.82757 11.0437L13.6092 8.43125V10.6558C13.6092 11.2338 13.2926 11.7721 12.7859 12.0492L8.82757 14.2104C8.35257 14.4717 7.78257 14.4717 7.30757 14.2104L3.34923 12.0492C2.84257 11.7721 2.5259 11.2338 2.5259 10.6558Z" fill="url(#paint0_linear_10076_34)"/>
    <defs>
        <linearGradient id="paint0_linear_10076_34" x1="-0.0157595" y1="14.4064" x2="17.6439" y2="13.1893" gradientUnits="userSpaceOnUse">
            <stop stop-color="#6AB1FE"/>
            <stop offset="1" stop-color="#2B89EF"/>
        </linearGradient>
    </defs>
</svg>
