<svg width="20" height="20" viewBox="0 0 20 20" fill="none" xmlns="http://www.w3.org/2000/svg">
<path d="M15.8333 11.6667C16.75 11.6667 17.5 10.9167 17.5 10C17.5 9.08334 16.75 8.33334 15.8333 8.33334C14.9167 8.33334 14.1667 9.08334 14.1667 10C14.1667 10.9167 14.9167 11.6667 15.8333 11.6667Z" fill="white"/>
<path d="M4.16732 11.6667C5.08398 11.6667 5.83398 10.9167 5.83398 10C5.83398 9.08334 5.08398 8.33334 4.16732 8.33334C3.25065 8.33334 2.50065 9.08334 2.50065 10C2.50065 10.9167 3.25065 11.6667 4.16732 11.6667Z" fill="white"/>
<path d="M9.99935 11.6667C10.916 11.6667 11.666 10.9167 11.666 10C11.666 9.08334 10.916 8.33334 9.99935 8.33334C9.08268 8.33334 8.33268 9.08334 8.33268 10C8.33268 10.9167 9.08268 11.6667 9.99935 11.6667Z" fill="white"/>
</svg>
