<svg width="28" height="28" viewBox="0 0 28 28" fill="none" xmlns="http://www.w3.org/2000/svg">
<g filter="url(#filter0_d)">
<path fill-rule="evenodd" clip-rule="evenodd" d="M14.75 12.25H20.75C21.1642 12.25 21.5 12.5858 21.5 13C21.5 13.4142 21.1642 13.75 20.75 13.75H14.75V19.75C14.75 20.1642 14.4142 20.5 14 20.5C13.5858 20.5 13.25 20.1642 13.25 19.75V13.75H7.25C6.83579 13.75 6.5 13.4142 6.5 13C6.5 12.5858 6.83579 12.25 7.25 12.25H13.25V6.25C13.25 5.83579 13.5858 5.5 14 5.5C14.4142 5.5 14.75 5.83579 14.75 6.25V12.25Z" fill="white" stroke="white" stroke-width="0.3"/>
</g>
<defs>
<filter id="filter0_d" x="-1" y="-1" width="30" height="30" filterUnits="userSpaceOnUse" color-interpolation-filters="sRGB">
<feFlood flood-opacity="0" result="BackgroundImageFix"/>
<feColorMatrix in="SourceAlpha" type="matrix" values="0 0 0 0 0 0 0 0 0 0 0 0 0 0 0 0 0 0 127 0"/>
<feOffset dy="1"/>
<feGaussianBlur stdDeviation="3"/>
<feColorMatrix type="matrix" values="0 0 0 0 0.111094 0 0 0 0 0.319388 0 0 0 0 0.563906 0 0 0 1 0"/>
<feBlend mode="normal" in2="BackgroundImageFix" result="effect1_dropShadow"/>
<feBlend mode="normal" in="SourceGraphic" in2="effect1_dropShadow" result="shape"/>
</filter>
</defs>
</svg>
