<svg width="15" height="13" viewBox="0 0 15 13" fill="none" xmlns="http://www.w3.org/2000/svg">
    <path fill-rule="evenodd" clip-rule="evenodd" d="M10.9988 0.125C11.9487 0.125 12.8624 0.500417 13.5346 1.17404C14.2075 1.84625 14.5837 2.75292 14.5837 3.70208V9.29792C14.5837 11.2742 12.9757 12.875 10.9988 12.875H4.00116C2.0242 12.875 0.416992 11.2742 0.416992 9.29792V3.70208C0.416992 1.72583 2.01712 0.125 4.00116 0.125H10.9988ZM12.1258 4.7575L12.1824 4.70083C12.3517 4.49542 12.3517 4.19792 12.1746 3.9925C12.0762 3.88696 11.9409 3.8225 11.7999 3.80833C11.6512 3.80054 11.5095 3.85083 11.4026 3.95L8.20868 6.5C7.79785 6.84071 7.20922 6.84071 6.79201 6.5L3.60451 3.95C3.38422 3.78708 3.07964 3.80833 2.89618 3.99958C2.70493 4.19083 2.68368 4.49542 2.84589 4.70792L2.93868 4.8L6.1616 7.31459C6.55826 7.62625 7.03922 7.79625 7.54285 7.79625C8.04505 7.79625 8.53451 7.62625 8.93047 7.31459L12.1258 4.7575Z" fill="url(#paint0_linear_10076_1376)"/>
    <defs>
        <linearGradient id="paint0_linear_10076_1376" x1="0.211678" y1="12.875" x2="15.3366" y2="11.9085" gradientUnits="userSpaceOnUse">
            <stop stop-color="#6AB1FE"/>
            <stop offset="1" stop-color="#2B89EF"/>
        </linearGradient>
    </defs>
</svg>
