<svg width="108" height="44" viewBox="0 0 108 44" fill="none" xmlns="http://www.w3.org/2000/svg">
<path d="M7.19336 23.4657C7.19336 23.4447 7.2143 23.4447 7.19336 23.4657C7.2143 23.4447 7.2143 23.4447 7.19336 23.4657Z" fill="#3A4E89"/>
<path d="M26.3141 31.417C25.9657 30.9866 25.6788 30.5358 25.3099 30.1669C24.3262 29.1627 23.1991 28.3429 21.8465 27.9331C20.9652 27.6667 20.084 27.4002 19.1413 27.5437C18.8954 27.5847 18.6699 27.6462 18.424 27.6462C17.6862 27.6666 16.9895 27.6052 16.2722 27.4002C15.3295 27.1338 14.5097 26.683 13.7719 26.0681C13.4645 25.8222 13.1776 25.5148 12.8702 25.2484C12.7882 25.1869 12.7678 25.1254 12.7268 25.023C12.5628 24.5926 12.3579 24.4491 11.866 24.5106C11.1488 24.5926 10.4725 24.4901 9.83715 24.1417C9.63222 24.0188 9.48876 24.0598 9.30432 24.1827C9.07889 24.3262 8.83296 24.4696 8.58704 24.6131C8.58704 24.5926 8.56654 24.5721 8.56654 24.5516C8.79197 24.2032 9.0379 23.8753 9.24283 23.5474C8.87395 23.322 8.58704 23.117 8.25914 22.9121C8.07469 22.9941 7.86976 23.0761 7.66482 23.158L7.68531 23.1375C7.52136 23.24 7.35741 23.3425 7.19346 23.4245C7.0705 23.6089 7.13198 23.7728 7.23445 23.9573C7.50087 24.4286 7.86976 24.818 8.23864 25.2074C8.93543 25.9862 9.79616 26.4575 10.8209 26.6625C11.1078 26.7239 11.3947 26.8059 11.6406 26.9494C12.7473 27.6257 13.8334 28.3429 14.9196 29.0397C15.2885 29.2652 15.6574 29.5316 16.0672 29.6545C17.01 29.9619 17.9937 29.9415 18.9569 29.8185C19.6127 29.7365 20.207 29.7365 20.8218 29.9619C21.4776 30.1874 22.1334 30.4333 22.7072 30.8432C23.5679 31.4785 24.2442 32.2777 24.8795 33.159C25.4944 32.7901 26.1092 32.4212 26.724 32.0318C26.5805 31.7654 26.478 31.6219 26.3141 31.417Z" fill="#3A4E89"/>
<path d="M15.8826 40.1678C15.8826 39.9014 15.8826 39.6759 15.8826 39.471C15.8621 38.9587 15.6162 38.6512 15.1244 38.4668C14.6325 38.2824 14.1407 38.4053 13.7103 38.5898C13.0955 38.8562 12.4807 39.1841 11.9683 39.6349C11.8454 39.7374 11.7224 39.8194 11.538 39.9628C11.1281 39.1431 10.7387 38.3848 10.3083 37.5446C10.5133 37.3601 10.7387 37.1962 10.9437 37.0118C11.9069 36.1715 12.9725 35.4952 14.2022 35.1058C15.5342 34.696 16.7024 34.9624 17.6861 35.9461C18.1984 36.4584 18.4853 37.1142 18.4853 37.8725C18.4853 38.4668 18.4853 39.0816 18.4853 39.7374C17.6246 39.8809 16.7844 40.0038 15.8826 40.1678Z" fill="#3A4E89"/>
<path d="M20.1248 14.7146C20.1043 14.6122 20.0633 14.5097 20.0224 14.3867C19.9814 14.5712 19.9199 14.7556 19.8789 14.9401C20.0224 14.9605 20.0838 15.022 20.1863 15.022C20.1658 14.9401 20.1248 14.7966 20.1248 14.7146Z" fill="#3A4E89"/>
<path d="M20.2889 15.6367C20.1045 15.6572 19.8995 15.5752 19.7356 15.5752C19.7151 15.6367 19.7151 15.6982 19.6946 15.7596C19.9405 15.8826 20.1454 15.9441 20.3914 16.0466C20.3504 15.8826 20.3299 15.7596 20.2889 15.6367Z" fill="#3A4E89"/>
<path d="M20.4733 16.4565C20.4733 16.436 20.4528 16.4155 20.4528 16.3745C20.1863 16.2721 19.8994 16.2106 19.633 16.0466C19.6125 16.1901 19.592 16.313 19.5715 16.4565C19.8584 16.436 20.1454 16.436 20.4733 16.4565Z" fill="#3A4E89"/>
<path d="M21.9284 23.2195C21.7645 22.0719 20.9857 18.7314 20.4939 16.5591C20.4734 16.5591 20.4734 16.5591 20.4529 16.5591C20.1455 16.5796 19.8381 16.723 19.5512 16.682C19.5307 16.7845 19.5307 16.764 19.5102 16.887C19.3667 18.1166 19.2642 19.3257 19.2028 20.5554C19.0388 22.1129 19.1003 22.8302 19.2028 23.3425C19.5717 23.281 21.539 23.404 21.8669 23.6294C21.5595 23.6294 19.8381 23.7934 19.8381 23.7934C19.6126 23.7729 19.4692 23.7319 19.2642 23.6909C19.3052 23.8548 19.3462 23.9778 19.3872 24.0803C19.4692 24.3467 21.6005 23.8343 21.9694 23.9573C21.9694 23.9778 21.9899 24.1213 21.9284 23.2195Z" fill="#3A4E89"/>
<path d="M20.207 15.145C20.1045 15.145 19.961 15.145 19.8381 15.0835C19.7971 15.2679 19.7971 15.2065 19.7561 15.3909C19.9405 15.3909 20.084 15.5139 20.2684 15.5139C20.2275 15.3089 20.2275 15.2884 20.207 15.145Z" fill="#3A4E89"/>
<path d="M9.73458 36.5198C9.6731 36.3764 9.61162 36.2534 9.55014 36.1304C9.48866 36.028 9.42718 35.905 9.32471 35.7615C9.46816 35.6386 9.59113 35.5361 9.79606 35.3517C9.85754 35.4746 9.91902 35.5566 9.98051 35.6591C10.001 35.6591 10.001 35.6386 10.0215 35.6386C9.98051 35.5156 9.96001 35.3927 9.91903 35.2902C9.93952 35.2492 9.93952 35.2082 9.96001 35.1877C11.2306 34.204 12.7677 33.1998 14.4276 32.3186C14.7146 32.4826 15.0015 32.4416 15.3089 32.3391C18.1985 32.1547 19.92 34.4295 20.2069 35.6591C20.6372 37.3806 20.4118 38.8151 20.4118 38.9176C20.4118 39.3684 20.4118 39.3684 19.9814 39.4709C19.879 39.4914 19.756 39.5119 19.633 39.5529C19.633 39.225 19.6535 38.9381 19.633 38.6512C19.5921 38.0773 19.5716 37.483 19.4896 36.9092C19.3666 35.905 18.9568 35.0443 18.219 34.3885C17.8296 34.0401 16.7844 33.4048 16.3131 33.4048C15.5753 33.2613 14.8785 33.4458 14.2227 33.7737C13.8333 33.9376 10.124 36.2329 9.73458 36.5198Z" fill="#3A4E89"/>
<path d="M6.9679 18.7108C6.68099 18.5878 6.39408 18.4648 6.08667 18.3214C6.64 17.2147 7.33679 16.313 8.29999 15.6367C9.83702 14.5915 11.5175 14.2841 13.3414 14.5505C13.6488 14.5915 13.9563 14.6325 14.2432 14.653C14.3251 14.653 14.4276 14.6325 14.5301 14.612C14.6325 14.5915 14.735 14.5505 14.7965 14.571C15.2269 14.7145 15.6367 14.8989 16.1286 15.0834C15.9237 15.5342 15.7597 15.9236 15.5753 16.3745C15.0834 16.272 14.653 16.19 14.2022 16.1081C13.5874 15.9646 12.9931 15.7802 12.3577 15.6777C11.2101 15.5137 10.1444 15.8211 9.14023 16.3745C8.23851 16.7229 7.27531 18.1369 6.9679 18.7108Z" fill="#3A4E89"/>
<path d="M25.5557 2.95117C25.0843 3.25858 24.5515 3.79141 24.1211 4.01685C23.2604 4.50869 22.4611 5.08252 21.7233 5.75881C21.5799 5.90227 21.4364 6.00474 21.211 5.96375C20.5552 5.88177 20.0019 6.14819 19.51 6.53757C17.85 7.82868 16.395 9.30422 15.2268 11.0257C14.9809 11.3741 14.776 11.7635 14.5301 12.1529C14.3046 12.0504 14.0792 11.9684 13.8538 11.8659C14.3251 11.0257 14.776 10.2059 15.3703 9.46817C16.395 8.19756 17.5426 7.07041 18.8337 6.06622C19.7559 5.34894 20.7192 4.75462 21.7438 4.22178C22.1127 4.03734 22.5841 3.81191 22.9735 3.68895C23.6293 3.46351 24.1621 3.25858 24.8384 3.05364C24.9614 3.03315 25.3507 2.95117 25.5557 2.95117Z" fill="#3A4E89"/>
<path d="M5.10292 18.1574C4.89799 18.0549 4.69305 17.9729 4.5291 17.8705C4.50861 17.5631 5.08243 16.7023 5.22589 16.4769C5.88169 15.4317 6.76292 14.5915 7.82859 13.9562C9.05821 13.2184 10.4108 12.829 11.8454 12.8085C12.2142 12.8085 12.5831 12.8085 12.9725 12.8085C13.3209 12.8085 13.4849 12.7061 13.7103 12.3782C13.7308 12.3577 13.7513 12.3167 13.7513 12.3167C13.8332 12.3167 13.9152 12.3372 14.0382 12.3577C13.9357 12.2552 13.8537 12.1937 13.7718 12.1117C13.7923 12.0708 13.8128 12.0503 13.8128 12.0093C14.0177 12.0913 14.2431 12.1732 14.4481 12.2552C14.3251 12.5626 14.2226 12.8495 14.1202 13.1159C13.9972 13.4643 13.7308 13.6078 13.3619 13.6078C12.8086 13.5873 12.2552 13.5668 11.7019 13.5873C10.0419 13.6693 8.56636 14.2226 7.29575 15.2883C6.35304 16.067 5.67675 17.0302 5.10292 18.1574Z" fill="#3A4E89"/>
<path d="M5.59473 26.2319C5.79966 26.109 5.96361 26.0065 6.14806 25.8835C6.41448 26.191 6.63991 26.4574 6.88583 26.7443C8.03348 28.0764 9.46804 28.8551 11.169 29.224C11.9888 29.388 12.6856 29.8388 13.2799 30.4536C13.5668 30.7406 13.7922 31.0685 14.0791 31.4168C13.8947 31.5603 13.7307 31.6833 13.5668 31.8062C13.1979 31.4373 12.8495 31.0889 12.5011 30.761C12.0093 30.2897 11.3944 30.0643 10.7796 29.9208C9.01718 29.5109 7.52114 28.6912 6.37349 27.2771C6.10707 26.9492 5.88164 26.6213 5.59473 26.2319Z" fill="#3A4E89"/>
<path d="M21.8668 26.1297C22.3382 26.2731 23.035 26.5395 23.035 26.56L22.4407 26.9699C21.457 26.1502 18.5264 27.2363 16.9484 26.724C15.9032 26.4166 15.1244 26.1092 13.9153 24.7361C14.1407 24.6131 14.2842 24.5107 14.5096 24.3877C17.0303 27.6052 20.1454 25.6378 21.8668 26.1297Z" fill="#3A4E89"/>
<path d="M20.2479 7.21387C18.6494 9.18126 17.3583 11.3126 16.4566 13.7309C15.9852 13.5259 15.5753 13.362 15.063 13.157C15.2064 12.9931 15.2884 12.8291 15.4319 12.7472C15.5958 12.6447 15.3909 12.5627 15.4524 12.4398C16.1901 11.1077 17.1329 9.93953 18.1985 8.89435C18.8338 8.25905 19.4486 7.64424 20.2479 7.21387Z" fill="#3A4E89"/>
<path d="M23.3629 26.4985C23.1579 25.7607 23.5063 25.3714 23.5063 24.6951C23.5063 23.5679 23.4448 22.4408 23.2194 21.3136C22.871 19.6126 22.4816 17.9321 22.2152 16.2312C21.9078 14.3867 21.7644 12.5423 21.9693 10.6774C22.0923 9.71415 22.2767 8.75095 22.5226 7.80824C22.6866 7.21392 22.83 6.41467 23.2604 5.94331C23.8957 5.10307 24.3466 4.48826 24.9819 3.72999C25.3713 3.25863 25.4737 3.09468 25.5557 3.0332C25.1253 3.64801 24.9204 3.91443 24.654 4.28332C24.1621 4.95961 23.7522 5.57442 23.2809 6.25072C23.0964 6.6401 22.8505 7.50083 22.7481 7.95169C22.5021 9.01737 22.2767 10.1035 22.1742 11.1897C22.0513 12.5013 22.0923 13.8129 22.2562 15.1245C22.3997 16.2721 22.6456 17.3788 22.871 18.506C23.0964 19.7151 23.3834 20.9037 23.5678 22.1129C23.7113 23.0556 23.7932 23.7523 23.7727 24.7156C23.7318 25.0435 23.4243 26.0067 23.3629 26.4985Z" fill="#3A4E89"/>
<path d="M8.66889 19.3665C8.54593 19.2846 8.42297 19.2231 8.23853 19.1001C8.36149 18.5468 9.11975 17.5631 10.4518 17.1327C11.0872 16.8868 11.7225 16.8663 12.3987 17.0303C12.9111 17.1532 13.362 17.3787 13.8128 17.6451C14.2022 17.8705 14.4686 18.2189 14.6736 18.6083C14.735 18.7312 14.4481 18.9157 14.3457 18.9772C14.0997 19.0591 14.0382 18.8337 13.9358 18.7107C13.5259 18.3009 13.0545 17.9935 12.5012 17.8295C11.7634 17.6246 11.0257 17.6451 10.3289 17.973C9.11976 18.4853 8.99679 19.3461 8.66889 19.3665Z" fill="#3A4E89"/>
<path d="M26.9083 30.5356C26.7649 30.3921 26.6009 30.2282 26.4575 30.0642C25.4738 28.8961 24.2442 27.9944 23.0145 27.3386C22.8711 27.2771 22.6866 27.1541 22.5022 27.0312C22.7276 26.8877 22.8916 26.7852 23.0555 26.6828C23.199 26.5803 23.3219 26.6213 23.4654 26.6828C24.7155 27.3386 25.8017 28.1993 26.7444 29.2445C26.9903 29.5109 27.1953 29.7978 27.4822 30.1667C27.3797 30.2282 27.2772 30.2897 27.1953 30.3512C27.0928 30.4126 27.0108 30.4741 26.9083 30.5356Z" fill="#3A4E89"/>
<path d="M8.99683 22.1539C9.22226 22.0104 9.34522 21.9489 9.48867 21.8465C10.1035 22.5227 10.8208 23.0146 11.7635 22.9531C12.7267 22.8916 13.3825 22.3383 13.8333 21.5186C13.9973 21.6005 14.1407 21.662 14.3047 21.7235C14.2637 22.0924 14.0998 22.3588 13.8743 22.6047C13.6489 22.8711 13.4645 23.1376 13.239 23.404C13.157 23.486 13.0341 23.5884 12.9316 23.5884C12.4603 23.6294 11.9889 23.6294 11.5176 23.6704C10.8208 23.7319 10.2469 23.404 9.69361 23.0761C9.42719 22.8711 9.26324 22.4818 8.99683 22.1539Z" fill="#3A4E89"/>
<path d="M11.6404 22.2152C10.8002 22.2767 9.98045 21.5594 9.95996 20.5552C9.95996 19.6125 10.7182 18.8542 11.6609 18.8542C12.5832 18.8747 13.3209 19.633 13.3209 20.5552C13.3004 21.5594 12.4807 22.2767 11.6404 22.2152ZM11.62 21.7848C12.3372 21.7848 12.9315 21.211 12.9315 20.4937C12.9315 19.797 12.3167 19.1821 11.62 19.2026C10.9232 19.2026 10.3288 19.7765 10.3288 20.4733C10.3493 21.252 10.9232 21.7644 11.62 21.7848Z" fill="#3A4E89"/>
<path d="M16.2105 22.2971C16.1286 22.7275 16.0671 23.0759 16.0056 23.4243C15.9646 23.6292 15.8621 23.7522 15.6572 23.7317C15.0424 23.7112 14.4686 23.8547 13.9152 24.0801C13.7923 24.1211 13.6488 24.1211 13.4849 24.1006C13.7513 23.6702 14.3046 23.5882 14.571 23.1784C14.8374 22.789 15.1244 22.3996 15.4318 21.9692C15.6572 22.0922 15.9236 22.1947 16.2105 22.2971Z" fill="#3A4E89"/>
<path d="M10.4314 41.0284C10.288 41.1924 10.165 41.3359 9.98057 41.5408C9.5502 40.7415 9.14033 39.9833 8.70996 39.184C8.83292 39.0611 8.99687 38.9176 9.2223 38.7332C9.63218 39.5119 10.0216 40.2497 10.4314 41.0284Z" fill="#3A4E89"/>
<path d="M8.36153 37.8521C8.19758 37.5651 8.09512 37.3602 7.95166 37.1348C8.1566 36.9503 8.36153 36.7454 8.56647 36.5405C8.68943 36.7044 8.77141 36.8069 8.85338 36.9298C8.87388 36.9298 8.89437 36.9093 8.89437 36.9093C8.83289 36.7249 8.77141 36.561 8.70993 36.356C8.85338 36.274 8.97635 36.1921 9.1403 36.0896C9.26326 36.315 9.36573 36.4995 9.50918 36.7454C9.16079 37.0938 8.7919 37.4422 8.36153 37.8521Z" fill="#3A4E89"/>
<path d="M10.4519 39.2046C10.6159 39.6145 10.7798 40.0448 10.9643 40.5162C10.9028 40.5777 10.8003 40.6597 10.6569 40.7826C10.2265 39.9424 9.81661 39.1636 9.40674 38.3849C9.55019 38.2824 9.63217 38.2209 9.71414 38.1594C9.96007 38.4873 10.1855 38.8152 10.4314 39.1226C10.4314 39.1431 10.4314 39.1841 10.4519 39.2046Z" fill="#3A4E89"/>
<path d="M18.3215 40.4548C17.4813 40.5777 16.682 40.7007 15.8213 40.8236C15.8418 40.6392 15.8623 40.5162 15.8828 40.3523C16.723 40.2293 17.5223 40.1064 18.383 39.9834C18.3625 40.1883 18.342 40.3113 18.3215 40.4548Z" fill="#3A4E89"/>
<path d="M10.452 39.2046C10.4315 39.1841 10.4315 39.1431 10.411 39.1226C10.2265 38.7537 10.0216 38.3848 9.83716 37.9954C9.96012 37.9135 10.0421 37.8315 10.1651 37.7495C10.5954 38.5488 11.0053 39.3275 11.4152 40.1268C11.3127 40.2088 11.2102 40.2907 11.0873 40.3932C10.8618 39.9628 10.6569 39.5939 10.452 39.2046Z" fill="#3A4E89"/>
<path d="M25.1459 33.7533C25.0639 33.5894 25.0229 33.4869 24.9614 33.364C25.5557 33.0156 26.232 32.5442 26.7854 32.2163C26.8878 32.3188 27.0108 32.4622 27.0108 32.6057C26.396 32.9951 25.8017 33.364 25.1459 33.7533Z" fill="#3A4E89"/>
<path d="M9.52973 41.6434C9.18133 41.6639 9.07887 41.4795 8.9764 41.295C8.73047 40.7827 8.38208 40.2908 8.38208 39.676C8.85344 40.2703 9.16084 40.9466 9.52973 41.6434Z" fill="#3A4E89"/>
<path d="M20.0225 8.52547C20.043 8.40251 20.043 8.36152 20.0634 8.32053C20.1249 8.19757 20.1864 8.0951 20.2684 7.93115C20.5348 8.03362 20.8217 8.15658 21.1496 8.27955C21.0881 8.46399 21.0471 8.62794 20.9652 8.87386C20.6373 8.7509 20.3299 8.64843 20.0225 8.52547Z" fill="#3A4E89"/>
<path d="M18.219 40.9465C18.219 41.049 18.219 41.131 18.1985 41.213C17.3583 41.3154 16.559 41.3974 15.7393 41.4794C16.0262 41.2129 16.9279 41.049 18.219 40.9465Z" fill="#3A4E89"/>
<path d="M19.6331 9.14029C19.797 9.05831 19.8585 9.01732 19.9405 8.97634C19.8995 8.89436 19.8585 8.83288 19.756 8.64844C20.2274 8.68942 20.5348 8.87387 20.9037 9.03782C20.8422 9.20177 20.7807 9.34522 20.6987 9.52967C20.3503 9.4272 20.0634 9.30424 19.6331 9.14029Z" fill="#3A4E89"/>
<path d="M20.6577 7.27539C21.457 7.5623 21.457 7.5828 21.1496 8.13613C21.0266 8.09514 20.8832 8.05415 20.7602 8.01316C20.6373 7.95168 20.4938 7.8902 20.3503 7.80823C20.3503 7.5623 20.5143 7.43934 20.6577 7.27539Z" fill="#3A4E89"/>
<path d="M6.72209 19.2846C6.43518 19.1821 6.18926 19.0797 5.90234 18.9567C5.94333 18.8133 5.98432 18.6698 6.02531 18.4854C6.25074 18.5673 6.45567 18.6288 6.64012 18.7108C6.98851 18.8747 6.98851 18.8747 6.72209 19.2846Z" fill="#3A4E89"/>
<path d="M20.5347 10.083C20.1658 9.9395 19.8379 9.79605 19.469 9.6321C19.5305 9.50914 19.5715 9.40667 19.6329 9.3042C19.9199 9.42716 20.1863 9.52963 20.4527 9.6321C20.6781 9.71407 20.7191 9.85753 20.5347 10.083Z" fill="#3A4E89"/>
<path d="M18.9773 10.6978C19.4691 10.9027 19.879 11.0666 20.3708 11.2716C20.2274 11.374 20.1249 11.4765 20.0839 11.456C19.715 11.3331 19.3052 11.1691 18.9363 11.0052C18.8953 10.9847 18.9978 10.8617 18.9773 10.6978Z" fill="#3A4E89"/>
<path d="M28.0763 31.2734C28.4042 31.2529 28.5272 31.4578 28.5887 31.8267C28.4247 31.9497 28.2403 32.0726 28.0353 32.2161C27.8099 32.0111 27.6665 31.8062 27.8304 31.4988C27.8919 31.4168 27.9739 31.3349 28.0763 31.2734Z" fill="#3A4E89"/>
<path d="M26.3755 39.676C26.3755 39.635 26.3755 39.553 26.3755 39.5325C26.9493 39.3481 27.6666 39.1637 28.3429 38.9382C28.3634 39.0202 28.3224 39.0407 28.3224 39.1637C28.3224 39.2456 26.6829 39.6555 26.3755 39.676Z" fill="#3A4E89"/>
<path d="M14.8784 13.9153C15.3908 13.9768 15.8416 14.2022 16.3745 14.4481C16.231 14.5301 16.149 14.5916 16.108 14.5711C15.6572 14.4481 15.2268 14.2637 14.8784 13.9153Z" fill="#3A4E89"/>
<path d="M27.8714 30.6997C27.9534 30.8022 28.0354 30.9251 28.1378 31.0481C27.9534 31.1711 27.7689 31.2735 27.5845 31.417C27.482 31.294 27.4 31.1916 27.2566 31.0481C27.3796 30.9251 27.7689 30.7202 27.8714 30.6997Z" fill="#3A4E89"/>
<path d="M26.9082 30.5358C26.9902 30.4743 27.0926 30.4128 27.1746 30.3513C27.3181 30.2898 27.441 30.1874 27.605 30.3308C27.7894 30.5153 27.5435 30.8227 27.5435 30.8227C27.482 30.8227 27.4205 30.8637 27.3386 30.8637C27.3181 30.8842 27.0517 30.9047 26.9082 30.5358Z" fill="#3A4E89"/>
<path d="M8.6483 19.3461C8.81225 19.5716 8.75077 19.7355 8.52534 19.879C8.38188 19.8175 8.23843 19.756 8.09497 19.715C8.13596 19.2642 8.13596 19.2642 8.6483 19.3461Z" fill="#3A4E89"/>
<path d="M7.21397 23.2604C7.15249 23.2399 7.09101 23.2399 7.02953 23.2194C7.00903 23.2194 7.00903 23.1989 7.00903 23.1784C7.21397 22.8915 7.89026 22.4816 8.30014 22.4202C8.05421 22.6251 7.86977 22.7891 7.68533 22.9735L7.70582 22.953C7.54187 23.0555 7.35743 23.1579 7.21397 23.2604Z" fill="#3A4E89"/>
<path d="M7.33675 38.9792C6.94737 38.4668 6.92687 38.3029 7.1728 38.1389C7.58267 38.6718 7.58267 38.7332 7.33675 38.9792Z" fill="#3A4E89"/>
<path d="M4.98003 25.3302C3.97584 23.4653 3.21757 21.5184 4.40621 18.0344C4.61115 18.1164 4.79559 18.2803 4.98003 18.3418C3.50449 22.4201 5.59485 25.0638 5.59485 25.0638C5.59485 25.0638 5.103 25.3917 4.98003 25.3302Z" fill="#3A4E89"/>
<path d="M20.3912 10.9438C19.9403 10.9233 19.551 10.7388 19.1001 10.4519C19.51 10.4519 20.0018 10.6159 20.3912 10.9438Z" fill="#3A4E89"/>
<path d="M19.51 40.5981C19.5305 40.2702 19.6945 40.2088 20.2888 40.2498C20.2683 40.3727 20.2478 40.4957 20.2068 40.6391C19.9814 40.6391 19.7559 40.6186 19.51 40.5981Z" fill="#3A4E89"/>
<path d="M19.3667 10.165C19.7766 10.165 20.125 10.3085 20.5143 10.5749C20.125 10.5954 19.9405 10.5339 19.3667 10.165Z" fill="#3A4E89"/>
<path d="M5.20557 25.6171C5.7589 25.2073 5.7589 25.2073 5.92285 25.5967C5.7589 25.6991 5.61544 25.7811 5.431 25.8836C5.34902 25.8016 5.28754 25.7196 5.20557 25.6171Z" fill="#3A4E89"/>
<path d="M6.61944 19.9814C6.25055 19.9404 5.94315 19.8175 5.63574 19.5716C6.04562 19.5306 6.39401 19.674 6.61944 19.9814Z" fill="#3A4E89"/>
<path d="M6.5991 40.0652C6.33268 39.7373 6.16873 39.4709 6.2507 39.0815C6.51712 39.266 6.5786 39.5324 6.70157 39.7578C6.72206 39.8193 6.66058 39.9013 6.5991 40.0652Z" fill="#3A4E89"/>
<path d="M8.11559 38.1593C7.86966 37.9338 7.68522 37.6879 7.80818 37.2371C7.97213 37.5855 8.21806 37.8109 8.11559 38.1593Z" fill="#3A4E89"/>
<path d="M19.7355 11.702C19.3871 11.7839 19.1412 11.6405 18.9158 11.3946C19.2232 11.3741 19.4896 11.497 19.7355 11.702Z" fill="#3A4E89"/>
<path d="M17.4402 23.7728C17.7476 23.6908 17.9935 23.6294 18.2599 23.5679C18.178 23.9777 17.9115 24.0597 17.6041 24.2237C17.5222 24.0392 17.4812 23.9163 17.4402 23.7728Z" fill="#3A4E89"/>
<path d="M14.4071 19.0592C14.489 18.9977 14.5915 18.9567 14.6735 18.8952C14.7555 18.8952 14.8169 18.8748 14.9809 18.8748C14.8374 19.0592 14.7555 19.1617 14.653 19.2846C14.5915 19.3666 14.53 19.4691 14.3866 19.3666C14.2226 19.2436 14.3661 19.1617 14.4071 19.0592Z" fill="#3A4E89"/>
<path d="M17.3376 23.2195C17.809 23.0966 17.9115 23.1171 18.0959 23.404C17.8295 23.486 17.6041 23.445 17.3376 23.2195Z" fill="#3A4E89"/>
<path d="M16.8254 42.6476C17.1738 42.5861 17.5222 42.5451 17.8706 42.4836C17.6862 42.6681 17.2353 42.7296 16.8254 42.6476Z" fill="#3A4E89"/>
<path d="M17.2354 22.8301C17.5837 22.6251 17.8092 22.7686 18.0756 22.8505C17.8297 23.0145 17.8297 23.0145 17.2354 22.8301Z" fill="#3A4E89"/>
<path d="M13.7104 32.3188C13.8539 32.1138 13.9974 31.9704 14.3253 32.0933C14.1408 32.2163 13.9564 32.3393 13.7924 32.4622C13.7719 32.4007 13.7514 32.3598 13.7104 32.3188Z" fill="#3A4E89"/>
<path d="M6.64005 19.5715C6.35314 19.4485 6.08672 19.3255 5.7998 19.2231C5.8203 19.1821 5.8203 19.1616 5.84079 19.1206C6.1277 19.2231 6.39412 19.346 6.68103 19.4485C6.68103 19.4895 6.66054 19.5305 6.64005 19.5715Z" fill="#3A4E89"/>
<path d="M19.51 41.0285C19.7149 41.008 19.9199 40.967 20.1248 40.9465C19.9609 41.172 19.7354 41.1515 19.5305 41.172C19.51 41.131 19.51 41.0695 19.51 41.0285Z" fill="#3A4E89"/>
<path d="M20.2274 40.0038C20.0224 40.0243 19.838 40.0448 19.6331 40.0652C19.8175 39.9013 20.0019 39.7988 20.2274 40.0038Z" fill="#3A4E89"/>
<path d="M29.8799 39.6143C29.6955 39.7168 29.4086 39.7987 29.2241 39.9012C29.2241 39.7782 29.2241 39.6553 29.2856 39.4913C29.593 39.1429 29.675 39.1839 30.0234 38.9585C29.9824 39.1839 29.9619 39.3889 29.8799 39.6143Z" fill="#3A4E89"/>
<path d="M9.36563 21.621C9.22217 21.703 9.07872 21.8055 8.93526 21.8874C8.91477 21.8464 8.89427 21.8259 8.87378 21.785C9.01724 21.6825 9.16069 21.6005 9.28365 21.498C9.32464 21.539 9.34514 21.58 9.36563 21.621Z" fill="#3A4E89"/>
<path d="M13.9563 21.1497C14.0997 21.2111 14.2432 21.2726 14.4071 21.3341C14.3866 21.3751 14.3866 21.3956 14.3661 21.4366C14.2227 21.3751 14.0587 21.3341 13.9153 21.2726C13.9358 21.2316 13.9563 21.1906 13.9563 21.1497Z" fill="#3A4E89"/>
<path d="M29.0805 32.6261C28.8551 32.79 28.6502 32.913 28.4247 33.0769C28.3837 33.0154 28.3633 32.954 28.3223 32.8925C28.5477 32.7285 28.7526 32.5441 28.9781 32.3801C29.0191 32.4416 29.0395 32.5441 29.0805 32.6261Z" fill="#3A4E89"/>
<path d="M7.25483 21.334C7.13187 21.3955 6.98841 21.4569 6.86545 21.5389C6.84496 21.4979 6.84496 21.4774 6.82446 21.4365C6.98841 21.3955 7.13187 21.375 7.25483 21.334Z" fill="#3A4E89"/>
<path d="M7.27522 21.3546C7.41868 21.2931 7.56213 21.2317 7.70559 21.1907C7.70559 21.2317 7.72608 21.2522 7.72608 21.2931C7.56213 21.2931 7.41868 21.3136 7.27522 21.3546Z" fill="#3A4E89"/>
<path d="M6.29169 20.9446C6.02527 20.8626 5.75885 20.7806 5.49243 20.6986C5.51293 20.6577 5.55391 20.6167 5.57441 20.5757C5.84083 20.6577 6.12774 20.7396 6.39416 20.8216C6.37366 20.8831 6.33267 20.9241 6.29169 20.9446Z" fill="#3A4E89"/>
<path d="M20.084 10.083C20.2069 10.124 20.3299 10.165 20.4529 10.1855C20.4324 10.2265 20.4119 10.247 20.4119 10.2879C20.3094 10.2265 20.2069 10.1445 20.084 10.083Z" fill="#3A4E89"/>
<path d="M20.1045 10.0624C19.9815 10.0419 19.8381 10.0214 19.7151 10.0009C19.7356 9.95992 19.7356 9.93942 19.7561 9.89844C19.8585 9.95992 19.961 10.0214 20.1045 10.0624Z" fill="#3A4E89"/>
<path d="M15.6777 13.8948C15.7802 13.9358 15.9032 13.9563 16.0056 13.9972C16.0056 14.0177 15.9851 14.0382 15.9851 14.0792C15.8827 14.0382 15.7597 13.9972 15.6572 13.9563C15.6572 13.9358 15.6777 13.9153 15.6777 13.8948Z" fill="#3A4E89"/>
<path d="M6.9269 38.7947C6.88592 38.7128 6.84493 38.6308 6.78345 38.5488C6.80394 38.5283 6.82444 38.5283 6.86542 38.5078C6.90641 38.5693 6.9474 38.6513 7.00888 38.7127C6.96789 38.7537 6.9474 38.7742 6.9269 38.7947Z" fill="#3A4E89"/>
<path d="M15.4729 14.5916C15.6369 14.6325 15.8008 14.6735 15.9852 14.7145C15.9647 14.7555 15.9443 14.7965 15.9443 14.8375C15.7803 14.7555 15.6369 14.6735 15.4729 14.5916Z" fill="#3A4E89"/>
<path d="M15.4933 14.5711C15.3294 14.5301 15.1654 14.5097 14.981 14.4687C15.0015 14.4277 15.0219 14.3867 15.0219 14.3457C15.1859 14.4277 15.3294 14.5097 15.4933 14.5711Z" fill="#3A4E89"/>
<path d="M16.0466 21.375C16.1286 21.416 16.1901 21.4365 16.272 21.4775C16.272 21.498 16.272 21.498 16.2516 21.5185C16.1696 21.498 16.1081 21.4775 16.0261 21.4365C16.0261 21.416 16.0261 21.3955 16.0466 21.375Z" fill="#3A4E89"/>
<path d="M11.0256 20.0223C11.6609 19.8584 12.1938 19.9404 12.4397 20.7396C12.4807 20.1658 12.3372 19.8994 11.9683 19.7354C11.62 19.5715 11.374 19.6329 11.0256 20.0223Z" fill="#3A4E89"/>
<path d="M11.0256 20.0223C11.374 19.6329 11.62 19.5715 11.9683 19.7354C12.3372 19.8994 12.4807 20.1453 12.4397 20.7396C12.1938 19.9199 11.6609 19.8584 11.0256 20.0223Z" fill="#3A4E89"/>
<path d="M25.3917 34.2861C25.3097 34.1221 25.2688 34.0196 25.2073 33.8967C25.8016 33.5483 26.5189 33.0974 27.0722 32.7695C27.1952 32.9335 27.2566 33.1179 27.2566 33.2819C26.6418 33.6508 26.0475 33.8967 25.3917 34.2861Z" fill="#3A4E89"/>
<path d="M25.5966 34.696C25.5761 34.6755 25.4941 34.45 25.4941 34.409C26.027 34.0811 26.8057 33.7123 27.3386 33.3844C27.4001 33.3434 27.482 33.6508 27.5025 33.7532" fill="#3A4E89"/>
<path d="M25.9246 35.8844C25.8427 35.7205 25.7197 35.0647 25.6787 34.9417C26.273 34.5933 27.0108 34.3474 27.5641 33.999C27.6666 34.1015 27.933 34.7163 27.974 35.1877C27.3592 35.5565 26.7854 35.5156 25.9246 35.8844Z" fill="#3A4E89"/>
<path d="M26.0476 36.356C26.0066 36.1715 26.0066 36.151 25.9861 36.0076C26.6419 35.8231 27.3797 35.4952 27.9945 35.3313C28.0559 35.4952 28.0764 35.7002 28.0969 35.8846C27.4206 36.0896 26.7853 36.1306 26.0476 36.356Z" fill="#3A4E89"/>
<path d="M26.1091 36.5199C26.1706 36.7863 26.1501 36.9093 26.1911 37.0528C26.8674 36.9298 27.5642 36.8068 28.1995 36.6839C28.22 36.5404 28.179 36.2535 28.1175 36.0281C27.4207 36.1715 26.8674 36.3765 26.1091 36.5199Z" fill="#3A4E89"/>
<path d="M26.2524 37.6881C26.2524 37.5037 26.1909 37.2987 26.1909 37.1758C26.8672 37.0528 27.605 36.9504 28.2403 36.8274C28.2608 37.0528 28.3018 37.2168 28.2813 37.4012C27.5435 37.5242 26.9902 37.5652 26.2524 37.6881Z" fill="#3A4E89"/>
<path d="M26.2934 38.2822C26.2934 38.1593 26.2524 37.8929 26.2524 37.8519C26.8673 37.7494 27.6665 37.6879 28.2813 37.5854C28.3223 37.7699 28.3223 37.8724 28.2813 37.9953" fill="#3A4E89"/>
<path d="M26.355 39.3481C26.355 39.1636 26.3345 38.6308 26.314 38.4874C26.9903 38.3644 27.7075 38.3029 28.3428 38.2004C28.3428 38.3849 28.3633 38.6103 28.3428 38.8153C27.6461 38.9382 27.3591 39.0817 26.355 39.3481Z" fill="#3A4E89"/>
<path d="M26.478 40.7006C26.4575 40.5776 26.4575 40.3317 26.437 40.3112C26.9903 40.0448 27.7896 39.7169 28.3634 39.4504C28.3634 39.7578 28.3634 39.8808 28.3634 39.9833" fill="#3A4E89"/>
<path d="M29.4084 37.4627C29.4084 37.4422 29.4084 37.3602 29.3879 37.3397C29.5724 37.1552 29.7568 37.0118 29.9618 36.7864C29.9823 36.7659 29.9823 36.7454 30.0232 36.7864C30.0437 36.9708 30.0437 36.9913 29.9413 37.0323" fill="#3A4E89"/>
<path d="M28.1789 32.6262C28.1379 32.5442 28.1174 32.5032 28.0969 32.4417C28.3019 32.2368 28.4863 32.0319 28.6707 31.8474C28.7322 31.9294 28.7732 32.0114 28.7937 32.0933C28.5888 32.2983 28.4043 32.4007 28.1789 32.6262Z" fill="#3A4E89"/>
<path d="M28.2815 32.7899C28.2815 32.7694 28.2405 32.6874 28.22 32.6669C28.4044 32.503 28.6503 32.2981 28.8348 32.1341C28.8553 32.1136 28.8963 32.2366 28.9168 32.2981" fill="#3A4E89"/>
<path d="M28.8347 34.1631C28.7732 34.0196 28.5273 33.3023 28.4863 33.1999C28.9372 32.913 28.8142 32.9949 29.1011 32.7285C29.1626 32.8105 29.2241 32.9744 29.3471 33.3638C29.2241 33.7532 29.0397 33.7737 28.8347 34.1631Z" fill="#3A4E89"/>
<path d="M28.9782 34.5321C28.9577 34.3681 28.9577 34.4091 28.9373 34.3066C29.1422 34.1222 29.2856 33.7533 29.4906 33.5688C29.5316 33.7123 29.5521 33.8763 29.5931 34.0402C29.3471 34.2451 29.2037 34.3066 28.9782 34.5321Z" fill="#3A4E89"/>
<path d="M28.9783 34.6549C29.0193 34.8804 29.0398 35.0033 29.0602 35.1058C29.2857 34.9623 29.5316 34.8394 29.7365 34.7164C29.716 34.5935 29.6751 34.327 29.6341 34.1631C29.3881 34.3065 29.2242 34.491 28.9783 34.6549Z" fill="#3A4E89"/>
<path d="M29.183 35.7001C29.1626 35.5362 29.1216 35.3722 29.1011 35.2492C29.3265 35.1263 29.5724 34.9828 29.7774 34.8599C29.7979 35.0648 29.8388 35.1878 29.8388 35.3517C29.6134 35.4952 29.429 35.5566 29.183 35.7001Z" fill="#3A4E89"/>
<path d="M29.2446 36.1919C29.2241 36.0894 29.1831 35.8435 29.1831 35.823C29.388 35.7001 29.6545 35.6181 29.8594 35.5156C29.9004 35.6796 29.9004 35.7615 29.9004 35.864" fill="#3A4E89"/>
<path d="M29.3676 37.0937C29.3471 36.9298 29.2856 36.4584 29.2651 36.3355C29.4906 36.2125 29.7365 36.11 29.9414 36.0076C29.9619 36.1715 29.9824 36.3765 29.9824 36.5609C29.757 36.6839 29.6955 36.8273 29.3676 37.0937Z" fill="#3A4E89"/>
<path d="M29.429 38.2619C29.429 38.0365 29.429 37.6881 29.429 37.5856C29.6749 37.4832 29.8593 37.2167 30.0848 37.1348C30.0848 37.2987 30.0848 37.3807 30.0848 37.5651C29.8388 37.8316 29.7773 37.8316 29.429 38.2619Z" fill="#3A4E89"/>
<path d="M29.4084 39.1022C29.4084 38.9997 29.4289 38.8153 29.4289 38.7948C29.6339 38.6103 29.9003 38.3849 30.1052 38.2004C30.1052 38.4259 30.0847 38.6513 30.0847 38.7538" fill="#3A4E89"/>
<path d="M18.0551 41.8481C17.9117 42.1965 17.6862 42.217 17.4403 42.217C16.805 42.217 16.1492 42.34 15.5139 42.0326C16.3337 41.8481 17.1739 41.8891 18.0551 41.8481Z" fill="#3A4E89"/>
<path d="M20.0429 41.6022C19.9814 41.9301 19.8175 41.9711 19.2437 41.8686C19.2846 41.7457 19.3051 41.6227 19.3666 41.4792C19.5716 41.5202 19.797 41.5612 20.0429 41.6022Z" fill="#3A4E89"/>
<path d="M7.72618 38.5077C7.48026 38.2822 7.29582 38.0363 7.41878 37.5854C7.60322 37.9543 7.82865 38.1593 7.72618 38.5077Z" fill="#3A4E89"/>
<path d="M9.03778 42.1556C8.68939 42.1761 8.58692 41.9917 8.48445 41.8072C8.23853 41.2949 7.89014 40.803 7.89014 40.1882C8.36149 40.7621 8.6484 41.4588 9.03778 42.1556Z" fill="#3A4E89"/>
<path d="M6.92699 22.3177C7.29588 22.1128 7.68526 21.9488 8.05414 21.7234C8.07464 21.8464 8.09513 21.9488 8.13612 22.0923C7.84921 22.2767 7.04995 22.7071 7.04995 22.7071C7.04995 22.7071 6.886 22.6456 6.92699 22.3177Z" fill="#3A4E89"/>
<path d="M6.86548 21.826C7.19338 21.621 7.50078 21.539 7.89016 21.5186C7.58276 21.826 7.21387 21.9284 6.86548 21.826Z" fill="#3A4E89"/>
<path d="M5.59476 20.2478C5.84068 20.3093 6.29154 20.3913 6.53747 20.4527C6.49648 20.4937 6.49648 20.5757 6.435 20.6372C6.23006 20.5962 5.94315 20.5142 5.7792 20.4732C5.4513 20.4118 5.43081 20.4322 5.59476 20.2478Z" fill="#3A4E89"/>
<path d="M5.61522 19.9609C5.90213 20.0224 6.20954 20.1044 6.49645 20.1659C6.49645 20.2069 6.47596 20.2478 6.47596 20.2888C6.18904 20.2274 5.88164 20.1659 5.59473 20.1044C5.59473 20.0634 5.61522 20.0224 5.61522 19.9609Z" fill="#3A4E89"/>
<path d="M5.90235 21.1496C5.77939 21.1496 5.67692 21.1701 5.55396 21.1701C5.55396 21.1496 5.57445 21.1086 5.57445 21.0881C5.67692 21.1291 5.77939 21.1496 5.90235 21.1496Z" fill="#3A4E89"/>
<path d="M5.88184 21.17C6.0048 21.17 6.10727 21.17 6.23023 21.17C6.23023 21.1905 6.20974 21.2315 6.20974 21.252C6.10727 21.2315 6.0048 21.1905 5.88184 21.17Z" fill="#3A4E89"/>
<path d="M6.14807 21.4569C5.98412 21.4774 5.82017 21.4979 5.63573 21.5184C5.63573 21.4774 5.61523 21.4365 5.61523 21.3955C5.77918 21.375 5.94313 21.3545 6.10708 21.334C6.12758 21.375 6.14807 21.416 6.14807 21.4569Z" fill="#3A4E89"/>
<path d="M28.302 40.4546C28.2815 40.7415 28.1175 40.803 27.9331 40.8645C27.4617 41.0079 27.0109 41.2334 26.4985 41.1719C27.0519 40.844 27.6667 40.68 28.302 40.4546Z" fill="#3A4E89"/>
<path d="M29.1831 40.2702C29.388 40.2087 29.5725 40.1472 29.7774 40.1062C29.634 40.3521 29.429 40.3726 29.2241 40.4136C29.2036 40.3521 29.1831 40.3111 29.1831 40.2702Z" fill="#3A4E89"/>
<path d="M16.2517 21.9693C16.0058 21.9488 15.7803 21.8463 15.5139 21.6824C15.7598 21.6824 16.0263 21.7848 16.2517 21.9693Z" fill="#3A4E89"/>
<path d="M15.7393 21.498C15.9647 21.498 16.1491 21.58 16.3746 21.703C16.1491 21.7235 16.0467 21.703 15.7393 21.498Z" fill="#3A4E89"/>
<path d="M14.2021 21.0881C14.2841 21.1291 14.3456 21.1496 14.4276 21.1906C14.4276 21.2111 14.4276 21.2111 14.4071 21.2316C14.3251 21.2111 14.2636 21.1906 14.1816 21.1496C14.1816 21.1291 14.1816 21.1086 14.2021 21.0881Z" fill="#3A4E89"/>
<path d="M17.9525 21.8053C17.6451 21.7438 17.4197 21.7028 17.1123 21.6414C17.1328 21.5389 17.1738 21.3954 17.1943 21.293C17.4402 21.334 17.5837 21.4159 17.8091 21.4569C18.014 21.4774 18.055 21.5799 17.9525 21.8053Z" fill="#3A4E89"/>
<path d="M18.1166 22.5021C17.7682 22.5841 17.6042 22.4816 17.1943 22.3587C17.5222 22.2562 17.7477 22.3382 18.1166 22.5021Z" fill="#3A4E89"/>
<path d="M17.1943 22.0309C17.5222 21.9489 17.6452 22.0514 18.0141 22.1948C17.7067 22.2768 17.7067 22.2358 17.1943 22.0309Z" fill="#3A4E89"/>
<path d="M17.6043 21.8669C17.5018 21.8669 17.3788 21.8669 17.2764 21.8874C17.2764 21.8669 17.2764 21.8259 17.2764 21.8054C17.3788 21.8259 17.4813 21.8464 17.6043 21.8669Z" fill="#3A4E89"/>
<path d="M17.1943 21.0471C17.5222 20.9856 17.6657 21.0881 18.0141 21.252C17.7067 21.3135 17.7067 21.2725 17.1943 21.0471Z" fill="#3A4E89"/>
<path d="M17.6042 20.9036C17.7067 20.9241 17.8092 20.9241 17.9117 20.9446C17.9117 20.965 17.8912 21.006 17.8912 21.0265C17.7887 20.9855 17.7067 20.9446 17.6042 20.9036Z" fill="#3A4E89"/>
<path d="M17.6043 20.9038C17.5018 20.9038 17.3788 20.9038 17.2764 20.9038C17.2764 20.8833 17.2764 20.8423 17.2969 20.8218C17.3993 20.8423 17.5018 20.8833 17.6043 20.9038Z" fill="#3A4E89"/>
<path d="M18.4238 12.2553C18.5673 12.1939 18.6083 11.9889 18.5878 11.8455C18.9567 12.0504 19.0796 12.0504 19.428 12.1734C19.3665 12.2963 19.3051 12.3988 19.2436 12.5218C18.9362 12.4398 18.8132 12.3783 18.4238 12.2553Z" fill="#3A4E89"/>
<path d="M18.9773 13.28C18.6494 13.1366 18.6084 13.0751 18.26 12.9316C18.3215 12.8087 18.3625 12.6652 18.424 12.5627C18.6904 12.6652 18.7928 12.7677 19.0388 12.8497C19.2437 12.9316 19.1412 13.0546 18.9773 13.28Z" fill="#3A4E89"/>
<path d="M18.6698 14.0588C18.4238 13.9359 18.3214 13.8334 18.0754 13.7105C18.0959 13.5875 18.1779 13.485 18.1984 13.3621C18.4033 13.444 18.5263 13.526 18.7107 13.608C18.8542 13.69 18.7517 13.8129 18.6698 14.0588Z" fill="#3A4E89"/>
<path d="M18.4855 14.7555C18.219 14.653 18.1985 14.571 17.9321 14.4891C17.9526 14.3661 17.9731 14.2841 17.9936 14.2021C18.1985 14.2636 18.4035 14.3251 18.5879 14.3866C18.7519 14.4276 18.5674 14.53 18.4855 14.7555Z" fill="#3A4E89"/>
<path d="M18.465 15.0629C18.1371 15.0834 18.26 15.0629 17.9116 14.9604C18.219 14.8989 18.1575 14.9194 18.465 15.0629Z" fill="#3A4E89"/>
<path d="M17.2764 20.4937C17.2764 18.0344 17.6248 16.4359 17.9117 15.2063C18.1166 15.2883 18.2806 15.2268 18.465 15.2883C18.0756 16.313 17.7682 19.6329 17.7682 20.6371C17.6657 20.6576 17.3993 20.5757 17.2764 20.4937Z" fill="#3A4E89"/>
<path d="M17.686 24.572C17.8295 24.326 17.9525 24.285 18.2394 24.1211C18.1164 24.367 18.0959 24.3465 17.686 24.572Z" fill="#3A4E89"/>
<path d="M17.9731 25.3713C18.0756 25.0434 18.301 25.0024 18.506 24.8999C18.4445 25.1253 18.4445 25.1253 17.9731 25.3713Z" fill="#3A4E89"/>
<path d="M18.4853 24.531C18.2599 24.7769 18.1165 24.7769 17.7681 24.9409C17.9525 24.695 18.137 24.6335 18.4853 24.531Z" fill="#3A4E89"/>
<path d="M21.8874 25.2277C21.8874 25.3097 21.867 25.6581 21.6825 25.6786C21.4161 25.6991 20.3914 25.5966 19.8791 25.7401C19.7971 25.7606 19.7356 25.4532 19.7151 25.3712C19.6536 25.1253 21.8874 25.0638 21.8874 25.2277Z" fill="#3A4E89"/>
<path d="M21.8873 25.0025C21.3545 24.941 20.6167 24.818 19.6535 25.0845L19.592 24.859C20.1454 24.8385 21.375 24.7361 21.9488 24.7156L21.8873 25.0025Z" fill="#3A4E89"/>
<path d="M21.9487 24.2647C20.2477 24.2032 20.3912 24.6131 19.4485 24.3467L19.551 24.736C20.0838 24.736 21.3749 24.5721 21.9487 24.5721V24.2647Z" fill="#3A4E89"/>
<path d="M38.8357 25.4122C39.0406 25.3917 39.1841 25.4122 39.2455 25.4532C39.307 25.4941 39.3685 25.6171 39.389 25.822C39.0816 25.945 38.8562 26.027 38.7537 26.027C38.5283 26.0475 38.2618 26.109 37.9954 26.1704C37.9954 26.3959 38.0159 26.7443 38.0569 27.2156C38.0364 27.2361 37.9339 27.2566 37.77 27.3181C37.647 27.3591 37.5651 27.4206 37.5036 27.482C37.4216 27.0312 37.3806 26.3959 37.3806 25.5761C37.3806 25.2892 37.4011 24.8383 37.4626 24.203C37.1757 24.326 36.8888 24.3875 36.5404 24.4285C35.9256 24.49 35.5362 24.5104 35.3722 24.5104C34.491 24.5104 33.9992 24.2235 33.8762 23.6497C33.8557 23.5268 33.8352 23.3833 33.8352 23.2603C33.8352 22.6455 34.1426 22.0922 34.7779 21.6003C35.1878 21.2929 35.6182 21.129 36.0895 21.129C36.1305 21.129 36.233 21.129 36.4174 21.1085C36.7248 21.088 36.9298 21.129 37.0527 21.211C37.2577 21.3544 37.4831 21.5798 37.729 21.9077C37.9749 22.2356 38.1184 22.6455 38.1184 23.1579C38.1184 23.2398 38.1184 23.3013 38.1184 23.3833L38.0364 24.3465C38.0364 24.5719 38.0364 24.9613 38.0159 25.4941C38.1799 25.4941 38.3233 25.4941 38.4053 25.4532C38.4873 25.4532 38.6512 25.4327 38.8357 25.4122ZM37.3396 23.4653C37.3601 23.3628 37.3601 23.2808 37.3601 23.1989C37.3601 22.666 37.1962 22.2766 36.8478 22.0307C36.7453 21.9487 36.6019 21.9077 36.4174 21.9077C36.5199 21.9077 36.5814 21.9077 36.5814 21.9077C36.5199 21.9077 36.3149 21.9077 35.9461 21.9077C35.4747 21.9077 35.1058 22.0922 34.8189 22.4611C34.6959 22.625 34.614 22.7275 34.573 22.8095C34.5115 22.9324 34.4705 23.0554 34.4705 23.1784C34.4705 23.2603 34.491 23.3628 34.532 23.4448C34.6345 23.6907 34.9009 23.8137 35.3517 23.8137H35.9256C35.9666 23.8137 35.987 23.8137 36.0075 23.8137C36.069 23.8137 36.0895 23.8137 36.11 23.8137C36.4379 23.8137 36.6633 23.8137 36.7863 23.7932C37.1347 23.7522 37.3191 23.6292 37.3396 23.4653Z" fill="#3A4E89"/>
<path d="M39.3684 21.2724C39.5324 21.1904 39.6963 21.1494 39.8808 21.1494C40.0447 21.3134 40.2291 21.6208 40.4136 22.0511C40.4751 22.1946 40.557 22.5635 40.639 23.1988C40.7415 23.8956 40.803 24.285 40.8235 24.3464C41.0489 24.244 41.3973 24.0595 41.8686 23.7521C42.0326 23.6496 42.2375 23.5677 42.463 23.4857C42.7499 23.4037 42.8933 23.3422 42.9138 23.3422C43.3442 23.1578 43.7336 23.0758 44.1025 23.0758C45.2501 23.0758 45.9059 23.4447 46.0699 24.162C46.1518 24.4899 46.1928 24.7973 46.1928 25.0842C46.1928 25.1867 46.1723 25.3506 46.1313 25.5556C46.0903 25.7605 46.0699 25.904 46.0699 26.0064C45.9059 26.0474 45.7829 26.0679 45.742 26.0679C45.537 26.0679 45.455 25.9245 45.455 25.617C45.455 25.4736 45.455 25.3301 45.4755 25.1662C45.496 24.9612 45.496 24.8178 45.496 24.7358C45.496 24.3464 45.3321 24.08 45.0042 23.9366C44.7787 23.8341 44.5123 23.7931 44.2254 23.7931C43.3852 23.7931 42.6269 24.0185 41.9506 24.4694C41.6432 24.6743 41.3358 24.9203 41.0284 25.1867C41.0079 25.2687 40.9874 25.3916 40.9874 25.5761C40.9874 25.74 41.0079 25.9859 41.0489 26.2728C41.0899 26.5598 41.1104 26.8057 41.1104 26.9696C41.1104 27.1336 41.0899 27.277 41.0694 27.441C40.8849 27.441 40.762 27.441 40.721 27.4205C40.598 27.4 40.5365 27.3385 40.4956 27.2565C40.4136 26.8262 40.3111 26.1909 40.2291 25.3711C40.1882 24.8998 40.0857 24.1415 39.9422 23.0963C39.8603 22.461 39.6553 21.8667 39.3684 21.2724Z" fill="#3A4E89"/>
<path d="M52.2795 26.7442C52.0131 27.0721 51.5418 27.277 50.8655 27.3385C50.6196 27.359 50.3121 27.3795 49.9433 27.3795C49.8203 27.3795 49.6154 27.3795 49.308 27.3795H48.8571C48.5497 27.3795 48.2013 27.2975 47.7914 27.154L46.6848 26.7647C46.3979 26.7032 46.2544 26.6007 46.2544 26.4778C46.2544 26.3958 46.3159 26.3138 46.4183 26.2318C46.5003 26.1499 46.6028 26.1089 46.6848 26.0884C46.7258 26.0679 46.7667 26.0679 46.7872 26.0679C46.8897 26.0679 47.0741 26.1294 47.3406 26.2523C47.7504 26.4368 47.9759 26.5597 48.0578 26.5802C48.3652 26.7032 48.6112 26.7647 48.8366 26.7647C48.9801 26.7647 49.1645 26.7647 49.3694 26.7852C49.8408 26.8057 50.1482 26.8261 50.2507 26.8261C50.6605 26.8261 50.9679 26.7852 51.1934 26.6827C51.4598 26.5597 51.6237 26.3343 51.6852 26.0269C51.6852 26.0064 51.6852 25.9654 51.6852 25.9449C51.6852 25.6785 51.3368 25.3916 50.6605 25.0432L49.4514 24.4489C48.2218 23.8546 47.525 23.2602 47.3611 22.6864C47.3611 22.6454 47.3611 22.6249 47.3611 22.6044C47.3611 22.379 47.566 22.1331 47.9554 21.9077C48.2833 21.7232 48.6727 21.5798 49.1235 21.4773C49.3489 21.4363 49.5539 21.3748 49.7588 21.3338C50.4761 21.1904 51.0294 21.1084 51.4188 21.1084C51.6647 21.1084 51.7877 21.2314 51.7877 21.4568C51.5623 21.6207 51.1319 21.7437 50.4966 21.8667L49.021 22.1331C48.5497 22.2151 48.3243 22.379 48.3243 22.6249V22.6659C48.3243 22.6864 48.3243 22.7069 48.3448 22.7274C48.3857 22.9323 48.6522 23.1783 49.1235 23.4447C49.144 23.4447 49.6359 23.7316 50.6401 24.2644C51.2958 24.6128 51.7877 24.9202 52.0746 25.1866C52.1976 25.2686 52.3 25.4121 52.382 25.617C52.4435 25.8015 52.4845 25.9859 52.4845 26.1499C52.464 26.3958 52.4025 26.6007 52.2795 26.7442Z" fill="#3A4E89"/>
<path d="M59.9647 27.318C59.8008 27.4 59.6368 27.441 59.4524 27.441C59.2884 27.277 59.104 26.9696 58.9195 26.5393C58.7761 26.1909 58.6736 25.863 58.5916 25.5146C58.3662 25.617 58.0178 25.8015 57.5465 26.1089C57.0956 26.3753 56.7472 26.5802 56.4808 26.6827C56.0504 26.8672 55.661 26.9491 55.2922 26.9491C54.206 26.9491 53.5502 26.5802 53.3248 25.863C53.1403 25.2482 53.0378 24.5309 53.0378 23.7111C53.0378 22.8914 53.1403 22.0511 53.3248 21.2109C53.4887 21.1699 53.6117 21.1494 53.6527 21.1494C53.8576 21.1494 53.9396 21.2929 53.9396 21.6003C53.8576 22.0511 53.8371 22.6455 53.8371 23.4037C53.8371 25.0227 54.0215 25.9244 54.3904 26.0679C54.6159 26.1704 54.8823 26.2114 55.1692 26.2114C55.8455 26.2114 56.6037 25.9245 57.444 25.3711C57.7514 25.1662 58.0588 24.9203 58.3662 24.6538C58.4072 24.5309 58.4072 24.3669 58.4072 24.1825C58.4072 23.998 58.3867 23.7726 58.3457 23.5267L58.2228 22.7684C58.1818 22.4815 58.1613 22.2151 58.1613 22.0102C58.1613 21.8462 58.1818 21.7027 58.2023 21.5388C58.3867 21.5388 58.5097 21.5388 58.5507 21.5593C58.6736 21.5798 58.7351 21.6413 58.7761 21.7232C58.8581 22.0921 58.94 22.7274 59.0425 23.6087C59.145 24.4284 59.2474 25.0637 59.3294 25.4941C59.5139 26.2114 59.6983 26.8057 59.9647 27.318Z" fill="#3A4E89"/>
<path d="M62.1165 26.2319C62.3419 26.3343 62.6083 26.3753 62.8953 26.3753C63.5716 26.3753 64.3298 26.0884 65.1701 25.5351C65.4775 25.3301 65.7849 25.0842 66.0923 24.8178C66.1128 24.7153 66.1333 24.6333 66.1743 24.5719C66.1947 24.5514 66.2152 24.4284 66.2152 24.2235C66.2357 23.9775 66.2357 23.8546 66.2357 23.8341C66.4202 23.8341 66.5431 23.8341 66.5841 23.8546C66.7071 23.8751 66.7686 23.9366 66.8096 24.0185C66.8096 24.1415 66.912 24.6129 67.076 25.4736C67.2194 26.1704 67.4244 26.7852 67.6908 27.2975C67.5268 27.3795 67.3629 27.4205 67.1784 27.4205C67.0145 27.2565 66.8506 26.9696 66.6456 26.5188C66.5227 26.2319 66.4202 25.9449 66.3177 25.658C66.0923 25.7605 65.7439 25.9449 65.2725 26.2524C64.8217 26.5188 64.4733 26.7237 64.2069 26.8262C63.7765 27.0106 63.3871 27.0926 63.0182 27.0926C61.9321 27.0926 61.2763 26.7237 61.0508 26.0064C60.8664 25.3916 60.7639 24.6129 60.7639 23.7111C60.7639 22.8914 60.8664 22.0511 61.0508 21.2109C61.2148 21.1699 61.3377 21.1494 61.3787 21.1494C61.5837 21.1494 61.6656 21.2929 61.6656 21.6003C61.6042 21.9487 61.5632 22.3995 61.5632 22.9324C61.7681 22.9734 61.973 22.9938 62.1985 22.9938C62.3419 22.9938 62.7108 22.9529 63.2642 22.8504C63.7765 22.7684 64.1454 22.6864 64.3503 22.625C64.4938 22.584 64.8012 22.502 65.3135 22.3585C65.6619 22.2561 65.9693 22.2151 66.2562 22.2151C66.2357 22.2356 66.1948 22.3176 66.0923 22.461C66.0308 22.584 65.9693 22.6455 65.9283 22.6864C65.7234 22.8299 65.416 22.9529 65.0061 23.0553C64.3708 23.2193 63.6125 23.3832 62.7518 23.5062C62.3009 23.5677 61.8911 23.6496 61.5222 23.7111C61.5837 25.2482 61.7886 26.0884 62.1165 26.2319Z" fill="#3A4E89"/>
<path d="M68.0188 21.2723C68.1827 21.1904 68.3467 21.1494 68.5311 21.1494C68.6951 21.3133 68.8795 21.6207 69.064 22.0511C69.105 22.1126 69.1869 22.2765 69.2894 22.543C69.6583 22.379 70.0477 22.1946 70.4575 21.9486C70.724 21.7847 71.0724 21.6002 71.5232 21.3748C71.9536 21.1904 72.343 21.1084 72.7119 21.1084C73.8595 21.1084 74.5153 21.4773 74.6793 22.1946C74.7612 22.5225 74.8022 22.8299 74.8022 23.1168C74.8022 23.2193 74.7817 23.3832 74.7407 23.5881C74.6998 23.7931 74.6793 23.9365 74.6793 24.039C74.5153 24.08 74.3923 24.1005 74.3514 24.1005C74.1464 24.1005 74.0644 23.957 74.0644 23.6496C74.0644 23.5062 74.0644 23.3627 74.0849 23.1988C74.1054 22.9938 74.1054 22.8504 74.1054 22.7684C74.1054 22.379 73.9415 22.1126 73.6136 21.9691C73.3882 21.8667 73.1217 21.8257 72.8348 21.8257C72.1585 21.8257 71.4003 22.1126 70.56 22.6659C70.2526 22.8709 69.9452 23.1168 69.6378 23.3832C69.5968 23.5062 69.5968 23.6701 69.5968 23.8546C69.5968 24.6538 69.6173 25.1866 69.6583 25.4326L69.7608 26.2113C69.8018 26.4982 69.8222 26.7647 69.8222 26.9696C69.8222 27.1336 69.8018 27.277 69.7813 27.441C69.5968 27.441 69.4739 27.441 69.4329 27.4205C69.3099 27.4 69.2484 27.3385 69.2074 27.2565C69.1255 26.8261 69.023 26.1908 68.941 25.3711C68.9 24.8997 68.7976 24.1415 68.6541 23.0963C68.5106 22.461 68.3057 21.8667 68.0188 21.2723Z" fill="#3A4E89"/>
<path d="M75.3555 21.2724C75.5194 21.1904 75.6834 21.1494 75.8678 21.1494C76.0318 21.3134 76.2162 21.6208 76.4006 22.0511C76.5441 22.3995 76.6466 22.7274 76.7285 23.0758C76.954 22.9734 77.3024 22.7889 77.7737 22.4815C78.2246 22.2151 78.573 22.0102 78.8394 21.9077C79.2698 21.7232 79.6591 21.6413 80.028 21.6413C81.1142 21.6413 81.77 22.0102 81.9954 22.7274C82.1799 23.3422 82.2823 24.0595 82.2823 24.8588C82.2823 25.6785 82.1799 26.5188 81.9954 27.359C81.8315 27.4 81.7085 27.4205 81.6675 27.4205C81.4626 27.4205 81.3806 27.277 81.3806 26.9696C81.4626 26.5188 81.4831 25.9245 81.4831 25.1662C81.4831 23.5472 81.2986 22.666 80.9298 22.502C80.7043 22.3995 80.4379 22.3585 80.151 22.3585C79.4747 22.3585 78.7164 22.6455 77.8762 23.1988C77.5688 23.4037 77.2614 23.6496 76.954 23.9161C76.913 24.039 76.913 24.203 76.913 24.3874C76.913 24.5719 76.9335 24.7973 76.9745 25.0432L77.0974 25.8015C77.1384 26.0884 77.1589 26.3548 77.1589 26.5598C77.1589 26.7237 77.1384 26.8672 77.1179 27.0311C76.9335 27.0311 76.8105 27.0311 76.7695 27.0106C76.6466 26.9901 76.5851 26.9286 76.5441 26.8467C76.4621 26.4778 76.3802 25.8425 76.2777 24.9612C76.1752 24.1415 76.0727 23.5062 75.9908 23.0758C75.8063 22.379 75.6014 21.7847 75.3555 21.2724Z" fill="#3A4E89"/>
<path d="M83.3889 27.236C83.3684 27.2565 83.266 27.277 83.102 27.3385C82.9791 27.3795 82.8971 27.441 82.8356 27.5025C82.7536 27.0516 82.7126 26.4163 82.7126 25.5965C82.7126 24.7768 82.7536 23.7726 82.8561 22.584C82.8766 22.2971 82.9176 21.8052 82.9791 21.1494C83.02 21.1494 83.061 21.1494 83.0815 21.1494C83.2455 21.1699 83.3889 21.2314 83.5119 21.3544L83.4504 23.1168C83.4709 23.1578 83.7578 23.3217 84.2702 23.6087C84.5571 23.7521 84.8235 23.9161 85.1104 24.0595C86.0326 24.6129 86.7294 24.9817 87.1803 25.1457C87.2827 25.1457 87.3442 25.1867 87.3852 25.2891C87.4262 25.3711 87.4262 25.4531 87.4262 25.5556C87.4262 25.5965 87.4057 25.617 87.3852 25.658C87.2418 25.658 87.0778 25.6375 86.8729 25.5965C86.299 25.4941 85.6637 25.2482 84.9874 24.8588C84.68 24.6743 84.4341 24.5104 84.2292 24.3464C84.1472 24.2645 83.8603 24.1415 83.4094 23.9571C83.3889 23.998 83.3684 24.08 83.348 24.162C83.3275 24.4899 83.3479 25.0432 83.3684 25.8015C83.3479 26.5598 83.3684 27.0516 83.3889 27.236Z" fill="#3A4E89"/>
<path d="M88.6559 24.121C88.7174 23.5472 88.7379 23.0349 88.7379 22.5635C88.7379 22.0512 88.6969 21.7848 88.6354 21.7848C87.9591 21.7848 87.4468 21.8462 87.1189 21.9692C87.0984 21.8872 87.0779 21.8053 87.0779 21.7233C87.0779 21.4159 87.2213 21.2314 87.5083 21.129C87.5697 21.129 87.6722 21.1085 87.8157 21.1085C87.9591 21.1085 88.1026 21.088 88.2255 21.1085L88.5534 21.1495C88.7379 21.17 88.9838 21.17 89.2707 21.17C89.4756 21.17 89.5576 21.3134 89.5576 21.6208C89.4756 22.0717 89.4552 22.8095 89.4552 23.8136C89.4552 25.4326 89.6396 26.3139 90.0085 26.4778C90.2339 26.5803 90.5003 26.6213 90.7872 26.6213C91.4635 26.6213 92.2218 26.3344 93.062 25.781C93.4309 25.5351 93.7383 25.1662 93.9843 24.6744C94.0048 24.5719 94.0253 24.4694 94.0662 24.3875C94.1072 24.0801 94.1277 23.8136 94.1482 23.6087C94.3327 23.6087 94.4556 23.6087 94.4966 23.6292C94.6196 23.6497 94.6811 23.7112 94.722 23.7931C94.845 24.5514 94.9475 25.1252 94.9885 25.4941C95.1319 26.2114 95.3369 26.8262 95.6033 27.3181C95.4393 27.4 95.2754 27.441 95.0909 27.441C94.927 27.2771 94.7425 26.9697 94.5581 26.5393C94.4146 26.1909 94.3122 25.863 94.2302 25.5146C94.1687 25.5351 94.0253 25.6786 93.7998 25.945C93.5539 26.2114 93.349 26.3959 93.185 26.4983C92.7342 26.7647 92.3858 26.9697 92.1193 27.0721C91.689 27.2566 91.2996 27.3386 90.9307 27.3386C89.8445 27.3386 89.1887 26.9697 88.9633 26.2524C88.7584 25.6581 88.6559 24.9408 88.6559 24.121Z" fill="#3A4E89"/>
<path d="M102.346 27.359C102.182 27.4 102.059 27.4205 102.018 27.4205C101.813 27.4205 101.731 27.277 101.731 26.9696C101.813 26.5188 101.833 25.8425 101.833 24.9407C101.833 23.3217 101.649 22.4405 101.28 22.2766C101.055 22.1741 100.788 22.1331 100.501 22.1331C99.825 22.1331 99.0668 22.42 98.2265 22.9733C98.1036 23.0553 97.9601 23.1988 97.7552 23.4242C97.5297 23.6906 97.3863 23.8546 97.3043 23.9161C97.2428 24.1825 97.2018 24.3874 97.2018 24.5104C97.2018 24.6743 97.1813 24.8178 97.1609 24.9817C96.9764 24.9817 96.8534 24.9817 96.8125 24.9612C96.6895 24.9407 96.628 24.8793 96.587 24.7973C96.5051 24.3874 96.4641 24.1005 96.4436 23.9365C96.4436 23.7726 96.3821 23.5062 96.3001 23.0758C96.1567 22.3585 95.9517 21.7437 95.6853 21.2519C95.8493 21.1699 96.0132 21.1289 96.1976 21.1289C96.3616 21.2929 96.546 21.6003 96.7305 22.0306C96.8739 22.379 96.9764 22.7069 97.0584 23.0553C97.1199 23.0348 97.2633 22.9119 97.4888 22.7069C97.7347 22.4815 97.9396 22.338 98.1036 22.2356C98.5544 21.9691 98.9028 21.7642 99.1692 21.6617C99.5996 21.4773 99.989 21.3953 100.358 21.3953C101.444 21.3953 102.1 21.7642 102.325 22.4815C102.51 23.0963 102.612 23.8136 102.612 24.6128C102.612 24.8793 102.612 25.1662 102.592 25.4531C102.735 25.4531 102.92 25.4326 103.166 25.3916C103.411 25.3506 103.596 25.3301 103.739 25.3301C103.965 25.3301 104.108 25.3506 104.149 25.3711C104.211 25.4121 104.252 25.576 104.272 25.822C103.944 25.9449 103.698 26.0269 103.493 26.0474C103.186 26.0884 102.879 26.1294 102.592 26.2113C102.571 26.3548 102.551 26.5392 102.53 26.8057C102.51 27.0311 102.448 27.2155 102.346 27.359Z" fill="#3A4E89"/>
<path d="M42.1967 40.2496C41.7868 40.7414 41.0695 41.0488 40.0653 41.1513C39.6964 41.1923 39.2251 41.2128 38.6717 41.2128C38.4873 41.2128 38.1594 41.2128 37.7085 41.1923L37.0322 41.1718C36.5814 41.1718 36.0485 41.0488 35.4542 40.8439L33.7942 40.2701C33.3639 40.1676 33.1384 40.0241 33.1384 39.8397C33.1384 39.7167 33.2204 39.5938 33.3844 39.4708C33.5073 39.3683 33.6508 39.2864 33.7942 39.2454C33.8557 39.2249 33.9172 39.2249 33.9582 39.2249C34.1221 39.2249 34.409 39.3068 34.7779 39.4913C35.3722 39.7782 35.7411 39.9422 35.8641 39.9831C36.315 40.1676 36.7043 40.2496 37.0322 40.2496C37.2372 40.2496 37.5036 40.2496 37.8315 40.2701C38.5488 40.311 38.9996 40.3315 39.1431 40.3315C39.7579 40.3315 40.2293 40.2496 40.5367 40.1061C40.9465 39.9217 41.1925 39.5938 41.2744 39.1224C41.2744 39.0814 41.2949 39.0404 41.2949 38.9994C41.2949 38.6101 40.7826 38.1592 39.7579 37.6674L37.934 36.7861C36.0895 35.8844 35.0443 35.0237 34.7984 34.1629C34.7984 34.1014 34.7779 34.0605 34.7779 34.04C34.7779 33.6916 35.0648 33.3432 35.6592 32.9948C36.151 32.7079 36.7248 32.4824 37.4216 32.339C37.77 32.257 38.0774 32.1955 38.3848 32.1341C39.4505 31.9086 40.2702 31.8062 40.8646 31.8062C41.2334 31.8062 41.4179 31.9906 41.4179 32.339C41.0695 32.5849 40.4137 32.7694 39.471 32.9538L37.2577 33.3637C36.5609 33.4866 36.2125 33.7326 36.2125 34.1014V34.1834C36.2125 34.2039 36.2125 34.2449 36.233 34.2859C36.2945 34.6138 36.6838 34.9622 37.4011 35.3516C37.4216 35.3721 38.1799 35.7819 39.6759 36.5812C40.6596 37.114 41.3769 37.5649 41.8278 37.9543C42.0122 38.0772 42.1762 38.2822 42.2786 38.6101C42.3811 38.8765 42.4426 39.1429 42.4426 39.4093C42.4631 39.7372 42.3811 40.0241 42.1967 40.2496Z" fill="#3A4E89"/>
<path d="M53.3656 31.9292C53.4271 32.0317 53.4476 32.1341 53.4476 32.2571C53.4476 32.3596 53.4066 32.503 53.3246 32.626C53.2836 32.708 53.3106 32.7506 53.2286 32.8941C53.1671 32.976 52.7303 33.0973 52.095 33.1793C50.8449 33.3228 49.8202 33.4047 49.0619 33.4047C49.0414 33.6712 49.021 33.9786 49.021 34.3065C49.021 34.9008 49.0619 35.6386 49.1439 36.5198L49.3898 39.0405C49.4718 39.9217 49.5128 40.6185 49.5128 41.1309C49.4718 41.1309 49.3898 41.1719 49.2669 41.2333C49.1234 41.2948 49.0415 41.3358 49.0005 41.3358C48.9185 41.3358 48.8365 41.2948 48.7545 41.2129C48.6316 40.5366 48.5086 39.7373 48.4266 38.8151C48.3652 38.2003 48.3037 37.3395 48.2217 36.2329L48.0578 33.5687C47.9143 33.5277 47.7299 33.5072 47.4839 33.5072C47.156 33.5072 46.7257 33.5277 46.2338 33.5892L44.7173 33.7531C44.1844 33.8146 43.8156 33.8351 43.6106 33.8351C43.3852 33.5687 43.2827 33.2203 43.2827 32.7899C45.1681 32.4825 47.4634 32.2161 50.1686 32.0317C51.4392 31.9702 52.4844 31.9292 53.3656 31.9292Z" fill="#3A4E89"/>
<path d="M61.5837 40.2496C60.9074 40.2496 60.1082 40.3111 59.2064 40.4545L56.5627 40.8439C55.5995 40.9874 54.7593 41.0488 54.083 41.0488C53.7551 41.0488 53.4887 41.0079 53.2838 40.9464C52.7099 40.7619 52.3001 40.2701 52.0746 39.4298C52.0746 39.1839 52.0746 38.815 52.0541 38.3232L51.9926 36.9706C51.9722 36.3763 51.9517 35.9664 51.9517 35.782C51.9517 34.3064 52.1156 33.1588 52.464 32.339C52.9559 32.339 53.5912 32.298 54.3494 32.2161L56.6242 31.9701C57.3825 31.8882 58.0588 31.8472 58.6326 31.8472C59.063 31.8472 59.4114 31.8677 59.6983 31.9086C60.0467 31.9086 60.2106 32.1341 60.2106 32.5644C60.2106 32.6464 60.1901 32.7284 60.1696 32.7899C59.5343 32.8719 58.7351 32.9128 57.7924 32.9128C56.6652 32.9333 55.866 32.9538 55.3946 33.0153C54.4929 33.0973 53.6936 33.2817 53.0173 33.5277C52.8944 33.958 52.8329 34.5933 52.8329 35.4131C52.8329 35.7615 52.8534 36.0689 52.8739 36.3558C53.1608 36.4173 53.4887 36.4378 53.8166 36.4378C54.2879 36.4378 54.7798 36.3763 55.2921 36.2328C55.4151 36.1918 55.9069 36.0689 56.7472 35.8434C57.28 35.7 57.7514 35.6385 58.1613 35.6385C58.1408 35.659 58.0588 35.782 57.9358 36.0074C57.8334 36.1918 57.7514 36.2943 57.6694 36.3353C57.3825 36.5402 56.9111 36.7247 56.2963 36.8886C55.8865 36.9911 55.3331 37.1141 54.6568 37.2165C54.2675 37.278 53.7141 37.3805 53.0173 37.5239C53.0173 37.6059 53.0173 37.7084 53.0173 37.8518C53.0173 37.9953 53.0173 38.0978 53.0173 38.1797C53.0173 39.1019 53.2223 39.6348 53.6117 39.7987C54.1855 39.9012 54.7388 39.9422 55.3331 39.9422C55.8455 39.9422 56.4603 39.9012 57.1366 39.8192L59.2064 39.5528C59.9032 39.4708 60.6 39.4094 61.3173 39.4094C61.5632 39.4094 61.6657 39.5733 61.6657 39.9217C61.6247 40.0447 61.6042 40.1471 61.5837 40.2496Z" fill="#3A4E89"/>
<path d="M73.2651 41.0899C73.2242 41.1719 73.1422 41.1924 73.0602 41.1924C72.9577 41.1924 72.7733 41.1309 72.4864 41.0079C72.261 40.5366 72.0355 39.8398 71.8101 38.9176C71.5232 37.7084 71.3387 36.9502 71.2363 36.6838C70.9699 35.8845 70.6215 35.2492 70.1706 34.7778C70.0271 35.0033 69.7607 35.4746 69.3508 36.1919C69.0025 36.8272 68.695 37.3396 68.4286 37.6879C68.0188 38.2413 67.5679 38.6716 67.076 38.9995C66.6867 38.7536 66.3178 38.3642 65.9489 37.7904C65.7235 37.442 65.4365 36.9297 65.1291 36.2944C64.7807 35.5771 64.5348 35.0852 64.3504 34.7778C64.2274 35.1672 64.043 35.7615 63.838 36.5608C63.6331 37.36 63.4692 37.9544 63.3462 38.3437C63.1003 39.0815 62.8338 39.6758 62.5674 40.1472L62.1985 40.0857C62.0961 40.0652 62.0141 40.0242 61.9321 39.9218C62.0756 39.2045 62.301 38.3847 62.5879 37.442C62.6699 37.1346 62.9568 36.2534 63.4077 34.8393C63.7561 33.7532 64.002 32.8924 64.1659 32.2571C64.2479 32.0522 64.3709 31.9497 64.5143 31.9497C64.7193 31.9497 64.8012 32.0522 64.8012 32.2571C64.8012 33.0974 65.0267 34.0196 65.457 34.9828C65.7644 35.7001 66.1743 36.3763 66.6662 37.0321C67.0556 37.565 67.281 37.8519 67.322 37.8519C67.8343 37.4215 68.2852 36.8477 68.6541 36.1714C68.9 35.7206 69.1869 35.0443 69.4943 34.1835C69.8427 33.2203 70.1091 32.544 70.2526 32.1956C70.2936 32.1751 70.355 32.1751 70.396 32.1751C70.5805 32.1751 70.7034 32.2776 70.7444 32.4825L71.7281 35.4951C72.097 36.6428 72.4044 37.5855 72.5889 38.3028C72.8963 39.3479 73.1217 40.2702 73.2651 41.0899Z" fill="#3A4E89"/>
<path d="M84.3112 37.7494C84.2292 38.0158 84.2087 38.3437 84.2087 38.7126C84.2087 38.856 84.2087 39.061 84.2292 39.3274C84.2497 39.5938 84.2497 39.7987 84.2497 39.9422C84.2497 40.3726 84.2087 40.721 84.1062 41.0079C84.0243 41.1923 83.9423 41.2948 83.8603 41.2948C83.6144 41.2538 83.4094 41.0489 83.2865 40.6595C83.2045 40.434 83.143 40.2291 83.0815 40.0447C82.4667 39.8192 81.6265 39.6963 80.5403 39.6963C80.3149 39.6963 79.987 39.6963 79.5566 39.7168C79.1058 39.7373 78.7779 39.7373 78.5729 39.7373C77.9991 39.7373 77.5277 39.7168 77.1384 39.6553C76.0522 39.5118 75.171 39.0815 74.4537 38.4052C74.2897 38.0568 74.2078 37.6674 74.2078 37.237C74.2078 36.1304 74.6791 35.0032 75.6218 33.8556C76.708 32.5235 78.1016 31.8677 79.8025 31.8677C79.905 31.9701 79.987 32.0521 80.0895 32.1341C80.2124 32.2776 80.2739 32.4005 80.2739 32.503C80.2739 32.6055 80.2329 32.6874 80.1304 32.7694C80.069 32.7489 80.028 32.7489 79.9665 32.7489C79.9255 32.7489 79.8025 32.7694 79.5976 32.8104C79.4746 32.8309 79.3517 32.8309 79.2287 32.8309C77.5892 33.2817 76.3186 34.3064 75.4784 35.8844C75.3554 36.2943 75.2734 36.6427 75.2734 36.8886C75.2734 37.401 75.4579 37.7699 75.8063 38.0363C76.667 38.6511 77.7532 38.9585 79.0648 38.9585C79.7616 38.9585 80.6018 38.856 81.606 38.6716C81.9339 38.6101 82.3643 38.5076 82.8971 38.3847C83.3275 38.1592 83.5324 37.8109 83.5324 37.319C83.5324 37.1755 83.5119 37.0321 83.4504 36.8886C82.6717 36.7042 81.7904 36.6222 80.8067 36.6222C80.1509 36.6222 79.3722 36.6632 78.4705 36.7452C78.409 36.6837 78.368 36.6017 78.368 36.4993C78.368 36.4173 78.3885 36.2943 78.45 36.1714C78.4705 36.1099 78.5114 36.0279 78.5729 35.9254C79.0648 35.6795 79.7001 35.577 80.4788 35.577C80.7658 35.577 81.4625 35.618 82.5487 35.7C82.9586 35.741 83.266 35.741 83.5119 35.741C83.9628 35.8844 84.2292 36.2533 84.2702 36.8476C84.2907 37.1551 84.3112 37.442 84.3112 37.7494Z" fill="#3A4E89"/>
<path d="M94.927 40.2496C94.2507 40.2496 93.4514 40.3111 92.5497 40.4545L89.906 40.8439C88.9428 40.9874 88.1026 41.0488 87.4263 41.0488C87.0984 41.0488 86.832 41.0079 86.627 40.9464C86.0532 40.7619 85.6433 40.2701 85.4179 39.4298C85.4179 39.1839 85.4179 38.815 85.3974 38.3232L85.3359 36.9706C85.3154 36.3763 85.2949 35.9664 85.2949 35.782C85.2949 34.3064 85.4589 33.1588 85.8073 32.339C86.2991 32.339 86.9344 32.298 87.6927 32.2161L89.9675 31.9701C90.7258 31.8882 91.402 31.8472 91.9759 31.8472C92.4062 31.8472 92.7546 31.8677 93.0415 31.9086C93.3899 31.9086 93.5539 32.1341 93.5539 32.5644C93.5539 32.6464 93.5334 32.7284 93.5129 32.7899C92.8776 32.8719 92.0783 32.9128 91.1356 32.9128C90.0085 32.9333 89.2092 32.9538 88.7379 33.0153C87.8361 33.0973 87.0369 33.2817 86.3606 33.5277C86.2376 33.958 86.1761 34.5933 86.1761 35.4131C86.1761 35.7615 86.1966 36.0689 86.2171 36.3558C86.5041 36.4173 86.8319 36.4378 87.1598 36.4378C87.6312 36.4378 88.1231 36.3763 88.6354 36.2328C88.7584 36.1918 89.2502 36.0689 90.0904 35.8434C90.6233 35.7 91.0946 35.6385 91.5045 35.6385C91.484 35.659 91.402 35.782 91.2791 36.0074C91.1766 36.1918 91.0946 36.2943 91.0127 36.3353C90.7258 36.5402 90.2544 36.7247 89.6396 36.8886C89.2297 36.9911 88.6764 37.1141 88.0001 37.2165C87.6107 37.278 87.0574 37.3805 86.3606 37.5239C86.3606 37.6059 86.3606 37.7084 86.3606 37.8518C86.3606 37.9953 86.3606 38.0978 86.3606 38.1797C86.3606 39.1019 86.5655 39.6348 86.9549 39.7987C87.5287 39.9012 88.0821 39.9422 88.6764 39.9422C89.1887 39.9422 89.8035 39.9012 90.4798 39.8192L92.5497 39.5528C93.2465 39.4708 93.9433 39.4094 94.6605 39.4094C94.9065 39.4094 95.0089 39.5733 95.0089 39.9217C94.968 40.0447 94.9475 40.1471 94.927 40.2496Z" fill="#3A4E89"/>
<path d="M104.498 32.2775C104.108 32.9947 103.903 33.835 103.903 34.8187C103.903 35.29 103.944 35.8434 104.047 36.4582L104.334 38.2821C104.436 38.8969 104.477 39.4298 104.477 39.8601C104.477 40.2905 104.436 40.6799 104.354 41.0078C104.047 41.0488 103.801 41.0488 103.616 41.0488C102.182 40.6799 100.481 39.2658 98.5338 36.8271C98.3699 36.6221 97.6936 35.7819 96.5255 34.2858C96.4025 34.6752 96.3205 35.2081 96.3205 35.8844C96.3205 36.0688 96.3205 36.3557 96.3205 36.7246V37.5853C96.3205 38.2206 96.2795 38.774 96.1771 39.2453C96.1361 39.2453 96.0951 39.2658 95.9926 39.2863L95.9107 39.3068C95.8082 39.3478 95.7057 39.3478 95.6032 39.3478C95.4188 39.3478 95.2958 39.2658 95.2139 39.1019C95.3163 38.569 95.4188 37.8108 95.5008 36.8476C95.5213 36.5811 95.5828 35.7409 95.6852 34.3883C95.7467 33.4251 95.8287 32.6668 95.9107 32.093C96.341 32.5644 97.0583 33.4456 98.0625 34.7162C99.0257 35.9458 99.8045 36.8885 100.44 37.5239C101.423 38.528 102.428 39.3273 103.452 39.9216L103.309 38.3231C103.206 37.1755 103.145 36.1918 103.145 35.413C103.145 34.2858 103.247 33.2612 103.452 32.3184C103.555 32.1955 103.739 32.134 104.006 32.134C104.231 32.1955 104.375 32.2365 104.498 32.2775Z" fill="#3A4E89"/>
</svg>
