<svg width="180" height="74" viewBox="0 0 180 74" fill="none" xmlns="http://www.w3.org/2000/svg">
<path d="M12.0273 39.2347C12.0273 39.2004 12.0616 39.2004 12.0273 39.2347C12.0616 39.2004 12.0616 39.2004 12.0273 39.2347Z" fill="#3A4E89"/>
<path d="M43.9984 52.529C43.4159 51.8095 42.9362 51.0556 42.3194 50.4388C40.6746 48.7598 38.79 47.3891 36.5284 46.7038C35.055 46.2583 33.5815 45.8129 32.0053 46.0527C31.5941 46.1213 31.2172 46.2241 30.806 46.2241C29.5724 46.2583 28.4073 46.1555 27.208 45.8129C25.6318 45.3674 24.2611 44.6136 23.0276 43.5856C22.5136 43.1744 22.0338 42.6604 21.5198 42.2149C21.3828 42.1121 21.3485 42.0093 21.28 41.838C21.0059 41.1184 20.6632 40.8786 19.8408 40.9814C18.6415 41.1184 17.5107 40.9471 16.4485 40.3646C16.1058 40.159 15.8659 40.2275 15.5575 40.4331C15.1806 40.673 14.7694 40.9128 14.3582 41.1527C14.3582 41.1184 14.324 41.0842 14.324 41.0499C14.7009 40.4674 15.1121 39.9191 15.4547 39.3708C14.8379 38.9939 14.3582 38.6513 13.81 38.3086C13.5016 38.4457 13.1589 38.5827 12.8162 38.7198L12.8505 38.6855C12.5764 38.8569 12.3023 39.0282 12.0281 39.1652C11.8225 39.4736 11.9253 39.7478 12.0967 40.0562C12.5421 40.8443 13.1589 41.4953 13.7757 42.1464C14.9407 43.4485 16.3799 44.2366 18.0932 44.5793C18.573 44.6821 19.0527 44.8192 19.4639 45.059C21.3142 46.1898 23.1304 47.3891 24.9465 48.5542C25.5633 48.9311 26.18 49.3766 26.8654 49.5822C28.4416 50.0961 30.0864 50.0619 31.6969 49.8563C32.7934 49.7192 33.7871 49.7192 34.8151 50.0961C35.9116 50.4731 37.0081 50.8843 37.9676 51.5696C39.4068 52.6318 40.5375 53.9682 41.5998 55.4417C42.6278 54.8249 43.6558 54.2081 44.6838 53.557C44.4439 53.1116 44.2726 52.8717 43.9984 52.529Z" fill="#3A4E89"/>
<path d="M26.5587 67.1601C26.5587 66.7146 26.5587 66.3377 26.5587 65.995C26.5244 65.1384 26.1132 64.6244 25.2908 64.316C24.4684 64.0076 23.646 64.2132 22.9265 64.5216C21.8985 64.9671 20.8705 65.5153 20.0138 66.2692C19.8082 66.4405 19.6026 66.5776 19.2942 66.8174C18.6089 65.4468 17.9579 64.1789 17.2383 62.774C17.5809 62.4656 17.9579 62.1915 18.3005 61.8831C19.911 60.4782 21.6929 59.3474 23.7488 58.6963C25.9761 58.011 27.9293 58.4565 29.5741 60.1013C30.4307 60.9579 30.9105 62.0544 30.9105 63.3223C30.9105 64.316 30.9105 65.344 30.9105 66.4405C29.4713 66.6804 28.0664 66.886 26.5587 67.1601Z" fill="#3A4E89"/>
<path d="M33.6495 24.6029C33.6152 24.4316 33.5467 24.2603 33.4781 24.0547C33.4096 24.3631 33.3068 24.6715 33.2383 24.9799C33.4781 25.0141 33.5809 25.1169 33.7523 25.1169C33.718 24.9799 33.6495 24.74 33.6495 24.6029Z" fill="#3A4E89"/>
<path d="M33.9234 26.1438C33.615 26.1781 33.2724 26.041 32.9982 26.041C32.964 26.1438 32.964 26.2466 32.9297 26.3494C33.3409 26.555 33.6835 26.6578 34.0947 26.8291C34.0262 26.555 33.9919 26.3494 33.9234 26.1438Z" fill="#3A4E89"/>
<path d="M34.2343 27.5154C34.2343 27.4811 34.2 27.4469 34.2 27.3783C33.7545 27.207 33.2748 27.1042 32.8294 26.8301C32.7951 27.0699 32.7608 27.2755 32.7266 27.5154C33.2063 27.4811 33.686 27.4811 34.2343 27.5154Z" fill="#3A4E89"/>
<path d="M36.668 38.822C36.3939 36.9031 35.0918 31.3178 34.2694 27.6855C34.2351 27.6855 34.2351 27.6855 34.2009 27.6855C33.6869 27.7198 33.1729 27.9597 32.6931 27.8911C32.6589 28.0625 32.6589 28.0282 32.6246 28.2338C32.3848 30.2898 32.2134 32.3115 32.1106 34.3674C31.8365 36.9717 31.9393 38.171 32.1106 39.0276C32.7274 38.9248 36.017 39.1304 36.5652 39.5074C36.0512 39.5074 33.1729 39.7815 33.1729 39.7815C32.7959 39.7472 32.5561 39.6787 32.2134 39.6102C32.282 39.8843 32.3505 40.0899 32.419 40.2612C32.5561 40.7067 36.1198 39.85 36.7365 40.0556C36.7365 40.0899 36.7708 40.3298 36.668 38.822Z" fill="#3A4E89"/>
<path d="M33.789 25.3215C33.6177 25.3215 33.3778 25.3215 33.1722 25.2188C33.1037 25.5271 33.1037 25.4243 33.0352 25.7327C33.3436 25.7327 33.5834 25.9383 33.8918 25.9383C33.8233 25.5957 33.8233 25.5614 33.789 25.3215Z" fill="#3A4E89"/>
<path d="M16.2791 61.0617C16.1763 60.8218 16.0735 60.6162 15.9707 60.4106C15.8679 60.2393 15.7651 60.0337 15.5938 59.7938C15.8336 59.5882 16.0392 59.4169 16.3819 59.1085C16.4847 59.3141 16.5875 59.4512 16.6903 59.6225C16.7245 59.6225 16.7245 59.5882 16.7588 59.5882C16.6903 59.3826 16.656 59.177 16.5875 59.0057C16.6217 58.9372 16.6217 58.8686 16.656 58.8344C18.7805 57.1896 21.3505 55.5106 24.126 54.0371C24.6057 54.3112 25.0855 54.2427 25.5995 54.0714C30.431 53.763 33.3093 57.5665 33.7891 59.6225C34.5087 62.5008 34.1317 64.8995 34.1317 65.0708C34.1317 65.8247 34.1317 65.8247 33.4121 65.996C33.2408 66.0303 33.0352 66.0645 32.8296 66.1331C32.8296 65.5848 32.8639 65.1051 32.8296 64.6253C32.7611 63.6659 32.7268 62.6722 32.5898 61.7127C32.3842 60.0337 31.6988 58.5945 30.4653 57.498C29.8142 56.9155 28.0666 55.8532 27.2785 55.8532C26.0449 55.6134 24.8799 55.9217 23.7834 56.47C23.1323 56.7441 16.9301 60.5819 16.2791 61.0617Z" fill="#3A4E89"/>
<path d="M11.6531 31.2837C11.1734 31.0781 10.6937 30.8725 10.1797 30.6326C11.1049 28.7822 12.2699 27.2745 13.8804 26.1437C16.4504 24.3962 19.2602 23.8822 22.3099 24.3276C22.8239 24.3962 23.3379 24.4647 23.8176 24.499C23.9547 24.499 24.126 24.4647 24.2973 24.4304C24.4687 24.3962 24.64 24.3276 24.7428 24.3619C25.4624 24.6018 26.1477 24.9102 26.9701 25.2185C26.6274 25.9724 26.3533 26.6235 26.0449 27.3773C25.2225 27.206 24.5029 27.0689 23.7491 26.9319C22.7211 26.692 21.7274 26.3836 20.6651 26.2123C18.7462 25.9381 16.9644 26.4521 15.2853 27.3773C13.7776 27.9598 12.1671 30.3242 11.6531 31.2837Z" fill="#3A4E89"/>
<path d="M42.73 4.93359C41.9419 5.44759 41.051 6.33851 40.3314 6.71543C38.8922 7.53782 37.5558 8.49727 36.3223 9.62805C36.0824 9.86792 35.8425 10.0392 35.4656 9.97072C34.3691 9.83365 33.4439 10.2791 32.6215 10.9302C29.846 13.0889 27.4131 15.5561 25.4599 18.4345C25.0487 19.017 24.706 19.668 24.2948 20.3191C23.9179 20.1478 23.541 20.0107 23.1641 19.8394C23.9522 18.4345 24.706 17.0638 25.6998 15.8302C27.4131 13.7057 29.332 11.8211 31.4907 10.142C33.0327 8.94273 34.6432 7.94901 36.3565 7.05809C36.9733 6.7497 37.7614 6.37277 38.4125 6.16717C39.509 5.79025 40.3999 5.44759 41.5307 5.10492C41.7363 5.07066 42.3874 4.93359 42.73 4.93359Z" fill="#3A4E89"/>
<path d="M8.53457 30.3599C8.1919 30.1886 7.84924 30.0515 7.57511 29.8802C7.54085 29.3662 8.5003 27.927 8.74016 27.5501C9.83668 25.8025 11.3101 24.3976 13.092 23.3354C15.1479 22.1018 17.4095 21.4507 19.8081 21.4165C20.4249 21.4165 21.0417 21.4165 21.6928 21.4165C22.2753 21.4165 22.5494 21.2451 22.9263 20.6969C22.9606 20.6626 22.9949 20.5941 22.9949 20.5941C23.1319 20.5941 23.269 20.6283 23.4746 20.6626C23.3033 20.4913 23.1662 20.3885 23.0291 20.2514C23.0634 20.1829 23.0977 20.1486 23.0977 20.0801C23.4403 20.2171 23.8173 20.3542 24.1599 20.4913C23.9543 21.0053 23.783 21.485 23.6117 21.9304C23.4061 22.513 22.9606 22.7528 22.3438 22.7528C21.4186 22.7186 20.4934 22.6843 19.5683 22.7186C16.7927 22.8556 14.3255 23.7808 12.201 25.5627C10.6248 26.8648 9.49402 28.4753 8.53457 30.3599Z" fill="#3A4E89"/>
<path d="M9.35547 43.8599C9.69813 43.6543 9.97226 43.4829 10.2807 43.2773C10.7261 43.7913 11.103 44.2368 11.5142 44.7165C13.4331 46.9438 15.8318 48.2459 18.6759 48.8627C20.0465 49.1369 21.2116 49.8907 22.2053 50.9187C22.685 51.3984 23.0619 51.9467 23.5416 52.5292C23.2333 52.7691 22.9591 52.9747 22.685 53.1803C22.0682 52.5635 21.4857 51.9809 20.9032 51.4327C20.0808 50.6446 19.0528 50.2676 18.0248 50.0278C15.0779 49.3424 12.5765 47.9718 10.6576 45.6074C10.2121 45.0592 9.83519 44.5109 9.35547 43.8599Z" fill="#3A4E89"/>
<path d="M36.5648 43.688C37.3529 43.9279 38.518 44.3733 38.518 44.4076L37.5242 45.0929C35.8795 43.7223 30.9794 45.5384 28.3409 44.6817C26.5933 44.1677 25.2912 43.6537 23.2695 41.3579C23.6465 41.1523 23.8863 40.981 24.2632 40.7754C28.478 46.1552 33.6864 42.8656 36.5648 43.688Z" fill="#3A4E89"/>
<path d="M33.8568 12.0605C31.1841 15.3501 29.0253 18.9138 27.5176 22.9572C26.7295 22.6145 26.0442 22.3404 25.1875 21.9977C25.4274 21.7236 25.5644 21.4495 25.8043 21.3124C26.0784 21.1411 25.7358 21.004 25.8386 20.7984C27.0721 18.5711 28.6484 16.6179 30.4302 14.8704C31.4925 13.8081 32.5205 12.7801 33.8568 12.0605Z" fill="#3A4E89"/>
<path d="M39.0644 44.305C38.7218 43.0715 39.3043 42.4204 39.3043 41.2896C39.3043 39.405 39.2015 37.5203 38.8246 35.6357C38.242 32.7916 37.591 29.9818 37.1455 27.1377C36.6315 24.0537 36.3917 20.9698 36.7343 17.8516C36.9399 16.2411 37.2483 14.6306 37.6595 13.0543C37.9336 12.0606 38.1735 10.7242 38.8931 9.9361C39.9553 8.53119 40.7092 7.50321 41.7715 6.23536C42.4225 5.44724 42.5938 5.17311 42.7309 5.07031C42.0113 6.0983 41.6687 6.54376 41.2232 7.16055C40.4008 8.29133 39.7155 9.31931 38.9274 10.4501C38.619 11.1012 38.2078 12.5403 38.0364 13.2942C37.6253 15.076 37.2483 16.8921 37.077 18.7082C36.8714 20.9013 36.9399 23.0943 37.2141 25.2873C37.4539 27.2062 37.8651 29.0566 38.242 30.9412C38.619 32.9629 39.0987 34.9504 39.4071 36.9721C39.647 38.5483 39.784 39.7134 39.7498 41.3239C39.6812 41.8721 39.1672 43.4826 39.0644 44.305Z" fill="#3A4E89"/>
<path d="M14.4969 32.3804C14.2913 32.2433 14.0857 32.1405 13.7773 31.9349C13.9829 31.0097 15.2508 29.3649 17.4781 28.6453C18.5403 28.2342 19.6026 28.1999 20.7334 28.474C21.59 28.6796 22.3439 29.0565 23.0977 29.502C23.7488 29.8789 24.1942 30.4615 24.5369 31.1125C24.6397 31.3181 24.16 31.6265 23.9887 31.7293C23.5775 31.8664 23.4747 31.4894 23.3033 31.2838C22.618 30.5985 21.8299 30.0845 20.9047 29.8104C19.6711 29.4677 18.4375 29.502 17.2725 30.0503C15.2508 30.9069 15.0452 32.3461 14.4969 32.3804Z" fill="#3A4E89"/>
<path d="M44.9922 51.0562C44.7524 50.8163 44.4782 50.5422 44.2384 50.268C42.5936 48.3149 40.5376 46.8072 38.4817 45.7106C38.2418 45.6078 37.9334 45.4022 37.625 45.1966C38.0019 44.9568 38.2761 44.7855 38.5502 44.6141C38.79 44.4428 38.9956 44.5113 39.2355 44.6141C41.3257 45.7106 43.1418 47.1498 44.7181 48.8974C45.1293 49.3428 45.4719 49.8226 45.9517 50.4394C45.7803 50.5422 45.609 50.645 45.4719 50.7478C45.3006 50.8506 45.1635 50.9534 44.9922 51.0562Z" fill="#3A4E89"/>
<path d="M15.043 37.0408C15.4199 36.8009 15.6255 36.6981 15.8654 36.5268C16.8933 37.6576 18.0927 38.4799 19.6689 38.3771C21.2794 38.2743 22.3759 37.3492 23.1298 35.9785C23.4039 36.1156 23.6438 36.2184 23.9179 36.3212C23.8494 36.938 23.5752 37.3834 23.1983 37.7946C22.8214 38.2401 22.513 38.6855 22.1361 39.131C21.999 39.2681 21.7934 39.4394 21.6221 39.4394C20.8339 39.5079 20.0458 39.5079 19.2577 39.5765C18.0927 39.6793 17.1332 39.131 16.208 38.5827C15.7626 38.2401 15.4884 37.589 15.043 37.0408Z" fill="#3A4E89"/>
<path d="M19.4661 37.1431C18.0612 37.2459 16.6905 36.0466 16.6562 34.3675C16.6562 32.7913 17.9241 31.5234 19.5003 31.5234C21.0423 31.5577 22.2759 32.8256 22.2759 34.3675C22.2416 36.0466 20.871 37.2459 19.4661 37.1431ZM19.4318 36.4235C20.6311 36.4235 21.6248 35.464 21.6248 34.2647C21.6248 33.0997 20.5969 32.0717 19.4318 32.106C18.2668 32.106 17.273 33.0654 17.273 34.2305C17.3073 35.5326 18.2668 36.3892 19.4318 36.4235Z" fill="#3A4E89"/>
<path d="M27.1082 37.2807C26.9711 38.0003 26.8683 38.5828 26.7655 39.1653C26.697 39.508 26.5257 39.7136 26.183 39.6793C25.155 39.645 24.1956 39.8849 23.2704 40.2618C23.0648 40.3304 22.8249 40.3304 22.5508 40.2961C22.9962 39.5765 23.9214 39.4394 24.3669 38.7541C24.8123 38.1031 25.2921 37.452 25.8061 36.7324C26.183 36.938 26.6284 37.1094 27.1082 37.2807Z" fill="#3A4E89"/>
<path d="M17.4448 68.5995C17.2049 68.8737 16.9993 69.1135 16.6909 69.4562C15.9713 68.1198 15.286 66.852 14.5664 65.5156C14.772 65.31 15.0461 65.0701 15.4231 64.7617C16.1084 66.0638 16.7594 67.2974 17.4448 68.5995Z" fill="#3A4E89"/>
<path d="M13.9822 63.2887C13.7081 62.809 13.5367 62.4663 13.2969 62.0894C13.6395 61.781 13.9822 61.4383 14.3249 61.0957C14.5305 61.3698 14.6675 61.5411 14.8046 61.7467C14.8389 61.7467 14.8731 61.7124 14.8731 61.7124C14.7703 61.404 14.6675 61.1299 14.5647 60.7873C14.8046 60.6502 15.0102 60.5131 15.2843 60.3418C15.4899 60.7187 15.6612 61.0271 15.9011 61.4383C15.3186 62.0208 14.7018 62.6034 13.9822 63.2887Z" fill="#3A4E89"/>
<path d="M17.478 65.5503C17.7522 66.2356 18.0263 66.9552 18.3347 67.7433C18.2319 67.8461 18.0606 67.9832 17.8207 68.1888C17.1011 66.7839 16.4158 65.4818 15.7305 64.1797C15.9703 64.0083 16.1074 63.9055 16.2445 63.8027C16.6557 64.351 17.0326 64.8992 17.4438 65.4132C17.4438 65.4475 17.4438 65.516 17.478 65.5503Z" fill="#3A4E89"/>
<path d="M30.6375 67.6397C29.2326 67.8453 27.8962 68.0509 26.457 68.2565C26.4913 67.9481 26.5256 67.7425 26.5598 67.4683C27.9647 67.2628 29.3011 67.0572 30.7403 66.8516C30.706 67.1942 30.6718 67.3998 30.6375 67.6397Z" fill="#3A4E89"/>
<path d="M17.4772 65.5501C17.4429 65.5158 17.4429 65.4473 17.4087 65.413C17.1003 64.7962 16.7576 64.1794 16.4492 63.5284C16.6548 63.3913 16.7919 63.2543 16.9975 63.1172C17.7171 64.4536 18.4024 65.7557 19.0877 67.0921C18.9164 67.2291 18.745 67.3662 18.5395 67.5375C18.1625 66.8179 17.8199 66.2011 17.4772 65.5501Z" fill="#3A4E89"/>
<path d="M42.0467 56.4352C41.9096 56.1611 41.8411 55.9897 41.7383 55.7841C42.732 55.2016 43.8628 54.4135 44.788 53.8652C44.9593 54.0366 45.1649 54.2764 45.1649 54.5163C44.1369 55.1674 43.1432 55.7841 42.0467 56.4352Z" fill="#3A4E89"/>
<path d="M15.9345 69.6274C15.352 69.6617 15.1807 69.3533 15.0093 69.0449C14.5981 68.1883 14.0156 67.3659 14.0156 66.3379C14.8037 67.3316 15.3177 68.4624 15.9345 69.6274Z" fill="#3A4E89"/>
<path d="M33.4805 14.2535C33.5147 14.0479 33.5147 13.9794 33.549 13.9108C33.6518 13.7052 33.7546 13.5339 33.8917 13.2598C34.3371 13.4311 34.8168 13.6367 35.3651 13.8423C35.2623 14.1507 35.1938 14.4248 35.0567 14.836C34.5085 14.6304 33.9945 14.4591 33.4805 14.2535Z" fill="#3A4E89"/>
<path d="M30.4626 68.4629C30.4626 68.6342 30.4626 68.7713 30.4283 68.9084C29.0234 69.0797 27.6871 69.2167 26.3164 69.3538C26.7961 68.9083 28.3038 68.6342 30.4626 68.4629Z" fill="#3A4E89"/>
<path d="M32.8281 15.2814C33.1023 15.1443 33.2051 15.0758 33.3421 15.0072C33.2736 14.8702 33.2051 14.7674 33.0337 14.459C33.8218 14.5275 34.3358 14.8359 34.9526 15.11C34.8498 15.3842 34.747 15.624 34.61 15.9324C34.0274 15.7611 33.5477 15.5555 32.8281 15.2814Z" fill="#3A4E89"/>
<path d="M34.5413 12.1641C35.8777 12.6438 35.8777 12.6781 35.3637 13.6032C35.1581 13.5347 34.9183 13.4662 34.7127 13.3976C34.5071 13.2948 34.2672 13.192 34.0273 13.055C34.0273 12.6438 34.3015 12.4382 34.5413 12.1641Z" fill="#3A4E89"/>
<path d="M11.2417 32.2446C10.762 32.0733 10.3508 31.9019 9.87109 31.6963C9.93963 31.4565 10.0082 31.2166 10.0767 30.9082C10.4536 31.0453 10.7963 31.1481 11.1047 31.2851C11.6872 31.5593 11.6872 31.5593 11.2417 32.2446Z" fill="#3A4E89"/>
<path d="M34.3365 16.8588C33.7197 16.6189 33.1715 16.379 32.5547 16.1049C32.6575 15.8993 32.726 15.728 32.8288 15.5566C33.3085 15.7622 33.754 15.9336 34.1995 16.1049C34.5764 16.242 34.6449 16.4818 34.3365 16.8588Z" fill="#3A4E89"/>
<path d="M31.7333 17.8867C32.5557 18.2294 33.241 18.5035 34.0634 18.8462C33.8235 19.0175 33.6522 19.1888 33.5837 19.1546C32.9669 18.949 32.2816 18.6748 31.6648 18.4007C31.5962 18.3664 31.7676 18.1608 31.7333 17.8867Z" fill="#3A4E89"/>
<path d="M46.9473 52.2895C47.4955 52.2552 47.7011 52.5978 47.8039 53.2146C47.5298 53.4202 47.2214 53.6258 46.8787 53.8657C46.5018 53.523 46.262 53.1804 46.5361 52.6664C46.6389 52.5293 46.7759 52.3923 46.9473 52.2895Z" fill="#3A4E89"/>
<path d="M44.1016 66.3391C44.1016 66.2705 44.1016 66.1335 44.1016 66.0992C45.061 65.7908 46.2603 65.4824 47.3911 65.1055C47.4254 65.2425 47.3568 65.2768 47.3568 65.4824C47.3568 65.6195 44.6156 66.3048 44.1016 66.3391Z" fill="#3A4E89"/>
<path d="M24.8789 23.2656C25.7356 23.3684 26.4894 23.7454 27.3803 24.1565C27.1405 24.2936 27.0034 24.3964 26.9349 24.3621C26.181 24.1565 25.4614 23.8481 24.8789 23.2656Z" fill="#3A4E89"/>
<path d="M46.6022 51.3301C46.7393 51.5014 46.8763 51.707 47.0477 51.9126C46.7393 52.1182 46.4309 52.2895 46.1225 52.5294C45.9511 52.3238 45.8141 52.1525 45.5742 51.9126C45.7798 51.707 46.4309 51.3643 46.6022 51.3301Z" fill="#3A4E89"/>
<path d="M44.9922 51.0561C45.1293 50.9533 45.3006 50.8505 45.4376 50.7477C45.6775 50.6449 45.8831 50.4736 46.1572 50.7135C46.4656 51.0219 46.0544 51.5359 46.0544 51.5359C45.9516 51.5359 45.8488 51.6044 45.7118 51.6044C45.6775 51.6387 45.2321 51.6729 44.9922 51.0561Z" fill="#3A4E89"/>
<path d="M14.4603 32.347C14.7345 32.724 14.6317 32.9981 14.2547 33.238C14.0149 33.1352 13.775 33.0324 13.5352 32.9638C13.6037 32.21 13.6037 32.21 14.4603 32.347Z" fill="#3A4E89"/>
<path d="M12.0653 38.8912C11.9625 38.857 11.8597 38.857 11.7569 38.8227C11.7227 38.8227 11.7227 38.7884 11.7227 38.7542C12.0653 38.2744 13.1961 37.5891 13.8814 37.4863C13.4702 37.829 13.1618 38.1031 12.8534 38.4115L12.8877 38.3772C12.6136 38.5486 12.3052 38.7199 12.0653 38.8912Z" fill="#3A4E89"/>
<path d="M12.2704 65.1725C11.6194 64.3158 11.5851 64.0417 11.9963 63.7676C12.6816 64.6585 12.6816 64.7613 12.2704 65.1725Z" fill="#3A4E89"/>
<path d="M8.32844 42.353C6.6494 39.2348 5.38155 35.9795 7.36899 30.1543C7.71165 30.2914 8.02005 30.5655 8.32844 30.6683C5.86128 37.4872 9.35643 41.9076 9.35643 41.9076C9.35643 41.9076 8.53404 42.4558 8.32844 42.353Z" fill="#3A4E89"/>
<path d="M34.0963 18.297C33.3424 18.2627 32.6914 17.9543 31.9375 17.4746C32.6228 17.4746 33.4452 17.7487 34.0963 18.297Z" fill="#3A4E89"/>
<path d="M32.625 67.8806C32.6593 67.3323 32.9334 67.2295 33.9271 67.2981C33.8928 67.5037 33.8586 67.7093 33.79 67.9491C33.4131 67.9491 33.0362 67.9149 32.625 67.8806Z" fill="#3A4E89"/>
<path d="M32.3828 16.9961C33.0681 16.9961 33.6507 17.236 34.3017 17.6814C33.6507 17.7157 33.3423 17.6129 32.3828 16.9961Z" fill="#3A4E89"/>
<path d="M8.70703 42.8328C9.63222 42.1475 9.63222 42.1475 9.90635 42.7985C9.63222 42.9699 9.39235 43.1069 9.08396 43.2783C8.94689 43.1412 8.8441 43.0041 8.70703 42.8328Z" fill="#3A4E89"/>
<path d="M11.0706 33.4097C10.4538 33.3412 9.93977 33.1356 9.42578 32.7244C10.1111 32.6558 10.6936 32.8957 11.0706 33.4097Z" fill="#3A4E89"/>
<path d="M11.036 66.9905C10.5905 66.4422 10.3164 65.9968 10.4534 65.3457C10.8989 65.6541 11.0017 66.0996 11.2073 66.4765C11.2416 66.5793 11.1388 66.7163 11.036 66.9905Z" fill="#3A4E89"/>
<path d="M13.5716 63.8037C13.1604 63.4268 12.852 63.0156 13.0576 62.2617C13.3318 62.8442 13.743 63.2212 13.5716 63.8037Z" fill="#3A4E89"/>
<path d="M32.9996 19.5646C32.417 19.7016 32.0058 19.4618 31.6289 19.0506C32.1429 19.0163 32.5884 19.2219 32.9996 19.5646Z" fill="#3A4E89"/>
<path d="M29.1641 39.7489C29.6781 39.6118 30.0892 39.509 30.5347 39.4062C30.3976 40.0916 29.9522 40.2286 29.4382 40.5028C29.3011 40.1944 29.2326 39.9888 29.1641 39.7489Z" fill="#3A4E89"/>
<path d="M24.0923 31.867C24.2294 31.7642 24.4007 31.6957 24.5377 31.5929C24.6748 31.5929 24.7776 31.5586 25.0517 31.5586C24.8119 31.867 24.6748 32.0383 24.5035 32.2439C24.4007 32.381 24.2979 32.5523 24.058 32.381C23.7839 32.1754 24.0238 32.0383 24.0923 31.867Z" fill="#3A4E89"/>
<path d="M28.9922 38.8224C29.7803 38.6168 29.9516 38.6511 30.26 39.1308C29.8146 39.2679 29.4376 39.1993 28.9922 38.8224Z" fill="#3A4E89"/>
<path d="M28.1328 71.3073C28.7153 71.2045 29.2979 71.136 29.8804 71.0332C29.572 71.3416 28.8181 71.4444 28.1328 71.3073Z" fill="#3A4E89"/>
<path d="M28.8203 38.172C29.4028 37.8293 29.7798 38.0692 30.2252 38.2063C29.814 38.4804 29.814 38.4804 28.8203 38.172Z" fill="#3A4E89"/>
<path d="M22.9258 54.037C23.1656 53.6943 23.4055 53.4545 23.9538 53.6601C23.6454 53.8656 23.337 54.0712 23.0628 54.2768C23.0286 54.174 22.9943 54.1055 22.9258 54.037Z" fill="#3A4E89"/>
<path d="M11.1041 32.7226C10.6244 32.517 10.1789 32.3114 9.69922 32.1401C9.73348 32.0715 9.73349 32.0373 9.76775 31.9688C10.2475 32.1401 10.6929 32.3457 11.1727 32.517C11.1727 32.5855 11.1384 32.6541 11.1041 32.7226Z" fill="#3A4E89"/>
<path d="M32.625 68.6C32.9677 68.5657 33.3103 68.4972 33.653 68.4629C33.3789 68.8398 33.0019 68.8055 32.6593 68.8398C32.625 68.7713 32.625 68.6685 32.625 68.6Z" fill="#3A4E89"/>
<path d="M33.8218 66.8861C33.4792 66.9204 33.1708 66.9547 32.8281 66.9889C33.1365 66.7148 33.4449 66.5435 33.8218 66.8861Z" fill="#3A4E89"/>
<path d="M49.9637 66.2352C49.6553 66.4065 49.1756 66.5436 48.8672 66.7149C48.8672 66.5093 48.8672 66.3037 48.97 66.0296C49.484 65.4471 49.621 65.5156 50.2036 65.1387C50.135 65.5156 50.1008 65.8583 49.9637 66.2352Z" fill="#3A4E89"/>
<path d="M15.6622 36.1509C15.4224 36.288 15.1825 36.4593 14.9426 36.5964C14.9084 36.5278 14.8741 36.4936 14.8398 36.425C15.0797 36.2537 15.3196 36.1166 15.5252 35.9453C15.5937 36.0138 15.628 36.0824 15.6622 36.1509Z" fill="#3A4E89"/>
<path d="M23.3381 35.3613C23.5779 35.4641 23.8178 35.5669 24.0919 35.6697C24.0577 35.7383 24.0577 35.7725 24.0234 35.8411C23.7835 35.7383 23.5094 35.6697 23.2695 35.5669C23.3038 35.4984 23.3381 35.4299 23.3381 35.3613Z" fill="#3A4E89"/>
<path d="M48.6272 54.5518C48.2503 54.8259 47.9076 55.0315 47.5307 55.3057C47.4622 55.2029 47.4279 55.1001 47.3594 54.9973C47.7363 54.7231 48.079 54.4148 48.4559 54.1406C48.5244 54.2434 48.5587 54.4148 48.6272 54.5518Z" fill="#3A4E89"/>
<path d="M12.1337 35.6699C11.9281 35.7727 11.6882 35.8755 11.4826 36.0126C11.4483 35.9441 11.4483 35.9098 11.4141 35.8413C11.6882 35.7727 11.9281 35.7385 12.1337 35.6699Z" fill="#3A4E89"/>
<path d="M12.1676 35.7038C12.4074 35.601 12.6473 35.4982 12.8872 35.4297C12.8872 35.4982 12.9214 35.5325 12.9214 35.601C12.6473 35.601 12.4074 35.6353 12.1676 35.7038Z" fill="#3A4E89"/>
<path d="M10.52 35.0191C10.0745 34.8821 9.62905 34.745 9.18359 34.6079C9.21786 34.5394 9.28639 34.4709 9.32066 34.4023C9.76612 34.5394 10.2458 34.6765 10.6913 34.8135C10.657 34.9163 10.5885 34.9849 10.52 35.0191Z" fill="#3A4E89"/>
<path d="M33.582 16.8574C33.7876 16.926 33.9932 16.9945 34.1988 17.0288C34.1646 17.0973 34.1303 17.1316 34.1303 17.2001C33.959 17.0973 33.7876 16.9602 33.582 16.8574Z" fill="#3A4E89"/>
<path d="M33.6159 16.8249C33.4103 16.7906 33.1704 16.7564 32.9648 16.7221C32.9991 16.6536 32.9991 16.6193 33.0334 16.5508C33.2047 16.6536 33.376 16.7564 33.6159 16.8249Z" fill="#3A4E89"/>
<path d="M26.214 23.2324C26.3853 23.301 26.5909 23.3352 26.7622 23.4038C26.7622 23.438 26.7279 23.4723 26.7279 23.5408C26.5566 23.4723 26.351 23.4038 26.1797 23.3352C26.1797 23.301 26.214 23.2667 26.214 23.2324Z" fill="#3A4E89"/>
<path d="M11.5836 64.8645C11.5151 64.7274 11.4465 64.5904 11.3438 64.4533C11.378 64.419 11.4123 64.419 11.4808 64.3848C11.5493 64.4876 11.6179 64.6246 11.7207 64.7274C11.6521 64.796 11.6179 64.8302 11.5836 64.8645Z" fill="#3A4E89"/>
<path d="M25.8711 24.3965C26.1452 24.465 26.4194 24.5336 26.7277 24.6021C26.6935 24.6706 26.6592 24.7391 26.6592 24.8077C26.3851 24.6706 26.1452 24.5335 25.8711 24.3965Z" fill="#3A4E89"/>
<path d="M25.9074 24.3633C25.6333 24.2947 25.3592 24.2605 25.0508 24.1919C25.085 24.1234 25.1193 24.0549 25.1193 23.9863C25.3934 24.1234 25.6333 24.2605 25.9074 24.3633Z" fill="#3A4E89"/>
<path d="M26.8311 35.7383C26.9682 35.8068 27.071 35.8411 27.2081 35.9096C27.2081 35.9439 27.2081 35.9439 27.1738 35.9781C27.0367 35.9439 26.9339 35.9096 26.7969 35.8411C26.7969 35.8068 26.7969 35.7725 26.8311 35.7383Z" fill="#3A4E89"/>
<path d="M18.4375 33.4774C19.4998 33.2032 20.3907 33.3403 20.8019 34.6767C20.8704 33.7172 20.6305 33.2718 20.0137 32.9976C19.4312 32.7235 19.02 32.8263 18.4375 33.4774Z" fill="#3A4E89"/>
<path d="M18.4375 33.4774C19.02 32.8263 19.4312 32.7235 20.0137 32.9976C20.6305 33.2718 20.8704 33.683 20.8019 34.6767C20.3907 33.306 19.4998 33.2032 18.4375 33.4774Z" fill="#3A4E89"/>
<path d="M42.4568 57.3267C42.3198 57.0526 42.2512 56.8812 42.1484 56.6757C43.1422 56.0931 44.3415 55.3393 45.2667 54.791C45.4723 55.0651 45.5751 55.3735 45.5751 55.6477C44.5471 56.2645 43.5533 56.6757 42.4568 57.3267Z" fill="#3A4E89"/>
<path d="M42.8002 58.0118C42.766 57.9775 42.6289 57.6006 42.6289 57.5321C43.5198 56.9838 44.8219 56.367 45.7129 55.8187C45.8157 55.7502 45.9527 56.2642 45.987 56.4355" fill="#3A4E89"/>
<path d="M43.3487 60.0001C43.2116 59.726 43.006 58.6295 42.9375 58.4239C43.9312 57.8414 45.1648 57.4302 46.09 56.8477C46.2613 57.019 46.7068 58.047 46.7753 58.8351C45.7473 59.4519 44.7879 59.3834 43.3487 60.0001Z" fill="#3A4E89"/>
<path d="M43.5559 60.7875C43.4874 60.4791 43.4874 60.4449 43.4531 60.205C44.5496 59.8966 45.7832 59.3483 46.8112 59.0742C46.914 59.3483 46.9483 59.691 46.9825 59.9994C45.8518 60.3421 44.7895 60.4106 43.5559 60.7875Z" fill="#3A4E89"/>
<path d="M43.6562 61.0607C43.759 61.5061 43.7248 61.7117 43.7933 61.9516C44.9241 61.746 46.0891 61.5404 47.1514 61.3348C47.1857 61.0949 47.1171 60.6152 47.0143 60.2383C45.8493 60.4781 44.9241 60.8208 43.6562 61.0607Z" fill="#3A4E89"/>
<path d="M43.8958 63.0153C43.8958 62.707 43.793 62.3643 43.793 62.1587C44.9238 61.9531 46.1573 61.7818 47.2196 61.5762C47.2538 61.9531 47.3224 62.2272 47.2881 62.5356C46.0545 62.7412 45.1293 62.8098 43.8958 63.0153Z" fill="#3A4E89"/>
<path d="M43.967 64.0088C43.967 63.8032 43.8984 63.3577 43.8984 63.2892C44.9264 63.1179 46.2628 63.0151 47.2908 62.8438C47.3593 63.1521 47.3593 63.3235 47.2908 63.5291" fill="#3A4E89"/>
<path d="M44.0685 65.79C44.0685 65.4816 44.0343 64.5907 44 64.3508C45.1308 64.1452 46.3301 64.0424 47.3924 63.8711C47.3924 64.1795 47.4266 64.5564 47.3924 64.8991C46.2273 65.1047 45.7476 65.3445 44.0685 65.79Z" fill="#3A4E89"/>
<path d="M44.2756 68.0512C44.2413 67.8456 44.2413 67.4344 44.207 67.4001C45.1322 66.9547 46.4686 66.4064 47.428 65.9609C47.428 66.4749 47.428 66.6805 47.428 66.8519" fill="#3A4E89"/>
<path d="M49.1749 62.6371C49.1749 62.6029 49.1749 62.4658 49.1406 62.4315C49.449 62.1232 49.7574 61.8833 50.1001 61.5064C50.1343 61.4721 50.1343 61.4378 50.2029 61.5064C50.2371 61.8148 50.2371 61.849 50.0658 61.9176" fill="#3A4E89"/>
<path d="M47.1175 54.5502C47.049 54.4131 47.0147 54.3446 46.9805 54.2418C47.3231 53.8991 47.6315 53.5564 47.9399 53.248C48.0427 53.3851 48.1112 53.5222 48.1455 53.6592C47.8029 54.0019 47.4945 54.1732 47.1175 54.5502Z" fill="#3A4E89"/>
<path d="M47.2903 54.8249C47.2903 54.7907 47.2218 54.6536 47.1875 54.6193C47.4959 54.3452 47.9071 54.0025 48.2155 53.7284C48.2498 53.6942 48.3183 53.8997 48.3526 54.0025" fill="#3A4E89"/>
<path d="M48.2153 57.1213C48.1125 56.8814 47.7013 55.6821 47.6328 55.5108C48.3867 55.0311 48.1811 55.1681 48.6608 54.7227C48.7636 54.8597 48.8664 55.1339 49.072 55.7849C48.8664 56.436 48.558 56.4702 48.2153 57.1213Z" fill="#3A4E89"/>
<path d="M48.4552 57.7375C48.421 57.4633 48.421 57.5319 48.3867 57.3605C48.7294 57.0521 48.9692 56.4353 49.3119 56.127C49.3804 56.3668 49.4147 56.6409 49.4832 56.9151C49.072 57.2577 48.8322 57.3605 48.4552 57.7375Z" fill="#3A4E89"/>
<path d="M48.4531 57.9435C48.5217 58.3204 48.5559 58.526 48.5902 58.6973C48.9671 58.4575 49.3783 58.2519 49.721 58.0463C49.6867 57.8407 49.6182 57.3952 49.5496 57.1211C49.1385 57.361 48.8643 57.6694 48.4531 57.9435Z" fill="#3A4E89"/>
<path d="M48.7972 59.6901C48.763 59.4159 48.6944 59.1418 48.6602 58.9362C49.0371 58.7306 49.4483 58.4908 49.7909 58.2852C49.8252 58.6278 49.8937 58.8334 49.8937 59.1075C49.5168 59.3474 49.2084 59.4502 48.7972 59.6901Z" fill="#3A4E89"/>
<path d="M48.8997 60.5136C48.8654 60.3423 48.7969 59.9311 48.7969 59.8968C49.1395 59.6912 49.585 59.5541 49.9277 59.3828C49.9962 59.6569 49.9962 59.794 49.9962 59.9653" fill="#3A4E89"/>
<path d="M49.1049 62.0212C49.0707 61.7471 48.9679 60.9589 48.9336 60.7533C49.3105 60.5477 49.7217 60.3764 50.0644 60.2051C50.0986 60.4792 50.1329 60.8219 50.1329 61.1303C49.756 61.3359 49.6532 61.5757 49.1049 62.0212Z" fill="#3A4E89"/>
<path d="M49.207 63.9745C49.207 63.5976 49.207 63.015 49.207 62.8437C49.6182 62.6724 49.9266 62.2269 50.3035 62.0898C50.3035 62.364 50.3035 62.501 50.3035 62.8094C49.8924 63.2549 49.7896 63.2549 49.207 63.9745Z" fill="#3A4E89"/>
<path d="M49.1719 65.3788C49.1719 65.2075 49.2061 64.8991 49.2061 64.8648C49.5488 64.5564 49.9943 64.1795 50.3369 63.8711C50.3369 64.248 50.3027 64.625 50.3027 64.7963" fill="#3A4E89"/>
<path d="M30.1904 69.9707C29.9505 70.5532 29.5736 70.5875 29.1624 70.5875C28.1002 70.5875 27.0037 70.7931 25.9414 70.2791C27.3121 69.9707 28.717 70.0392 30.1904 69.9707Z" fill="#3A4E89"/>
<path d="M33.5122 69.5591C33.4094 70.1074 33.1352 70.1759 32.1758 70.0046C32.2443 69.799 32.2786 69.5934 32.3814 69.3535C32.724 69.422 33.101 69.4906 33.5122 69.5591Z" fill="#3A4E89"/>
<path d="M12.9193 64.3857C12.5081 64.0088 12.1997 63.5976 12.4053 62.8438C12.7137 63.4605 13.0906 63.8032 12.9193 64.3857Z" fill="#3A4E89"/>
<path d="M15.1142 70.4849C14.5317 70.5191 14.3604 70.2107 14.189 69.9023C13.7778 69.0457 13.1953 68.2233 13.1953 67.1953C13.9834 68.1548 14.4632 69.3198 15.1142 70.4849Z" fill="#3A4E89"/>
<path d="M11.5852 37.316C12.202 36.9733 12.8531 36.6992 13.4699 36.3223C13.5041 36.5279 13.5384 36.6992 13.6069 36.9391C13.1272 37.2475 11.7908 37.967 11.7908 37.967C11.7908 37.967 11.5167 37.8642 11.5852 37.316Z" fill="#3A4E89"/>
<path d="M11.4805 36.4925C12.0287 36.1498 12.5427 36.0128 13.1938 35.9785C12.6798 36.4925 12.063 36.6638 11.4805 36.4925Z" fill="#3A4E89"/>
<path d="M9.35532 33.8535C9.76652 33.9563 10.5204 34.0934 10.9316 34.1962C10.863 34.2647 10.863 34.4018 10.7602 34.5046C10.4176 34.436 9.93785 34.299 9.66372 34.2304C9.11546 34.1276 9.0812 34.1619 9.35532 33.8535Z" fill="#3A4E89"/>
<path d="M9.38974 33.375C9.86946 33.4778 10.3835 33.6149 10.8632 33.7177C10.8632 33.7862 10.8289 33.8547 10.8289 33.9233C10.3492 33.8205 9.83519 33.7177 9.35547 33.6149C9.35547 33.5463 9.38974 33.4778 9.38974 33.375Z" fill="#3A4E89"/>
<path d="M9.87159 35.3626C9.66599 35.3626 9.49466 35.3968 9.28906 35.3968C9.28906 35.3626 9.32333 35.294 9.32333 35.2598C9.49466 35.3283 9.66599 35.3626 9.87159 35.3626Z" fill="#3A4E89"/>
<path d="M9.83594 35.3961C10.0415 35.3961 10.2129 35.3961 10.4185 35.3961C10.4185 35.4304 10.3842 35.4989 10.3842 35.5332C10.2129 35.4989 10.0415 35.4304 9.83594 35.3961Z" fill="#3A4E89"/>
<path d="M10.2815 35.8755C10.0074 35.9098 9.73329 35.9441 9.42489 35.9783C9.42489 35.9098 9.39062 35.8413 9.39062 35.7727C9.66475 35.7385 9.93888 35.7042 10.213 35.6699C10.2473 35.7385 10.2815 35.807 10.2815 35.8755Z" fill="#3A4E89"/>
<path d="M47.324 67.6406C47.2897 68.1204 47.0156 68.2231 46.7072 68.3259C45.9191 68.5658 45.1652 68.9427 44.3086 68.8399C45.2338 68.2917 46.2618 68.0176 47.324 67.6406Z" fill="#3A4E89"/>
<path d="M48.7969 67.3327C49.1395 67.2299 49.4479 67.1271 49.7906 67.0586C49.5507 67.4698 49.2081 67.5041 48.8654 67.5726C48.8311 67.4698 48.7969 67.4013 48.7969 67.3327Z" fill="#3A4E89"/>
<path d="M27.175 36.7317C26.7638 36.6974 26.3869 36.5261 25.9414 36.252C26.3526 36.252 26.7981 36.4233 27.175 36.7317Z" fill="#3A4E89"/>
<path d="M26.3164 35.9453C26.6933 35.9453 27.0017 36.0824 27.3787 36.288C27.0017 36.3222 26.8304 36.288 26.3164 35.9453Z" fill="#3A4E89"/>
<path d="M23.7491 35.2598C23.8862 35.3283 23.989 35.3626 24.126 35.4311C24.126 35.4654 24.126 35.4654 24.0918 35.4996C23.9547 35.4654 23.8519 35.4311 23.7148 35.3626C23.7148 35.3283 23.7148 35.294 23.7491 35.2598Z" fill="#3A4E89"/>
<path d="M30.0182 36.4582C29.5042 36.3554 29.1273 36.2869 28.6133 36.1841C28.6475 36.0128 28.7161 35.7729 28.7503 35.6016C29.1615 35.6701 29.4014 35.8072 29.7783 35.8757C30.121 35.91 30.1895 36.0813 30.0182 36.4582Z" fill="#3A4E89"/>
<path d="M30.292 37.624C29.7095 37.7611 29.4353 37.5898 28.75 37.3842C29.2983 37.2128 29.6752 37.3499 30.292 37.624Z" fill="#3A4E89"/>
<path d="M28.75 36.8358C29.2983 36.6988 29.5039 36.8701 30.1206 37.11C29.6067 37.247 29.6067 37.1785 28.75 36.8358Z" fill="#3A4E89"/>
<path d="M29.435 36.5618C29.2636 36.5618 29.058 36.5618 28.8867 36.596C28.8867 36.5618 28.8867 36.4933 28.8867 36.459C29.058 36.4933 29.2294 36.5275 29.435 36.5618Z" fill="#3A4E89"/>
<path d="M28.75 35.1903C29.2983 35.0875 29.5381 35.2588 30.1206 35.533C29.6067 35.6358 29.6067 35.5672 28.75 35.1903Z" fill="#3A4E89"/>
<path d="M29.4375 34.9512C29.6088 34.9854 29.7802 34.9854 29.9515 35.0197C29.9515 35.054 29.9172 35.1225 29.9172 35.1568C29.7459 35.0882 29.6088 35.0197 29.4375 34.9512Z" fill="#3A4E89"/>
<path d="M29.435 34.9515C29.2636 34.9515 29.058 34.9515 28.8867 34.9515C28.8867 34.9173 28.8867 34.8487 28.921 34.8145C29.0923 34.8487 29.2636 34.9173 29.435 34.9515Z" fill="#3A4E89"/>
<path d="M30.8086 20.49C31.0485 20.3872 31.117 20.0446 31.0827 19.8047C31.6995 20.1473 31.9051 20.1473 32.4876 20.3529C32.3848 20.5585 32.282 20.7299 32.1792 20.9355C31.6652 20.7984 31.4597 20.6956 30.8086 20.49Z" fill="#3A4E89"/>
<path d="M31.7306 22.2032C31.1823 21.9634 31.1138 21.8606 30.5312 21.6207C30.634 21.4151 30.7026 21.1752 30.8054 21.0039C31.2508 21.1752 31.4222 21.3466 31.8334 21.4836C32.176 21.6207 32.0047 21.8263 31.7306 22.2032Z" fill="#3A4E89"/>
<path d="M31.2164 23.5049C30.8052 23.2993 30.6338 23.128 30.2227 22.9224C30.2569 22.7168 30.394 22.5454 30.4283 22.3398C30.7709 22.4769 30.9765 22.614 31.2849 22.751C31.5248 22.8881 31.3534 23.0937 31.2164 23.5049Z" fill="#3A4E89"/>
<path d="M30.9096 24.6713C30.4641 24.4999 30.4298 24.3629 29.9844 24.2258C30.0186 24.0202 30.0529 23.8832 30.0872 23.7461C30.4298 23.8489 30.7725 23.9517 31.0809 24.0545C31.355 24.123 31.0466 24.2944 30.9096 24.6713Z" fill="#3A4E89"/>
<path d="M30.8744 25.185C30.3261 25.2192 30.5317 25.185 29.9492 25.0136C30.4632 24.9108 30.3604 24.9451 30.8744 25.185Z" fill="#3A4E89"/>
<path d="M28.8867 34.2645C28.8867 30.1526 29.4692 27.4798 29.949 25.4238C30.2916 25.5609 30.5658 25.4581 30.8742 25.5609C30.2231 27.2742 29.7091 32.8253 29.7091 34.5044C29.5378 34.5386 29.0923 34.4016 28.8867 34.2645Z" fill="#3A4E89"/>
<path d="M29.5742 41.0839C29.8141 40.6727 30.0197 40.6042 30.4994 40.3301C30.2938 40.7413 30.2595 40.707 29.5742 41.0839Z" fill="#3A4E89"/>
<path d="M30.0547 42.4209C30.226 41.8727 30.6029 41.8041 30.9456 41.6328C30.8428 42.0097 30.8428 42.0097 30.0547 42.4209Z" fill="#3A4E89"/>
<path d="M30.9103 41.0156C30.5333 41.4268 30.2935 41.4268 29.7109 41.7009C30.0193 41.2898 30.3277 41.187 30.9103 41.0156Z" fill="#3A4E89"/>
<path d="M36.5991 42.1803C36.5991 42.3174 36.5649 42.8999 36.2565 42.9342C35.811 42.9685 34.0977 42.7971 33.2411 43.037C33.104 43.0713 33.0012 42.5573 32.9669 42.4202C32.8641 42.009 36.5991 41.9062 36.5991 42.1803Z" fill="#3A4E89"/>
<path d="M36.5995 41.8039C35.7086 41.7011 34.475 41.4956 32.8645 41.941L32.7617 41.5641C33.6869 41.5298 35.7429 41.3585 36.7023 41.3242L36.5995 41.8039Z" fill="#3A4E89"/>
<path d="M36.7 40.5712C33.8559 40.4684 34.0958 41.1537 32.5195 40.7083L32.6909 41.3593C33.5818 41.3593 35.7405 41.0852 36.7 41.0852V40.5712Z" fill="#3A4E89"/>
<path d="M64.9352 42.4898C65.2778 42.4555 65.5177 42.4898 65.6205 42.5583C65.7233 42.6268 65.8261 42.8324 65.8603 43.1751C65.3463 43.3807 64.9694 43.5178 64.7981 43.5178C64.4212 43.552 63.9757 43.6548 63.5302 43.7576C63.5302 44.1346 63.5645 44.7171 63.633 45.5052C63.5988 45.5395 63.4274 45.5737 63.1533 45.6765C62.9477 45.7451 62.8107 45.8479 62.7079 45.9507C62.5708 45.1968 62.5023 44.1346 62.5023 42.7639C62.5023 42.2842 62.5365 41.5303 62.6393 40.4681C62.1596 40.6737 61.6799 40.7765 61.0973 40.845C60.0694 40.9478 59.4183 40.9821 59.1442 40.9821C57.6707 40.9821 56.8483 40.5023 56.6427 39.5429C56.6085 39.3373 56.5742 39.0974 56.5742 38.8918C56.5742 37.8638 57.0882 36.9387 58.1505 36.1163C58.8358 35.6023 59.5554 35.3282 60.3435 35.3282C60.412 35.3282 60.5834 35.3282 60.8917 35.2939C61.4057 35.2596 61.7484 35.3282 61.954 35.4652C62.2967 35.7051 62.6736 36.082 63.0848 36.6303C63.496 37.1785 63.7358 37.8638 63.7358 38.7205C63.7358 38.8576 63.7358 38.9604 63.7358 39.0974L63.5988 40.7079C63.5988 41.0849 63.5988 41.7359 63.5645 42.6268C63.8386 42.6268 64.0785 42.6268 64.2156 42.5583C64.3526 42.5583 64.6268 42.524 64.9352 42.4898ZM62.4337 39.2345C62.468 39.0632 62.468 38.9261 62.468 38.789C62.468 37.8981 62.1939 37.2471 61.6113 36.8359C61.44 36.6988 61.2001 36.6303 60.8917 36.6303C61.0631 36.6303 61.1659 36.6303 61.1659 36.6303C61.0631 36.6303 60.7204 36.6303 60.1036 36.6303C59.3155 36.6303 58.6987 36.9387 58.219 37.5555C58.0134 37.8296 57.8763 38.0009 57.8078 38.138C57.705 38.3436 57.6365 38.5492 57.6365 38.7548C57.6365 38.8918 57.6707 39.0632 57.7393 39.2002C57.9106 39.6114 58.3561 39.817 59.1099 39.817H60.0694C60.1379 39.817 60.1722 39.817 60.2064 39.817C60.3092 39.817 60.3435 39.817 60.3778 39.817C60.926 39.817 61.3029 39.817 61.5085 39.7828C62.0911 39.7142 62.3995 39.5086 62.4337 39.2345Z" fill="#3A4E89"/>
<path d="M65.8242 35.5689C66.0983 35.4318 66.3725 35.3633 66.6809 35.3633C66.955 35.6374 67.2634 36.1514 67.5718 36.871C67.6746 37.1109 67.8117 37.7276 67.9487 38.7899C68.12 39.9549 68.2228 40.606 68.2571 40.7088C68.634 40.5375 69.2166 40.2291 70.0047 39.7151C70.2788 39.5438 70.6215 39.4067 70.9984 39.2696C71.4781 39.1326 71.718 39.0298 71.7523 39.0298C72.4718 38.7214 73.1229 38.5843 73.7397 38.5843C75.6586 38.5843 76.7551 39.2011 77.0292 40.4004C77.1663 40.9487 77.2348 41.4627 77.2348 41.9424C77.2348 42.1137 77.2006 42.3878 77.132 42.7305C77.0635 43.0732 77.0292 43.313 77.0292 43.4844C76.7551 43.5529 76.5495 43.5872 76.481 43.5872C76.1383 43.5872 76.0013 43.3473 76.0013 42.8333C76.0013 42.5934 76.0013 42.3536 76.0355 42.0794C76.0698 41.7368 76.0698 41.4969 76.0698 41.3599C76.0698 40.7088 75.7957 40.2633 75.2474 40.0235C74.8705 39.8521 74.425 39.7836 73.9453 39.7836C72.5404 39.7836 71.2725 40.1605 70.1417 40.9144C69.6278 41.2571 69.1138 41.6683 68.5998 42.1137C68.5655 42.2508 68.5312 42.4564 68.5312 42.7648C68.5312 43.0389 68.5655 43.4501 68.634 43.9298C68.7026 44.4095 68.7368 44.8207 68.7368 45.0949C68.7368 45.369 68.7026 45.6089 68.6683 45.883C68.3599 45.883 68.1543 45.883 68.0858 45.8487C67.8802 45.8145 67.7774 45.7117 67.7089 45.5746C67.5718 44.855 67.4005 43.7928 67.2634 42.4221C67.1949 41.634 67.0235 40.3661 66.7837 38.6186C66.6466 37.5563 66.3039 36.5626 65.8242 35.5689Z" fill="#3A4E89"/>
<path d="M87.4141 44.7181C86.9686 45.2664 86.1805 45.609 85.0497 45.7118C84.6385 45.7461 84.1245 45.7804 83.5077 45.7804C83.3022 45.7804 82.9595 45.7804 82.4455 45.7804H81.6916C81.1776 45.7804 80.5951 45.6433 79.9098 45.4034L78.0594 44.7524C77.5797 44.6496 77.3398 44.4782 77.3398 44.2726C77.3398 44.1356 77.4426 43.9985 77.614 43.8615C77.751 43.7244 77.9224 43.6559 78.0594 43.6216C78.128 43.5873 78.1965 43.5873 78.2308 43.5873C78.4021 43.5873 78.7105 43.6901 79.1559 43.8957C79.8413 44.2041 80.2182 44.4097 80.3553 44.444C80.8693 44.6496 81.2805 44.7524 81.6574 44.7524C81.8972 44.7524 82.2056 44.7524 82.5483 44.7866C83.3364 44.8209 83.8504 44.8552 84.0217 44.8552C84.7071 44.8552 85.2211 44.7866 85.598 44.6153C86.0434 44.4097 86.3176 44.0328 86.4204 43.5188C86.4204 43.4845 86.4204 43.416 86.4204 43.3817C86.4204 42.9363 85.8378 42.4565 84.7071 41.874L82.6854 40.8803C80.6294 39.8866 79.4643 38.8929 79.1902 37.9334C79.1902 37.8649 79.1902 37.8306 79.1902 37.7964C79.1902 37.4194 79.5329 37.0082 80.1839 36.6313C80.7322 36.3229 81.3832 36.083 82.1371 35.9117C82.514 35.8432 82.8567 35.7404 83.1994 35.6718C84.3987 35.432 85.3239 35.2949 85.9749 35.2949C86.3861 35.2949 86.5917 35.5005 86.5917 35.8774C86.2148 36.1516 85.4952 36.3572 84.4329 36.5628L81.9658 37.0082C81.1777 37.1453 80.8007 37.4194 80.8007 37.8306V37.8991C80.8007 37.9334 80.8007 37.9677 80.835 38.0019C80.9035 38.3446 81.349 38.7558 82.1371 39.2013C82.1714 39.2013 82.9938 39.681 84.6728 40.5719C85.7693 41.1544 86.5917 41.6684 87.0714 42.1139C87.277 42.2509 87.4484 42.4908 87.5854 42.8335C87.6882 43.1419 87.7568 43.4503 87.7568 43.7244C87.7225 44.1356 87.6197 44.4782 87.4141 44.7181Z" fill="#3A4E89"/>
<path d="M100.262 45.6774C99.9875 45.8145 99.7134 45.883 99.405 45.883C99.1309 45.6089 98.8225 45.0949 98.5141 44.3753C98.2742 43.7928 98.1029 43.2445 97.9658 42.662C97.5889 42.8333 97.0064 43.1417 96.2182 43.6557C95.4644 44.1011 94.8819 44.4438 94.4364 44.6151C93.7168 44.9235 93.0658 45.0606 92.449 45.0606C90.6329 45.0606 89.5363 44.4438 89.1594 43.2445C88.851 42.2165 88.6797 41.0172 88.6797 39.6465C88.6797 38.2759 88.851 36.871 89.1594 35.4661C89.4336 35.3975 89.6391 35.3633 89.7077 35.3633C90.0503 35.3633 90.1874 35.6031 90.1874 36.1171C90.0503 36.871 90.0161 37.8647 90.0161 39.1326C90.0161 41.8396 90.3245 43.3473 90.9413 43.5872C91.3182 43.7585 91.7636 43.827 92.2434 43.827C93.3742 43.827 94.642 43.3473 96.0469 42.4221C96.5609 42.0794 97.0749 41.6683 97.5889 41.2228C97.6574 41.0172 97.6574 40.7431 97.6574 40.4347C97.6574 40.1263 97.6232 39.7493 97.5546 39.3382L97.349 38.0703C97.2805 37.5906 97.2462 37.1451 97.2462 36.8025C97.2462 36.5283 97.2805 36.2885 97.3148 36.0143C97.6232 36.0143 97.8288 36.0143 97.8973 36.0486C98.1029 36.0829 98.2057 36.1857 98.2742 36.3227C98.4113 36.9395 98.5483 38.0018 98.7197 39.4752C98.891 40.8459 99.0623 41.9081 99.1994 42.6277C99.5078 43.827 99.8162 44.8207 100.262 45.6774Z" fill="#3A4E89"/>
<path d="M103.863 43.8613C104.24 44.0326 104.686 44.1011 105.165 44.1011C106.296 44.1011 107.564 43.6214 108.969 42.6962C109.483 42.3536 109.997 41.9424 110.511 41.4969C110.545 41.3256 110.579 41.1885 110.648 41.0857C110.682 41.0515 110.716 40.8459 110.716 40.5032C110.751 40.092 110.751 39.8864 110.751 39.8521C111.059 39.8521 111.265 39.8521 111.333 39.8864C111.539 39.9207 111.642 40.0235 111.71 40.1605C111.71 40.3661 111.881 41.1543 112.156 42.5934C112.395 43.7585 112.738 44.7865 113.184 45.6431C112.909 45.7802 112.635 45.8487 112.327 45.8487C112.053 45.5746 111.779 45.0949 111.436 44.341C111.23 43.8613 111.059 43.3816 110.888 42.9018C110.511 43.0732 109.928 43.3816 109.14 43.8956C108.386 44.341 107.804 44.6837 107.358 44.855C106.639 45.1634 105.988 45.3005 105.371 45.3005C103.555 45.3005 102.458 44.6837 102.081 43.4844C101.773 42.4564 101.602 41.1543 101.602 39.6465C101.602 38.2759 101.773 36.871 102.081 35.4661C102.355 35.3975 102.561 35.3633 102.63 35.3633C102.972 35.3633 103.109 35.6031 103.109 36.1171C103.006 36.6997 102.938 37.4535 102.938 38.3444C103.281 38.413 103.623 38.4472 104 38.4472C104.24 38.4472 104.857 38.3787 105.782 38.2074C106.639 38.0703 107.255 37.9332 107.598 37.8304C107.838 37.7619 108.352 37.6248 109.209 37.385C109.791 37.2137 110.305 37.1451 110.785 37.1451C110.751 37.1794 110.682 37.3165 110.511 37.5563C110.408 37.7619 110.305 37.8647 110.237 37.9332C109.894 38.1731 109.38 38.3787 108.695 38.55C107.632 38.8242 106.365 39.0983 104.925 39.3039C104.172 39.4067 103.486 39.5437 102.869 39.6465C102.972 42.2165 103.315 43.6214 103.863 43.8613Z" fill="#3A4E89"/>
<path d="M113.73 35.5691C114.005 35.432 114.279 35.3635 114.587 35.3635C114.861 35.6376 115.17 36.1516 115.478 36.8712C115.547 36.974 115.684 37.2481 115.855 37.6936C116.472 37.4194 117.123 37.111 117.808 36.6998C118.254 36.4257 118.836 36.1173 119.59 35.7404C120.31 35.432 120.961 35.2949 121.577 35.2949C123.496 35.2949 124.593 35.9117 124.867 37.111C125.004 37.6593 125.073 38.1733 125.073 38.653C125.073 38.8243 125.038 39.0985 124.97 39.4411C124.901 39.7838 124.867 40.0236 124.867 40.195C124.593 40.2635 124.387 40.2978 124.319 40.2978C123.976 40.2978 123.839 40.0579 123.839 39.5439C123.839 39.3041 123.839 39.0642 123.873 38.7901C123.908 38.4474 123.908 38.2075 123.908 38.0705C123.908 37.4194 123.633 36.974 123.085 36.7341C122.708 36.5628 122.263 36.4942 121.783 36.4942C120.652 36.4942 119.384 36.974 117.979 37.8991C117.465 38.2418 116.951 38.653 116.437 39.0985C116.369 39.3041 116.369 39.5782 116.369 39.8866C116.369 41.223 116.403 42.1139 116.472 42.5251L116.643 43.8272C116.712 44.3069 116.746 44.7524 116.746 45.095C116.746 45.3692 116.712 45.609 116.677 45.8832C116.369 45.8832 116.163 45.8832 116.095 45.8489C115.889 45.8146 115.786 45.7118 115.718 45.5748C115.581 44.8552 115.41 43.7929 115.272 42.4223C115.204 41.6342 115.033 40.3663 114.793 38.6187C114.553 37.5565 114.21 36.5628 113.73 35.5691Z" fill="#3A4E89"/>
<path d="M125.996 35.5689C126.27 35.4318 126.544 35.3633 126.853 35.3633C127.127 35.6374 127.435 36.1514 127.744 36.871C127.984 37.4535 128.155 38.0018 128.292 38.5843C128.669 38.413 129.251 38.1046 130.039 37.5906C130.793 37.1451 131.376 36.8025 131.821 36.6311C132.541 36.3227 133.192 36.1857 133.809 36.1857C135.625 36.1857 136.721 36.8025 137.098 38.0018C137.407 39.0298 137.578 40.2291 137.578 41.5655C137.578 42.9361 137.407 44.341 137.098 45.7459C136.824 45.8145 136.619 45.8487 136.55 45.8487C136.207 45.8487 136.07 45.6089 136.07 45.0949C136.207 44.341 136.242 43.3473 136.242 42.0794C136.242 39.3724 135.933 37.899 135.316 37.6248C134.94 37.4535 134.494 37.385 134.014 37.385C132.884 37.385 131.616 37.8647 130.211 38.7899C129.697 39.1326 129.183 39.5437 128.669 39.9892C128.6 40.1948 128.6 40.4689 128.6 40.7773C128.6 41.0857 128.635 41.4627 128.703 41.8738L128.909 43.1417C128.977 43.6214 129.012 44.0669 129.012 44.4095C129.012 44.6837 128.977 44.9235 128.943 45.1977C128.635 45.1977 128.429 45.1977 128.36 45.1634C128.155 45.1291 128.052 45.0263 127.984 44.8893C127.846 44.2725 127.709 43.2102 127.538 41.7368C127.367 40.3661 127.195 39.3039 127.058 38.5843C126.75 37.4192 126.407 36.4255 125.996 35.5689Z" fill="#3A4E89"/>
<path d="M139.432 45.5403C139.397 45.5746 139.226 45.6089 138.952 45.7117C138.746 45.7802 138.609 45.883 138.506 45.9858C138.369 45.2319 138.301 44.1697 138.301 42.799C138.301 41.4284 138.369 39.7493 138.541 37.7619C138.575 37.2822 138.643 36.4598 138.746 35.3633C138.815 35.3633 138.883 35.3633 138.918 35.3633C139.192 35.3975 139.432 35.5003 139.637 35.7059L139.534 38.6528C139.569 38.7214 140.048 38.9955 140.905 39.4752C141.385 39.7151 141.83 39.9892 142.31 40.2291C143.852 41.1543 145.017 41.771 145.771 42.0452C145.942 42.0452 146.045 42.1137 146.113 42.285C146.182 42.4221 146.182 42.5592 146.182 42.7305C146.182 42.799 146.148 42.8333 146.113 42.9018C145.874 42.9018 145.599 42.8676 145.257 42.799C144.297 42.6277 143.235 42.2165 142.104 41.5655C141.59 41.2571 141.179 40.9829 140.836 40.7088C140.699 40.5717 140.22 40.3661 139.466 40.0577C139.432 40.1263 139.397 40.2633 139.363 40.4004C139.329 40.9487 139.363 41.8738 139.397 43.1417C139.363 44.4095 139.397 45.2319 139.432 45.5403Z" fill="#3A4E89"/>
<path d="M148.236 40.3316C148.339 39.3722 148.373 38.5155 148.373 37.7274C148.373 36.8708 148.305 36.4253 148.202 36.4253C147.071 36.4253 146.214 36.5281 145.666 36.7337C145.632 36.5966 145.598 36.4596 145.598 36.3225C145.598 35.8085 145.838 35.5001 146.317 35.3288C146.42 35.3288 146.591 35.2945 146.831 35.2945C147.071 35.2945 147.311 35.2603 147.517 35.2945L148.065 35.3631C148.373 35.3973 148.784 35.3973 149.264 35.3973C149.607 35.3973 149.744 35.6372 149.744 36.1512C149.607 36.905 149.573 38.1386 149.573 39.8177C149.573 42.5247 149.881 43.9981 150.498 44.2723C150.875 44.4436 151.32 44.5121 151.8 44.5121C152.931 44.5121 154.198 44.0324 155.603 43.1072C156.22 42.696 156.734 42.0792 157.145 41.2568C157.18 41.0855 157.214 40.9142 157.282 40.7771C157.351 40.2631 157.385 39.8177 157.419 39.475C157.728 39.475 157.933 39.475 158.002 39.5093C158.208 39.5435 158.31 39.6463 158.379 39.7834C158.585 41.0512 158.756 42.0107 158.824 42.6275C159.064 43.8268 159.407 44.8548 159.852 45.6772C159.578 45.8142 159.304 45.8828 158.996 45.8828C158.722 45.6086 158.413 45.0946 158.105 44.3751C157.865 43.7925 157.694 43.2443 157.557 42.6617C157.454 42.696 157.214 42.9359 156.837 43.3813C156.426 43.8268 156.083 44.1352 155.809 44.3065C155.055 44.752 154.473 45.0946 154.027 45.266C153.308 45.5744 152.656 45.7114 152.04 45.7114C150.224 45.7114 149.127 45.0946 148.75 43.8953C148.407 42.9016 148.236 41.7023 148.236 40.3316Z" fill="#3A4E89"/>
<path d="M171.125 45.745C170.851 45.8136 170.645 45.8478 170.577 45.8478C170.234 45.8478 170.097 45.608 170.097 45.094C170.234 44.3401 170.268 43.2093 170.268 41.7016C170.268 38.9946 169.96 37.5212 169.343 37.247C168.966 37.0757 168.521 37.0072 168.041 37.0072C166.91 37.0072 165.642 37.4869 164.237 38.4121C164.032 38.5491 163.792 38.789 163.449 39.1659C163.072 39.6114 162.832 39.8855 162.695 39.9883C162.593 40.4338 162.524 40.7764 162.524 40.982C162.524 41.2562 162.49 41.496 162.455 41.7702C162.147 41.7702 161.941 41.7702 161.873 41.7359C161.667 41.7016 161.565 41.5988 161.496 41.4618C161.359 40.7764 161.29 40.2967 161.256 40.0226C161.256 39.7485 161.153 39.303 161.016 38.5834C160.776 37.3841 160.434 36.3561 159.988 35.5337C160.262 35.3967 160.537 35.3281 160.845 35.3281C161.119 35.6023 161.427 36.1162 161.736 36.8358C161.976 37.4184 162.147 37.9666 162.284 38.5491C162.387 38.5149 162.627 38.3093 163.004 37.9666C163.415 37.5897 163.758 37.3498 164.032 37.1785C164.786 36.733 165.368 36.3904 165.814 36.219C166.533 35.9106 167.184 35.7736 167.801 35.7736C169.617 35.7736 170.714 36.3904 171.091 37.5897C171.399 38.6177 171.57 39.817 171.57 41.1534C171.57 41.5988 171.57 42.0786 171.536 42.5583C171.776 42.5583 172.084 42.524 172.495 42.4555C172.907 42.387 173.215 42.3527 173.455 42.3527C173.832 42.3527 174.072 42.387 174.14 42.4212C174.243 42.4897 174.312 42.7639 174.346 43.1751C173.798 43.3807 173.386 43.5177 173.044 43.552C172.53 43.6205 172.016 43.6891 171.536 43.8261C171.502 44.066 171.467 44.3744 171.433 44.8198C171.399 45.1968 171.296 45.5052 171.125 45.745Z" fill="#3A4E89"/>
<path d="M70.5558 67.2993C69.8705 68.1217 68.6712 68.6357 66.9921 68.807C66.3753 68.8755 65.5872 68.9098 64.662 68.9098C64.3536 68.9098 63.8054 68.9098 63.0515 68.8755L61.9207 68.8413C61.1669 68.8413 60.2759 68.6357 59.2822 68.293L56.5067 67.3336C55.7871 67.1622 55.4102 66.9224 55.4102 66.614C55.4102 66.4084 55.5472 66.2028 55.8213 65.9972C56.0269 65.8258 56.2668 65.6888 56.5067 65.6202C56.6095 65.586 56.7123 65.586 56.7808 65.586C57.0549 65.586 57.5347 65.723 58.1514 66.0314C59.1452 66.5112 59.762 66.7853 59.9676 66.8538C60.7214 67.1622 61.3725 67.2993 61.9207 67.2993C62.2634 67.2993 62.7088 67.2993 63.2571 67.3336C64.4564 67.4021 65.2103 67.4364 65.4501 67.4364C66.4781 67.4364 67.2662 67.2993 67.7802 67.0594C68.4656 66.751 68.8767 66.2028 69.0138 65.4146C69.0138 65.3461 69.0481 65.2776 69.0481 65.2091C69.0481 64.558 68.1914 63.8041 66.4781 62.9818L63.4284 61.5083C60.3445 60.0006 58.5969 58.5614 58.1857 57.1222C58.1857 57.0194 58.1514 56.9509 58.1514 56.9167C58.1514 56.3341 58.6312 55.7516 59.6249 55.1691C60.4473 54.6894 61.4067 54.3124 62.5718 54.0726C63.1543 53.9355 63.6683 53.8327 64.1823 53.7299C65.9641 53.353 67.3348 53.1816 68.3285 53.1816C68.9453 53.1816 69.2537 53.49 69.2537 54.0726C68.6712 54.4838 67.5746 54.7922 65.9984 55.1005L62.2977 55.7859C61.1326 55.9915 60.5501 56.4027 60.5501 57.0194V57.1565C60.5501 57.1908 60.5501 57.2593 60.5843 57.3278C60.6871 57.8761 61.3382 58.4586 62.5375 59.1097C62.5718 59.1439 63.8396 59.8293 66.3411 61.1657C67.9858 62.0566 69.1851 62.8104 69.939 63.4615C70.2474 63.6671 70.5215 64.0097 70.6929 64.558C70.8642 65.0035 70.967 65.4489 70.967 65.8944C71.0013 66.4426 70.8642 66.9224 70.5558 67.2993Z" fill="#3A4E89"/>
<path d="M89.23 53.3867C89.3328 53.558 89.3671 53.7294 89.3671 53.935C89.3671 54.1063 89.2986 54.3462 89.1615 54.5518C89.093 54.6888 89.138 54.7601 89.001 55C88.8982 55.1371 88.1678 55.3399 87.1055 55.4769C85.0153 55.7168 83.302 55.8539 82.0341 55.8539C81.9999 56.2993 81.9656 56.8133 81.9656 57.3616C81.9656 58.3553 82.0341 59.5889 82.1712 61.0623L82.5824 65.2771C82.7195 66.7505 82.788 67.9156 82.788 68.7722C82.7195 68.7722 82.5824 68.8407 82.3768 68.9435C82.1369 69.0463 81.9999 69.1149 81.9313 69.1149C81.7943 69.1149 81.6572 69.0463 81.5202 68.9093C81.3146 67.7785 81.109 66.4421 80.9719 64.9001C80.8691 63.8722 80.7663 62.433 80.6292 60.5826L80.3551 56.128C80.1152 56.0595 79.8068 56.0252 79.3957 56.0252C78.8474 56.0252 78.1278 56.0595 77.3054 56.1623L74.7697 56.4364C73.8788 56.5392 73.262 56.5735 72.9194 56.5735C72.5424 56.128 72.3711 55.5455 72.3711 54.8259C75.5236 54.3119 79.3614 53.8664 83.8845 53.558C86.009 53.4553 87.7566 53.3867 89.23 53.3867Z" fill="#3A4E89"/>
<path d="M102.972 67.2991C101.841 67.2991 100.505 67.4019 98.9974 67.6418L94.5771 68.2928C92.9666 68.5327 91.5616 68.6355 90.4309 68.6355C89.8826 68.6355 89.4371 68.567 89.0945 68.4642C88.135 68.1558 87.4497 67.3334 87.0728 65.9285C87.0728 65.5173 87.0728 64.9005 87.0385 64.0781L86.9357 61.8165C86.9015 60.8228 86.8672 60.1375 86.8672 59.8291C86.8672 57.3619 87.1413 55.443 87.7238 54.0724C88.5462 54.0724 89.6085 54.0039 90.8763 53.8668L94.6799 53.4556C95.9477 53.3185 97.0785 53.25 98.0379 53.25C98.7575 53.25 99.3401 53.2843 99.8198 53.3528C100.402 53.3528 100.676 53.7297 100.676 54.4493C100.676 54.5864 100.642 54.7234 100.608 54.8262C99.5457 54.9633 98.2093 55.0318 96.633 55.0318C94.7484 55.0661 93.412 55.1004 92.6239 55.2032C91.1162 55.3402 89.7798 55.6486 88.649 56.0598C88.4434 56.7794 88.3406 57.8417 88.3406 59.2123C88.3406 59.7948 88.3749 60.3088 88.4092 60.7885C88.8889 60.8913 89.4371 60.9256 89.9854 60.9256C90.7735 60.9256 91.5959 60.8228 92.4526 60.583C92.6582 60.5144 93.4805 60.3088 94.8855 59.9319C95.7764 59.692 96.5645 59.5892 97.2498 59.5892C97.2156 59.6235 97.0785 59.8291 96.8729 60.206C96.7016 60.5144 96.5645 60.6858 96.4274 60.7543C95.9477 61.0969 95.1596 61.4053 94.1316 61.6795C93.4463 61.8508 92.5211 62.0564 91.3903 62.2277C90.7393 62.3305 89.8141 62.5019 88.649 62.7417C88.649 62.8788 88.649 63.0501 88.649 63.29C88.649 63.5298 88.649 63.7012 88.649 63.8382C88.649 65.3802 88.9917 66.2711 89.6427 66.5453C90.6022 66.7166 91.5274 66.7851 92.5211 66.7851C93.3778 66.7851 94.4057 66.7166 95.5365 66.5795L98.9974 66.1341C100.162 65.997 101.328 65.8942 102.527 65.8942C102.938 65.8942 103.109 66.1683 103.109 66.7509C103.041 66.9565 103.007 67.1278 102.972 67.2991Z" fill="#3A4E89"/>
<path d="M122.504 68.7046C122.435 68.8416 122.298 68.8759 122.161 68.8759C121.99 68.8759 121.681 68.7731 121.202 68.5675C120.825 67.7794 120.448 66.6143 120.071 65.0724C119.591 63.0507 119.283 61.7828 119.112 61.3374C118.666 60.001 118.084 58.9387 117.33 58.1506C117.09 58.5275 116.644 59.3157 115.959 60.515C115.376 61.5772 114.863 62.4339 114.417 63.0164C113.732 63.9416 112.978 64.6612 112.155 65.2094C111.504 64.7982 110.888 64.1472 110.271 63.1877C109.894 62.6052 109.414 61.7486 108.9 60.6863C108.318 59.487 107.906 58.6646 107.598 58.1506C107.392 58.8017 107.084 59.7954 106.741 61.1318C106.399 62.4681 106.125 63.4619 105.919 64.1129C105.508 65.3465 105.062 66.3402 104.617 67.1283L104 67.0255C103.829 66.9913 103.692 66.9227 103.555 66.7514C103.795 65.5521 104.171 64.1814 104.651 62.6052C104.788 62.0912 105.268 60.6178 106.022 58.2534C106.604 56.4373 107.016 54.9981 107.29 53.9359C107.427 53.5932 107.632 53.4219 107.872 53.4219C108.215 53.4219 108.352 53.5932 108.352 53.9359C108.352 55.3408 108.729 56.8828 109.448 58.4933C109.962 59.6926 110.648 60.8234 111.47 61.9199C112.121 62.8108 112.498 63.2905 112.567 63.2905C113.423 62.5709 114.177 61.6115 114.794 60.4807C115.205 59.7268 115.685 58.5961 116.199 57.1569C116.781 55.5464 117.227 54.4156 117.467 53.8331C117.535 53.7988 117.638 53.7988 117.707 53.7988C118.015 53.7988 118.221 53.9701 118.289 54.3128L119.934 59.3499C120.551 61.2688 121.065 62.8451 121.373 64.0444C121.887 65.7919 122.264 67.3339 122.504 68.7046Z" fill="#3A4E89"/>
<path d="M140.971 63.1195C140.834 63.565 140.8 64.1133 140.8 64.73C140.8 64.9699 140.8 65.3126 140.834 65.758C140.869 66.2035 140.869 66.5461 140.869 66.786C140.869 67.5056 140.8 68.0881 140.629 68.5679C140.492 68.8762 140.355 69.0476 140.217 69.0476C139.806 68.979 139.464 68.6364 139.258 67.9853C139.121 67.6084 139.018 67.2657 138.915 66.9573C137.887 66.5804 136.482 66.3748 134.666 66.3748C134.289 66.3748 133.741 66.3748 133.022 66.4091C132.268 66.4434 131.719 66.4433 131.377 66.4433C130.417 66.4433 129.629 66.4091 128.978 66.3063C127.162 66.0664 125.689 65.3468 124.489 64.2161C124.215 63.6335 124.078 62.9825 124.078 62.2629C124.078 60.4125 124.866 58.5279 126.442 56.609C128.259 54.3817 130.589 53.2852 133.433 53.2852C133.604 53.4565 133.741 53.5936 133.912 53.7306C134.118 53.9705 134.221 54.1761 134.221 54.3474C134.221 54.5187 134.152 54.6558 133.981 54.7929C133.878 54.7586 133.81 54.7586 133.707 54.7586C133.638 54.7586 133.433 54.7929 133.09 54.8614C132.885 54.8957 132.679 54.8957 132.473 54.8957C129.732 55.6495 127.608 57.3628 126.203 60.0013C125.997 60.6866 125.86 61.2692 125.86 61.6804C125.86 62.537 126.168 63.1538 126.751 63.5993C128.19 64.6272 130.006 65.1412 132.199 65.1412C133.364 65.1412 134.769 64.9699 136.448 64.6615C136.996 64.5587 137.716 64.3874 138.607 64.1818C139.327 63.8049 139.669 63.2223 139.669 62.3999C139.669 62.1601 139.635 61.9202 139.532 61.6804C138.23 61.372 136.757 61.2349 135.112 61.2349C134.015 61.2349 132.713 61.3034 131.205 61.4405C131.103 61.3377 131.034 61.2006 131.034 61.0293C131.034 60.8922 131.068 60.6866 131.171 60.481C131.205 60.3782 131.274 60.2412 131.377 60.0699C132.199 59.6587 133.261 59.4873 134.564 59.4873C135.043 59.4873 136.208 59.5559 138.024 59.6929C138.71 59.7615 139.224 59.7615 139.635 59.7615C140.389 60.0013 140.834 60.6181 140.903 61.6118C140.937 62.1258 140.971 62.6055 140.971 63.1195Z" fill="#3A4E89"/>
<path d="M158.722 67.2991C157.591 67.2991 156.255 67.4019 154.747 67.6418L150.327 68.2928C148.717 68.5327 147.312 68.6355 146.181 68.6355C145.633 68.6355 145.187 68.567 144.844 68.4642C143.885 68.1558 143.2 67.3334 142.823 65.9285C142.823 65.5173 142.823 64.9005 142.789 64.0781L142.686 61.8165C142.651 60.8228 142.617 60.1375 142.617 59.8291C142.617 57.3619 142.891 55.443 143.474 54.0724C144.296 54.0724 145.358 54.0039 146.626 53.8668L150.43 53.4556C151.698 53.3185 152.828 53.25 153.788 53.25C154.508 53.25 155.09 53.2843 155.57 53.3528C156.152 53.3528 156.426 53.7297 156.426 54.4493C156.426 54.5864 156.392 54.7234 156.358 54.8262C155.296 54.9633 153.959 55.0318 152.383 55.0318C150.498 55.0661 149.162 55.1004 148.374 55.2032C146.866 55.3402 145.53 55.6486 144.399 56.0598C144.193 56.7794 144.091 57.8417 144.091 59.2123C144.091 59.7948 144.125 60.3088 144.159 60.7885C144.639 60.8913 145.187 60.9256 145.735 60.9256C146.524 60.9256 147.346 60.8228 148.203 60.583C148.408 60.5144 149.231 60.3088 150.635 59.9319C151.526 59.692 152.314 59.5892 153 59.5892C152.966 59.6235 152.828 59.8291 152.623 60.206C152.452 60.5144 152.315 60.6858 152.177 60.7543C151.698 61.0969 150.91 61.4053 149.882 61.6795C149.196 61.8508 148.271 62.0564 147.14 62.2277C146.489 62.3305 145.564 62.5019 144.399 62.7417C144.399 62.8788 144.399 63.0501 144.399 63.29C144.399 63.5298 144.399 63.7012 144.399 63.8382C144.399 65.3802 144.742 66.2711 145.393 66.5453C146.352 66.7166 147.277 66.7851 148.271 66.7851C149.128 66.7851 150.156 66.7166 151.287 66.5795L154.747 66.1341C155.912 65.997 157.077 65.8942 158.277 65.8942C158.688 65.8942 158.859 66.1683 158.859 66.7509C158.791 66.9565 158.757 67.1278 158.722 67.2991Z" fill="#3A4E89"/>
<path d="M174.726 53.9705C174.075 55.1698 173.732 56.5747 173.732 58.2195C173.732 59.0076 173.801 59.9328 173.972 60.9608L174.452 64.0105C174.623 65.0385 174.691 65.9294 174.691 66.649C174.691 67.3686 174.623 68.0196 174.486 68.5679C173.972 68.6364 173.561 68.6364 173.252 68.6364C170.854 68.0196 168.01 65.6553 164.754 61.5776C164.48 61.2349 163.349 59.83 161.396 57.3286C161.191 57.9796 161.053 58.8706 161.053 60.0013C161.053 60.3097 161.053 60.7895 161.053 61.4063V62.8454C161.053 63.9077 160.985 64.8329 160.814 65.621C160.745 65.621 160.677 65.6553 160.505 65.6895L160.368 65.7238C160.197 65.7923 160.026 65.7923 159.854 65.7923C159.546 65.7923 159.34 65.6553 159.203 65.3811C159.374 64.4902 159.546 63.2224 159.683 61.6119C159.717 61.1664 159.82 59.7615 159.991 57.4999C160.094 55.8894 160.231 54.6216 160.368 53.6621C161.088 54.4502 162.287 55.9237 163.966 58.0482C165.577 60.1041 166.879 61.6804 167.941 62.7426C169.586 64.4217 171.265 65.7581 172.978 66.7518L172.738 64.079C172.567 62.1601 172.464 60.5153 172.464 59.2132C172.464 57.3286 172.635 55.6153 172.978 54.039C173.149 53.8334 173.458 53.7306 173.903 53.7306C174.28 53.8334 174.52 53.902 174.726 53.9705Z" fill="#3A4E89"/>
</svg>
