<svg width="12.21" height="20.38" viewBox="0 0 21 38" fill="none" xmlns="http://www.w3.org/2000/svg">
<path fill-rule="evenodd" clip-rule="evenodd" d="M19.3883 21.9099C19.7064 22.2252 20.0422 22.5221 20.3941 22.7992C20.6001 22.9597 20.6285 23.1063 20.5601 23.3544C19.7994 26.1167 19.0587 28.8835 18.5908 31.7142C18.474 32.4199 18.3772 33.131 18.3126 33.8437C18.2827 34.1785 18.1605 34.2637 17.8378 34.2637C15.9334 34.255 14.0295 34.256 12.1254 34.257C11.5195 34.2573 10.9137 34.2576 10.3078 34.2576C9.76002 34.2574 9.21223 34.2569 8.66439 34.2564C6.7155 34.2546 4.76625 34.2528 2.81699 34.266C2.44049 34.2683 2.31678 34.1577 2.27913 33.7807C1.94728 30.4582 1.08627 27.2472 0.224689 24.034C0.164643 23.81 0.104593 23.5861 0.0447195 23.3621C-0.0113713 23.1555 -0.0505569 22.9919 0.156902 22.8245C2.1293 21.2356 3.54156 19.2098 4.71563 17.0066C6.49516 13.6277 7.66769 10.0353 8.51289 6.33225C8.80598 5.05034 9.03547 3.75347 9.26485 2.45732C9.32953 2.09183 9.3942 1.7264 9.46029 1.36138C9.48564 1.22085 9.40957 1.0281 9.31813 0.90753C9.08762 0.612641 9.10838 0.250174 9.39498 0.0681723C9.45058 0.0305324 9.51484 0.00762542 9.58172 0.00160003C9.64861 -0.00442537 9.71593 0.00662834 9.77737 0.0337243C9.83881 0.0608203 9.89236 0.10307 9.93299 0.156512C9.97362 0.209953 10 0.272833 10.0097 0.339255C10.0213 0.441214 10.0243 0.54396 10.0189 0.64643C10.0191 1.71337 10.0189 2.78032 10.0187 3.84726C10.0181 6.91413 10.0174 9.981 10.0266 13.0479C10.0281 13.4318 9.93821 13.6154 9.51945 13.5854C9.20365 13.5632 9.03154 13.7682 8.96776 14.0669C8.79181 14.894 8.91244 15.0414 9.75764 15.0414C9.92412 15.0414 10.0906 15.0402 10.2571 15.0389C10.59 15.0363 10.923 15.0338 11.256 15.0414C11.5226 15.0476 11.6302 14.9393 11.6132 14.6782C11.6074 14.588 11.6086 14.4973 11.6098 14.4067C11.6108 14.3307 11.6118 14.2547 11.6086 14.1791C11.591 13.7697 11.4296 13.5778 11.0201 13.5854C10.6105 13.5931 10.5337 13.4134 10.5337 13.0517C10.5378 8.92993 10.5398 4.80866 10.5398 0.687899V0.534311C10.5329 0.297786 10.5859 0.0666365 10.8472 0.0336151C10.9955 0.0121128 11.259 0.0866029 11.2982 0.187203C11.3727 0.375348 11.4119 0.69865 11.3036 0.812305C11.0686 1.05925 11.1051 1.29274 11.1481 1.5688L11.1499 1.58024C11.9129 6.53575 13.1761 11.3484 15.316 15.9015C16.3564 18.1124 17.6403 20.1736 19.3883 21.9099ZM9.48333 27.0743C11.2437 27.3692 12.9371 26.6565 13.7201 25.2566C14.573 23.7299 14.4562 22.2094 13.5987 20.7342C13.1454 19.9501 12.7758 19.1453 12.5929 18.2606C12.5398 18.0029 12.4966 17.7434 12.4535 17.4839C12.4212 17.2895 12.3889 17.0951 12.3524 16.9014C12.2187 16.2041 11.8998 15.9269 11.1999 15.9169C10.7655 15.9118 10.33 15.9135 9.8947 15.9152C9.67708 15.916 9.45949 15.9169 9.24207 15.9169C9.04815 15.9062 8.85599 15.9587 8.69454 16.0666C8.53309 16.1745 8.41109 16.3319 8.34692 16.5151C8.26047 16.7419 8.20366 16.9788 8.17788 17.2201C8.01038 18.5033 7.63849 19.7105 6.93927 20.8148C6.499 21.5106 6.30614 22.29 6.27694 23.1186C6.29037 23.2212 6.30193 23.3241 6.31348 23.4271C6.33895 23.6539 6.36441 23.8807 6.40987 24.1031C6.71722 25.5806 8.01038 26.8278 9.48333 27.0743Z" fill="#283C79"/>
<path d="M2.41984 34.9937C2.72181 35.3094 2.88778 35.6265 2.88778 35.9475C2.88778 36.2501 2.73948 36.5565 2.41907 36.8683C2.37297 36.9128 2.3238 36.9574 2.27078 37.0019H18.3058C18.2528 36.9566 18.2036 36.912 18.1575 36.8683C17.8379 36.5557 17.6896 36.2493 17.6896 35.9468C17.6896 35.6242 17.8533 35.3055 18.1606 34.9891C18.2044 34.9446 18.2505 34.8993 18.2989 34.8547H2.27692C2.3261 34.9001 2.3722 34.9454 2.416 34.9899L2.41984 34.9937Z" fill="white"/>
</svg>

