<svg width="180" height="74" viewBox="0 0 180 74" fill="none" xmlns="http://www.w3.org/2000/svg">
<path d="M12.0273 39.2342C12.0273 39.1999 12.0616 39.1999 12.0273 39.2342C12.0616 39.1999 12.0616 39.1999 12.0273 39.2342Z" fill="#3A4E89"/>
<path d="M43.9984 52.529C43.4159 51.8095 42.9362 51.0556 42.3194 50.4388C40.6746 48.7598 38.79 47.3891 36.5284 46.7038C35.055 46.2583 33.5815 45.8129 32.0053 46.0527C31.5941 46.1213 31.2172 46.2241 30.806 46.2241C29.5724 46.2583 28.4073 46.1555 27.208 45.8129C25.6318 45.3674 24.2611 44.6136 23.0276 43.5856C22.5136 43.1744 22.0338 42.6604 21.5198 42.2149C21.3828 42.1121 21.3485 42.0093 21.28 41.838C21.0059 41.1184 20.6632 40.8786 19.8408 40.9814C18.6415 41.1184 17.5107 40.9471 16.4485 40.3646C16.1058 40.159 15.8659 40.2275 15.5575 40.4331C15.1806 40.673 14.7694 40.9128 14.3582 41.1527C14.3582 41.1184 14.324 41.0842 14.324 41.0499C14.7009 40.4674 15.1121 39.9191 15.4547 39.3708C14.8379 38.9939 14.3582 38.6513 13.81 38.3086C13.5016 38.4457 13.1589 38.5827 12.8162 38.7198L12.8505 38.6855C12.5764 38.8569 12.3023 39.0282 12.0281 39.1652C11.8225 39.4736 11.9253 39.7478 12.0967 40.0562C12.5421 40.8443 13.1589 41.4953 13.7757 42.1464C14.9407 43.4485 16.3799 44.2366 18.0932 44.5793C18.573 44.6821 19.0527 44.8192 19.4639 45.059C21.3142 46.1898 23.1304 47.3891 24.9465 48.5542C25.5633 48.9311 26.18 49.3766 26.8654 49.5822C28.4416 50.0961 30.0864 50.0619 31.6969 49.8563C32.7934 49.7192 33.7871 49.7192 34.8151 50.0961C35.9116 50.4731 37.0081 50.8843 37.9676 51.5696C39.4068 52.6318 40.5375 53.9682 41.5998 55.4417C42.6278 54.8249 43.6558 54.2081 44.6838 53.557C44.4439 53.1116 44.2726 52.8717 43.9984 52.529Z" fill="#3A4E89"/>
<path d="M26.5587 67.1611C26.5587 66.7156 26.5587 66.3387 26.5587 65.996C26.5244 65.1394 26.1132 64.6254 25.2908 64.317C24.4684 64.0086 23.646 64.2142 22.9265 64.5226C21.8985 64.968 20.8705 65.5163 20.0138 66.2701C19.8082 66.4415 19.6026 66.5785 19.2942 66.8184C18.6089 65.4478 17.9579 64.1799 17.2383 62.775C17.5809 62.4666 17.9579 62.1925 18.3005 61.8841C19.911 60.4792 21.6929 59.3484 23.7488 58.6973C25.9761 58.012 27.9293 58.4575 29.5741 60.1022C30.4307 60.9589 30.9105 62.0554 30.9105 63.3233C30.9105 64.317 30.9105 65.345 30.9105 66.4415C29.4713 66.6813 28.0664 66.8869 26.5587 67.1611Z" fill="#3A4E89"/>
<path d="M33.6495 24.6025C33.6152 24.4311 33.5467 24.2598 33.4781 24.0542C33.4096 24.3626 33.3068 24.671 33.2383 24.9794C33.4781 25.0137 33.5809 25.1165 33.7523 25.1165C33.718 24.9794 33.6495 24.7395 33.6495 24.6025Z" fill="#3A4E89"/>
<path d="M33.9234 26.1443C33.615 26.1786 33.2724 26.0415 32.9982 26.0415C32.964 26.1443 32.964 26.2471 32.9297 26.3499C33.3409 26.5555 33.6835 26.6583 34.0947 26.8296C34.0262 26.5555 33.9919 26.3499 33.9234 26.1443Z" fill="#3A4E89"/>
<path d="M34.2343 27.5149C34.2343 27.4806 34.2 27.4464 34.2 27.3778C33.7545 27.2065 33.2748 27.1037 32.8294 26.8296C32.7951 27.0695 32.7608 27.275 32.7266 27.5149C33.2063 27.4806 33.686 27.4806 34.2343 27.5149Z" fill="#3A4E89"/>
<path d="M36.668 38.823C36.3939 36.9041 35.0918 31.3187 34.2694 27.6865C34.2351 27.6865 34.2351 27.6865 34.2009 27.6865C33.6869 27.7208 33.1729 27.9607 32.6931 27.8921C32.6589 28.0635 32.6589 28.0292 32.6246 28.2348C32.3848 30.2907 32.2134 32.3125 32.1106 34.3684C31.8365 36.9726 31.9393 38.172 32.1106 39.0286C32.7274 38.9258 36.017 39.1314 36.5652 39.5083C36.0512 39.5083 33.1729 39.7825 33.1729 39.7825C32.7959 39.7482 32.5561 39.6797 32.2134 39.6111C32.282 39.8853 32.3505 40.0909 32.419 40.2622C32.5561 40.7077 36.1198 39.851 36.7365 40.0566C36.7365 40.0909 36.7708 40.3307 36.668 38.823Z" fill="#3A4E89"/>
<path d="M33.789 25.322C33.6177 25.322 33.3778 25.322 33.1722 25.2192C33.1037 25.5276 33.1037 25.4248 33.0352 25.7332C33.3436 25.7332 33.5834 25.9388 33.8918 25.9388C33.8233 25.5962 33.8233 25.5619 33.789 25.322Z" fill="#3A4E89"/>
<path d="M16.2791 61.0617C16.1763 60.8218 16.0735 60.6162 15.9707 60.4106C15.8679 60.2393 15.7651 60.0337 15.5938 59.7938C15.8336 59.5882 16.0392 59.4169 16.3819 59.1085C16.4847 59.3141 16.5875 59.4512 16.6903 59.6225C16.7245 59.6225 16.7245 59.5882 16.7588 59.5882C16.6903 59.3826 16.656 59.177 16.5875 59.0057C16.6217 58.9372 16.6217 58.8686 16.656 58.8344C18.7805 57.1896 21.3505 55.5106 24.126 54.0371C24.6057 54.3112 25.0855 54.2427 25.5995 54.0714C30.431 53.763 33.3093 57.5665 33.7891 59.6225C34.5087 62.5008 34.1317 64.8995 34.1317 65.0708C34.1317 65.8247 34.1317 65.8247 33.4121 65.996C33.2408 66.0303 33.0352 66.0645 32.8296 66.1331C32.8296 65.5848 32.8639 65.1051 32.8296 64.6253C32.7611 63.6659 32.7268 62.6722 32.5898 61.7127C32.3842 60.0337 31.6988 58.5945 30.4653 57.498C29.8142 56.9155 28.0666 55.8532 27.2785 55.8532C26.0449 55.6134 24.8799 55.9217 23.7834 56.47C23.1323 56.7441 16.9301 60.5819 16.2791 61.0617Z" fill="#3A4E89"/>
<path d="M11.6531 31.2841C11.1734 31.0785 10.6937 30.8729 10.1797 30.6331C11.1049 28.7827 12.2699 27.275 13.8804 26.1442C16.4504 24.3966 19.2602 23.8827 22.3099 24.3281C22.8239 24.3966 23.3379 24.4652 23.8176 24.4994C23.9547 24.4994 24.126 24.4652 24.2973 24.4309C24.4687 24.3966 24.64 24.3281 24.7428 24.3624C25.4624 24.6022 26.1477 24.9106 26.9701 25.219C26.6274 25.9729 26.3533 26.6239 26.0449 27.3778C25.2225 27.2065 24.5029 27.0694 23.7491 26.9323C22.7211 26.6925 21.7274 26.3841 20.6651 26.2128C18.7462 25.9386 16.9644 26.4526 15.2853 27.3778C13.7776 27.9603 12.1671 30.3247 11.6531 31.2841Z" fill="#3A4E89"/>
<path d="M42.73 4.93359C41.9419 5.44759 41.051 6.33851 40.3314 6.71543C38.8922 7.53782 37.5558 8.49727 36.3223 9.62805C36.0824 9.86792 35.8425 10.0392 35.4656 9.97072C34.3691 9.83365 33.4439 10.2791 32.6215 10.9302C29.846 13.0889 27.4131 15.5561 25.4599 18.4345C25.0487 19.017 24.706 19.668 24.2948 20.3191C23.9179 20.1478 23.541 20.0107 23.1641 19.8394C23.9522 18.4345 24.706 17.0638 25.6998 15.8302C27.4131 13.7057 29.332 11.8211 31.4907 10.142C33.0327 8.94273 34.6432 7.94901 36.3565 7.05809C36.9733 6.7497 37.7614 6.37277 38.4125 6.16717C39.509 5.79025 40.3999 5.44759 41.5307 5.10492C41.7363 5.07066 42.3874 4.93359 42.73 4.93359Z" fill="#3A4E89"/>
<path d="M8.53457 30.3589C8.1919 30.1876 7.84924 30.0505 7.57511 29.8792C7.54085 29.3652 8.5003 27.926 8.74016 27.5491C9.83668 25.8015 11.3101 24.3966 13.092 23.3344C15.1479 22.1008 17.4095 21.4497 19.8081 21.4155C20.4249 21.4155 21.0417 21.4155 21.6928 21.4155C22.2753 21.4155 22.5494 21.2442 22.9263 20.6959C22.9606 20.6616 22.9949 20.5931 22.9949 20.5931C23.1319 20.5931 23.269 20.6274 23.4746 20.6616C23.3033 20.4903 23.1662 20.3875 23.0291 20.2504C23.0634 20.1819 23.0977 20.1476 23.0977 20.0791C23.4403 20.2162 23.8173 20.3532 24.1599 20.4903C23.9543 21.0043 23.783 21.484 23.6117 21.9295C23.4061 22.512 22.9606 22.7519 22.3438 22.7519C21.4186 22.7176 20.4934 22.6833 19.5683 22.7176C16.7927 22.8547 14.3255 23.7798 12.201 25.5617C10.6248 26.8638 9.49402 28.4743 8.53457 30.3589Z" fill="#3A4E89"/>
<path d="M9.35547 43.8599C9.69813 43.6543 9.97226 43.4829 10.2807 43.2773C10.7261 43.7913 11.103 44.2368 11.5142 44.7165C13.4331 46.9438 15.8318 48.2459 18.6759 48.8627C20.0465 49.1369 21.2116 49.8907 22.2053 50.9187C22.685 51.3984 23.0619 51.9467 23.5416 52.5292C23.2333 52.7691 22.9591 52.9747 22.685 53.1803C22.0682 52.5635 21.4857 51.9809 20.9032 51.4327C20.0808 50.6446 19.0528 50.2676 18.0248 50.0278C15.0779 49.3424 12.5765 47.9718 10.6576 45.6074C10.2121 45.0592 9.83519 44.5109 9.35547 43.8599Z" fill="#3A4E89"/>
<path d="M36.5648 43.6885C37.3529 43.9284 38.518 44.3738 38.518 44.4081L37.5242 45.0934C35.8795 43.7228 30.9794 45.5389 28.3409 44.6822C26.5933 44.1682 25.2912 43.6542 23.2695 41.3584C23.6465 41.1528 23.8863 40.9815 24.2632 40.7759C28.478 46.1557 33.6864 42.8661 36.5648 43.6885Z" fill="#3A4E89"/>
<path d="M33.8568 12.061C31.1841 15.3506 29.0253 18.9143 27.5176 22.9577C26.7295 22.615 26.0442 22.3409 25.1875 21.9982C25.4274 21.7241 25.5644 21.45 25.8043 21.3129C26.0784 21.1416 25.7358 21.0045 25.8386 20.7989C27.0721 18.5716 28.6484 16.6184 30.4302 14.8709C31.4925 13.8086 32.5205 12.7806 33.8568 12.061Z" fill="#3A4E89"/>
<path d="M39.0644 44.3055C38.7218 43.0719 39.3043 42.4209 39.3043 41.2901C39.3043 39.4055 39.2015 37.5208 38.8246 35.6362C38.242 32.7921 37.591 29.9823 37.1455 27.1382C36.6315 24.0542 36.3917 20.9703 36.7343 17.8521C36.9399 16.2416 37.2483 14.6311 37.6595 13.0548C37.9336 12.0611 38.1735 10.7247 38.8931 9.93659C39.9553 8.53168 40.7092 7.5037 41.7715 6.23585C42.4225 5.44773 42.5938 5.1736 42.7309 5.0708C42.0113 6.09878 41.6687 6.54424 41.2232 7.16103C40.4008 8.29182 39.7155 9.3198 38.9274 10.4506C38.619 11.1016 38.2078 12.5408 38.0364 13.2947C37.6253 15.0765 37.2483 16.8926 37.077 18.7087C36.8714 20.9018 36.9399 23.0948 37.2141 25.2878C37.4539 27.2067 37.8651 29.0571 38.242 30.9417C38.619 32.9634 39.0987 34.9509 39.4071 36.9726C39.647 38.5488 39.784 39.7139 39.7498 41.3244C39.6812 41.8726 39.1672 43.4831 39.0644 44.3055Z" fill="#3A4E89"/>
<path d="M14.4969 32.3808C14.2913 32.2438 14.0857 32.141 13.7773 31.9354C13.9829 31.0102 15.2508 29.3654 17.4781 28.6458C18.5403 28.2346 19.6026 28.2004 20.7334 28.4745C21.59 28.6801 22.3439 29.057 23.0977 29.5025C23.7488 29.8794 24.1942 30.4619 24.5369 31.113C24.6397 31.3186 24.16 31.627 23.9887 31.7298C23.5775 31.8669 23.4747 31.4899 23.3033 31.2843C22.618 30.599 21.8299 30.085 20.9047 29.8109C19.6711 29.4682 18.4375 29.5025 17.2725 30.0507C15.2508 30.9074 15.0452 32.3466 14.4969 32.3808Z" fill="#3A4E89"/>
<path d="M44.9922 51.0557C44.7524 50.8158 44.4782 50.5417 44.2384 50.2675C42.5936 48.3144 40.5376 46.8067 38.4817 45.7102C38.2418 45.6074 37.9334 45.4018 37.625 45.1962C38.0019 44.9563 38.2761 44.785 38.5502 44.6136C38.79 44.4423 38.9956 44.5108 39.2355 44.6136C41.3257 45.7102 43.1418 47.1493 44.7181 48.8969C45.1293 49.3424 45.4719 49.8221 45.9517 50.4389C45.7803 50.5417 45.609 50.6445 45.4719 50.7473C45.3006 50.8501 45.1635 50.9529 44.9922 51.0557Z" fill="#3A4E89"/>
<path d="M15.043 37.0408C15.4199 36.8009 15.6255 36.6981 15.8654 36.5268C16.8933 37.6576 18.0927 38.4799 19.6689 38.3771C21.2794 38.2743 22.3759 37.3492 23.1298 35.9785C23.4039 36.1156 23.6438 36.2184 23.9179 36.3212C23.8494 36.938 23.5752 37.3834 23.1983 37.7946C22.8214 38.2401 22.513 38.6855 22.1361 39.131C21.999 39.2681 21.7934 39.4394 21.6221 39.4394C20.8339 39.5079 20.0458 39.5079 19.2577 39.5765C18.0927 39.6793 17.1332 39.131 16.208 38.5827C15.7626 38.2401 15.4884 37.589 15.043 37.0408Z" fill="#3A4E89"/>
<path d="M19.4661 37.1436C18.0612 37.2464 16.6905 36.0471 16.6562 34.368C16.6562 32.7918 17.9241 31.5239 19.5003 31.5239C21.0423 31.5582 22.2759 32.826 22.2759 34.368C22.2416 36.0471 20.871 37.2464 19.4661 37.1436ZM19.4318 36.424C20.6311 36.424 21.6248 35.4645 21.6248 34.2652C21.6248 33.1002 20.5969 32.0722 19.4318 32.1064C18.2668 32.1064 17.273 33.0659 17.273 34.231C17.3073 35.5331 18.2668 36.3897 19.4318 36.424Z" fill="#3A4E89"/>
<path d="M27.1082 37.2807C26.9711 38.0003 26.8683 38.5828 26.7655 39.1653C26.697 39.508 26.5257 39.7136 26.183 39.6793C25.155 39.645 24.1956 39.8849 23.2704 40.2618C23.0648 40.3304 22.8249 40.3304 22.5508 40.2961C22.9962 39.5765 23.9214 39.4394 24.3669 38.7541C24.8123 38.1031 25.2921 37.452 25.8061 36.7324C26.183 36.938 26.6284 37.1094 27.1082 37.2807Z" fill="#3A4E89"/>
<path d="M17.4448 68.6C17.2049 68.8741 16.9993 69.114 16.6909 69.4567C15.9713 68.1203 15.286 66.8524 14.5664 65.5161C14.772 65.3105 15.0461 65.0706 15.4231 64.7622C16.1084 66.0643 16.7594 67.2979 17.4448 68.6Z" fill="#3A4E89"/>
<path d="M13.9822 63.2887C13.7081 62.809 13.5367 62.4663 13.2969 62.0894C13.6395 61.781 13.9822 61.4383 14.3249 61.0957C14.5305 61.3698 14.6675 61.5411 14.8046 61.7467C14.8389 61.7467 14.8731 61.7124 14.8731 61.7124C14.7703 61.404 14.6675 61.1299 14.5647 60.7873C14.8046 60.6502 15.0102 60.5131 15.2843 60.3418C15.4899 60.7187 15.6612 61.0271 15.9011 61.4383C15.3186 62.0208 14.7018 62.6034 13.9822 63.2887Z" fill="#3A4E89"/>
<path d="M17.478 65.5503C17.7522 66.2356 18.0263 66.9552 18.3347 67.7433C18.2319 67.8461 18.0606 67.9832 17.8207 68.1888C17.1011 66.7839 16.4158 65.4818 15.7305 64.1797C15.9703 64.0083 16.1074 63.9055 16.2445 63.8027C16.6557 64.351 17.0326 64.8992 17.4438 65.4132C17.4438 65.4475 17.4438 65.516 17.478 65.5503Z" fill="#3A4E89"/>
<path d="M30.6375 67.6407C29.2326 67.8463 27.8962 68.0519 26.457 68.2574C26.4913 67.9491 26.5256 67.7435 26.5598 67.4693C27.9647 67.2637 29.3011 67.0581 30.7403 66.8525C30.706 67.1952 30.6718 67.4008 30.6375 67.6407Z" fill="#3A4E89"/>
<path d="M17.4772 65.5506C17.4429 65.5163 17.4429 65.4478 17.4087 65.4135C17.1003 64.7967 16.7576 64.1799 16.4492 63.5289C16.6548 63.3918 16.7919 63.2547 16.9975 63.1177C17.7171 64.4541 18.4024 65.7562 19.0877 67.0925C18.9164 67.2296 18.745 67.3667 18.5395 67.538C18.1625 66.8184 17.8199 66.2016 17.4772 65.5506Z" fill="#3A4E89"/>
<path d="M42.0467 56.4357C41.9096 56.1616 41.8411 55.9902 41.7383 55.7846C42.732 55.2021 43.8628 54.414 44.788 53.8657C44.9593 54.0371 45.1649 54.2769 45.1649 54.5168C44.1369 55.1678 43.1432 55.7846 42.0467 56.4357Z" fill="#3A4E89"/>
<path d="M15.9345 69.6279C15.352 69.6622 15.1807 69.3538 15.0093 69.0454C14.5981 68.1887 14.0156 67.3664 14.0156 66.3384C14.8037 67.3321 15.3177 68.4629 15.9345 69.6279Z" fill="#3A4E89"/>
<path d="M33.4805 14.254C33.5147 14.0484 33.5147 13.9798 33.549 13.9113C33.6518 13.7057 33.7546 13.5344 33.8917 13.2603C34.3371 13.4316 34.8168 13.6372 35.3651 13.8428C35.2623 14.1512 35.1938 14.4253 35.0567 14.8365C34.5085 14.6309 33.9945 14.4596 33.4805 14.254Z" fill="#3A4E89"/>
<path d="M30.4626 68.4629C30.4626 68.6342 30.4626 68.7713 30.4283 68.9084C29.0234 69.0797 27.6871 69.2167 26.3164 69.3538C26.7961 68.9083 28.3038 68.6342 30.4626 68.4629Z" fill="#3A4E89"/>
<path d="M32.8281 15.2819C33.1023 15.1448 33.2051 15.0763 33.3421 15.0077C33.2736 14.8707 33.2051 14.7679 33.0337 14.4595C33.8218 14.528 34.3358 14.8364 34.9526 15.1105C34.8498 15.3847 34.747 15.6245 34.61 15.9329C34.0274 15.7616 33.5477 15.556 32.8281 15.2819Z" fill="#3A4E89"/>
<path d="M34.5413 12.1636C35.8777 12.6433 35.8777 12.6776 35.3637 13.6028C35.1581 13.5342 34.9183 13.4657 34.7127 13.3972C34.5071 13.2944 34.2672 13.1916 34.0273 13.0545C34.0273 12.6433 34.3015 12.4377 34.5413 12.1636Z" fill="#3A4E89"/>
<path d="M11.2417 32.2436C10.762 32.0723 10.3508 31.9009 9.87109 31.6953C9.93963 31.4555 10.0082 31.2156 10.0767 30.9072C10.4536 31.0443 10.7963 31.1471 11.1047 31.2842C11.6872 31.5583 11.6872 31.5583 11.2417 32.2436Z" fill="#3A4E89"/>
<path d="M34.3365 16.8583C33.7197 16.6184 33.1715 16.3785 32.5547 16.1044C32.6575 15.8988 32.726 15.7275 32.8288 15.5562C33.3085 15.7617 33.754 15.9331 34.1995 16.1044C34.5764 16.2415 34.6449 16.4813 34.3365 16.8583Z" fill="#3A4E89"/>
<path d="M31.7333 17.8862C32.5557 18.2289 33.241 18.503 34.0634 18.8457C33.8235 19.017 33.6522 19.1883 33.5837 19.1541C32.9669 18.9485 32.2816 18.6744 31.6648 18.4002C31.5962 18.366 31.7676 18.1604 31.7333 17.8862Z" fill="#3A4E89"/>
<path d="M46.9473 52.2895C47.4955 52.2552 47.7011 52.5978 47.8039 53.2146C47.5298 53.4202 47.2214 53.6258 46.8787 53.8657C46.5018 53.523 46.262 53.1804 46.5361 52.6664C46.6389 52.5293 46.7759 52.3923 46.9473 52.2895Z" fill="#3A4E89"/>
<path d="M44.1016 66.3386C44.1016 66.27 44.1016 66.133 44.1016 66.0987C45.061 65.7903 46.2603 65.4819 47.3911 65.105C47.4254 65.242 47.3568 65.2763 47.3568 65.4819C47.3568 65.619 44.6156 66.3043 44.1016 66.3386Z" fill="#3A4E89"/>
<path d="M24.8789 23.2661C25.7356 23.3689 26.4894 23.7458 27.3803 24.157C27.1405 24.2941 27.0034 24.3969 26.9349 24.3626C26.181 24.157 25.4614 23.8486 24.8789 23.2661Z" fill="#3A4E89"/>
<path d="M46.6022 51.3301C46.7393 51.5014 46.8763 51.707 47.0477 51.9126C46.7393 52.1182 46.4309 52.2895 46.1225 52.5294C45.9511 52.3238 45.8141 52.1525 45.5742 51.9126C45.7798 51.707 46.4309 51.3643 46.6022 51.3301Z" fill="#3A4E89"/>
<path d="M44.9922 51.0556C45.1293 50.9528 45.3006 50.85 45.4376 50.7473C45.6775 50.6445 45.8831 50.4731 46.1572 50.713C46.4656 51.0214 46.0544 51.5354 46.0544 51.5354C45.9516 51.5354 45.8488 51.6039 45.7118 51.6039C45.6775 51.6382 45.2321 51.6724 44.9922 51.0556Z" fill="#3A4E89"/>
<path d="M14.4603 32.3466C14.7345 32.7235 14.6317 32.9976 14.2547 33.2375C14.0149 33.1347 13.775 33.0319 13.5352 32.9633C13.6037 32.2095 13.6037 32.2095 14.4603 32.3466Z" fill="#3A4E89"/>
<path d="M12.0653 38.8912C11.9625 38.857 11.8597 38.857 11.7569 38.8227C11.7227 38.8227 11.7227 38.7884 11.7227 38.7542C12.0653 38.2744 13.1961 37.5891 13.8814 37.4863C13.4702 37.829 13.1618 38.1031 12.8534 38.4115L12.8877 38.3772C12.6136 38.5486 12.3052 38.7199 12.0653 38.8912Z" fill="#3A4E89"/>
<path d="M12.2704 65.1735C11.6194 64.3168 11.5851 64.0427 11.9963 63.7686C12.6816 64.6595 12.6816 64.7623 12.2704 65.1735Z" fill="#3A4E89"/>
<path d="M8.32844 42.3521C6.6494 39.2338 5.38155 35.9786 7.36899 30.1533C7.71165 30.2904 8.02005 30.5645 8.32844 30.6673C5.86128 37.4863 9.35643 41.9066 9.35643 41.9066C9.35643 41.9066 8.53404 42.4549 8.32844 42.3521Z" fill="#3A4E89"/>
<path d="M34.0963 18.2975C33.3424 18.2632 32.6914 17.9548 31.9375 17.4751C32.6228 17.4751 33.4452 17.7492 34.0963 18.2975Z" fill="#3A4E89"/>
<path d="M32.625 67.8806C32.6593 67.3323 32.9334 67.2295 33.9271 67.2981C33.8928 67.5037 33.8586 67.7093 33.79 67.9491C33.4131 67.9491 33.0362 67.9149 32.625 67.8806Z" fill="#3A4E89"/>
<path d="M32.3828 16.9951C33.0681 16.9951 33.6507 17.235 34.3017 17.6804C33.6507 17.7147 33.3423 17.6119 32.3828 16.9951Z" fill="#3A4E89"/>
<path d="M8.70703 42.8318C9.63222 42.1465 9.63222 42.1465 9.90635 42.7976C9.63222 42.9689 9.39235 43.106 9.08396 43.2773C8.94689 43.1402 8.8441 43.0032 8.70703 42.8318Z" fill="#3A4E89"/>
<path d="M11.0706 33.4087C10.4538 33.3402 9.93977 33.1346 9.42578 32.7234C10.1111 32.6549 10.6936 32.8947 11.0706 33.4087Z" fill="#3A4E89"/>
<path d="M11.036 66.9895C10.5905 66.4412 10.3164 65.9958 10.4534 65.3447C10.8989 65.6531 11.0017 66.0986 11.2073 66.4755C11.2416 66.5783 11.1388 66.7154 11.036 66.9895Z" fill="#3A4E89"/>
<path d="M13.5716 63.8027C13.1604 63.4258 12.852 63.0146 13.0576 62.2607C13.3318 62.8433 13.743 63.2202 13.5716 63.8027Z" fill="#3A4E89"/>
<path d="M32.9996 19.5651C32.417 19.7021 32.0058 19.4623 31.6289 19.0511C32.1429 19.0168 32.5884 19.2224 32.9996 19.5651Z" fill="#3A4E89"/>
<path d="M29.1641 39.7479C29.6781 39.6109 30.0892 39.5081 30.5347 39.4053C30.3976 40.0906 29.9522 40.2277 29.4382 40.5018C29.3011 40.1934 29.2326 39.9878 29.1641 39.7479Z" fill="#3A4E89"/>
<path d="M24.0923 31.867C24.2294 31.7642 24.4007 31.6957 24.5377 31.5929C24.6748 31.5929 24.7776 31.5586 25.0517 31.5586C24.8119 31.867 24.6748 32.0383 24.5035 32.2439C24.4007 32.381 24.2979 32.5523 24.058 32.381C23.7839 32.1754 24.0238 32.0383 24.0923 31.867Z" fill="#3A4E89"/>
<path d="M28.9922 38.8229C29.7803 38.6173 29.9516 38.6516 30.26 39.1313C29.8146 39.2684 29.4376 39.1998 28.9922 38.8229Z" fill="#3A4E89"/>
<path d="M28.1328 71.3073C28.7153 71.2045 29.2979 71.136 29.8804 71.0332C29.572 71.3416 28.8181 71.4444 28.1328 71.3073Z" fill="#3A4E89"/>
<path d="M28.8203 38.172C29.4028 37.8293 29.7798 38.0692 30.2252 38.2063C29.814 38.4804 29.814 38.4804 28.8203 38.172Z" fill="#3A4E89"/>
<path d="M22.9258 54.037C23.1656 53.6943 23.4055 53.4545 23.9538 53.6601C23.6454 53.8656 23.337 54.0712 23.0628 54.2768C23.0286 54.174 22.9943 54.1055 22.9258 54.037Z" fill="#3A4E89"/>
<path d="M11.1041 32.7236C10.6244 32.518 10.1789 32.3124 9.69922 32.1411C9.73348 32.0725 9.73349 32.0383 9.76775 31.9697C10.2475 32.1411 10.6929 32.3467 11.1727 32.518C11.1727 32.5865 11.1384 32.655 11.1041 32.7236Z" fill="#3A4E89"/>
<path d="M32.625 68.6C32.9677 68.5657 33.3103 68.4972 33.653 68.4629C33.3789 68.8398 33.0019 68.8055 32.6593 68.8398C32.625 68.7713 32.625 68.6685 32.625 68.6Z" fill="#3A4E89"/>
<path d="M33.8218 66.8866C33.4792 66.9209 33.1708 66.9551 32.8281 66.9894C33.1365 66.7153 33.4449 66.5439 33.8218 66.8866Z" fill="#3A4E89"/>
<path d="M49.9637 66.2357C49.6553 66.407 49.1756 66.5441 48.8672 66.7154C48.8672 66.5098 48.8672 66.3042 48.97 66.0301C49.484 65.4476 49.621 65.5161 50.2036 65.1392C50.135 65.5161 50.1008 65.8587 49.9637 66.2357Z" fill="#3A4E89"/>
<path d="M15.6622 36.1499C15.4224 36.287 15.1825 36.4583 14.9426 36.5954C14.9084 36.5269 14.8741 36.4926 14.8398 36.4241C15.0797 36.2527 15.3196 36.1157 15.5252 35.9443C15.5937 36.0129 15.628 36.0814 15.6622 36.1499Z" fill="#3A4E89"/>
<path d="M23.3381 35.3618C23.5779 35.4646 23.8178 35.5674 24.0919 35.6702C24.0577 35.7387 24.0577 35.773 24.0234 35.8415C23.7835 35.7387 23.5094 35.6702 23.2695 35.5674C23.3038 35.4989 23.3381 35.4303 23.3381 35.3618Z" fill="#3A4E89"/>
<path d="M48.6272 54.5508C48.2503 54.825 47.9076 55.0306 47.5307 55.3047C47.4622 55.2019 47.4279 55.0991 47.3594 54.9963C47.7363 54.7222 48.079 54.4138 48.4559 54.1396C48.5244 54.2424 48.5587 54.4138 48.6272 54.5508Z" fill="#3A4E89"/>
<path d="M12.1337 35.6704C11.9281 35.7732 11.6882 35.876 11.4826 36.0131C11.4483 35.9445 11.4483 35.9103 11.4141 35.8417C11.6882 35.7732 11.9281 35.7389 12.1337 35.6704Z" fill="#3A4E89"/>
<path d="M12.1676 35.7048C12.4074 35.602 12.6473 35.4992 12.8872 35.4307C12.8872 35.4992 12.9214 35.5335 12.9214 35.602C12.6473 35.602 12.4074 35.6363 12.1676 35.7048Z" fill="#3A4E89"/>
<path d="M10.52 35.0191C10.0745 34.8821 9.62905 34.745 9.18359 34.6079C9.21786 34.5394 9.28639 34.4709 9.32066 34.4023C9.76612 34.5394 10.2458 34.6765 10.6913 34.8135C10.657 34.9163 10.5885 34.9849 10.52 35.0191Z" fill="#3A4E89"/>
<path d="M33.582 16.8584C33.7876 16.9269 33.9932 16.9955 34.1988 17.0297C34.1646 17.0983 34.1303 17.1325 34.1303 17.2011C33.959 17.0983 33.7876 16.9612 33.582 16.8584Z" fill="#3A4E89"/>
<path d="M33.6159 16.8239C33.4103 16.7897 33.1704 16.7554 32.9648 16.7211C32.9991 16.6526 32.9991 16.6183 33.0334 16.5498C33.2047 16.6526 33.376 16.7554 33.6159 16.8239Z" fill="#3A4E89"/>
<path d="M26.214 23.2319C26.3853 23.3005 26.5909 23.3347 26.7622 23.4033C26.7622 23.4375 26.7279 23.4718 26.7279 23.5403C26.5566 23.4718 26.351 23.4033 26.1797 23.3347C26.1797 23.3005 26.214 23.2662 26.214 23.2319Z" fill="#3A4E89"/>
<path d="M11.5836 64.865C11.5151 64.7279 11.4465 64.5909 11.3438 64.4538C11.378 64.4195 11.4123 64.4195 11.4808 64.3853C11.5493 64.4881 11.6179 64.6251 11.7207 64.7279C11.6521 64.7964 11.6179 64.8307 11.5836 64.865Z" fill="#3A4E89"/>
<path d="M25.8711 24.397C26.1452 24.4655 26.4194 24.534 26.7277 24.6026C26.6935 24.6711 26.6592 24.7396 26.6592 24.8082C26.3851 24.6711 26.1452 24.534 25.8711 24.397Z" fill="#3A4E89"/>
<path d="M25.9074 24.3623C25.6333 24.2937 25.3592 24.2595 25.0508 24.1909C25.085 24.1224 25.1193 24.0539 25.1193 23.9854C25.3934 24.1224 25.6333 24.2595 25.9074 24.3623Z" fill="#3A4E89"/>
<path d="M26.8311 35.7388C26.9682 35.8073 27.071 35.8416 27.2081 35.9101C27.2081 35.9444 27.2081 35.9444 27.1738 35.9786C27.0367 35.9444 26.9339 35.9101 26.7969 35.8416C26.7969 35.8073 26.7969 35.773 26.8311 35.7388Z" fill="#3A4E89"/>
<path d="M18.4375 33.4774C19.4998 33.2032 20.3907 33.3403 20.8019 34.6767C20.8704 33.7172 20.6305 33.2718 20.0137 32.9976C19.4312 32.7235 19.02 32.8263 18.4375 33.4774Z" fill="#3A4E89"/>
<path d="M18.4375 33.4774C19.02 32.8263 19.4312 32.7235 20.0137 32.9976C20.6305 33.2718 20.8704 33.683 20.8019 34.6767C20.3907 33.306 19.4998 33.2032 18.4375 33.4774Z" fill="#3A4E89"/>
<path d="M42.4568 57.3267C42.3198 57.0526 42.2512 56.8812 42.1484 56.6757C43.1422 56.0931 44.3415 55.3393 45.2667 54.791C45.4723 55.0651 45.5751 55.3735 45.5751 55.6477C44.5471 56.2645 43.5533 56.6757 42.4568 57.3267Z" fill="#3A4E89"/>
<path d="M42.8002 58.0118C42.766 57.9775 42.6289 57.6006 42.6289 57.5321C43.5198 56.9838 44.8219 56.367 45.7129 55.8187C45.8157 55.7502 45.9527 56.2642 45.987 56.4355" fill="#3A4E89"/>
<path d="M43.3487 59.9992C43.2116 59.725 43.006 58.6285 42.9375 58.4229C43.9312 57.8404 45.1648 57.4292 46.09 56.8467C46.2613 57.018 46.7068 58.046 46.7753 58.8341C45.7473 59.4509 44.7879 59.3824 43.3487 59.9992Z" fill="#3A4E89"/>
<path d="M43.5559 60.7875C43.4874 60.4791 43.4874 60.4449 43.4531 60.205C44.5496 59.8966 45.7832 59.3483 46.8112 59.0742C46.914 59.3483 46.9483 59.691 46.9825 59.9994C45.8518 60.3421 44.7895 60.4106 43.5559 60.7875Z" fill="#3A4E89"/>
<path d="M43.6562 61.0616C43.759 61.5071 43.7248 61.7127 43.7933 61.9526C44.9241 61.747 46.0891 61.5414 47.1514 61.3358C47.1857 61.0959 47.1171 60.6162 47.0143 60.2393C45.8493 60.4791 44.9241 60.8218 43.6562 61.0616Z" fill="#3A4E89"/>
<path d="M43.8958 63.0149C43.8958 62.7065 43.793 62.3638 43.793 62.1582C44.9238 61.9526 46.1573 61.7813 47.2196 61.5757C47.2538 61.9526 47.3224 62.2267 47.2881 62.5351C46.0545 62.7407 45.1293 62.8093 43.8958 63.0149Z" fill="#3A4E89"/>
<path d="M43.967 64.0083C43.967 63.8027 43.8984 63.3573 43.8984 63.2887C44.9264 63.1174 46.2628 63.0146 47.2908 62.8433C47.3593 63.1517 47.3593 63.323 47.2908 63.5286" fill="#3A4E89"/>
<path d="M44.0685 65.7905C44.0685 65.4821 44.0343 64.5912 44 64.3513C45.1308 64.1457 46.3301 64.0429 47.3924 63.8716C47.3924 64.18 47.4266 64.5569 47.3924 64.8996C46.2273 65.1052 45.7476 65.345 44.0685 65.7905Z" fill="#3A4E89"/>
<path d="M44.2756 68.0517C44.2413 67.8461 44.2413 67.4349 44.207 67.4006C45.1322 66.9551 46.4686 66.4069 47.428 65.9614C47.428 66.4754 47.428 66.681 47.428 66.8523" fill="#3A4E89"/>
<path d="M49.1749 62.6376C49.1749 62.6034 49.1749 62.4663 49.1406 62.432C49.449 62.1236 49.7574 61.8838 50.1001 61.5069C50.1343 61.4726 50.1343 61.4383 50.2029 61.5069C50.2371 61.8152 50.2371 61.8495 50.0658 61.918" fill="#3A4E89"/>
<path d="M47.1175 54.5511C47.049 54.4141 47.0147 54.3455 46.9805 54.2427C47.3231 53.9001 47.6315 53.5574 47.9399 53.249C48.0427 53.3861 48.1112 53.5232 48.1455 53.6602C47.8029 54.0029 47.4945 54.1742 47.1175 54.5511Z" fill="#3A4E89"/>
<path d="M47.2903 54.8249C47.2903 54.7907 47.2218 54.6536 47.1875 54.6193C47.4959 54.3452 47.9071 54.0025 48.2155 53.7284C48.2498 53.6942 48.3183 53.8997 48.3526 54.0025" fill="#3A4E89"/>
<path d="M48.2153 57.1208C48.1125 56.8809 47.7013 55.6816 47.6328 55.5103C48.3867 55.0306 48.1811 55.1676 48.6608 54.7222C48.7636 54.8592 48.8664 55.1334 49.072 55.7844C48.8664 56.4355 48.558 56.4697 48.2153 57.1208Z" fill="#3A4E89"/>
<path d="M48.4552 57.7379C48.421 57.4638 48.421 57.5323 48.3867 57.361C48.7294 57.0526 48.9692 56.4358 49.3119 56.1274C49.3804 56.3673 49.4147 56.6414 49.4832 56.9156C49.072 57.2582 48.8322 57.361 48.4552 57.7379Z" fill="#3A4E89"/>
<path d="M48.4531 57.9435C48.5217 58.3204 48.5559 58.526 48.5902 58.6973C48.9671 58.4575 49.3783 58.2519 49.721 58.0463C49.6867 57.8407 49.6182 57.3952 49.5496 57.1211C49.1385 57.361 48.8643 57.6694 48.4531 57.9435Z" fill="#3A4E89"/>
<path d="M48.7972 59.691C48.763 59.4169 48.6944 59.1428 48.6602 58.9372C49.0371 58.7316 49.4483 58.4917 49.7909 58.2861C49.8252 58.6288 49.8937 58.8344 49.8937 59.1085C49.5168 59.3484 49.2084 59.4512 48.7972 59.691Z" fill="#3A4E89"/>
<path d="M48.8997 60.5131C48.8654 60.3418 48.7969 59.9306 48.7969 59.8963C49.1395 59.6907 49.585 59.5537 49.9277 59.3823C49.9962 59.6565 49.9962 59.7935 49.9962 59.9648" fill="#3A4E89"/>
<path d="M49.1049 62.0212C49.0707 61.7471 48.9679 60.9589 48.9336 60.7533C49.3105 60.5477 49.7217 60.3764 50.0644 60.2051C50.0986 60.4792 50.1329 60.8219 50.1329 61.1303C49.756 61.3359 49.6532 61.5757 49.1049 62.0212Z" fill="#3A4E89"/>
<path d="M49.207 63.974C49.207 63.5971 49.207 63.0145 49.207 62.8432C49.6182 62.6719 49.9266 62.2264 50.3035 62.0894C50.3035 62.3635 50.3035 62.5006 50.3035 62.8089C49.8924 63.2544 49.7896 63.2544 49.207 63.974Z" fill="#3A4E89"/>
<path d="M49.1719 65.3793C49.1719 65.208 49.2061 64.8996 49.2061 64.8653C49.5488 64.5569 49.9943 64.18 50.3369 63.8716C50.3369 64.2485 50.3027 64.6254 50.3027 64.7968" fill="#3A4E89"/>
<path d="M30.1904 69.9707C29.9505 70.5532 29.5736 70.5875 29.1624 70.5875C28.1002 70.5875 27.0037 70.7931 25.9414 70.2791C27.3121 69.9707 28.717 70.0392 30.1904 69.9707Z" fill="#3A4E89"/>
<path d="M33.5122 69.5596C33.4094 70.1079 33.1352 70.1764 32.1758 70.0051C32.2443 69.7995 32.2786 69.5939 32.3814 69.354C32.724 69.4225 33.101 69.4911 33.5122 69.5596Z" fill="#3A4E89"/>
<path d="M12.9193 64.3852C12.5081 64.0083 12.1997 63.5971 12.4053 62.8433C12.7137 63.4601 13.0906 63.8027 12.9193 64.3852Z" fill="#3A4E89"/>
<path d="M15.1142 70.4849C14.5317 70.5191 14.3604 70.2107 14.189 69.9023C13.7778 69.0457 13.1953 68.2233 13.1953 67.1953C13.9834 68.1548 14.4632 69.3198 15.1142 70.4849Z" fill="#3A4E89"/>
<path d="M11.5852 37.315C12.202 36.9723 12.8531 36.6982 13.4699 36.3213C13.5041 36.5269 13.5384 36.6982 13.6069 36.9381C13.1272 37.2465 11.7908 37.9661 11.7908 37.9661C11.7908 37.9661 11.5167 37.8633 11.5852 37.315Z" fill="#3A4E89"/>
<path d="M11.4805 36.4925C12.0287 36.1498 12.5427 36.0128 13.1938 35.9785C12.6798 36.4925 12.063 36.6638 11.4805 36.4925Z" fill="#3A4E89"/>
<path d="M9.35532 33.854C9.76652 33.9568 10.5204 34.0939 10.9316 34.1967C10.863 34.2652 10.863 34.4023 10.7602 34.5051C10.4176 34.4365 9.93785 34.2995 9.66372 34.2309C9.11546 34.1281 9.0812 34.1624 9.35532 33.854Z" fill="#3A4E89"/>
<path d="M9.38974 33.3745C9.86946 33.4773 10.3835 33.6144 10.8632 33.7172C10.8632 33.7857 10.8289 33.8542 10.8289 33.9228C10.3492 33.82 9.83519 33.7172 9.35547 33.6144C9.35547 33.5458 9.38974 33.4773 9.38974 33.3745Z" fill="#3A4E89"/>
<path d="M9.87159 35.3621C9.66599 35.3621 9.49466 35.3963 9.28906 35.3963C9.28906 35.3621 9.32333 35.2935 9.32333 35.2593C9.49466 35.3278 9.66599 35.3621 9.87159 35.3621Z" fill="#3A4E89"/>
<path d="M9.83594 35.3961C10.0415 35.3961 10.2129 35.3961 10.4185 35.3961C10.4185 35.4304 10.3842 35.4989 10.3842 35.5332C10.2129 35.4989 10.0415 35.4304 9.83594 35.3961Z" fill="#3A4E89"/>
<path d="M10.2815 35.876C10.0074 35.9103 9.73329 35.9445 9.42489 35.9788C9.42489 35.9103 9.39062 35.8417 9.39062 35.7732C9.66475 35.7389 9.93888 35.7047 10.213 35.6704C10.2473 35.7389 10.2815 35.8075 10.2815 35.876Z" fill="#3A4E89"/>
<path d="M47.324 67.6406C47.2897 68.1204 47.0156 68.2231 46.7072 68.3259C45.9191 68.5658 45.1652 68.9427 44.3086 68.8399C45.2338 68.2917 46.2618 68.0176 47.324 67.6406Z" fill="#3A4E89"/>
<path d="M48.7969 67.3322C49.1395 67.2294 49.4479 67.1266 49.7906 67.0581C49.5507 67.4693 49.2081 67.5036 48.8654 67.5721C48.8311 67.4693 48.7969 67.4008 48.7969 67.3322Z" fill="#3A4E89"/>
<path d="M27.175 36.7327C26.7638 36.6984 26.3869 36.5271 25.9414 36.2529C26.3526 36.2529 26.7981 36.4243 27.175 36.7327Z" fill="#3A4E89"/>
<path d="M26.3164 35.9443C26.6933 35.9443 27.0017 36.0814 27.3787 36.287C27.0017 36.3213 26.8304 36.287 26.3164 35.9443Z" fill="#3A4E89"/>
<path d="M23.7491 35.2593C23.8862 35.3278 23.989 35.3621 24.126 35.4306C24.126 35.4649 24.126 35.4649 24.0918 35.4991C23.9547 35.4649 23.8519 35.4306 23.7148 35.3621C23.7148 35.3278 23.7148 35.2935 23.7491 35.2593Z" fill="#3A4E89"/>
<path d="M30.0182 36.4582C29.5042 36.3554 29.1273 36.2869 28.6133 36.1841C28.6475 36.0128 28.7161 35.7729 28.7503 35.6016C29.1615 35.6701 29.4014 35.8072 29.7783 35.8757C30.121 35.91 30.1895 36.0813 30.0182 36.4582Z" fill="#3A4E89"/>
<path d="M30.292 37.6235C29.7095 37.7606 29.4353 37.5893 28.75 37.3837C29.2983 37.2123 29.6752 37.3494 30.292 37.6235Z" fill="#3A4E89"/>
<path d="M28.75 36.8354C29.2983 36.6983 29.5039 36.8696 30.1206 37.1095C29.6067 37.2466 29.6067 37.178 28.75 36.8354Z" fill="#3A4E89"/>
<path d="M29.435 36.5613C29.2636 36.5613 29.058 36.5613 28.8867 36.5956C28.8867 36.5613 28.8867 36.4928 28.8867 36.4585C29.058 36.4928 29.2294 36.527 29.435 36.5613Z" fill="#3A4E89"/>
<path d="M28.75 35.1908C29.2983 35.088 29.5381 35.2593 30.1206 35.5335C29.6067 35.6363 29.6067 35.5677 28.75 35.1908Z" fill="#3A4E89"/>
<path d="M29.4375 34.9507C29.6088 34.9849 29.7802 34.9849 29.9515 35.0192C29.9515 35.0535 29.9172 35.122 29.9172 35.1563C29.7459 35.0877 29.6088 35.0192 29.4375 34.9507Z" fill="#3A4E89"/>
<path d="M29.435 34.9505C29.2636 34.9505 29.058 34.9505 28.8867 34.9505C28.8867 34.9163 28.8867 34.8477 28.921 34.8135C29.0923 34.8477 29.2636 34.9163 29.435 34.9505Z" fill="#3A4E89"/>
<path d="M30.8086 20.4905C31.0485 20.3877 31.117 20.045 31.0827 19.8052C31.6995 20.1478 31.9051 20.1478 32.4876 20.3534C32.3848 20.559 32.282 20.7304 32.1792 20.936C31.6652 20.7989 31.4597 20.6961 30.8086 20.4905Z" fill="#3A4E89"/>
<path d="M31.7306 22.2037C31.1823 21.9638 31.1138 21.861 30.5312 21.6212C30.634 21.4156 30.7026 21.1757 30.8054 21.0044C31.2508 21.1757 31.4222 21.3471 31.8334 21.4841C32.176 21.6212 32.0047 21.8268 31.7306 22.2037Z" fill="#3A4E89"/>
<path d="M31.2164 23.5059C30.8052 23.3003 30.6338 23.1289 30.2227 22.9233C30.2569 22.7177 30.394 22.5464 30.4283 22.3408C30.7709 22.4779 30.9765 22.615 31.2849 22.752C31.5248 22.8891 31.3534 23.0947 31.2164 23.5059Z" fill="#3A4E89"/>
<path d="M30.9096 24.6708C30.4641 24.4995 30.4298 24.3624 29.9844 24.2253C30.0186 24.0197 30.0529 23.8827 30.0872 23.7456C30.4298 23.8484 30.7725 23.9512 31.0809 24.054C31.355 24.1225 31.0466 24.2939 30.9096 24.6708Z" fill="#3A4E89"/>
<path d="M30.8744 25.185C30.3261 25.2192 30.5317 25.185 29.9492 25.0136C30.4632 24.9108 30.3604 24.9451 30.8744 25.185Z" fill="#3A4E89"/>
<path d="M28.8867 34.2655C28.8867 30.1535 29.4692 27.4808 29.949 25.4248C30.2916 25.5619 30.5658 25.4591 30.8742 25.5619C30.2231 27.2752 29.7091 32.8263 29.7091 34.5053C29.5378 34.5396 29.0923 34.4025 28.8867 34.2655Z" fill="#3A4E89"/>
<path d="M29.5742 41.0844C29.8141 40.6732 30.0197 40.6047 30.4994 40.3306C30.2938 40.7418 30.2595 40.7075 29.5742 41.0844Z" fill="#3A4E89"/>
<path d="M30.0547 42.4209C30.226 41.8727 30.6029 41.8041 30.9456 41.6328C30.8428 42.0097 30.8428 42.0097 30.0547 42.4209Z" fill="#3A4E89"/>
<path d="M30.9103 41.0156C30.5333 41.4268 30.2935 41.4268 29.7109 41.7009C30.0193 41.2898 30.3277 41.187 30.9103 41.0156Z" fill="#3A4E89"/>
<path d="M36.5991 42.1808C36.5991 42.3179 36.5649 42.9004 36.2565 42.9347C35.811 42.9689 34.0977 42.7976 33.2411 43.0375C33.104 43.0717 33.0012 42.5578 32.9669 42.4207C32.8641 42.0095 36.5991 41.9067 36.5991 42.1808Z" fill="#3A4E89"/>
<path d="M36.5995 41.8039C35.7086 41.7011 34.475 41.4956 32.8645 41.941L32.7617 41.5641C33.6869 41.5298 35.7429 41.3585 36.7023 41.3242L36.5995 41.8039Z" fill="#3A4E89"/>
<path d="M36.7 40.5702C33.8559 40.4674 34.0958 41.1528 32.5195 40.7073L32.6909 41.3584C33.5818 41.3584 35.7405 41.0842 36.7 41.0842V40.5702Z" fill="#3A4E89"/>
</svg>
