<svg width="22" height="22" viewBox="0 0 22 22" fill="none" xmlns="http://www.w3.org/2000/svg">
<path d="M1 11C1 16.523 5.477 21 11 21C16.523 21 21 16.523 21 11C21 5.477 16.523 1 11 1C5.477 1 1 5.477 1 11Z" stroke="#8C8E92" stroke-width="1.5" stroke-linecap="round" stroke-linejoin="round"/>
<path d="M11.9989 1.05078C11.9989 1.05078 14.9989 5.00078 14.9989 11.0008C14.9989 17.0008 11.9989 20.9508 11.9989 20.9508M9.99891 20.9508C9.99891 20.9508 6.99891 17.0008 6.99891 11.0008C6.99891 5.00078 9.99891 1.05078 9.99891 1.05078M1.62891 14.5008H20.3689M1.62891 7.50078H20.3689" stroke="#8C8E92" stroke-width="1.5" stroke-linecap="round" stroke-linejoin="round"/>
</svg>
