<svg width="40" height="40" viewBox="0 0 40 40" fill="none" xmlns="http://www.w3.org/2000/svg">
<path d="M15.2614 34.6189V29.5077C15.2613 28.2077 16.3212 27.1513 17.6344 27.1426H22.4445C23.7639 27.1426 24.8335 28.2015 24.8335 29.5077V29.5077V34.6348C24.8332 35.7386 25.7231 36.6407 26.8377 36.6666H30.0445C33.2412 36.6666 35.8327 34.1011 35.8327 30.9363V30.9363V16.3963C35.8156 15.1513 35.2251 13.9822 34.2293 13.2216L23.2622 4.47542C21.3409 2.95253 18.6097 2.95253 16.6884 4.47542L5.76939 13.2375C4.76978 13.995 4.17833 15.166 4.16602 16.4122V30.9363C4.16602 34.1011 6.75747 36.6666 9.9542 36.6666H13.161C14.3033 36.6666 15.2293 35.7498 15.2293 34.6189V34.6189" stroke="white" stroke-width="1.5" stroke-linecap="round" stroke-linejoin="round"/>
</svg>
