<svg width="21" height="21" viewBox="0 0 21 21" fill="none" xmlns="http://www.w3.org/2000/svg">
<path  fill-rule="evenodd" clip-rule="evenodd" d="M7.67172 19.2608V16.1497C7.6717 15.3583 8.34335 14.7153 9.17551 14.71H12.2237C13.0599 14.71 13.7377 15.3546 13.7377 16.1497V19.2705C13.7375 19.9424 14.3014 20.4915 15.0078 20.5072H17.0399C19.0657 20.5072 20.7079 18.9456 20.7079 17.0192V8.16882C20.6971 7.41098 20.3229 6.69934 19.6919 6.23641L12.7419 0.912625C11.5244 -0.0143524 9.79358 -0.0143524 8.57602 0.912625L1.65657 6.24607C1.02311 6.70712 0.648305 7.41995 0.640503 8.17848V17.0192C0.640503 18.9456 2.28273 20.5072 4.30852 20.5072H6.34067C7.06456 20.5072 7.6514 19.9492 7.6514 19.2608" fill="#8C8E92"/>
</svg>
