<svg width="19" height="18" viewBox="0 0 19 18" fill="none" xmlns="http://www.w3.org/2000/svg">
<path fill-rule="evenodd" clip-rule="evenodd" d="M13.2119 12.5174C12.9106 12.8186 12.9106 13.3071 13.2119 13.6083C13.5131 13.9096 14.0016 13.9096 14.3028 13.6083L18.4171 9.49405C18.7184 9.19279 18.7184 8.70434 18.4171 8.40308L14.3028 4.2888C14.0016 3.98753 13.5131 3.98753 13.2119 4.2888C12.9106 4.59006 12.9106 5.0785 13.2119 5.37976L16.0093 8.17714L8.30554 8.17714C8.04991 8.17714 7.84268 8.52252 7.84268 8.94857C7.84268 9.37462 8.04991 9.72 8.30554 9.72L16.0092 9.72L13.2119 12.5174ZM2.69717 16.4571L11.6572 16.4571C12.0359 16.4571 12.3429 16.8025 12.3429 17.2286C12.3429 17.6546 12.0359 18 11.6572 18L2.69717 18C1.22139 18 2.67029e-05 16.7509 2.67029e-05 15.1714L2.67029e-05 2.82857C2.67029e-05 1.24912 1.22139 0 2.69717 0L11.6572 0C12.0359 0 12.3429 0.345381 12.3429 0.771429C12.3429 1.19748 12.0359 1.54286 11.6572 1.54286L2.69717 1.54286C1.95119 1.54286 1.37146 2.13576 1.37146 2.82857L1.37146 15.1714C1.37146 15.8642 1.95119 16.4571 2.69717 16.4571Z" fill="url(#paint0_linear_4053:2050)"/>
<defs>
<linearGradient id="paint0_linear_4053:2050" x1="3.35066e-05" y1="-0.260869" x2="1.0682" y2="18.9759" gradientUnits="userSpaceOnUse">
<stop stop-color="#6AB1FE"/>
<stop offset="1" stop-color="#2B89EF"/>
</linearGradient>
</defs>
</svg>
