<svg width="159" height="28" viewBox="0 0 159 28" fill="none" xmlns="http://www.w3.org/2000/svg">
<path d="M38.4587 18.7971H35.529V23.3283H32.5993V18.3576C31.7009 18.924 30.7601 19.2072 29.777 19.2072C28.6442 19.2072 27.6416 18.9924 26.7692 18.5627C25.8968 18.133 25.2165 17.5178 24.7282 16.717C24.2464 15.9162 24.0056 14.9754 24.0056 13.8947V13.4455C24.0056 12.3713 24.2497 11.4338 24.738 10.633C25.2263 9.8257 25.9066 9.20721 26.779 8.77753C27.6514 8.34784 28.6507 8.133 29.777 8.133C30.9033 8.133 31.9027 8.34784 32.7751 8.77753C33.6475 9.20721 34.3246 9.8257 34.8063 10.633C35.2881 11.4338 35.529 12.3713 35.529 13.4455V16.424H38.4587V18.7971ZM29.777 16.7853C30.708 16.7853 31.4112 16.5282 31.8864 16.0139C32.3617 15.493 32.5993 14.7834 32.5993 13.8849V13.4748C32.5993 12.8758 32.4854 12.3583 32.2575 11.9221C32.0362 11.4859 31.7139 11.1506 31.2907 10.9162C30.8675 10.6753 30.363 10.5549 29.777 10.5549C28.8526 10.5549 28.1462 10.8153 27.6579 11.3361C27.1761 11.8504 26.9352 12.5633 26.9352 13.4748V13.8849C26.9352 14.4644 27.0459 14.9754 27.2673 15.4182C27.4951 15.8543 27.8239 16.1929 28.2536 16.4338C28.6833 16.6682 29.1911 16.7853 29.777 16.7853ZM44.2204 14.8517C43.4001 14.8517 42.8044 15.1675 42.4333 15.799V27.3908H39.611V8.32831H42.4333V13.9045C43.169 13.0126 44.1097 12.5666 45.2556 12.5666C46.3493 12.5666 47.2022 12.8889 47.8141 13.5334C48.4261 14.1779 48.7354 15.2066 48.7419 16.6193V23.3283H45.9099V16.6486C45.9099 15.9911 45.7699 15.5288 45.4899 15.2619C45.21 14.9885 44.7868 14.8517 44.2204 14.8517ZM62.5212 12.4982C63.5954 12.4982 64.4255 12.814 65.0114 13.4455C65.6039 14.0705 65.9033 15.0829 65.9099 16.4826V23.2599H63.0778V16.5217C63.0778 15.8576 62.9476 15.4019 62.6872 15.1545C62.4268 14.9071 62.0296 14.7834 61.4958 14.7834C61.0921 14.7834 60.7503 14.8648 60.4704 15.0275C60.197 15.1838 59.9658 15.4279 59.777 15.7599V23.3283H56.9548V22.2541C56.5381 22.6968 56.1019 23.0191 55.6462 23.2209C55.197 23.4227 54.7184 23.5236 54.2106 23.5236C53.1364 23.5236 52.3031 23.2111 51.7106 22.5861C51.1247 21.9546 50.8285 20.939 50.822 19.5392V12.7619H53.654V19.5002C53.654 20.1642 53.7842 20.62 54.0446 20.8674C54.305 21.1148 54.7022 21.2385 55.236 21.2385C55.6397 21.2385 55.9782 21.1603 56.2516 21.0041C56.5316 20.8413 56.766 20.5939 56.9548 20.2619V12.7619H59.777V13.7678C60.1937 13.3251 60.6266 13.0028 61.0759 12.801C61.5316 12.5991 62.0134 12.4982 62.5212 12.4982ZM76.154 8.32831H79.0934V18.4846C79.0934 19.5588 78.8623 20.4767 78.4001 21.2385C77.9378 21.9937 77.2966 22.5633 76.4763 22.9474C75.6559 23.3316 74.7119 23.5236 73.6442 23.5236C72.57 23.5236 71.6195 23.3316 70.7927 22.9474C69.9724 22.5633 69.3311 21.9937 68.8688 21.2385C68.4131 20.4833 68.1852 19.5653 68.1852 18.4846V8.32831H71.1247V18.4846C71.1247 19.396 71.3395 20.0698 71.7692 20.506C72.2054 20.9422 72.8304 21.1603 73.6442 21.1603C75.2783 21.1603 76.1149 20.3107 76.154 18.6115V8.32831ZM84.5036 14.3439V18.4846C84.5036 19.396 84.7184 20.0698 85.1481 20.506C85.5843 20.9422 86.2093 21.1603 87.0231 21.1603C87.8434 21.1603 88.4652 20.9488 88.8884 20.5256C89.3181 20.0959 89.5329 19.4579 89.5329 18.6115V16.9807H92.4724V18.4846C92.4724 19.5588 92.2412 20.4767 91.779 21.2385C91.3168 21.9937 90.6755 22.5633 89.8552 22.9474C89.0349 23.3316 88.0908 23.5236 87.0231 23.5236C85.9489 23.5236 84.9984 23.3316 84.1716 22.9474C83.3513 22.5633 82.71 21.9937 82.2477 21.2385C81.792 20.4833 81.5641 19.5653 81.5641 18.4846V8.32831H84.5036V11.9709H93.0681V14.3439H84.5036ZM97.7849 23.3283H94.8454V13.1721C94.8454 12.0978 95.0765 11.1831 95.5388 10.4279C96.001 9.6662 96.6423 9.09328 97.4626 8.70917C98.2829 8.32505 99.2269 8.133 100.295 8.133C101.369 8.133 102.316 8.32505 103.136 8.70917C103.963 9.09328 104.605 9.66294 105.06 10.4182C105.522 11.1734 105.754 12.0913 105.754 13.1721V16.9221H102.814V13.1721C102.814 12.2606 102.596 11.5868 102.16 11.1506C101.73 10.7144 101.108 10.4963 100.295 10.4963C99.4743 10.4963 98.8493 10.7111 98.4196 11.1408C97.9964 11.564 97.7849 12.1988 97.7849 13.0451V23.3283ZM112.658 14.8517C111.857 14.8517 111.261 15.1903 110.871 15.8674V23.3283H108.049V12.7619H110.695L110.793 13.9728C111.548 13.0353 112.56 12.5666 113.83 12.5666C114.884 12.5666 115.702 12.8791 116.281 13.5041C116.867 14.1291 117.163 15.1447 117.17 16.551V23.3283H114.338V16.59C114.338 15.939 114.201 15.4865 113.927 15.2326C113.654 14.9787 113.231 14.8517 112.658 14.8517ZM124.045 21.0529V23.3283H118.986V12.7619H121.808V21.0529H124.045ZM134.591 12.7619V23.3283H131.935L131.857 22.2443C131.161 23.0972 130.197 23.5236 128.966 23.5236C127.879 23.5236 127.023 23.2079 126.398 22.5764C125.773 21.9448 125.461 20.965 125.461 19.6369V10.6037H123.224V8.32831H128.283V19.6174C128.283 20.1773 128.416 20.5874 128.683 20.8478C128.95 21.1017 129.315 21.2287 129.777 21.2287C130.741 21.2287 131.401 20.8934 131.759 20.2228V12.7619H134.591ZM148.244 23.3283H146.017V27.3908H143.185V16.59C143.185 15.939 143.049 15.4865 142.775 15.2326C142.502 14.9787 142.078 14.8517 141.506 14.8517C140.705 14.8517 140.109 15.1903 139.718 15.8674V23.3283H136.896V12.7619H139.543L139.64 13.9728C140.396 13.0353 141.408 12.5666 142.677 12.5666C143.732 12.5666 144.549 12.8791 145.129 13.5041C145.715 14.1291 146.011 15.1447 146.017 16.551V21.0529H148.244V23.3283Z" fill="url(#paint0_linear)"/>
<path fill-rule="evenodd" clip-rule="evenodd" d="M11.4968 17.2254C11.6854 17.413 11.8845 17.5896 12.0932 17.7543C12.2153 17.8498 12.2322 17.9371 12.1916 18.0846C11.7406 19.7276 11.3013 21.3734 11.0239 23.0571C10.9546 23.4769 10.8972 23.8999 10.8589 24.3238C10.8412 24.5229 10.7687 24.5736 10.5774 24.5736C9.44813 24.5684 8.31915 24.569 7.19004 24.5696C6.8308 24.5698 6.47155 24.57 6.11227 24.57C5.78745 24.5699 5.46262 24.5696 5.13777 24.5693C3.98213 24.5682 2.82626 24.5672 1.6704 24.575C1.44715 24.5764 1.37379 24.5106 1.35147 24.2863C1.15468 22.3101 0.644131 20.4001 0.133235 18.4888C0.0976292 18.3556 0.0620213 18.2224 0.0265178 18.0892C-0.00674264 17.9663 -0.0299794 17.869 0.0930387 17.7694C1.26262 16.8243 2.10006 15.6193 2.79625 14.3088C3.85147 12.299 4.54675 10.1622 5.04793 7.95957C5.22173 7.19707 5.35782 6.42567 5.49383 5.65471C5.53218 5.43731 5.57053 5.21994 5.60971 5.00282C5.62475 4.91923 5.57964 4.80458 5.52542 4.73287C5.38874 4.55746 5.40104 4.34186 5.57099 4.2336C5.60396 4.21122 5.64206 4.19759 5.68172 4.19401C5.72139 4.19042 5.7613 4.197 5.79774 4.21311C5.83417 4.22923 5.86592 4.25436 5.89002 4.28615C5.91411 4.31794 5.92976 4.35534 5.93548 4.39485C5.94236 4.45549 5.94418 4.51661 5.94095 4.57756C5.94107 5.21219 5.94094 5.84683 5.94082 6.48146C5.94046 8.30568 5.9401 10.1299 5.94551 11.9541C5.94642 12.1825 5.89311 12.2917 5.6448 12.2739C5.45754 12.2606 5.35548 12.3826 5.31766 12.5603C5.21332 13.0522 5.28486 13.1399 5.78604 13.1399C5.88476 13.1399 5.98348 13.1392 6.08219 13.1384C6.27963 13.1369 6.47707 13.1354 6.6745 13.1399C6.8326 13.1436 6.89639 13.0792 6.88637 12.9239C6.8829 12.8702 6.88361 12.8163 6.88432 12.7624C6.88491 12.7172 6.8855 12.672 6.88363 12.627C6.87315 12.3835 6.77747 12.2693 6.53463 12.2739C6.29178 12.2784 6.24622 12.1716 6.24622 11.9564C6.24865 9.50471 6.24986 7.05332 6.24986 4.60223V4.51087C6.24576 4.37018 6.2772 4.23269 6.43211 4.21305C6.52005 4.20026 6.67633 4.24457 6.69956 4.30441C6.74376 4.41632 6.767 4.60862 6.70275 4.67623C6.56343 4.82311 6.58503 4.962 6.61057 5.1262L6.61163 5.13301C7.06406 8.08062 7.8131 10.9433 9.08201 13.6515C9.69893 14.9666 10.4603 16.1926 11.4968 17.2254ZM5.62338 20.2972C6.66721 20.4726 7.67141 20.0488 8.13568 19.216C8.64143 18.308 8.57217 17.4035 8.0637 16.5261C7.79488 16.0597 7.57573 15.581 7.46729 15.0548C7.43577 14.9014 7.4102 14.7471 7.38463 14.5927C7.36549 14.4771 7.34633 14.3615 7.32468 14.2463C7.2454 13.8315 7.05632 13.6666 6.64124 13.6607C6.38365 13.6576 6.12545 13.6586 5.86731 13.6596C5.73827 13.6602 5.60924 13.6607 5.48032 13.6607C5.36533 13.6543 5.25138 13.6855 5.15564 13.7497C5.05991 13.8139 4.98757 13.9075 4.94952 14.0165C4.89825 14.1514 4.86456 14.2923 4.84928 14.4358C4.74996 15.1991 4.52943 15.9172 4.11482 16.574C3.85375 16.9879 3.73938 17.4515 3.72207 17.9444C3.73003 18.0054 3.73689 18.0666 3.74374 18.1278C3.75884 18.2628 3.77394 18.3977 3.80089 18.53C3.98314 19.4088 4.74996 20.1506 5.62338 20.2972ZM1.4349 25.0079C1.61396 25.1956 1.71238 25.3842 1.71238 25.5752C1.71238 25.7551 1.62444 25.9374 1.43445 26.1229C1.40711 26.1493 1.37795 26.1758 1.34651 26.2023H10.8549C10.8235 26.1754 10.7943 26.1489 10.767 26.1229C10.5774 25.9369 10.4895 25.7547 10.4895 25.5747C10.4895 25.3829 10.5865 25.1933 10.7688 25.0051C10.7948 24.9786 10.8221 24.9517 10.8508 24.9252H1.35016C1.37932 24.9521 1.40666 24.9791 1.43263 25.0056L1.4349 25.0079Z" fill="url(#paint1_linear)"/>
<defs>
<linearGradient id="paint0_linear" x1="12.8588" y1="28" x2="159.839" y2="5.91506" gradientUnits="userSpaceOnUse">
<stop offset="0.0128254" stop-color="#5366A2"/>
<stop offset="1" stop-color="#283C79"/>
</linearGradient>
<linearGradient id="paint1_linear" x1="1.36473e-07" y1="26.2024" x2="12.5557" y2="26.0042" gradientUnits="userSpaceOnUse">
<stop offset="0.0128254" stop-color="#5366A2"/>
<stop offset="1" stop-color="#283C79"/>
</linearGradient>
</defs>
</svg>
