<svg width="210" height="88" viewBox="0 0 210 88" fill="none" xmlns="http://www.w3.org/2000/svg">
    <path
        d="M24.3739 72.5538H19.4332V80.1717H14.4926V71.815C12.9775 72.7672 11.391 73.2433 9.73309 73.2433C7.82271 73.2433 6.1319 72.8821 4.66069 72.1597C3.18947 71.4374 2.04214 70.403 1.21869 69.0568C0.406229 67.7105 0 66.1289 0 64.312V63.5567C0 61.7508 0.411722 60.1746 1.23516 58.8284C2.05861 57.4712 3.20594 56.4313 4.67715 55.709C6.14837 54.9866 7.83368 54.6254 9.73309 54.6254C11.6325 54.6254 13.3178 54.9866 14.789 55.709C16.2602 56.4313 17.4021 57.4712 18.2146 58.8284C19.027 60.1746 19.4332 61.7508 19.4332 63.5567V68.5642H24.3739V72.5538ZM9.73309 69.1717C11.3031 69.1717 12.4889 68.7393 13.2904 67.8747C14.0918 66.999 14.4926 65.806 14.4926 64.2956V63.606C14.4926 62.599 14.3005 61.7289 13.9162 60.9956C13.5429 60.2622 12.9994 59.6985 12.2858 59.3045C11.5721 58.8995 10.7212 58.697 9.73309 58.697C8.17404 58.697 6.98279 59.1349 6.15935 60.0105C5.34689 60.8752 4.94065 62.0737 4.94065 63.606V64.2956C4.94065 65.2697 5.1273 66.1289 5.5006 66.8732C5.88487 67.6065 6.43932 68.1757 7.16395 68.5806C7.88858 68.9747 8.74496 69.1717 9.73309 69.1717Z"
        fill="white" />
    <path
        d="M34.0905 65.9209C32.7071 65.9209 31.7025 66.4518 31.0767 67.5135V87.0015H26.3172V54.9537H31.0767V64.3284C32.3174 62.8289 33.9039 62.0791 35.8362 62.0791C37.6807 62.0791 39.119 62.6209 40.1511 63.7045C41.1831 64.7881 41.7046 66.5175 41.7156 68.8926V80.1717H36.9396V68.9418C36.9396 67.8364 36.7036 67.0592 36.2315 66.6105C35.7594 66.1508 35.0457 65.9209 34.0905 65.9209Z"
        fill="white" />
    <path
        d="M64.9532 61.9642C66.7648 61.9642 68.1646 62.4951 69.1527 63.5567C70.1518 64.6075 70.6569 66.3095 70.6679 68.6627V80.0568H65.8919V68.7284C65.8919 67.612 65.6723 66.8458 65.2331 66.4299C64.794 66.014 64.1242 65.806 63.2239 65.806C62.5432 65.806 61.9668 65.9428 61.4947 66.2165C61.0336 66.4791 60.6438 66.8896 60.3254 67.4478V80.1717H55.5659V78.3657C54.8633 79.11 54.1276 79.6518 53.3591 79.9911C52.6015 80.3304 51.7946 80.5 50.9382 80.5C49.1266 80.5 47.7213 79.9747 46.7221 78.9239C45.734 77.8622 45.2345 76.1548 45.2235 73.8015V62.4075H49.9995V73.7359C49.9995 74.8523 50.219 75.6185 50.6582 76.0344C51.0974 76.4503 51.7671 76.6583 52.6674 76.6583C53.3481 76.6583 53.919 76.5269 54.3802 76.2642C54.8523 75.9906 55.2475 75.5747 55.5659 75.0165V62.4075H60.3254V64.0985C61.0281 63.3543 61.7582 62.8125 62.5158 62.4732C63.2843 62.1339 64.0968 61.9642 64.9532 61.9642Z"
        fill="white" />
    <path
        d="M87.9437 54.9537H92.9008V72.0284C92.9008 73.8344 92.5111 75.3777 91.7315 76.6583C90.952 77.9279 89.8706 78.8856 88.4872 79.5314C87.1038 80.1772 85.5118 80.5 83.7112 80.5C81.8996 80.5 80.2967 80.1772 78.9023 79.5314C77.5189 78.8856 76.4375 77.9279 75.6579 76.6583C74.8894 75.3886 74.5051 73.8453 74.5051 72.0284V54.9537H79.4622V72.0284C79.4622 73.5607 79.8245 74.6936 80.5492 75.4269C81.2848 76.1602 82.3388 76.5269 83.7112 76.5269C86.467 76.5269 87.8778 75.0986 87.9437 72.2418V54.9537Z"
        fill="white" />
    <path
        d="M102.025 65.0672V72.0284C102.025 73.5607 102.387 74.6936 103.112 75.4269C103.847 76.1602 104.901 76.5269 106.274 76.5269C107.657 76.5269 108.705 76.1712 109.419 75.4597C110.144 74.7374 110.506 73.6647 110.506 72.2418V69.5H115.463V72.0284C115.463 73.8344 115.073 75.3777 114.294 76.6583C113.514 77.9279 112.433 78.8856 111.049 79.5314C109.666 80.1772 108.074 80.5 106.274 80.5C104.462 80.5 102.859 80.1772 101.465 79.5314C100.081 78.8856 98.9998 77.9279 98.2203 76.6583C97.4517 75.3886 97.0674 73.8453 97.0674 72.0284V54.9537H102.025V61.0776H116.468V65.0672H102.025Z"
        fill="white" />
    <path
        d="M124.422 80.1717H119.465V63.097C119.465 61.2911 119.855 59.7532 120.634 58.4836C121.414 57.203 122.495 56.2398 123.879 55.594C125.262 54.9483 126.854 54.6254 128.655 54.6254C130.466 54.6254 132.064 54.9483 133.447 55.594C134.841 56.2398 135.923 57.1975 136.691 58.4672C137.471 59.7368 137.861 61.2801 137.861 63.097V69.4015H132.904V63.097C132.904 61.5647 132.536 60.4319 131.8 59.6985C131.076 58.9652 130.027 58.5985 128.655 58.5985C127.271 58.5985 126.217 58.9597 125.493 59.6821C124.779 60.3936 124.422 61.4607 124.422 62.8836V80.1717Z"
        fill="white" />
    <path
        d="M149.504 65.9209C148.154 65.9209 147.149 66.4901 146.49 67.6284V80.1717H141.731V62.4075H146.194L146.359 64.4433C147.632 62.8672 149.34 62.0791 151.481 62.0791C153.259 62.0791 154.637 62.6045 155.614 63.6553C156.602 64.706 157.102 66.4135 157.113 68.7776V80.1717H152.337V68.8433C152.337 67.7488 152.106 66.9881 151.645 66.5612C151.184 66.1344 150.47 65.9209 149.504 65.9209Z"
        fill="white" />
    <path d="M168.707 76.3463V80.1717H160.176V62.4075H164.936V76.3463H168.707Z" fill="white" />
    <path
        d="M186.493 62.4075V80.1717H182.014L181.882 78.3493C180.707 79.7831 179.082 80.5 177.007 80.5C175.174 80.5 173.73 79.9692 172.676 78.9075C171.622 77.8458 171.095 76.1986 171.095 73.9657V58.7791H167.324V54.9537H175.854V73.9329C175.854 74.8742 176.079 75.5637 176.53 76.0015C176.98 76.4284 177.595 76.6418 178.374 76.6418C179.999 76.6418 181.113 76.0782 181.717 74.9508V62.4075H186.493Z"
        fill="white" />
    <path
        d="M209.517 80.1717H205.762V87.0015H200.986V68.8433C200.986 67.7488 200.755 66.9881 200.294 66.5612C199.833 66.1344 199.119 65.9209 198.153 65.9209C196.803 65.9209 195.798 66.4901 195.139 67.6284V80.1717H190.38V62.4075H194.843L195.008 64.4433C196.281 62.8672 197.989 62.0791 200.13 62.0791C201.908 62.0791 203.286 62.6045 204.263 63.6553C205.251 64.706 205.751 66.4135 205.762 68.7776V76.3463H209.517V80.1717Z"
        fill="white" />
</svg>