<svg width="340" height="35" viewBox="0 0 340 35" fill="none" xmlns="http://www.w3.org/2000/svg">
<path d="M56.8438 19.2188H54.4844V23H52.5078V14.7734C52.5078 13.9818 52.3073 13.3932 51.9062 13.0078C51.5104 12.6172 50.9505 12.4219 50.2266 12.4219C49.513 12.4219 48.9531 12.6172 48.5469 13.0078C48.1458 13.3984 47.9453 13.987 47.9453 14.7734V17.875H45.9844V14.7734C45.9844 13.9297 46.1641 13.2135 46.5234 12.625C46.888 12.0312 47.3906 11.5859 48.0312 11.2891C48.6719 10.9922 49.4036 10.8438 50.2266 10.8438C51.0339 10.8438 51.7578 10.9948 52.3984 11.2969C53.0443 11.5938 53.5521 12.0391 53.9219 12.6328C54.2969 13.2214 54.4844 13.9349 54.4844 14.7734V17.6328H56.8438V19.2188ZM66.3047 21.6094C67.0703 21.6094 67.612 21.2969 67.9297 20.6719V14.5469H69.8203V23H68.0391L67.9844 22.1172C67.3854 22.8099 66.5703 23.1562 65.5391 23.1562C64.4193 23.1562 63.6484 22.7266 63.2266 21.8672C62.612 22.7266 61.7448 23.1562 60.625 23.1562C58.776 23.1562 57.849 22.125 57.8438 20.0625V14.5469H59.7422V20.0312C59.7422 20.625 59.8698 21.0365 60.125 21.2656C60.3802 21.4948 60.7604 21.6094 61.2656 21.6094C61.6875 21.6094 62.0365 21.4974 62.3125 21.2734C62.5885 21.0443 62.7812 20.7344 62.8906 20.3438V14.5469H64.7891V20.0156C64.7891 20.5833 64.9167 20.9922 65.1719 21.2422C65.4323 21.487 65.8099 21.6094 66.3047 21.6094ZM76.9922 23L76.9453 22.1719C76.3932 22.8281 75.6016 23.1562 74.5703 23.1562C73.7005 23.1562 73.0182 22.9036 72.5234 22.3984C72.0286 21.888 71.7812 21.1016 71.7812 20.0391V14.5469H73.6797V20.0234C73.6797 20.5911 73.8021 20.9974 74.0469 21.2422C74.2969 21.4818 74.6224 21.6016 75.0234 21.6016C75.9245 21.6016 76.5443 21.276 76.8828 20.625V14.5469H78.7812V23H76.9922ZM89.1953 21.6094C89.9609 21.6094 90.5026 21.2969 90.8203 20.6719V14.5469H92.7109V23H90.9297L90.875 22.1172C90.276 22.8099 89.4609 23.1562 88.4297 23.1562C87.3099 23.1562 86.5391 22.7266 86.1172 21.8672C85.5026 22.7266 84.6354 23.1562 83.5156 23.1562C81.6667 23.1562 80.7396 22.125 80.7344 20.0625V14.5469H82.6328V20.0312C82.6328 20.625 82.7604 21.0365 83.0156 21.2656C83.2708 21.4948 83.651 21.6094 84.1562 21.6094C84.5781 21.6094 84.9271 21.4974 85.2031 21.2734C85.4792 21.0443 85.6719 20.7344 85.7812 20.3438V14.5469H87.6797V20.0156C87.6797 20.5833 87.8073 20.9922 88.0625 21.2422C88.3229 21.487 88.7005 21.6094 89.1953 21.6094ZM103.133 21.6094C103.898 21.6094 104.44 21.2969 104.758 20.6719V14.5469H106.648V26.25H104.758V22.1172C104.211 22.8099 103.414 23.1562 102.367 23.1562C101.247 23.1562 100.477 22.7266 100.055 21.8672C99.4401 22.7266 98.5729 23.1562 97.4531 23.1562C95.6042 23.1562 94.6771 22.125 94.6719 20.0625V14.5469H96.5703V20.0312C96.5703 20.625 96.6979 21.0365 96.9531 21.2656C97.2083 21.4948 97.5885 21.6094 98.0938 21.6094C98.5156 21.6094 98.8646 21.4974 99.1406 21.2734C99.4167 21.0443 99.6094 20.7344 99.7188 20.3438V14.5469H101.617V20.0156C101.617 20.5833 101.745 20.9922 102 21.2422C102.26 21.487 102.638 21.6094 103.133 21.6094ZM112.453 24.7266V26.25H108.719V14.5469H110.617V24.7266H112.453ZM121.57 21.6094C122.336 21.6094 122.878 21.2969 123.195 20.6719V14.5469H125.086V23H123.305L123.25 22.1172C122.651 22.8099 121.836 23.1562 120.805 23.1562C119.685 23.1562 118.914 22.7266 118.492 21.8672C117.878 22.7266 117.01 23.1562 115.891 23.1562C114.042 23.1562 113.115 22.125 113.109 20.0625V14.5469H115.008V20.0312C115.008 20.625 115.135 21.0365 115.391 21.2656C115.646 21.4948 116.026 21.6094 116.531 21.6094C116.953 21.6094 117.302 21.4974 117.578 21.2734C117.854 21.0443 118.047 20.7344 118.156 20.3438V14.5469H120.055V20.0156C120.055 20.5833 120.182 20.9922 120.438 21.2422C120.698 21.487 121.076 21.6094 121.57 21.6094ZM134.305 14.5469V23H132.516L132.469 22.1719C131.917 22.8281 131.125 23.1562 130.094 23.1562C129.229 23.1562 128.549 22.9036 128.055 22.3984C127.56 21.8932 127.31 21.1068 127.305 20.0391V12.5234H125.461V11H129.203V20.0234C129.203 20.5911 129.326 20.9974 129.57 21.2422C129.82 21.4818 130.146 21.6016 130.547 21.6016C131.448 21.6016 132.068 21.276 132.406 20.625V14.5469H134.305Z" fill="#050505"/>
<path d="M241.047 19.2188H238.688V23H236.711V14.7734C236.711 13.9818 236.51 13.3932 236.109 13.0078C235.714 12.6172 235.154 12.4219 234.43 12.4219C233.716 12.4219 233.156 12.6172 232.75 13.0078C232.349 13.3984 232.148 13.987 232.148 14.7734V17.875H230.188V14.7734C230.188 13.9297 230.367 13.2135 230.727 12.625C231.091 12.0312 231.594 11.5859 232.234 11.2891C232.875 10.9922 233.607 10.8438 234.43 10.8438C235.237 10.8438 235.961 10.9948 236.602 11.2969C237.247 11.5938 237.755 12.0391 238.125 12.6328C238.5 13.2214 238.688 13.9349 238.688 14.7734V17.6328H241.047V19.2188ZM250.508 21.6094C251.273 21.6094 251.815 21.2969 252.133 20.6719V14.5469H254.023V23H252.242L252.188 22.1172C251.589 22.8099 250.773 23.1562 249.742 23.1562C248.622 23.1562 247.852 22.7266 247.43 21.8672C246.815 22.7266 245.948 23.1562 244.828 23.1562C242.979 23.1562 242.052 22.125 242.047 20.0625V14.5469H243.945V20.0312C243.945 20.625 244.073 21.0365 244.328 21.2656C244.583 21.4948 244.964 21.6094 245.469 21.6094C245.891 21.6094 246.24 21.4974 246.516 21.2734C246.792 21.0443 246.984 20.7344 247.094 20.3438V14.5469H248.992V20.0156C248.992 20.5833 249.12 20.9922 249.375 21.2422C249.635 21.487 250.013 21.6094 250.508 21.6094ZM261.195 23L261.148 22.1719C260.596 22.8281 259.805 23.1562 258.773 23.1562C257.904 23.1562 257.221 22.9036 256.727 22.3984C256.232 21.888 255.984 21.1016 255.984 20.0391V14.5469H257.883V20.0234C257.883 20.5911 258.005 20.9974 258.25 21.2422C258.5 21.4818 258.826 21.6016 259.227 21.6016C260.128 21.6016 260.747 21.276 261.086 20.625V14.5469H262.984V23H261.195ZM268.648 15.9375C267.883 15.9375 267.312 16.2786 266.938 16.9609V26.25H265.047V11H266.938V15.4766C267.552 14.7526 268.336 14.3906 269.289 14.3906C271.117 14.3906 272.034 15.4323 272.039 17.5156V23H270.141V17.5391C270.141 16.9661 270.016 16.5573 269.766 16.3125C269.521 16.0625 269.148 15.9375 268.648 15.9375ZM285.469 24.7266V26.25H277.984V14.5469H279.773L279.836 15.5156C280.456 14.7656 281.271 14.3906 282.281 14.3906C284.073 14.3906 284.971 15.4245 284.977 17.4922V23H283.078V17.5156C283.078 16.9479 282.956 16.5443 282.711 16.3047C282.466 16.0599 282.091 15.9375 281.586 15.9375C280.836 15.9375 280.268 16.2812 279.883 16.9688V24.7266H285.469ZM294.039 14.5469V23H292.25L292.203 22.1719C291.651 22.8281 290.859 23.1562 289.828 23.1562C288.964 23.1562 288.284 22.9036 287.789 22.3984C287.294 21.8932 287.044 21.1068 287.039 20.0391V12.5234H285.195V11H288.938V20.0234C288.938 20.5911 289.06 20.9974 289.305 21.2422C289.555 21.4818 289.88 21.6016 290.281 21.6016C291.182 21.6016 291.802 21.276 292.141 20.625V14.5469H294.039ZM306.789 18.9688H305.461V20.2812C305.461 20.8802 305.339 21.3958 305.094 21.8281C304.854 22.2604 304.508 22.5911 304.055 22.8203C303.602 23.0443 303.065 23.1562 302.445 23.1562C301.758 23.1562 301.174 23.0365 300.695 22.7969C300.221 22.5521 299.865 22.2214 299.625 21.8047C299.391 21.388 299.273 20.9219 299.273 20.4062V20.2188C299.273 19.6667 299.391 19.1823 299.625 18.7656C299.859 18.349 300.214 18.026 300.688 17.7969C301.161 17.5625 301.747 17.4453 302.445 17.4453H303.547C303.479 16.9714 303.206 16.6016 302.727 16.3359C302.247 16.0703 301.591 15.9375 300.758 15.9375C300.128 15.9375 299.557 16.0286 299.047 16.2109C298.536 16.388 298.19 16.6406 298.008 16.9688V26.25H296.109V14.5469H297.898L297.961 15.5156C298.253 15.1615 298.724 14.8854 299.375 14.6875C300.031 14.4896 300.714 14.3906 301.422 14.3906C302.109 14.3906 302.755 14.5104 303.359 14.75C303.964 14.9896 304.456 15.3411 304.836 15.8047C305.216 16.263 305.422 16.8099 305.453 17.4453H306.789V18.9688ZM303.562 18.9688H302.445C302.034 18.9688 301.719 19.0938 301.5 19.3438C301.281 19.5938 301.172 19.9323 301.172 20.3594C301.172 20.599 301.229 20.8151 301.344 21.0078C301.458 21.1953 301.612 21.3438 301.805 21.4531C302.003 21.5573 302.221 21.6094 302.461 21.6094C302.779 21.6094 303.042 21.5 303.25 21.2812C303.458 21.0573 303.562 20.7396 303.562 20.3281V18.9688ZM316.57 21.6094C317.336 21.6094 317.878 21.2969 318.195 20.6719V14.5469H320.086V23H318.305L318.25 22.1172C317.651 22.8099 316.836 23.1562 315.805 23.1562C314.685 23.1562 313.914 22.7266 313.492 21.8672C312.878 22.7266 312.01 23.1562 310.891 23.1562C309.042 23.1562 308.115 22.125 308.109 20.0625V14.5469H310.008V20.0312C310.008 20.625 310.135 21.0365 310.391 21.2656C310.646 21.4948 311.026 21.6094 311.531 21.6094C311.953 21.6094 312.302 21.4974 312.578 21.2734C312.854 21.0443 313.047 20.7344 313.156 20.3438V14.5469H315.055V20.0156C315.055 20.5833 315.182 20.9922 315.438 21.2422C315.698 21.487 316.076 21.6094 316.57 21.6094ZM325.469 26.3281C325.13 26.3281 324.76 26.2786 324.359 26.1797C323.964 26.0859 323.581 25.9323 323.211 25.7188C322.841 25.5104 322.539 25.2474 322.305 24.9297L323.203 23.7969C323.797 24.4896 324.516 24.8359 325.359 24.8359C325.995 24.8359 326.495 24.6589 326.859 24.3047C327.224 23.9557 327.406 23.4557 327.406 22.8047V22.2344C326.854 22.849 326.125 23.1562 325.219 23.1562C324.547 23.1562 323.956 22.974 323.445 22.6094C322.935 22.2448 322.539 21.7422 322.258 21.1016C321.982 20.4557 321.844 19.7318 321.844 18.9297V18.7031C321.844 17.849 321.982 17.0964 322.258 16.4453C322.534 15.7943 322.927 15.2891 323.438 14.9297C323.948 14.5703 324.547 14.3906 325.234 14.3906C326.203 14.3906 326.961 14.7214 327.508 15.3828L327.586 14.5469H329.305V22.7656C329.305 23.5104 329.143 24.151 328.82 24.6875C328.503 25.224 328.055 25.6302 327.477 25.9062C326.898 26.1875 326.229 26.3281 325.469 26.3281ZM323.742 18.8672C323.742 19.6745 323.906 20.3333 324.234 20.8438C324.562 21.349 325.052 21.6016 325.703 21.6016C326.484 21.6016 327.052 21.2682 327.406 20.6016V16.9062C327.057 16.2604 326.495 15.9375 325.719 15.9375C325.062 15.9375 324.568 16.1953 324.234 16.7109C323.906 17.2266 323.742 17.8906 323.742 18.7031V18.8672ZM339.406 24.5234H333.812V26.25H331.922V24.5234H330.828V23H331.922V14.5469H333.664L333.742 15.3984C334.315 14.7266 335.076 14.3906 336.023 14.3906C336.711 14.3906 337.302 14.5417 337.797 14.8438C338.292 15.1458 338.669 15.5859 338.93 16.1641C339.195 16.7422 339.328 17.4323 339.328 18.2344V18.3906C339.328 19.0833 339.193 19.7083 338.922 20.2656C338.656 20.8229 338.273 21.263 337.773 21.5859C337.279 21.9036 336.701 22.0625 336.039 22.0625C335.117 22.0625 334.375 21.7578 333.812 21.1484V23H339.406V24.5234ZM333.812 19.5469C334.161 20.2083 334.727 20.5391 335.508 20.5391C335.914 20.5391 336.26 20.4401 336.547 20.2422C336.839 20.0443 337.057 19.7812 337.203 19.4531C337.354 19.125 337.43 18.7682 337.43 18.3828V18.2266C337.43 17.4922 337.266 16.9271 336.938 16.5312C336.609 16.1354 336.128 15.9375 335.492 15.9375C334.711 15.9375 334.151 16.263 333.812 16.9141V19.5469Z" fill="#4A4A4A"/>
<mask id="path-4-inside-1" fill="white">
<path d="M35 17.5C35 27.165 27.165 35 17.5 35C7.83502 35 0 27.165 0 17.5C0 7.83502 7.83502 0 17.5 0C27.165 0 35 7.83502 35 17.5ZM2.975 17.5C2.975 25.5219 9.47806 32.025 17.5 32.025C25.5219 32.025 32.025 25.5219 32.025 17.5C32.025 9.47806 25.5219 2.975 17.5 2.975C9.47806 2.975 2.975 9.47806 2.975 17.5Z"/>
</mask>
<path d="M35 17.5C35 27.165 27.165 35 17.5 35C7.83502 35 0 27.165 0 17.5C0 7.83502 7.83502 0 17.5 0C27.165 0 35 7.83502 35 17.5ZM2.975 17.5C2.975 25.5219 9.47806 32.025 17.5 32.025C25.5219 32.025 32.025 25.5219 32.025 17.5C32.025 9.47806 25.5219 2.975 17.5 2.975C9.47806 2.975 2.975 9.47806 2.975 17.5Z" fill="#DEDFE7" stroke="#DEDFE7" stroke-width="2" mask="url(#path-4-inside-1)"/>
<path d="M17.5 1.4875C17.5 0.665977 18.1672 -0.00657059 18.9858 0.0631677C22.2699 0.342963 25.4194 1.54601 28.0633 3.54769C30.7072 5.54937 32.7195 8.2544 33.8798 11.3394C34.169 12.1084 33.7027 12.933 32.912 13.1559C32.1213 13.3788 31.3067 12.9146 31.0042 12.1508C30.0287 9.68829 28.3943 7.52976 26.2675 5.91958C24.1408 4.3094 21.6198 3.32185 18.9849 3.05109C18.1677 2.96711 17.5 2.30902 17.5 1.4875Z" fill="url(#paint0_linear)"/>
<path d="M19.6641 11.6094V23H17.4062V14.2891L14.7188 15.125V13.2969L19.4219 11.6094H19.6641Z" fill="url(#paint1_linear)"/>
<path d="M205.977 21.1797V23H198.188V21.4531L201.867 17.5312C202.409 16.9323 202.789 16.4349 203.008 16.0391C203.232 15.638 203.344 15.263 203.344 14.9141C203.344 14.4036 203.216 14.0052 202.961 13.7188C202.706 13.4271 202.344 13.2812 201.875 13.2812C201.526 13.2812 201.227 13.3646 200.977 13.5312C200.727 13.6927 200.536 13.9193 200.406 14.2109C200.281 14.5026 200.219 14.8333 200.219 15.2031H197.961C197.961 14.5156 198.122 13.888 198.445 13.3203C198.768 12.7474 199.229 12.2943 199.828 11.9609C200.427 11.6276 201.122 11.4609 201.914 11.4609C202.701 11.4609 203.37 11.5911 203.922 11.8516C204.474 12.1068 204.893 12.4766 205.18 12.9609C205.466 13.4453 205.609 14.0208 205.609 14.6875C205.609 15.1667 205.513 15.6354 205.32 16.0938C205.128 16.5521 204.854 17.0104 204.5 17.4688C204.146 17.9219 203.685 18.4479 203.117 19.0469L201.086 21.1797H205.977Z" fill="#CACCD8"/>
<mask id="path-8-inside-2" fill="white">
<path d="M219 17.5C219 27.165 211.165 35 201.5 35C191.835 35 184 27.165 184 17.5C184 7.83502 191.835 0 201.5 0C211.165 0 219 7.83502 219 17.5ZM186.975 17.5C186.975 25.5219 193.478 32.025 201.5 32.025C209.522 32.025 216.025 25.5219 216.025 17.5C216.025 9.47806 209.522 2.975 201.5 2.975C193.478 2.975 186.975 9.47806 186.975 17.5Z"/>
</mask>
<path d="M219 17.5C219 27.165 211.165 35 201.5 35C191.835 35 184 27.165 184 17.5C184 7.83502 191.835 0 201.5 0C211.165 0 219 7.83502 219 17.5ZM186.975 17.5C186.975 25.5219 193.478 32.025 201.5 32.025C209.522 32.025 216.025 25.5219 216.025 17.5C216.025 9.47806 209.522 2.975 201.5 2.975C193.478 2.975 186.975 9.47806 186.975 17.5Z" fill="#DEDFE7" stroke="#DEDFE7" stroke-width="2" mask="url(#path-8-inside-2)"/>
<path d="M148.5 17H172.5" stroke="#DEDFE7" stroke-width="2" stroke-linecap="round" stroke-linejoin="round"/>
<defs>
<linearGradient id="paint0_linear" x1="-0.507246" y1="35" x2="36.8892" y2="32.8493" gradientUnits="userSpaceOnUse">
<stop stop-color="#6AB1FE"/>
<stop offset="1" stop-color="#2B89EF"/>
</linearGradient>
<linearGradient id="paint1_linear" x1="12.8551" y1="27" x2="23.5653" y2="26.6758" gradientUnits="userSpaceOnUse">
<stop stop-color="#6AB1FE"/>
<stop offset="1" stop-color="#2B89EF"/>
</linearGradient>
</defs>
</svg>
