<svg width="40" height="40" viewBox="0 0 40 40" fill="none" xmlns="http://www.w3.org/2000/svg">
<path fill-rule="evenodd" clip-rule="evenodd" d="M20.3333 22C19.2288 22 18.3333 21.1046 18.3333 20C18.3333 18.8954 19.2288 18 20.3333 18C21.4379 18 22.3333 18.8954 22.3333 20C22.3333 21.1046 21.4379 22 20.3333 22ZM13 22C11.8954 22 11 21.1046 11 20C11 18.8954 11.8954 18 13 18C14.1046 18 15 18.8954 15 20C15 21.1046 14.1046 22 13 22ZM27.6667 22C26.5621 22 25.6667 21.1046 25.6667 20C25.6667 18.8954 26.5621 18 27.6667 18C28.7712 18 29.6667 18.8954 29.6667 20C29.6667 21.1046 28.7712 22 27.6667 22Z" fill="#8C8E92"/>
<rect opacity="0.1" width="40" height="40" rx="10" fill="#8C8E92"/>
</svg>
