<svg width="18" height="19" viewBox="0 0 18 19" fill="none" xmlns="http://www.w3.org/2000/svg">
<g clip-path="url(#clip0)">
<path d="M6.375 0.627441C6.375 0.316781 6.62684 0.0649414 6.9375 0.0649414H11.0625C11.3732 0.0649414 11.625 0.316781 11.625 0.627441C11.625 0.938102 11.3732 1.18994 11.0625 1.18994H10.8859C10.8918 1.29033 10.8719 1.40085 10.8507 1.51868C10.8297 1.63489 10.8075 1.75821 10.8075 1.88596C10.8075 2.47339 10.228 2.45997 9.44579 2.44187C9.30317 2.43857 9.15381 2.43511 8.99999 2.43511C8.84617 2.43511 8.6968 2.43857 8.55418 2.44187C7.77193 2.45997 7.19249 2.47339 7.19249 1.88596C7.19249 1.75821 7.17026 1.63489 7.14931 1.51868C7.12807 1.40085 7.10816 1.29033 7.11406 1.18994H6.9375C6.62684 1.18994 6.375 0.938102 6.375 0.627441Z" fill="url(#paint0_linear)"/>
<path fill-rule="evenodd" clip-rule="evenodd" d="M9 3.06494C4.85834 3.06494 1.5 6.42328 1.5 10.5649C1.5 14.7066 4.85834 18.0649 9 18.0649C13.1424 18.0649 16.5 14.7066 16.5 10.5649C16.5 6.42332 13.1424 3.06494 9 3.06494ZM8.97202 4.19C5.46455 4.20508 2.625 7.05393 2.625 10.5649C2.625 14.0853 5.47966 16.9399 9 16.9399C12.521 16.9399 15.375 14.0853 15.375 10.5649C15.375 10.5484 15.3749 10.5318 15.3748 10.5153H8.97202V4.19Z" fill="url(#paint1_linear)"/>
</g>
<defs>
<linearGradient id="paint0_linear" x1="1.28261" y1="18.0649" x2="17.3258" y2="17.2961" gradientUnits="userSpaceOnUse">
<stop stop-color="#6AB1FE"/>
<stop offset="1" stop-color="#2B89EF"/>
</linearGradient>
<linearGradient id="paint1_linear" x1="1.28261" y1="18.0649" x2="17.3258" y2="17.2961" gradientUnits="userSpaceOnUse">
<stop stop-color="#6AB1FE"/>
<stop offset="1" stop-color="#2B89EF"/>
</linearGradient>
<clipPath id="clip0">
<rect width="18" height="18" fill="white" transform="translate(0 0.0649414)"/>
</clipPath>
</defs>
</svg>
