<svg width="36" height="36" viewBox="0 0 36 36" fill="none" xmlns="http://www.w3.org/2000/svg">
<rect width="36" height="36" rx="8" fill="white" fill-opacity="0.12"/>
<rect x="0.5" y="0.5" width="35" height="35" rx="7.5" stroke="#DFE3E7" stroke-opacity="0.5"/>
<path fill-rule="evenodd" clip-rule="evenodd" d="M14.4113 19.159C13.874 19.159 13.4375 18.7225 13.4375 18.1852C13.4375 17.6495 13.874 17.213 14.4113 17.213C14.9486 17.213 15.3851 17.6495 15.3851 18.1852C15.3851 18.7225 14.9486 19.159 14.4113 19.159ZM18.1971 19.159C17.6597 19.159 17.2232 18.7225 17.2232 18.1852C17.2232 17.6495 17.6597 17.213 18.1971 17.213C18.7344 17.213 19.1709 17.6495 19.1709 18.1852C19.1709 18.7225 18.7344 19.159 18.1971 19.159ZM21.009 18.1852C21.009 18.7225 21.4455 19.159 21.9828 19.159C22.5201 19.159 22.9566 18.7225 22.9566 18.1852C22.9566 17.6495 22.5201 17.213 21.9828 17.213C21.4455 17.213 21.009 17.6495 21.009 18.1852Z" fill="white"/>
<path fill-rule="evenodd" clip-rule="evenodd" d="M18.016 9.66663C13.1743 9.66663 9.66602 13.6217 9.66602 18.0125C9.66602 19.4146 10.0743 20.8576 10.791 22.1762C10.9243 22.3941 10.941 22.6686 10.8493 22.9282L10.291 24.7977C10.166 25.2483 10.5493 25.5813 10.9743 25.4478L12.6577 24.9479C13.116 24.7977 13.4743 24.9888 13.8993 25.2483C15.116 25.9652 16.6327 26.3333 17.9993 26.3333C22.1327 26.3333 26.3327 23.1368 26.3327 17.9874C26.3327 13.5466 22.7493 9.66663 18.016 9.66663Z" stroke="white" stroke-width="1.5" stroke-linecap="round" stroke-linejoin="round"/>
</svg>
