<svg width="17" height="4" viewBox="0 0 17 4" fill="none" xmlns="http://www.w3.org/2000/svg">
    <path fill-rule="evenodd" clip-rule="evenodd" d="M4.44921 2C4.44921 2.39556 4.33193 2.78225 4.11217 3.11115C3.89241 3.44004 3.58004 3.6964 3.21459 3.84778C2.84914 3.99915 2.44697 4.03872 2.05901 3.96155C1.67105 3.88438 1.31473 3.69389 1.03502 3.41418C0.755318 3.13448 0.56483 2.77816 0.48766 2.3902C0.410489 2.00224 0.450054 1.60007 0.601429 1.23462C0.752805 0.869167 1.00916 0.556799 1.33806 0.337036C1.66696 0.117273 2.05365 0 2.44921 0C2.97964 0 3.48832 0.210743 3.86339 0.585815C4.23847 0.960888 4.44921 1.46957 4.44921 2ZM16.4492 2C16.4492 2.39556 16.3319 2.78225 16.1122 3.11115C15.8924 3.44004 15.58 3.6964 15.2146 3.84778C14.8491 3.99915 14.447 4.03872 14.059 3.96155C13.671 3.88438 13.3147 3.69389 13.035 3.41418C12.7553 3.13448 12.5648 2.77816 12.4877 2.3902C12.4105 2.00224 12.4501 1.60007 12.6014 1.23462C12.7528 0.869167 13.0092 0.556799 13.3381 0.337036C13.667 0.117273 14.0536 0 14.4492 0C14.9796 0 15.4883 0.210743 15.8634 0.585815C16.2385 0.960888 16.4492 1.46957 16.4492 2ZM10.4492 2C10.4492 2.39556 10.3319 2.78225 10.1122 3.11115C9.89241 3.44004 9.58004 3.6964 9.21459 3.84778C8.84914 3.99915 8.44697 4.03872 8.05901 3.96155C7.67105 3.88438 7.31473 3.69389 7.03502 3.41418C6.75532 3.13448 6.56483 2.77816 6.48766 2.3902C6.41049 2.00224 6.45005 1.60007 6.60143 1.23462C6.7528 0.869167 7.00916 0.556799 7.33806 0.337036C7.66696 0.117273 8.05365 0 8.44921 0C8.97964 0 9.48832 0.210743 9.86339 0.585815C10.2385 0.960888 10.4492 1.46957 10.4492 2Z" fill="#8C8E92"/>
</svg>
