<svg width="22" height="22" viewBox="0 0 22 22" fill="none" xmlns="http://www.w3.org/2000/svg">
    <path d="M14.5782 10.7212L14.0479 10.1909L14.0479 10.1909L14.5782 10.7212ZM14.5782 10.0376L14.0479 10.5679L14.0479 10.5679L14.5782 10.0376ZM11.9992 7.45845L12.5296 6.92813L12.5295 6.92803L11.9992 7.45845ZM11.3156 7.45845L10.7853 6.92812L10.7852 6.92813L11.3156 7.45845ZM2.31907 16.4554L1.78873 15.9251L1.62987 16.0839L1.58451 16.304L2.31907 16.4554ZM1.49121 20.4717L0.756651 20.3203C0.706277 20.5647 0.780744 20.8182 0.955314 20.9964C1.12988 21.1747 1.38169 21.2545 1.62709 21.2093L1.49121 20.4717ZM5.58169 19.7182L5.71757 20.4558L5.94704 20.4135L6.11203 20.2485L5.58169 19.7182ZM15.2885 3.79013L15.8189 3.2598L15.8189 3.2598L15.2885 3.79013ZM15.2885 3.48545L15.8189 4.01577L15.2885 3.48545ZM18.5514 6.74833L19.0817 7.27866L19.0817 7.27866L18.5514 6.74833ZM18.2467 6.74833L17.7164 7.27866L17.7164 7.27866L18.2467 6.74833ZM20.4464 4.54865L19.916 5.07898L19.916 5.07898L20.4464 4.54865ZM20.4464 4.85333L19.916 4.323L19.916 4.323L20.4464 4.85333ZM17.4882 1.59044L18.0185 1.06012L18.0185 1.06012L17.4882 1.59044ZM17.1835 1.59044L16.6532 1.06012L17.1835 1.59044ZM15.1085 11.2516C15.1811 11.1791 15.2812 11.0805 15.3562 10.9868C15.4277 10.8974 15.5846 10.685 15.5846 10.3794C15.5846 10.0738 15.4276 9.86137 15.3561 9.772C15.2812 9.67829 15.181 9.57974 15.1085 9.50724L14.0479 10.5679C14.0922 10.6122 14.1237 10.6437 14.1493 10.6705C14.1616 10.6832 14.1703 10.6927 14.1767 10.6997C14.183 10.7068 14.1853 10.7096 14.1848 10.7091C14.1845 10.7086 14.1794 10.7022 14.1719 10.6908C14.1644 10.6794 14.1525 10.66 14.14 10.6333C14.1134 10.577 14.0846 10.4894 14.0846 10.3794C14.0846 10.2695 14.1134 10.1819 14.14 10.1255C14.1525 10.0988 14.1644 10.0794 14.1719 10.068C14.1794 10.0566 14.1845 10.0502 14.1848 10.0498C14.1853 10.0492 14.183 10.052 14.1767 10.0591C14.1703 10.0661 14.1616 10.0756 14.1493 10.0883C14.1237 10.1151 14.0922 10.1466 14.0479 10.1909L15.1085 11.2516ZM15.1086 9.50725L12.5296 6.92813L11.4689 7.98876L14.0479 10.5679L15.1086 9.50725ZM12.5295 6.92803C12.457 6.85556 12.3584 6.75546 12.2647 6.68052C12.1754 6.60906 11.963 6.45212 11.6575 6.4521C11.3518 6.45207 11.1394 6.60902 11.05 6.68052C10.9563 6.75549 10.8578 6.85562 10.7853 6.92812L11.8459 7.98877C11.8903 7.94443 11.9218 7.91297 11.9485 7.88732C11.9612 7.8751 11.9707 7.86632 11.9777 7.86C11.9848 7.85363 11.9876 7.85138 11.9871 7.85183C11.9866 7.85221 11.9802 7.8573 11.9688 7.86481C11.9574 7.87233 11.938 7.88419 11.9113 7.89674C11.8549 7.92328 11.7673 7.95211 11.6573 7.9521C11.5474 7.95209 11.4598 7.92325 11.4034 7.89673C11.3768 7.88418 11.3574 7.87233 11.346 7.86482C11.3346 7.85732 11.3282 7.85224 11.3278 7.85187C11.3272 7.85142 11.3301 7.85368 11.3372 7.86006C11.3442 7.86638 11.3536 7.87517 11.3664 7.8874C11.3931 7.91306 11.4246 7.94452 11.469 7.98886L12.5295 6.92803ZM1.58451 16.304L0.756651 20.3203L2.22577 20.6231L3.05363 16.6068L1.58451 16.304ZM1.62709 21.2093L5.71757 20.4558L5.44581 18.9806L1.35533 19.7342L1.62709 21.2093ZM6.11203 20.2485L15.1086 11.2516L14.0479 10.1909L5.05135 19.1879L6.11203 20.2485ZM10.7852 6.92813L1.78873 15.9251L2.84941 16.9857L11.8459 7.98876L10.7852 6.92813ZM16.9579 2.12077L19.916 5.07898L20.9767 4.01832L18.0185 1.06012L16.9579 2.12077ZM19.916 4.323L18.021 6.218L19.0817 7.27866L20.9767 5.38365L19.916 4.323ZM18.777 6.218L15.8189 3.2598L14.7582 4.32045L17.7164 7.27866L18.777 6.218ZM15.8189 4.01577L17.7138 2.12077L16.6532 1.06012L14.7582 2.95512L15.8189 4.01577ZM15.8189 3.2598C16.0276 3.46856 16.0276 3.80702 15.8189 4.01577L14.7582 2.95512C14.3812 3.33215 14.3812 3.94342 14.7582 4.32045L15.8189 3.2598ZM18.021 6.218C18.2298 6.00924 18.5683 6.00924 18.777 6.218L17.7164 7.27866C18.0934 7.65569 18.7047 7.65569 19.0817 7.27866L18.021 6.218ZM19.916 5.07898C19.7073 4.87022 19.7073 4.53176 19.916 4.323L20.9767 5.38365C21.3537 5.00663 21.3537 4.39535 20.9767 4.01832L19.916 5.07898ZM18.0185 1.06012C17.6415 0.683087 17.0302 0.683085 16.6532 1.06012L17.7138 2.12077C17.5051 2.32954 17.1666 2.32953 16.9579 2.12077L18.0185 1.06012Z" fill="#8C8E92"/>
</svg>
