<svg width="20" height="20" viewBox="0 0 20 20" fill="none" xmlns="http://www.w3.org/2000/svg">
    <path d="M6.04175 5.83334H13.9584V4.16667C13.9584 2.50001 13.3334 1.66667 11.4584 1.66667H8.54175C6.66675 1.66667 6.04175 2.50001 6.04175 4.16667V5.83334Z" stroke="white" stroke-width="1.5" stroke-miterlimit="10" stroke-linecap="round" stroke-linejoin="round"/>
    <path d="M13.75 12.0823V15.6245C13.75 17.4304 12.9167 18.3333 11.25 18.3333H8.75C7.08333 18.3333 6.25 17.4304 6.25 15.6245V12.0823H13.75Z" stroke="white" stroke-width="1.5" stroke-miterlimit="10" stroke-linecap="round" stroke-linejoin="round"/>
    <path d="M17.5 8.33333V12.5C17.5 14.1667 16.6667 15 15 15H13.758V12.0943H6.24444V15H5C3.33333 15 2.5 14.1667 2.5 12.5V8.33333C2.5 6.66666 3.33333 5.83333 5 5.83333H15C16.6667 5.83333 17.5 6.66666 17.5 8.33333Z" stroke="white" stroke-width="1.5" stroke-miterlimit="10" stroke-linecap="round" stroke-linejoin="round"/>
    <path d="M15 12.0823H13.9917H5" stroke="white" stroke-width="1.5" stroke-miterlimit="10" stroke-linecap="round" stroke-linejoin="round"/>
</svg>

