<svg width="22" height="22" viewBox="0 0 22 22" fill="none" xmlns="http://www.w3.org/2000/svg">
<path fill-rule="evenodd" clip-rule="evenodd" d="M1.89234 7.43984L9.61984 3.22317C10.1698 2.92984 10.8298 2.92984 11.3798 3.22317L20.1065 7.98067C20.3998 8.14567 20.5832 8.44817 20.5832 8.78734V14.6632C20.5832 15.1673 20.1707 15.5798 19.6665 15.5798C19.1623 15.5798 18.7498 15.1673 18.7498 14.6632V9.24567L11.3798 13.2698C10.8298 13.5723 10.1698 13.5723 9.61984 13.2698L1.89234 9.05317C1.25984 8.70484 1.25984 7.78817 1.89234 7.43984ZM4.08318 14.654V12.0782L9.61985 15.1032C10.1698 15.4057 10.8298 15.4057 11.3798 15.1032L16.9165 12.0782V14.654C16.9165 15.3232 16.5498 15.9465 15.9632 16.2673L11.3798 18.7698C10.8298 19.0723 10.1698 19.0723 9.61985 18.7698L5.03652 16.2673C4.44985 15.9465 4.08318 15.3232 4.08318 14.654Z" fill="white"/>
</svg>
