    <svg width="24" height="24" viewBox="0 0 24 24" fill="none" xmlns="http://www.w3.org/2000/svg">
<path d="M9.68302 7.56208L12 9.88008L18.374 3.50508C18.5597 3.31928 18.7803 3.17189 19.023 3.07133C19.2657 2.97077 19.5258 2.91901 19.7885 2.91901C20.0512 2.91901 20.3114 2.97077 20.5541 3.07133C20.7968 3.17189 21.0173 3.31928 21.203 3.50508L21.91 4.21208L9.68302 16.4381C10.0454 17.2927 10.0993 18.2468 9.8354 19.1368C9.57151 20.0268 9.00629 20.7973 8.2366 21.3162C7.46692 21.8352 6.5407 22.0703 5.61669 21.9812C4.69268 21.8922 3.82841 21.4845 3.17201 20.8281C2.5156 20.1717 2.10794 19.3074 2.01888 18.3834C1.92983 17.4594 2.16492 16.5332 2.68388 15.7635C3.20283 14.9938 3.97333 14.4286 4.86333 14.1647C5.75332 13.9008 6.70739 13.9547 7.56202 14.3171L9.88002 12.0001L7.56202 9.68308C6.70739 10.0455 5.75332 10.0994 4.86333 9.83546C3.97333 9.57157 3.20283 9.00635 2.68388 8.23666C2.16492 7.46698 1.92983 6.54076 2.01888 5.61675C2.10794 4.69274 2.5156 3.82847 3.17201 3.17207C3.82841 2.51566 4.69268 2.108 5.61669 2.01894C6.5407 1.92989 7.46692 2.16498 8.2366 2.68394C9.00629 3.20289 9.57151 3.97339 9.8354 4.86339C10.0993 5.75338 10.0454 6.70745 9.68302 7.56208V7.56208ZM6.00002 8.00008C6.53045 8.00008 7.03916 7.78937 7.41423 7.4143C7.78931 7.03922 8.00002 6.53051 8.00002 6.00008C8.00002 5.46965 7.78931 4.96094 7.41423 4.58587C7.03916 4.21079 6.53045 4.00008 6.00002 4.00008C5.46959 4.00008 4.96088 4.21079 4.58581 4.58587C4.21073 4.96094 4.00002 5.46965 4.00002 6.00008C4.00002 6.53051 4.21073 7.03922 4.58581 7.4143C4.96088 7.78937 5.46959 8.00008 6.00002 8.00008V8.00008ZM6.00002 20.0001C6.53045 20.0001 7.03916 19.7894 7.41423 19.4143C7.78931 19.0392 8.00002 18.5305 8.00002 18.0001C8.00002 17.4696 7.78931 16.9609 7.41423 16.5859C7.03916 16.2108 6.53045 16.0001 6.00002 16.0001C5.46959 16.0001 4.96088 16.2108 4.58581 16.5859C4.21073 16.9609 4.00002 17.4696 4.00002 18.0001C4.00002 18.5305 4.21073 19.0392 4.58581 19.4143C4.96088 19.7894 5.46959 20.0001 6.00002 20.0001V20.0001ZM15.535 13.4131L21.91 19.7891L21.203 20.4961C21.0173 20.6819 20.7968 20.8293 20.5541 20.9298C20.3114 21.0304 20.0512 21.0822 19.7885 21.0822C19.5258 21.0822 19.2657 21.0304 19.023 20.9298C18.7803 20.8293 18.5597 20.6819 18.374 20.4961L13.414 15.5351L15.534 13.4131H15.535Z" fill="#8C8E92"/>
</svg>
