<svg width="18" height="18" viewBox="0 0 18 18" fill="none" xmlns="http://www.w3.org/2000/svg">
    <path fill-rule="evenodd" clip-rule="evenodd" d="M7.40053 2C10.3829 2 12.8005 4.41766 12.8005 7.4C12.8005 8.9112 12.1811 10.2759 11.1797 11.2572C10.2047 12.2126 8.87222 12.8 7.40053 12.8C4.41819 12.8 2.00053 10.3823 2.00053 7.4C2.00053 4.41766 4.41819 2 7.40053 2ZM14.8005 7.4C14.8005 3.31309 11.4874 0 7.40053 0C3.31362 0 0.000528336 3.31309 0.000528336 7.4C0.000528336 11.4869 3.31362 14.8 7.40053 14.8C9.0623 14.8 10.5973 14.2513 11.8324 13.3266L15.5864 17.0129C15.9804 17.3998 16.6136 17.3941 17.0005 17C17.3875 16.6059 17.3817 15.9728 16.9877 15.5858L13.2576 11.9231C14.2243 10.6728 14.8005 9.10307 14.8005 7.4Z" fill="#DFE3E7"/>
</svg>
