<svg width="20" height="20" viewBox="0 0 20 20" fill="none" xmlns="http://www.w3.org/2000/svg">
<path d="M17.7753 10.0098C17.7831 9.41258 17.4595 8.86366 16.9341 8.57554L4.69091 1.84875C4.14253 1.53882 3.49609 1.5769 2.97936 1.92975C2.45315 2.28855 2.18381 3.14266 2.33091 3.75955L3.47387 8.54811C3.5912 9.03914 4.03067 9.38488 4.53626 9.38272L11.3496 9.36159C11.6985 9.35459 11.9814 9.63755 11.9744 9.98645C11.9734 10.3294 11.6946 10.6082 11.3457 10.6152L4.52588 10.631C4.0203 10.632 3.57868 10.9793 3.4583 11.4711L2.27492 16.2787C2.13124 16.8468 2.29505 17.414 2.69591 17.8148C2.74307 17.862 2.79613 17.915 2.84922 17.9563C3.36834 18.3568 4.04821 18.4079 4.62867 18.0986L16.9134 11.4376C17.4406 11.1581 17.7675 10.6071 17.7753 10.0098Z" fill="url(#paint0_linear_1385_108)"/>
<defs>
<linearGradient id="paint0_linear_1385_108" x1="1.99824" y1="18.2985" x2="18.6219" y2="17.4061" gradientUnits="userSpaceOnUse">
<stop stop-color="#6AB1FE"/>
<stop offset="1" stop-color="#2B89EF"/>
</linearGradient>
</defs>
</svg>
