<svg width="20" height="16" viewBox="0 0 20 16" fill="none" xmlns="http://www.w3.org/2000/svg">
<path fill-rule="evenodd" clip-rule="evenodd" d="M0.891367 4.4399L8.61887 0.223235C9.16887 -0.0700985 9.82887 -0.0700985 10.3789 0.223235L19.1055 4.98073C19.3989 5.14573 19.5822 5.44823 19.5822 5.7874V11.6632C19.5822 12.1674 19.1697 12.5799 18.6655 12.5799C18.1614 12.5799 17.7489 12.1674 17.7489 11.6632V6.24573L10.3789 10.2699C9.82887 10.5724 9.16887 10.5724 8.61887 10.2699L0.891367 6.05323C0.258867 5.7049 0.258867 4.78823 0.891367 4.4399ZM3.08221 11.6541V9.07824L8.61888 12.1032C9.16888 12.4057 9.82888 12.4057 10.3789 12.1032L15.9155 9.07824V11.6541C15.9155 12.3232 15.5489 12.9466 14.9622 13.2674L10.3789 15.7699C9.82888 16.0724 9.16888 16.0724 8.61888 15.7699L4.03554 13.2674C3.44888 12.9466 3.08221 12.3232 3.08221 11.6541Z" fill="#1C1C1C"/>
</svg>
