<svg width="22" height="22" viewBox="0 0 22 22" fill="none" xmlns="http://www.w3.org/2000/svg">
<path d="M3.83488 11.5367C4.85592 10.9079 6.1441 10.9079 7.16514 11.5367V11.5367C8.10375 12.1147 8.67544 13.1382 8.67544 14.2405V14.6042C8.67544 15.7065 8.10375 16.73 7.16514 17.308V17.308C6.1441 17.9368 4.85592 17.9368 3.83488 17.308V17.308C2.89627 16.73 2.32458 15.7065 2.32458 14.6042V14.2405C2.32458 13.1382 2.89627 12.1147 3.83488 11.5367V11.5367Z" stroke="#4C4C4C" stroke-width="1.5"/>
<path d="M14.8349 11.5367C15.8559 10.9079 17.1441 10.9079 18.1651 11.5367V11.5367C19.1038 12.1147 19.6754 13.1382 19.6754 14.2405V14.6042C19.6754 15.7065 19.1038 16.73 18.1651 17.308V17.308C17.1441 17.9368 15.8559 17.9368 14.8349 17.308V17.308C13.8963 16.73 13.3246 15.7065 13.3246 14.6042V14.2405C13.3246 13.1382 13.8963 12.1147 14.8349 11.5367V11.5367Z" stroke="#4C4C4C" stroke-width="1.5"/>
<path d="M9.16669 14.4224H12.8334" stroke="#4C4C4C" stroke-width="1.5" stroke-linecap="round"/>
<path d="M19.25 12.4667L16.5532 4.33009C16.422 3.93409 16.0517 3.66675 15.6345 3.66675V3.66675C15.1 3.66675 14.6667 4.10006 14.6667 4.63458V5.13341" stroke="#4C4C4C" stroke-width="1.5" stroke-linecap="round"/>
<path d="M2.75001 12.4667L5.59727 4.26665C5.72197 3.90751 6.06043 3.66675 6.44061 3.66675V3.66675C6.93365 3.66675 7.33334 4.06644 7.33334 4.55948V5.13341" stroke="#4C4C4C" stroke-width="1.5" stroke-linecap="round"/>
</svg>
