<svg width="17" height="4" viewBox="0 0 17 4" fill="none" xmlns="http://www.w3.org/2000/svg">
<path fill-rule="evenodd" clip-rule="evenodd" d="M4.44896 2.00001C4.44896 2.39557 4.33169 2.78225 4.11193 3.11115C3.89216 3.44005 3.5798 3.69641 3.21434 3.84779C2.84889 3.99916 2.44673 4.03873 2.05877 3.96156C1.6708 3.88439 1.31448 3.6939 1.03478 3.41419C0.755074 3.13449 0.564586 2.77817 0.487416 2.39021C0.410245 2.00224 0.44981 1.60008 0.601185 1.23463C0.752561 0.869175 1.00892 0.556807 1.33782 0.337044C1.66672 0.117281 2.0534 7.62939e-06 2.44896 7.62939e-06C2.9794 7.62939e-06 3.48808 0.21075 3.86315 0.585823C4.23822 0.960896 4.44896 1.46957 4.44896 2.00001ZM16.449 2.00001C16.449 2.39557 16.3317 2.78225 16.1119 3.11115C15.8922 3.44005 15.5798 3.69641 15.2143 3.84779C14.8489 3.99916 14.4467 4.03873 14.0588 3.96156C13.6708 3.88439 13.3145 3.6939 13.0348 3.41419C12.7551 3.13449 12.5646 2.77817 12.4874 2.39021C12.4102 2.00224 12.4498 1.60008 12.6012 1.23463C12.7526 0.869175 13.0089 0.556807 13.3378 0.337044C13.6667 0.117281 14.0534 7.62939e-06 14.449 7.62939e-06C14.9794 7.62939e-06 15.4881 0.21075 15.8631 0.585823C16.2382 0.960896 16.449 1.46957 16.449 2.00001ZM10.449 2.00001C10.449 2.39557 10.3317 2.78225 10.1119 3.11115C9.89217 3.44005 9.5798 3.69641 9.21434 3.84779C8.84889 3.99916 8.44673 4.03873 8.05877 3.96156C7.6708 3.88439 7.31448 3.6939 7.03478 3.41419C6.75507 3.13449 6.56459 2.77817 6.48742 2.39021C6.41025 2.00224 6.44981 1.60008 6.60119 1.23463C6.75256 0.869175 7.00892 0.556807 7.33782 0.337044C7.66672 0.117281 8.0534 7.62939e-06 8.44896 7.62939e-06C8.9794 7.62939e-06 9.48808 0.21075 9.86315 0.585823C10.2382 0.960896 10.449 1.46957 10.449 2.00001Z" fill="#8C8E92"/>
</svg>
