<svg width="16" height="16" viewBox="0 0 16 16" fill="none" xmlns="http://www.w3.org/2000/svg">
<g opacity="0.7">
<path d="M15.9446 6.23517L15.9995 3.0888C16.0283 1.44223 14.7168 0.0841159 13.0702 0.0553748L9.92382 0.000454789C9.11201 -0.0137155 8.32952 0.303775 7.75709 0.879595L0.867147 7.81034C-0.277174 8.96143 -0.290623 10.8164 0.836886 11.9839L3.6513 14.8984C4.77881 16.0659 6.63309 16.1172 7.82342 15.0138L14.9904 8.3699C15.5858 7.81792 15.9304 7.04699 15.9446 6.23517ZM14.4539 6.20915C14.4468 6.61506 14.2745 7.00052 13.9768 7.27652L6.80984 13.9204C6.21467 14.4721 5.28753 14.4465 4.72378 13.8627L1.90936 10.9483C1.34561 10.3645 1.35233 9.43701 1.9245 8.86146L8.81443 1.93072C9.10065 1.64281 9.49189 1.48406 9.8978 1.49115L13.0442 1.54607C13.8675 1.56044 14.5232 2.2395 14.5088 3.06278L14.4539 6.20915ZM11.0811 7.06213C12.3162 7.06213 13.3175 6.06087 13.3175 4.82575C13.3175 3.59063 12.3162 2.58937 11.0811 2.58937C9.84601 2.58937 8.84475 3.59063 8.84475 4.82575C8.84475 6.06087 9.84601 7.06213 11.0811 7.06213ZM11.0811 5.57121C10.6694 5.57121 10.3357 5.23745 10.3357 4.82575C10.3357 4.41404 10.6694 4.08029 11.0811 4.08029C11.4928 4.08029 11.8266 4.41404 11.8266 4.82575C11.8266 5.23745 11.4928 5.57121 11.0811 5.57121Z" fill="url(#paint0_linear)"/>
</g>
<defs>
<linearGradient id="paint0_linear" x1="16.2319" y1="15.8088" x2="-0.862261" y2="14.8139" gradientUnits="userSpaceOnUse">
<stop stop-color="#6AB1FE"/>
<stop offset="1" stop-color="#2B89EF"/>
</linearGradient>
</defs>
</svg>
