<svg width="22" height="22" viewBox="0 0 22 22" fill="none" xmlns="http://www.w3.org/2000/svg">
<path d="M3.83552 11.5367C4.85656 10.9079 6.14474 10.9079 7.16578 11.5367V11.5367C8.10439 12.1147 8.67608 13.1382 8.67608 14.2405V14.6042C8.67608 15.7065 8.10439 16.73 7.16578 17.308V17.308C6.14474 17.9368 4.85656 17.9368 3.83552 17.308V17.308C2.89691 16.73 2.32522 15.7065 2.32522 14.6042V14.2405C2.32522 13.1382 2.89691 12.1147 3.83552 11.5367V11.5367Z" stroke="white" stroke-width="1.5"/>
<path d="M14.8355 11.5367C15.8566 10.9079 17.1447 10.9079 18.1658 11.5367V11.5367C19.1044 12.1147 19.6761 13.1382 19.6761 14.2405V14.6042C19.6761 15.7065 19.1044 16.73 18.1658 17.308V17.308C17.1447 17.9368 15.8566 17.9368 14.8355 17.308V17.308C13.8969 16.73 13.3252 15.7065 13.3252 14.6042V14.2405C13.3252 13.1382 13.8969 12.1147 14.8355 11.5367V11.5367Z" stroke="white" stroke-width="1.5"/>
<path d="M9.16797 14.4224H12.8346" stroke="white" stroke-width="1.5" stroke-linecap="round"/>
<path d="M19.2513 12.4667L16.5545 4.33009C16.4232 3.93409 16.053 3.66675 15.6358 3.66675V3.66675C15.1013 3.66675 14.668 4.10006 14.668 4.63458V5.13341" stroke="white" stroke-width="1.5" stroke-linecap="round"/>
<path d="M2.75065 12.4667L5.59791 4.26665C5.72261 3.90751 6.06107 3.66675 6.44125 3.66675V3.66675C6.93429 3.66675 7.33398 4.06644 7.33398 4.55948V5.13341" stroke="white" stroke-width="1.5" stroke-linecap="round"/>
</svg>
