<svg width="20" height="16" viewBox="0 0 20 16" fill="none" xmlns="http://www.w3.org/2000/svg">
    <path d="M7 16H18C18.55 16 19.021 15.804 19.413 15.412C19.805 15.02 20.0007 14.5493 20 14V12H7V16ZM1.69779e-06 4H5V1.69779e-06H2C1.45 1.69779e-06 0.979002 0.196001 0.587002 0.588001C0.195002 0.980001 -0.000664969 1.45067 1.69779e-06 2V4ZM1.69779e-06 10H5V6H1.69779e-06V10ZM2 16H5V12H1.69779e-06V14C1.69779e-06 14.55 0.196002 15.021 0.588002 15.413C0.980002 15.805 1.45067 16.0007 2 16ZM7 10H20V6H7V10ZM7 4H20V2C20 1.45 19.804 0.979002 19.412 0.587002C19.02 0.195002 18.5493 -0.000664969 18 1.69779e-06H7V4Z" fill="#9DA6C4"/>
</svg>
