<svg width="42" height="42" viewBox="0 0 42 42" fill="none" xmlns="http://www.w3.org/2000/svg">
<circle cx="21" cy="21" r="20" fill="white" stroke="#F7F8FC" stroke-width="2"/>
<path fill-rule="evenodd" clip-rule="evenodd" d="M20.8434 19.5604L25.9765 14.4273C26.3309 14.073 26.9054 14.073 27.2598 14.4273C27.6141 14.7817 27.6141 15.3563 27.2598 15.7106L22.1267 20.8437L27.2598 25.9768C27.6141 26.3311 27.6141 26.9057 27.2598 27.26C26.9054 27.6144 26.3309 27.6144 25.9765 27.26L20.8434 22.127L15.7103 27.26C15.356 27.6144 14.7814 27.6144 14.4271 27.26C14.0727 26.9057 14.0727 26.3311 14.4271 25.9768L19.5602 20.8437L14.4271 15.7106C14.0727 15.3563 14.0727 14.7817 14.4271 14.4273C14.7814 14.073 15.356 14.073 15.7104 14.4273L20.8434 19.5604Z" fill="#F46A73" stroke="white" stroke-width="0.3"/>
</svg>
