<svg width="18" height="18" viewBox="0 0 18 18" fill="none" xmlns="http://www.w3.org/2000/svg">
<circle cx="9" cy="9" r="8.5" stroke="white"/>
<path d="M6.85792 12L6.47829 12.3254C6.56736 12.4293 6.69513 12.4922 6.8318 12.4993C6.96847 12.5065 7.1021 12.4573 7.20152 12.3632L6.85792 12ZM13.5444 6.36323C13.745 6.17347 13.7538 5.85701 13.564 5.6564C13.3743 5.45579 13.0578 5.447 12.8572 5.63677L13.5444 6.36323ZM5.18041 9.27461C5.0007 9.06494 4.68505 9.04066 4.47539 9.22037C4.26572 9.40008 4.24144 9.71573 4.42115 9.9254L5.18041 9.27461ZM7.20152 12.3632L13.5444 6.36323L12.8572 5.63677L6.51432 11.6368L7.20152 12.3632ZM7.23755 11.6746L5.18041 9.27461L4.42115 9.9254L6.47829 12.3254L7.23755 11.6746Z" fill="white"/>
</svg>
